<svg width="1302" height="2537" viewBox="0 0 1302 2537" fill="none" xmlns="http://www.w3.org/2000/svg">
<g clip-path="url(#clip0)">
<path d="M-1742.86 2504.22L2639.48 2504.22L2639.48 -0.774414L-1742.86 -0.774414V2504.22Z" fill="url(#paint0_linear)"/>
<path opacity="0.53" d="M110.488 1983.67C110.657 1984.64 110.285 1985.51 109.677 1985.65C109.069 1985.79 108.393 1985.06 108.224 1984.12C108.055 1983.18 108.427 1982.28 109.035 1982.14C109.643 1982 110.319 1982.73 110.488 1983.67Z" fill="white"/>
<g opacity="0.53">
<path opacity="0.53" d="M199.231 1979.42C199.433 1980.47 199.028 1981.44 198.318 1981.55C197.608 1981.65 196.932 1980.92 196.73 1979.88C196.527 1978.83 196.966 1977.86 197.642 1977.72C198.318 1977.58 199.028 1978.35 199.231 1979.42Z" fill="white"/>
</g>
<g opacity="0.52">
<path opacity="0.52" d="M355.29 2074.94C355.459 2073.06 356.608 2071.64 357.825 2071.74C359.041 2071.85 359.886 2073.48 359.717 2075.22C359.548 2076.96 358.399 2078.49 357.183 2078.39C355.966 2078.28 355.29 2076.79 355.29 2074.94Z" fill="white"/>
</g>
<g opacity="0.52">
<path opacity="0.52" d="M146.377 1948.78C146.174 1950.94 144.856 1952.54 143.471 1952.26C142.085 1951.98 141.139 1950.24 141.342 1948.12C141.545 1946 142.862 1944.36 144.248 1944.64C145.634 1944.92 146.614 1946.66 146.377 1948.78Z" fill="white"/>
</g>
<g opacity="0.52">
<path opacity="0.52" d="M337.413 1943.63C338.001 1943.88 338.493 1944.32 338.816 1944.89C339.139 1945.45 339.275 1946.11 339.204 1946.76C339.15 1947.05 339.03 1947.32 338.855 1947.55C338.68 1947.78 338.454 1947.96 338.197 1948.08C337.94 1948.2 337.658 1948.26 337.375 1948.25C337.091 1948.24 336.815 1948.16 336.568 1948.01C335.977 1947.77 335.482 1947.33 335.158 1946.76C334.834 1946.19 334.7 1945.54 334.777 1944.88C334.838 1944.6 334.961 1944.34 335.138 1944.11C335.314 1943.89 335.538 1943.71 335.794 1943.59C336.049 1943.46 336.328 1943.41 336.609 1943.41C336.889 1943.42 337.165 1943.5 337.413 1943.63V1943.63Z" fill="white"/>
</g>
<g opacity="0.52">
<path opacity="0.52" d="M522.637 2001.89C522.596 2002.17 522.455 2002.43 522.243 2002.61C522.031 2002.79 521.762 2002.88 521.488 2002.87C521.361 2002.86 521.238 2002.82 521.127 2002.75C521.016 2002.69 520.919 2002.6 520.843 2002.5C520.766 2002.39 520.712 2002.27 520.683 2002.14C520.655 2002.02 520.653 2001.88 520.677 2001.76C520.718 2001.49 520.854 2001.24 521.06 2001.07C521.266 2000.89 521.526 2000.8 521.792 2000.82C521.918 2000.82 522.042 2000.86 522.154 2000.92C522.266 2000.98 522.366 2001.06 522.445 2001.16C522.525 2001.27 522.583 2001.38 522.616 2001.51C522.649 2001.63 522.656 2001.77 522.637 2001.89Z" fill="white"/>
</g>
<path d="M272.597 1879.21C272.597 1880.71 271.515 1881.85 270.535 1881.75C269.555 1881.65 268.879 1880.32 269.015 1878.83C269.15 1877.33 270.096 1876.18 271.076 1876.29C272.056 1876.39 272.732 1877.68 272.597 1879.21Z" fill="white"/>
<g opacity="0.57">
<path opacity="0.57" d="M459.408 2067.57C458.935 2065.27 459.746 2063.19 461.233 2062.87C462.72 2062.56 464.275 2064.13 464.613 2066.35C464.951 2068.58 464.275 2070.73 462.788 2071.05C461.301 2071.36 460.051 2069.83 459.408 2067.57Z" fill="white"/>
</g>
<path d="M47.7666 1048.45C48.1384 1050.58 47.3274 1052.52 45.9419 1052.8C44.5563 1053.08 43.1032 1051.51 42.5625 1049.32C42.0218 1047.13 43.0018 1045.25 44.3873 1044.97C45.7728 1044.7 47.3611 1046.3 47.7666 1048.45Z" fill="white"/>
<path opacity="0.53" d="M27.1864 106.944C27.1864 107.918 26.9837 108.787 26.3754 108.892C25.7671 108.996 25.0912 108.335 24.9222 107.361C24.7532 106.387 25.125 105.518 25.7333 105.413C26.3416 105.309 27.0175 105.97 27.1864 106.944Z" fill="white"/>
<g opacity="0.53">
<path opacity="0.53" d="M115.929 102.665C116.098 103.744 115.692 104.683 115.016 104.822C114.341 104.961 113.631 104.196 113.428 103.152C113.225 102.109 113.665 101.135 114.34 100.996C115.016 100.857 115.726 101.622 115.929 102.665Z" fill="white"/>
</g>
<path d="M223.494 209.279C223.494 207.992 224.407 207.018 225.252 207.088C226.097 207.158 226.671 208.271 226.536 209.558C226.401 210.845 225.657 211.819 224.812 211.749C223.968 211.68 223.494 210.566 223.494 209.279Z" fill="white"/>
<g opacity="0.52">
<path opacity="0.52" d="M272.056 198.184C272.056 196.305 273.374 194.705 274.59 195.018C275.807 195.331 276.652 196.758 276.483 198.497C276.314 200.236 275.165 201.975 273.948 201.697C272.732 201.419 271.887 200.062 272.056 198.184Z" fill="white"/>
</g>
<path d="M363.603 452.63C363.603 452.004 364.009 451.552 364.414 451.587C364.82 451.621 365.057 452.143 365.023 452.734C364.989 453.326 364.583 453.813 364.212 453.778C363.84 453.743 363.536 453.221 363.603 452.63Z" fill="white"/>
<path d="M173.919 435.76C173.919 434.96 174.494 434.334 175 434.369C175.507 434.403 175.913 435.134 175.845 435.969C175.778 436.803 175.271 437.395 174.73 437.36C174.189 437.325 173.818 436.595 173.919 435.76Z" fill="white"/>
<path d="M193.08 359.513C192.742 362.713 190.816 365.113 188.721 364.905C186.626 364.696 185.341 361.878 185.544 358.678C185.747 355.478 187.808 353.078 189.904 353.287C191.999 353.495 193.486 356.313 193.08 359.513Z" fill="white"/>
<g opacity="0.52">
<path opacity="0.52" d="M63.0755 72.0546C62.8727 74.1765 61.5547 75.8113 60.1691 75.5331C58.7836 75.2548 57.8036 73.5503 58.0402 71.3937C58.2767 69.2371 59.561 67.637 60.9465 67.9153C62.332 68.1935 63.3121 69.898 63.0755 72.0546Z" fill="white"/>
</g>
<g opacity="0.52">
<path opacity="0.52" d="M254.112 66.9063C254.699 67.1582 255.191 67.5996 255.514 68.1642C255.837 68.7287 255.974 69.3858 255.903 70.0369C255.838 70.3162 255.711 70.5763 255.533 70.7974C255.355 71.0185 255.13 71.1946 254.875 71.3122C254.621 71.4298 254.343 71.4857 254.065 71.4756C253.786 71.4656 253.513 71.3899 253.267 71.2543C252.679 71.0136 252.184 70.5795 251.86 70.0197C251.536 69.4599 251.401 68.8056 251.476 68.1585C251.53 67.8723 251.65 67.6034 251.825 67.3741C252 67.1447 252.226 66.9613 252.483 66.8391C252.74 66.7169 253.022 66.6592 253.305 66.6709C253.588 66.6826 253.865 66.7633 254.112 66.9063V66.9063Z" fill="white"/>
</g>
<g opacity="0.52">
<path opacity="0.52" d="M282.126 288.831C282.069 289.153 281.901 289.443 281.653 289.648C281.404 289.853 281.092 289.958 280.775 289.944C280.627 289.936 280.483 289.897 280.352 289.828C280.221 289.759 280.105 289.662 280.012 289.544C279.92 289.426 279.853 289.289 279.815 289.142C279.778 288.995 279.77 288.842 279.794 288.692C279.851 288.37 280.02 288.079 280.268 287.875C280.516 287.67 280.828 287.565 281.146 287.579C281.293 287.587 281.437 287.626 281.569 287.695C281.7 287.764 281.816 287.861 281.908 287.979C282.001 288.097 282.068 288.234 282.106 288.381C282.143 288.528 282.15 288.681 282.126 288.831V288.831Z" fill="white"/>
</g>
<g opacity="0.52">
<path opacity="0.52" d="M171.722 281.283C171.649 281.722 171.424 282.118 171.088 282.4C170.753 282.681 170.33 282.828 169.897 282.813C169.692 282.797 169.492 282.737 169.311 282.636C169.129 282.536 168.97 282.399 168.843 282.232C168.716 282.065 168.624 281.873 168.573 281.668C168.521 281.462 168.512 281.248 168.546 281.039C168.612 280.597 168.835 280.196 169.172 279.913C169.509 279.63 169.936 279.486 170.371 279.509C170.576 279.525 170.775 279.585 170.957 279.685C171.139 279.785 171.298 279.923 171.425 280.09C171.552 280.257 171.644 280.449 171.695 280.654C171.746 280.859 171.756 281.073 171.722 281.283Z" fill="white"/>
</g>
<g opacity="0.52">
<path opacity="0.52" d="M151.48 333.842C151.441 334.041 151.334 334.22 151.18 334.347C151.026 334.475 150.833 334.542 150.635 334.538C150.541 334.535 150.449 334.511 150.365 334.467C150.281 334.423 150.207 334.361 150.149 334.285C150.091 334.208 150.05 334.12 150.029 334.025C150.008 333.931 150.007 333.833 150.027 333.738C150.067 333.542 150.175 333.367 150.33 333.245C150.485 333.124 150.677 333.064 150.872 333.077C150.961 333.086 151.047 333.112 151.126 333.156C151.205 333.199 151.274 333.258 151.331 333.329C151.387 333.4 151.43 333.482 151.455 333.57C151.481 333.658 151.489 333.751 151.48 333.842V333.842Z" fill="white"/>
</g>
<g opacity="0.52">
<path opacity="0.52" d="M439.301 125.171C439.26 125.441 439.124 125.686 438.918 125.859C438.712 126.033 438.452 126.122 438.186 126.11C438.06 126.102 437.936 126.067 437.824 126.007C437.712 125.947 437.613 125.864 437.533 125.762C437.454 125.661 437.396 125.544 437.363 125.418C437.33 125.292 437.322 125.161 437.341 125.032C437.389 124.755 437.531 124.506 437.742 124.327C437.952 124.149 438.218 124.053 438.49 124.058C438.617 124.07 438.74 124.109 438.851 124.173C438.962 124.237 439.059 124.325 439.136 124.429C439.212 124.534 439.266 124.654 439.295 124.782C439.323 124.91 439.325 125.042 439.301 125.171V125.171Z" fill="white"/>
</g>
<g opacity="0.52">
<path opacity="0.52" d="M180.103 309.111C180.369 308.884 180.704 308.761 181.049 308.761C181.395 308.761 181.729 308.884 181.995 309.111C182.118 309.222 182.216 309.358 182.283 309.511C182.35 309.664 182.384 309.83 182.384 309.998C182.384 310.165 182.35 310.331 182.283 310.484C182.216 310.637 182.118 310.774 181.995 310.885C181.735 311.124 181.398 311.257 181.049 311.257C180.7 311.257 180.363 311.124 180.103 310.885C179.981 310.774 179.883 310.637 179.816 310.484C179.749 310.331 179.714 310.165 179.714 309.998C179.714 309.83 179.749 309.664 179.816 309.511C179.883 309.358 179.981 309.222 180.103 309.111V309.111Z" fill="white"/>
</g>
<g opacity="0.52">
<path opacity="0.52" d="M291.657 422.646C292.015 422.319 292.478 422.138 292.958 422.138C293.437 422.138 293.9 422.319 294.259 422.646C294.426 422.803 294.559 422.993 294.651 423.206C294.742 423.419 294.789 423.649 294.789 423.881C294.789 424.114 294.742 424.344 294.651 424.556C294.559 424.769 294.426 424.959 294.259 425.116C293.9 425.444 293.437 425.625 292.958 425.625C292.478 425.625 292.015 425.444 291.657 425.116C291.485 424.962 291.347 424.773 291.252 424.56C291.158 424.347 291.109 424.115 291.109 423.881C291.109 423.647 291.158 423.416 291.252 423.202C291.347 422.989 291.485 422.8 291.657 422.646V422.646Z" fill="white"/>
</g>
<path d="M189.261 2.45112C189.261 3.98163 188.214 5.09473 187.234 4.99038C186.254 4.88602 185.578 3.599 185.713 2.06849C185.848 0.53798 186.794 -0.575119 187.774 -0.470766C188.754 -0.366413 189.43 0.955392 189.261 2.45112Z" fill="white"/>
<g opacity="0.57">
<path opacity="0.57" d="M376.107 190.844C375.634 188.583 376.446 186.496 377.932 186.148C379.419 185.8 380.974 187.435 381.312 189.627C381.65 191.818 380.974 194.01 379.487 194.323C378 194.636 376.581 193.105 376.107 190.844Z" fill="white"/>
</g>
<path d="M259.823 769.621C259.823 768.299 260.397 767.255 261.242 767.186C262.087 767.116 262.797 768.195 262.865 769.482C262.932 770.769 262.256 771.847 261.411 771.882C260.566 771.917 259.857 770.908 259.823 769.621Z" fill="white"/>
<path d="M193.993 1074.79C193.993 1076.32 193.283 1077.53 192.303 1077.57C191.323 1077.6 190.478 1076.42 190.444 1074.92C190.41 1073.43 191.154 1072.14 192.134 1072.11C193.114 1072.07 193.959 1073.29 193.993 1074.79Z" fill="white"/>
<g opacity="0.57">
<path opacity="0.57" d="M291.859 731.914C291.555 730.418 292.096 729.062 293.076 728.853C294.056 728.644 295.07 729.653 295.374 731.149C295.678 732.644 295.137 734.001 294.157 734.21C293.177 734.418 292.163 733.479 291.859 731.914Z" fill="white"/>
</g>
<g opacity="0.57">
<path opacity="0.57" d="M151.547 1022.4C151.345 1021.43 151.547 1020.52 152.358 1020.38C153.169 1020.24 153.676 1020.9 153.879 1021.91C154.082 1022.92 153.879 1023.79 153.068 1023.93C152.257 1024.07 151.75 1023.37 151.547 1022.4Z" fill="white"/>
</g>
<g opacity="0.57">
<path opacity="0.57" d="M350.627 745.306C350.627 744.854 350.627 744.471 350.998 744.402C351.37 744.332 351.573 744.645 351.674 745.097C351.776 745.549 351.674 745.932 351.303 746.002C350.931 746.071 350.728 745.758 350.627 745.306Z" fill="white"/>
</g>
<path d="M19.4475 1276.36C19.7854 1275.98 20.2248 1275.87 20.4613 1276.08C20.6979 1276.29 20.6303 1276.78 20.4613 1277.13C20.2924 1277.47 19.7179 1277.65 19.4813 1277.4C19.2448 1277.16 19.1434 1276.74 19.4475 1276.36Z" fill="white"/>
<path d="M158.644 1493.45C158.776 1493.25 158.976 1493.1 159.206 1493.03C159.436 1492.97 159.681 1493 159.895 1493.1C160.043 1493.29 160.124 1493.52 160.124 1493.76C160.124 1494.01 160.043 1494.24 159.895 1494.43C159.489 1494.88 158.948 1495.05 158.644 1494.77C158.34 1494.5 158.272 1493.9 158.644 1493.45Z" fill="white"/>
<path d="M10.5935 1699.27C9.17411 1700.87 7.21402 1701.43 6.1326 1700.45C5.05119 1699.48 5.35531 1697.39 6.74088 1695.76C8.12644 1694.12 10.1203 1693.6 11.2017 1694.57C12.2832 1695.55 11.9452 1697.64 10.5935 1699.27Z" fill="white"/>
<path opacity="0.53" d="M268.88 1371.99C267.663 1373.38 265.94 1373.86 265.027 1373.03C264.115 1372.19 264.352 1370.35 265.568 1368.96C266.785 1367.57 268.508 1367.08 269.421 1367.92C270.333 1368.75 270.096 1370.56 268.88 1371.99Z" fill="white"/>
<g opacity="0.53">
<path opacity="0.53" d="M166.856 1580.2C165.538 1581.77 163.477 1582.26 162.665 1581.35C161.854 1580.45 161.922 1578.43 163.24 1576.9C164.558 1575.37 166.619 1574.85 167.464 1575.75C168.309 1576.66 168.174 1578.74 166.856 1580.2Z" fill="white"/>
</g>
<path opacity="0.53" d="M21.1712 1304.47C20.7319 1304.92 20.1573 1305.09 19.8531 1304.81C19.7084 1304.6 19.6455 1304.34 19.6768 1304.08C19.708 1303.83 19.8312 1303.59 20.0222 1303.42C20.4615 1302.93 21.036 1302.8 21.3402 1303.07C21.6443 1303.35 21.5768 1303.94 21.1712 1304.47Z" fill="white"/>
<path opacity="0.53" d="M314.94 1536.34C314.298 1537.07 313.386 1537.32 312.912 1536.86C312.439 1536.41 312.574 1535.47 313.183 1534.74C313.791 1534.01 314.737 1533.77 315.211 1534.22C315.684 1534.67 315.548 1535.61 314.94 1536.34Z" fill="white"/>
<g opacity="0.53">
<path opacity="0.53" d="M106.534 1208.63C105.554 1209.78 104.168 1210.17 103.425 1209.47C102.682 1208.77 102.884 1207.35 103.864 1206.2C104.844 1205.05 106.23 1204.7 106.974 1205.36C107.717 1206.03 107.514 1207.52 106.534 1208.63Z" fill="white"/>
</g>
<path d="M73.6189 1316.81C73.2472 1317.27 72.7063 1317.44 72.4021 1317.2C72.2406 1317.02 72.1511 1316.78 72.1511 1316.54C72.1511 1316.29 72.2406 1316.05 72.4021 1315.87C72.5286 1315.66 72.726 1315.51 72.9566 1315.44C73.1872 1315.37 73.4348 1315.39 73.6525 1315.49C74.0581 1315.74 73.9907 1316.33 73.6189 1316.81Z" fill="white"/>
<path d="M31.1403 1322.48C30.6333 1323.11 29.856 1323.35 29.4504 1323.01C29.0449 1322.66 29.1125 1321.86 29.6195 1321.23C30.1264 1320.61 30.8699 1320.33 31.3092 1320.71C31.7485 1321.09 31.6472 1321.86 31.1403 1322.48Z" fill="white"/>
<path d="M146.715 1331.32C148.743 1328.85 151.649 1327.84 153.271 1329.37C154.893 1330.9 154.522 1333.89 152.528 1336.33C150.534 1338.76 147.594 1339.81 145.972 1338.28C144.35 1336.75 144.722 1333.79 146.715 1331.32Z" fill="white"/>
<g opacity="0.57">
<path opacity="0.57" d="M61.8247 1445.87C63.0075 1444.41 64.731 1443.92 65.6772 1444.72C66.6234 1445.52 66.4207 1447.36 65.2379 1448.79C64.0551 1450.21 62.3316 1450.74 61.4192 1449.94C60.5068 1449.14 60.6758 1447.29 61.8247 1445.87Z" fill="white"/>
</g>
<path d="M76.7279 1712.91C77.6742 1712.07 78.8907 1711.93 79.4314 1712.59C79.9721 1713.25 79.6343 1714.47 78.688 1715.31C77.7418 1716.14 76.525 1716.28 75.9843 1715.62C75.4436 1714.96 75.7479 1713.74 76.7279 1712.91Z" fill="white"/>
<path d="M80.4791 1834.1C79.3301 1835.07 77.9107 1835.21 77.3024 1834.44C76.6941 1833.68 77.0659 1832.25 78.1811 1831.28C79.2963 1830.3 80.7495 1830.16 81.3578 1830.93C81.9661 1831.7 81.5606 1833.12 80.4791 1834.1Z" fill="white"/>
<g opacity="0.57">
<path opacity="0.57" d="M125.492 1715.69C126.438 1714.54 127.824 1714.12 128.567 1714.79C129.311 1715.45 129.176 1716.91 128.23 1718.06C127.283 1719.2 125.898 1719.66 125.154 1718.99C124.411 1718.33 124.377 1716.87 125.492 1715.69Z" fill="white"/>
</g>
<g opacity="0.57">
<path opacity="0.57" d="M94.4362 1767.41C95.0445 1766.65 95.9568 1766.37 96.4637 1766.79C96.9707 1767.21 96.8694 1768.21 96.2274 1768.98C95.5853 1769.74 94.7065 1770.02 94.1996 1769.61C93.6926 1769.19 93.7941 1768.18 94.4362 1767.41Z" fill="white"/>
</g>
<g opacity="0.57">
<path opacity="0.57" d="M151.243 1771.59C151.547 1771.24 151.953 1771.14 152.155 1771.34C152.358 1771.55 152.358 1771.97 152.155 1772.32C151.953 1772.67 151.48 1772.77 151.243 1772.56C151.006 1772.35 150.973 1771.94 151.243 1771.59Z" fill="white"/>
</g>
<path d="M451.873 620.36C453.664 619.978 455.253 620.673 455.591 621.926C455.928 623.178 454.577 624.5 452.752 624.882C450.927 625.265 449.372 624.569 449.034 623.317C448.697 622.065 449.913 620.743 451.873 620.36Z" fill="white"/>
<path d="M444.033 994.362C441.971 994.779 440.079 993.979 439.808 992.553C439.538 991.127 440.991 989.631 443.188 989.075C445.384 988.518 447.175 989.457 447.446 990.883C447.716 992.31 446.128 993.84 444.033 994.362Z" fill="white"/>
<path opacity="0.53" d="M46.6178 593.994C44.8267 594.377 43.2385 593.646 42.9681 592.429C42.6978 591.211 43.9818 589.89 45.7729 589.542C47.564 589.194 49.1524 589.89 49.4566 591.107C49.7607 592.324 48.4426 593.646 46.6178 593.994Z" fill="white"/>
<g opacity="0.53">
<path opacity="0.53" d="M1016.97 1524.72C1015.96 1524.93 1015.01 1524.55 1014.88 1523.82C1014.74 1523.09 1015.45 1522.39 1016.5 1522.18C1017.55 1521.98 1018.46 1522.39 1018.59 1523.09C1018.73 1523.78 1017.99 1524.55 1016.97 1524.72Z" fill="white"/>
</g>
<g opacity="0.53">
<path opacity="0.53" d="M13.9729 362.747C12.5198 363.061 11.2018 362.469 10.999 361.495C10.7962 360.521 11.8438 359.443 13.297 359.165C14.7501 358.886 16.0682 359.443 16.2372 360.417C16.4061 361.391 15.3923 362.469 13.9729 362.747Z" fill="white"/>
</g>
<g opacity="0.52">
<path opacity="0.52" d="M20.7313 789.935C18.6361 789.726 17.0815 788.404 17.3519 786.978C17.6222 785.552 19.2782 784.543 21.3734 784.717C23.4687 784.891 25.0232 786.248 24.7528 787.708C24.4825 789.169 22.6914 790.143 20.7313 789.935Z" fill="white"/>
</g>
<path d="M458.834 593.577C457.617 593.89 456.468 593.577 456.299 592.603C456.13 591.629 456.941 590.829 458.158 590.516C459.375 590.203 460.524 590.516 460.726 591.525C460.929 592.534 460.051 593.264 458.834 593.577Z" fill="white"/>
<path d="M511.924 648.292C513.377 647.945 514.695 648.466 514.898 649.475C515.101 650.484 514.155 651.527 512.702 651.84C511.248 652.154 509.93 651.632 509.728 650.658C509.525 649.684 510.505 648.606 511.924 648.292Z" fill="white"/>
<path d="M488.573 1046.54C489.823 1046.54 490.871 1047.13 490.938 1047.97C491.006 1048.8 489.992 1049.6 488.742 1049.67C487.491 1049.74 486.444 1049.08 486.376 1048.24C486.308 1047.41 487.322 1046.54 488.573 1046.54Z" fill="white"/>
<path d="M420.073 1145.12C418.62 1145.12 417.403 1144.42 417.369 1143.41C417.335 1142.41 418.484 1141.54 419.938 1141.47C421.391 1141.4 422.607 1142.16 422.675 1143.17C422.743 1144.18 421.56 1145.05 420.073 1145.12Z" fill="white"/>
<g opacity="0.57">
<path opacity="0.57" d="M470.493 1100.84C471.473 1100.63 472.352 1100.84 472.487 1101.64C472.622 1102.44 471.98 1102.99 471.034 1103.2C470.088 1103.41 469.175 1103.2 469.04 1102.44C468.905 1101.67 469.547 1101.05 470.493 1100.84Z" fill="white"/>
</g>
<g opacity="0.57">
<path opacity="0.57" d="M513.209 1139.69C513.614 1139.69 514.02 1139.69 514.087 1140.04C514.155 1140.39 513.851 1140.63 513.411 1140.74C512.972 1140.84 512.601 1140.74 512.533 1140.39C512.466 1140.04 512.769 1139.76 513.209 1139.69Z" fill="white"/>
</g>
<path d="M427.778 1410.91C426.291 1410.91 425.075 1410.21 425.041 1409.21C425.007 1408.2 426.156 1407.33 427.609 1407.26C429.062 1407.19 430.312 1407.95 430.346 1408.96C430.38 1409.97 429.231 1410.87 427.778 1410.91Z" fill="white"/>
<g opacity="0.57">
<path opacity="0.57" d="M478.199 1366.56C479.145 1366.32 480.024 1366.56 480.159 1367.32C480.294 1368.09 479.652 1368.72 478.706 1368.92C477.759 1369.13 476.847 1368.92 476.712 1368.12C476.577 1367.32 477.219 1366.87 478.199 1366.56Z" fill="white"/>
</g>
<g opacity="0.57">
<path opacity="0.57" d="M520.879 1405.48C521.285 1405.48 521.69 1405.48 521.758 1405.83C521.826 1406.18 521.521 1406.46 521.116 1406.56C520.71 1406.67 520.271 1406.56 520.203 1406.21C520.136 1405.87 520.44 1405.59 520.879 1405.48Z" fill="white"/>
</g>
<g opacity="0.57">
<path opacity="0.57" d="M223.765 249.038C223.765 248.586 223.765 248.169 224.137 248.134C224.508 248.099 224.711 248.377 224.813 248.795C224.914 249.212 224.813 249.664 224.441 249.699C224.069 249.734 223.866 249.456 223.765 249.038Z" fill="white"/>
</g>
<path d="M467.959 449.466C467.959 449.851 467.848 450.227 467.64 450.548C467.432 450.868 467.136 451.118 466.791 451.265C466.445 451.413 466.064 451.451 465.697 451.376C465.33 451.301 464.993 451.115 464.728 450.843C464.463 450.571 464.283 450.223 464.21 449.846C464.137 449.468 464.175 449.076 464.318 448.72C464.461 448.364 464.704 448.06 465.015 447.846C465.326 447.632 465.692 447.518 466.066 447.518C466.568 447.518 467.05 447.723 467.405 448.088C467.759 448.453 467.959 448.949 467.959 449.466V449.466Z" fill="white"/>
<path d="M338.934 464.527C339.068 465.025 339.005 465.558 338.758 466.008C338.51 466.458 338.1 466.788 337.616 466.927C337.132 467.065 336.614 467 336.177 466.746C335.74 466.491 335.418 466.068 335.284 465.57C335.212 465.324 335.19 465.065 335.218 464.809C335.246 464.553 335.324 464.306 335.447 464.082C335.57 463.857 335.736 463.661 335.934 463.505C336.133 463.348 336.36 463.234 336.602 463.17C336.841 463.101 337.092 463.082 337.339 463.113C337.586 463.144 337.824 463.225 338.041 463.351C338.258 463.477 338.448 463.645 338.601 463.847C338.754 464.049 338.867 464.28 338.934 464.527V464.527Z" fill="white"/>
<path d="M1288 2360.39C1288 2361.68 1287.02 2362.61 1286.21 2362.51C1285.4 2362.41 1284.82 2361.29 1284.96 2360.01C1285.09 2358.72 1285.9 2357.78 1286.75 2357.88C1287.59 2357.99 1288.27 2359.1 1288 2360.39Z" fill="white"/>
<g opacity="0.52">
<path opacity="0.52" d="M1225.58 2290.16C1225.58 2290.89 1225.04 2291.48 1224.53 2291.41C1224.03 2291.34 1223.72 2290.68 1223.82 2289.95C1223.93 2289.22 1224.37 2288.63 1224.87 2288.7C1225.38 2288.77 1225.68 2289.39 1225.58 2290.16Z" fill="white"/>
</g>
<g opacity="0.52">
<path opacity="0.52" d="M1291.85 2307.9C1291.85 2308.7 1291.24 2309.32 1290.7 2309.25C1290.16 2309.18 1289.79 2308.45 1289.89 2307.65C1289.99 2306.85 1290.5 2306.23 1291.04 2306.3C1291.58 2306.37 1291.92 2307.06 1291.85 2307.9Z" fill="white"/>
</g>
<g opacity="0.52">
<path opacity="0.52" d="M1179.62 2067.29C1179.62 2066.56 1179.62 2065.86 1180.16 2065.73C1180.7 2065.59 1181.18 2066.11 1181.35 2066.84C1181.51 2067.57 1181.35 2068.26 1180.84 2068.37C1180.33 2068.47 1179.86 2068.02 1179.62 2067.29Z" fill="white"/>
</g>
<g opacity="0.52">
<path opacity="0.52" d="M1091.32 2114.74C1091.32 2114.15 1091.32 2113.59 1091.72 2113.49C1092.13 2113.38 1092.54 2113.76 1092.67 2114.36C1092.81 2114.95 1092.67 2115.5 1092.27 2115.61C1091.86 2115.71 1091.45 2115.33 1091.32 2114.74Z" fill="white"/>
</g>
<g opacity="0.52">
<path opacity="0.52" d="M1111.66 2075.92C1111.46 2075.15 1111.66 2074.39 1112.24 2074.25C1112.81 2074.11 1113.35 2074.63 1113.56 2075.43C1113.76 2076.23 1113.56 2077 1112.98 2077.13C1112.41 2077.27 1111.87 2076.72 1111.66 2075.92Z" fill="white"/>
</g>
<path d="M1220.41 2163.33C1220.58 2162.55 1221.01 2161.85 1221.63 2161.35C1222.25 2160.86 1223.01 2160.6 1223.79 2160.62C1224.16 2160.65 1224.51 2160.77 1224.83 2160.96C1225.14 2161.14 1225.42 2161.4 1225.63 2161.71C1225.84 2162.01 1225.99 2162.37 1226.05 2162.74C1226.12 2163.11 1226.11 2163.49 1226.02 2163.85C1225.84 2164.63 1225.41 2165.32 1224.79 2165.81C1224.18 2166.3 1223.42 2166.55 1222.64 2166.53C1222.28 2166.5 1221.93 2166.39 1221.61 2166.21C1221.29 2166.02 1221.02 2165.77 1220.8 2165.47C1220.59 2165.16 1220.45 2164.81 1220.38 2164.44C1220.31 2164.08 1220.32 2163.7 1220.41 2163.33V2163.33Z" fill="white"/>
<path d="M977.096 2069.2C977.363 2067.78 978.123 2066.5 979.235 2065.6C980.346 2064.71 981.735 2064.26 983.145 2064.33C983.801 2064.4 984.437 2064.6 985.01 2064.94C985.582 2065.27 986.077 2065.73 986.462 2066.29C986.847 2066.84 987.112 2067.47 987.239 2068.13C987.366 2068.8 987.353 2069.48 987.2 2070.14C986.94 2071.57 986.182 2072.86 985.068 2073.75C983.955 2074.65 982.562 2075.1 981.151 2075.01C980.495 2074.95 979.859 2074.75 979.286 2074.41C978.714 2074.07 978.219 2073.61 977.834 2073.06C977.449 2072.51 977.184 2071.88 977.057 2071.22C976.93 2070.55 976.943 2069.86 977.096 2069.2V2069.2Z" fill="white"/>
<path d="M1108.01 2255.48C1108.18 2254.69 1108.61 2253.99 1109.23 2253.5C1109.85 2253 1110.61 2252.74 1111.39 2252.76C1111.76 2252.8 1112.11 2252.91 1112.43 2253.1C1112.75 2253.29 1113.02 2253.54 1113.24 2253.85C1113.45 2254.16 1113.6 2254.51 1113.67 2254.88C1113.75 2255.25 1113.74 2255.63 1113.66 2256C1113.48 2256.78 1113.05 2257.48 1112.44 2257.98C1111.82 2258.47 1111.06 2258.73 1110.28 2258.71C1109.91 2258.68 1109.55 2258.57 1109.23 2258.39C1108.91 2258.2 1108.63 2257.94 1108.41 2257.64C1108.2 2257.33 1108.05 2256.98 1107.98 2256.6C1107.91 2256.23 1107.92 2255.85 1108.01 2255.48Z" fill="white"/>
<path d="M1128.56 2372.04C1128.56 2370.75 1129.37 2369.74 1130.21 2369.78C1131.06 2369.81 1131.67 2370.89 1131.6 2372.21C1131.53 2373.54 1130.79 2374.51 1129.94 2374.44C1129.1 2374.37 1128.49 2373.4 1128.56 2372.04Z" fill="white"/>
<g opacity="0.52">
<path opacity="0.52" d="M1195.47 2438.13C1195.47 2437.4 1195.94 2436.81 1196.42 2436.84C1196.89 2436.88 1197.3 2437.5 1197.26 2438.23C1197.23 2438.97 1196.79 2439.59 1196.28 2439.56C1195.78 2439.52 1195.44 2438.72 1195.47 2438.13Z" fill="white"/>
</g>
<g opacity="0.52">
<path opacity="0.52" d="M1097.17 2455.21C1097.17 2454.62 1097.57 2454.13 1097.94 2454.16C1098.31 2454.2 1098.62 2454.69 1098.58 2455.28C1098.55 2455.87 1098.21 2456.36 1097.84 2456.36C1097.47 2456.36 1097.13 2455.8 1097.17 2455.21Z" fill="white"/>
</g>
<g opacity="0.52">
<path opacity="0.52" d="M1128.22 2424.74C1128.22 2423.9 1128.73 2423.28 1129.27 2423.31C1129.81 2423.35 1130.22 2424.01 1130.18 2424.84C1130.15 2425.68 1129.64 2426.3 1129.1 2426.27C1128.56 2426.23 1128.19 2425.57 1128.22 2424.74Z" fill="white"/>
</g>
<path d="M817.927 2275.86C817.927 2277.36 816.947 2278.54 815.967 2278.47C814.986 2278.4 814.277 2277.11 814.378 2275.62C814.479 2274.12 815.324 2272.94 816.304 2273.01C817.284 2273.08 818.028 2274.37 817.927 2275.86Z" fill="white"/>
<g opacity="0.52">
<path opacity="0.52" d="M1300.5 2050.91C1300.38 2051.33 1300.12 2051.7 1299.76 2051.95C1299.4 2052.19 1298.97 2052.31 1298.54 2052.26C1298.35 2052.27 1298.15 2052.22 1297.97 2052.14C1297.79 2052.06 1297.64 2051.94 1297.51 2051.79C1297.38 2051.63 1297.28 2051.45 1297.23 2051.26C1297.17 2051.07 1297.16 2050.86 1297.19 2050.66C1297.31 2050.24 1297.58 2049.87 1297.93 2049.62C1298.29 2049.38 1298.72 2049.26 1299.15 2049.31C1299.35 2049.3 1299.54 2049.35 1299.72 2049.43C1299.9 2049.51 1300.06 2049.63 1300.19 2049.79C1300.31 2049.94 1300.41 2050.12 1300.46 2050.31C1300.52 2050.5 1300.53 2050.71 1300.5 2050.91Z" fill="white"/>
</g>
<g opacity="0.52">
<path opacity="0.52" d="M941.747 1916.4C942.385 1915.96 943.147 1915.76 943.908 1915.83C944.669 1915.9 945.385 1916.24 945.938 1916.78C946.214 1917.01 946.436 1917.3 946.588 1917.63C946.741 1917.96 946.82 1918.32 946.82 1918.69C946.82 1919.06 946.741 1919.42 946.588 1919.75C946.436 1920.08 946.214 1920.37 945.938 1920.6C945.294 1921.04 944.523 1921.24 943.754 1921.16C942.986 1921.09 942.266 1920.74 941.714 1920.19C941.441 1919.96 941.221 1919.67 941.072 1919.34C940.922 1919.01 940.846 1918.65 940.849 1918.28C940.853 1917.92 940.935 1917.56 941.09 1917.23C941.246 1916.91 941.47 1916.62 941.747 1916.4V1916.4Z" fill="white"/>
</g>
<path d="M858.31 1953.44C859.186 1952.84 860.233 1952.57 861.278 1952.68C862.323 1952.78 863.304 1953.24 864.055 1954C864.409 1954.32 864.693 1954.72 864.886 1955.17C865.08 1955.62 865.181 1956.1 865.181 1956.59C865.181 1957.08 865.08 1957.56 864.886 1958.01C864.693 1958.45 864.409 1958.85 864.055 1959.18C863.188 1959.79 862.14 1960.08 861.092 1959.98C860.043 1959.89 859.06 1959.42 858.31 1958.66C857.951 1958.33 857.663 1957.93 857.466 1957.48C857.268 1957.03 857.166 1956.54 857.166 1956.05C857.166 1955.56 857.268 1955.07 857.466 1954.62C857.663 1954.17 857.951 1953.77 858.31 1953.44Z" fill="white"/>
<path d="M766.696 1962.21C767.811 1961.23 769.264 1961.09 769.872 1961.89C770.481 1962.69 770.075 1964.08 768.926 1965.02C767.777 1965.96 766.358 1966.1 765.75 1965.34C765.141 1964.57 765.547 1963.15 766.696 1962.21Z" fill="white"/>
<path d="M763.823 2073.38C764.499 2072.82 765.344 2072.75 765.716 2073.2C766.088 2073.66 765.716 2074.49 765.141 2075.05C764.908 2075.31 764.589 2075.47 764.245 2075.5C763.901 2075.54 763.558 2075.44 763.283 2075.22C762.911 2074.77 763.181 2073.93 763.823 2073.38Z" fill="white"/>
<path opacity="0.53" d="M758.315 2123.71C758.016 2124.06 757.601 2124.27 757.155 2124.31C756.71 2124.35 756.266 2124.21 755.916 2123.92C755.442 2123.33 755.916 2122.25 756.659 2121.56C757.403 2120.86 758.619 2120.76 759.058 2121.35C759.498 2121.94 759.194 2123.02 758.315 2123.71Z" fill="white"/>
<path d="M1097.71 1991.53C1097.82 1992.4 1097.6 1993.28 1097.11 1994C1096.61 1994.72 1095.87 1995.21 1095.04 1995.39C1094.64 1995.48 1094.23 1995.48 1093.84 1995.4C1093.44 1995.31 1093.07 1995.13 1092.75 1994.88C1092.43 1994.63 1092.16 1994.31 1091.97 1993.94C1091.78 1993.57 1091.68 1993.16 1091.66 1992.75C1091.55 1991.88 1091.76 1990.99 1092.25 1990.28C1092.75 1989.56 1093.49 1989.06 1094.33 1988.89C1094.72 1988.79 1095.13 1988.79 1095.53 1988.88C1095.92 1988.97 1096.29 1989.14 1096.61 1989.4C1096.94 1989.65 1097.2 1989.97 1097.39 1990.34C1097.58 1990.71 1097.69 1991.11 1097.71 1991.53V1991.53Z" fill="white"/>
<g opacity="0.52">
<path opacity="0.52" d="M1143.06 2073.1C1142.76 2073.46 1142.34 2073.71 1141.89 2073.8C1141.43 2073.89 1140.96 2073.81 1140.56 2073.59C1140.36 2073.51 1140.18 2073.38 1140.04 2073.23C1139.89 2073.07 1139.78 2072.88 1139.72 2072.67C1139.66 2072.47 1139.64 2072.25 1139.66 2072.03C1139.69 2071.82 1139.77 2071.61 1139.88 2071.43C1140.18 2071.06 1140.59 2070.81 1141.05 2070.72C1141.5 2070.63 1141.97 2070.71 1142.38 2070.94C1142.58 2071.02 1142.75 2071.14 1142.9 2071.3C1143.04 2071.46 1143.15 2071.65 1143.22 2071.86C1143.28 2072.06 1143.3 2072.28 1143.27 2072.5C1143.25 2072.71 1143.17 2072.92 1143.06 2073.1V2073.1Z" fill="white"/>
</g>
<path d="M1184.86 2037.45C1184.45 2037.94 1183.9 2038.27 1183.28 2038.39C1182.67 2038.51 1182.03 2038.41 1181.48 2038.11C1181.21 2038 1180.97 2037.83 1180.77 2037.62C1180.57 2037.4 1180.42 2037.14 1180.33 2036.85C1180.24 2036.57 1180.22 2036.27 1180.26 2035.97C1180.3 2035.68 1180.41 2035.4 1180.57 2035.15C1180.96 2034.64 1181.52 2034.29 1182.14 2034.17C1182.76 2034.05 1183.4 2034.16 1183.95 2034.49C1184.21 2034.6 1184.45 2034.77 1184.65 2034.99C1184.84 2035.21 1184.99 2035.46 1185.08 2035.75C1185.16 2036.03 1185.19 2036.33 1185.15 2036.62C1185.11 2036.91 1185.01 2037.2 1184.86 2037.45Z" fill="white"/>
<path d="M1235.99 2016.61C1235.52 2017.34 1234.71 2017.69 1234.23 2017.34C1233.76 2016.99 1233.76 2016.12 1234.23 2015.36C1234.71 2014.59 1235.52 2014.31 1235.99 2014.66C1236.46 2015.01 1236.5 2015.88 1235.99 2016.61Z" fill="white"/>
<path d="M1219.46 1952.33C1219.16 1952.75 1218.69 1952.95 1218.42 1952.75C1218.28 1952.59 1218.21 1952.38 1218.21 1952.17C1218.21 1951.96 1218.28 1951.76 1218.42 1951.6C1218.72 1951.15 1219.19 1950.97 1219.46 1951.18C1219.74 1951.39 1219.74 1951.88 1219.46 1952.33Z" fill="white"/>
<path opacity="0.53" d="M1214.4 1922.48C1214.77 1921.93 1215.38 1921.68 1215.75 1921.96C1216.12 1922.24 1216.09 1922.87 1215.75 1923.46C1215.41 1924.05 1214.73 1924.26 1214.4 1923.98C1214.06 1923.7 1213.99 1923.11 1214.4 1922.48Z" fill="white"/>
<path d="M1075.6 1503.57C1075.4 1505.21 1074.35 1506.46 1073.27 1506.32C1072.19 1506.18 1071.48 1504.69 1071.68 1503.02C1071.89 1501.35 1072.97 1500.13 1074.05 1500.27C1075.13 1500.41 1075.84 1501.9 1075.6 1503.57Z" fill="white"/>
<path d="M1204.63 1548.2C1204.46 1549.8 1203.72 1551.28 1202.55 1552.35C1201.38 1553.41 1199.87 1554 1198.31 1553.98C1197.58 1553.83 1196.88 1553.53 1196.26 1553.1C1195.65 1552.66 1195.13 1552.1 1194.73 1551.44C1194.34 1550.79 1194.08 1550.06 1193.98 1549.3C1193.87 1548.54 1193.92 1547.76 1194.12 1547.02C1194.29 1545.43 1195.02 1543.96 1196.18 1542.89C1197.34 1541.82 1198.85 1541.24 1200.41 1541.25C1201.14 1541.39 1201.84 1541.68 1202.46 1542.12C1203.08 1542.55 1203.61 1543.11 1204 1543.77C1204.4 1544.42 1204.66 1545.15 1204.77 1545.92C1204.88 1546.68 1204.83 1547.46 1204.63 1548.2V1548.2Z" fill="white"/>
<path d="M1279.62 1378.53C1279.62 1379.88 1278.6 1380.86 1277.72 1380.75C1276.85 1380.65 1276.27 1379.46 1276.44 1378.11C1276.61 1376.75 1277.45 1375.78 1278.33 1375.88C1279.21 1375.99 1279.79 1377.2 1279.62 1378.53Z" fill="white"/>
<path d="M1206.29 1665.7C1206.29 1666.43 1206.29 1667.1 1205.68 1667.2C1205.07 1667.3 1204.7 1666.78 1204.56 1666.05C1204.43 1665.32 1204.56 1664.63 1205.17 1664.56C1205.78 1664.49 1206.15 1664.94 1206.29 1665.7Z" fill="white"/>
<path d="M1159.58 1638.43C1159.58 1638.85 1159.58 1639.27 1159.21 1639.3C1158.84 1639.34 1158.64 1639.06 1158.57 1638.64C1158.5 1638.22 1158.57 1637.81 1158.94 1637.77C1159.31 1637.74 1159.58 1637.88 1159.58 1638.43Z" fill="white"/>
<path d="M934.921 1619.82C934.921 1620.35 934.921 1620.83 934.481 1620.9C934.042 1620.97 933.772 1620.62 933.67 1620.07C933.569 1619.51 933.67 1619.06 934.11 1618.99C934.549 1618.92 934.819 1619.3 934.921 1619.82Z" fill="white"/>
<path d="M1199.46 1744.07C1199.76 1745.74 1199.15 1747.27 1198.04 1747.55C1196.92 1747.83 1195.84 1746.58 1195.5 1744.91C1195.17 1743.24 1195.81 1741.74 1196.89 1741.43C1197.97 1741.12 1199.12 1742.4 1199.46 1744.07Z" fill="white"/>
<path d="M1110.65 1359.32C1110.95 1360.99 1110.34 1362.52 1109.23 1362.8C1108.11 1363.08 1107.03 1361.86 1106.7 1360.19C1106.36 1358.52 1107 1356.99 1108.08 1356.71C1109.16 1356.44 1110.31 1357.65 1110.65 1359.32Z" fill="white"/>
<path d="M1199.19 1636.1C1199.19 1636.59 1199.19 1637.01 1198.82 1637.08C1198.44 1637.15 1198.17 1636.8 1198.11 1636.31C1198.04 1635.82 1198.11 1635.44 1198.48 1635.37C1198.85 1635.3 1199.12 1635.65 1199.19 1636.1Z" fill="white"/>
<path d="M1208.69 1340.22C1208.56 1339.85 1208.5 1339.46 1208.53 1339.07C1208.55 1338.68 1208.66 1338.3 1208.84 1337.95C1209.02 1337.6 1209.26 1337.3 1209.56 1337.05C1209.86 1336.81 1210.21 1336.63 1210.58 1336.54C1211.38 1336.52 1212.17 1336.81 1212.78 1337.34C1213.4 1337.87 1213.82 1338.61 1213.96 1339.42C1214.09 1339.79 1214.14 1340.19 1214.11 1340.58C1214.09 1340.97 1213.98 1341.35 1213.8 1341.7C1213.62 1342.05 1213.38 1342.35 1213.08 1342.59C1212.78 1342.84 1212.43 1343.01 1212.06 1343.11C1211.26 1343.12 1210.48 1342.84 1209.86 1342.31C1209.24 1341.78 1208.82 1341.04 1208.69 1340.22Z" fill="white"/>
<path d="M875.715 1399.57C875.377 1397.66 876.12 1395.92 877.371 1395.71C878.621 1395.5 879.872 1396.82 880.21 1398.74C880.547 1400.65 879.838 1402.21 878.587 1402.6C877.337 1402.98 876.12 1401.34 875.715 1399.57Z" fill="white"/>
<path opacity="0.53" d="M957.292 1766.37C957.022 1764.7 957.63 1763.2 958.711 1762.89C959.793 1762.58 960.908 1763.87 961.179 1765.54C961.449 1767.2 960.874 1768.67 959.793 1769.01C958.711 1769.36 957.596 1768 957.292 1766.37Z" fill="white"/>
<path d="M1238.19 1635.3C1238.19 1634.43 1238.19 1633.67 1238.9 1633.56C1239.61 1633.46 1240.05 1634.09 1240.18 1634.92C1240.32 1635.76 1240.01 1636.56 1239.47 1636.66C1238.93 1636.76 1238.32 1636.17 1238.19 1635.3Z" fill="white"/>
<g opacity="0.53">
<path opacity="0.53" d="M871.152 1578.12C870.848 1576.31 871.524 1574.64 872.707 1574.43C873.889 1574.22 875.106 1575.51 875.41 1577.32C875.714 1579.13 875.038 1580.8 873.856 1580.97C872.673 1581.14 871.49 1579.89 871.152 1578.12Z" fill="white"/>
</g>
<path opacity="0.53" d="M1139.58 1624.21C1139.58 1623.65 1139.58 1623.16 1140.05 1623.09C1140.52 1623.02 1140.79 1623.41 1140.89 1623.96C1141 1624.52 1140.89 1625.04 1140.42 1625.11C1139.95 1625.18 1139.68 1624.76 1139.58 1624.21Z" fill="white"/>
<path d="M1292.8 1703.1C1292.8 1704.18 1292.12 1705.01 1291.41 1704.94C1290.7 1704.87 1290.19 1704 1290.26 1702.92C1290.33 1701.85 1290.94 1701.01 1291.65 1701.05C1292.36 1701.08 1292.86 1702.02 1292.8 1703.1Z" fill="white"/>
<path opacity="0.53" d="M1253.46 1656.28C1253.46 1654.89 1254.37 1653.84 1255.29 1653.91C1256.2 1653.98 1256.84 1655.16 1256.74 1656.56C1256.64 1657.95 1255.83 1659.03 1254.91 1658.96C1254 1658.89 1253.36 1657.67 1253.46 1656.28Z" fill="white"/>
<path d="M1271.64 1326.07C1271.85 1327.28 1271.41 1328.4 1270.59 1328.57C1269.78 1328.75 1268.97 1327.84 1268.74 1326.62C1268.5 1325.41 1268.97 1324.29 1269.78 1324.15C1270.59 1324.02 1271.41 1324.82 1271.64 1326.07Z" fill="white"/>
<path opacity="0.53" d="M1214.4 1285.61C1214.09 1284.05 1214.7 1282.59 1215.75 1282.38C1216.79 1282.17 1217.84 1283.32 1218.11 1284.92C1218.38 1286.52 1217.81 1287.94 1216.76 1288.15C1215.71 1288.36 1214.67 1287.21 1214.4 1285.61Z" fill="white"/>
<path opacity="0.53" d="M819.752 1709.36C819.752 1708.49 819.752 1707.72 820.495 1707.62C821.239 1707.52 821.644 1708.11 821.779 1708.98C821.914 1709.85 821.779 1710.61 821.036 1710.72C820.293 1710.82 819.921 1710.23 819.752 1709.36Z" fill="white"/>
<path opacity="0.53" d="M1120.45 1581.56C1120.45 1580.69 1120.62 1579.93 1121.19 1579.82C1121.77 1579.72 1122.31 1580.31 1122.48 1581.18C1122.65 1582.05 1122.48 1582.81 1121.73 1582.92C1120.99 1583.02 1120.62 1582.43 1120.45 1581.56Z" fill="white"/>
<g opacity="0.53">
<path opacity="0.53" d="M740.539 1713.15C740.539 1712.21 740.742 1711.38 741.35 1711.24C741.959 1711.1 742.601 1711.79 742.77 1712.73C742.939 1713.67 742.567 1714.54 741.959 1714.65C741.35 1714.75 740.742 1714.09 740.539 1713.15Z" fill="white"/>
</g>
<g opacity="0.53">
<path opacity="0.53" d="M1158.1 1738.75C1157.86 1737.43 1158.37 1736.21 1159.21 1736.04C1160.06 1735.86 1160.97 1736.84 1161.2 1738.16C1161.44 1739.48 1160.93 1740.7 1160.09 1740.87C1159.24 1741.05 1158.33 1739.97 1158.1 1738.75Z" fill="white"/>
</g>
<path d="M1115.21 90.1432C1115.21 88.8561 1116.09 87.8822 1116.93 87.9517C1117.78 88.0213 1118.35 89.1344 1118.25 90.4214C1118.15 91.7085 1117.34 92.6824 1116.49 92.6129C1115.65 92.5433 1115.08 91.4302 1115.21 90.1432Z" fill="white"/>
<path d="M1151.74 629.127C1151.74 628.535 1152.15 628.083 1152.55 628.118C1152.96 628.153 1153.2 628.674 1153.16 629.266C1153.13 629.857 1152.72 630.344 1152.35 630.274C1151.98 630.205 1151.67 629.753 1151.74 629.127Z" fill="white"/>
<path d="M1065.47 316.624C1065.47 315.824 1066.04 315.198 1066.58 315.233C1067.12 315.268 1067.49 315.998 1067.39 316.833C1067.29 317.668 1066.82 318.259 1066.31 318.224C1065.8 318.189 1065.4 317.459 1065.47 316.624Z" fill="white"/>
<path d="M1084.69 240.377C1084.39 243.577 1082.43 245.977 1080.33 245.768C1078.24 245.559 1076.96 242.777 1077.16 239.577C1077.36 236.376 1079.46 233.941 1081.52 234.15C1083.58 234.359 1085.03 237.176 1084.69 240.377Z" fill="white"/>
<g opacity="0.52">
<path opacity="0.52" d="M1173.67 169.694C1173.62 170.013 1173.46 170.303 1173.22 170.508C1172.98 170.713 1172.67 170.819 1172.36 170.807C1172.21 170.799 1172.07 170.759 1171.93 170.69C1171.8 170.621 1171.69 170.525 1171.59 170.406C1171.5 170.288 1171.43 170.151 1171.4 170.004C1171.36 169.858 1171.35 169.704 1171.38 169.555C1171.43 169.235 1171.59 168.946 1171.83 168.74C1172.07 168.535 1172.38 168.429 1172.69 168.441C1172.84 168.449 1172.99 168.489 1173.12 168.558C1173.25 168.627 1173.36 168.724 1173.46 168.842C1173.55 168.96 1173.62 169.097 1173.65 169.244C1173.69 169.391 1173.7 169.544 1173.67 169.694V169.694Z" fill="white"/>
</g>
<g opacity="0.52">
<path opacity="0.52" d="M1063.27 162.182C1063.2 162.624 1062.98 163.025 1062.64 163.308C1062.31 163.591 1061.88 163.735 1061.45 163.712C1061.24 163.701 1061.04 163.644 1060.85 163.546C1060.67 163.448 1060.51 163.31 1060.38 163.142C1060.25 162.974 1060.16 162.779 1060.11 162.572C1060.06 162.364 1060.05 162.148 1060.09 161.938C1060.17 161.493 1060.4 161.091 1060.74 160.809C1061.08 160.527 1061.51 160.384 1061.95 160.408C1062.15 160.429 1062.35 160.492 1062.53 160.594C1062.71 160.696 1062.86 160.835 1062.98 161.001C1063.11 161.167 1063.2 161.358 1063.25 161.561C1063.3 161.764 1063.3 161.975 1063.27 162.182V162.182Z" fill="white"/>
</g>
<g opacity="0.52">
<path opacity="0.52" d="M1043.03 214.706C1042.99 214.909 1042.89 215.092 1042.73 215.22C1042.58 215.348 1042.38 215.413 1042.18 215.402C1042.09 215.394 1042 215.366 1041.92 215.32C1041.84 215.275 1041.77 215.212 1041.72 215.136C1041.66 215.06 1041.63 214.973 1041.61 214.881C1041.59 214.789 1041.59 214.694 1041.61 214.602C1041.63 214.405 1041.73 214.226 1041.88 214.102C1042.04 213.979 1042.23 213.921 1042.42 213.941C1042.51 213.945 1042.6 213.968 1042.68 214.01C1042.76 214.051 1042.83 214.11 1042.89 214.183C1042.95 214.255 1042.99 214.339 1043.01 214.429C1043.04 214.519 1043.04 214.614 1043.03 214.706V214.706Z" fill="white"/>
</g>
<g opacity="0.52">
<path opacity="0.52" d="M1071.72 189.8C1071.98 189.57 1072.31 189.443 1072.65 189.443C1072.99 189.443 1073.32 189.57 1073.58 189.8C1073.7 189.911 1073.8 190.047 1073.86 190.2C1073.93 190.353 1073.97 190.519 1073.97 190.687C1073.97 190.854 1073.93 191.02 1073.86 191.173C1073.8 191.326 1073.7 191.463 1073.58 191.574C1073.32 191.813 1072.98 191.946 1072.63 191.946C1072.28 191.946 1071.94 191.813 1071.68 191.574C1071.57 191.457 1071.48 191.318 1071.42 191.164C1071.36 191.01 1071.33 190.845 1071.33 190.679C1071.33 190.513 1071.37 190.349 1071.44 190.198C1071.5 190.047 1071.6 189.911 1071.72 189.8V189.8Z" fill="white"/>
</g>
<g opacity="0.52">
<path opacity="0.52" d="M1183.24 303.51C1183.59 303.175 1184.06 302.989 1184.54 302.989C1185.02 302.989 1185.48 303.175 1185.84 303.51C1186.02 303.657 1186.16 303.842 1186.26 304.053C1186.35 304.263 1186.4 304.494 1186.4 304.727C1186.4 304.961 1186.35 305.191 1186.26 305.402C1186.16 305.613 1186.02 305.798 1185.84 305.945C1185.48 306.272 1185.02 306.453 1184.54 306.453C1184.06 306.453 1183.6 306.272 1183.24 305.945C1183.08 305.789 1182.95 305.6 1182.86 305.391C1182.77 305.181 1182.73 304.956 1182.73 304.727C1182.73 304.499 1182.77 304.273 1182.86 304.064C1182.95 303.855 1183.08 303.666 1183.24 303.51V303.51Z" fill="white"/>
</g>
<path d="M1081.62 842.25C1083.71 842.25 1085.41 840.506 1085.41 838.354C1085.41 836.203 1083.71 834.458 1081.62 834.458C1079.53 834.458 1077.84 836.203 1077.84 838.354C1077.84 840.506 1079.53 842.25 1081.62 842.25Z" fill="white"/>
<path d="M1077.84 705.895C1077.84 708.052 1076.99 709.791 1075.94 709.791C1074.9 709.791 1074.05 708.052 1074.05 705.895C1074.05 703.739 1074.9 702 1075.94 702C1076.99 702 1077.84 703.739 1077.84 705.895Z" fill="white"/>
<path d="M1095.37 421.985C1095.37 422.37 1095.26 422.747 1095.06 423.067C1094.85 423.388 1094.55 423.637 1094.21 423.785C1093.86 423.932 1093.48 423.971 1093.11 423.896C1092.75 423.82 1092.41 423.635 1092.14 423.362C1091.88 423.09 1091.7 422.743 1091.63 422.365C1091.55 421.987 1091.59 421.596 1091.73 421.24C1091.88 420.884 1092.12 420.579 1092.43 420.365C1092.74 420.151 1093.11 420.037 1093.48 420.037C1093.98 420.037 1094.46 420.242 1094.82 420.608C1095.17 420.973 1095.37 421.468 1095.37 421.985V421.985Z" fill="white"/>
<path d="M1127.07 641.092C1127.2 641.589 1127.13 642.118 1126.88 642.566C1126.64 643.014 1126.23 643.346 1125.75 643.492C1125.27 643.63 1124.75 643.565 1124.32 643.31C1123.88 643.056 1123.56 642.633 1123.42 642.135C1123.29 641.637 1123.35 641.104 1123.6 640.654C1123.85 640.204 1124.26 639.873 1124.74 639.735C1124.98 639.661 1125.23 639.638 1125.48 639.667C1125.73 639.696 1125.97 639.776 1126.19 639.903C1126.4 640.029 1126.6 640.2 1126.75 640.404C1126.9 640.608 1127.01 640.842 1127.07 641.092V641.092Z" fill="white"/>
<path d="M1288 1077.85C1288 1079.13 1287.02 1080.07 1286.21 1079.97C1285.4 1079.86 1284.82 1078.75 1284.96 1077.46C1285.09 1076.18 1285.9 1075.2 1286.75 1075.31C1287.59 1075.41 1288.27 1076.49 1288 1077.85Z" fill="white"/>
<g opacity="0.52">
<path opacity="0.52" d="M1225.58 1007.51C1225.58 1008.28 1225.04 1008.83 1224.53 1008.76C1224.03 1008.69 1223.72 1008.07 1223.82 1007.3C1223.93 1006.54 1224.37 1006.02 1224.87 1006.05C1225.38 1006.08 1225.68 1006.78 1225.58 1007.51Z" fill="white"/>
</g>
<g opacity="0.52">
<path opacity="0.52" d="M1291.85 1025.25C1291.85 1026.09 1291.24 1026.68 1290.7 1026.64C1290.16 1026.61 1289.79 1025.84 1289.89 1025.01C1289.99 1024.17 1290.5 1023.58 1291.04 1023.65C1291.58 1023.72 1291.92 1024.45 1291.85 1025.25Z" fill="white"/>
</g>
<g opacity="0.52">
<path opacity="0.52" d="M993.249 441.604C993.249 440.978 993.418 440.456 993.79 440.386C994.162 440.317 994.567 440.769 994.669 441.36C994.77 441.952 994.668 442.474 994.128 442.543C993.587 442.613 993.351 442.195 993.249 441.604Z" fill="white"/>
</g>
<path d="M1220.41 880.547C1220.55 879.749 1220.97 879.032 1221.6 878.537C1222.22 878.042 1223 877.804 1223.79 877.869C1224.15 877.898 1224.51 878.008 1224.82 878.192C1225.14 878.377 1225.42 878.63 1225.63 878.935C1225.84 879.24 1225.99 879.589 1226.05 879.957C1226.12 880.326 1226.11 880.705 1226.02 881.069C1225.85 881.854 1225.42 882.553 1224.8 883.048C1224.19 883.542 1223.42 883.802 1222.64 883.782C1222.28 883.748 1221.92 883.634 1221.61 883.446C1221.29 883.258 1221.01 883.001 1220.8 882.694C1220.59 882.386 1220.45 882.035 1220.38 881.665C1220.31 881.294 1220.32 880.913 1220.41 880.547V880.547Z" fill="white"/>
<path d="M883.926 384.976C884.332 383.582 885.21 382.384 886.4 381.599C887.591 380.814 889.015 380.494 890.414 380.697C891.056 380.832 891.661 381.107 892.19 381.504C892.719 381.901 893.158 382.411 893.479 382.998C893.8 383.585 893.994 384.237 894.048 384.908C894.102 385.579 894.016 386.255 893.794 386.889C893.407 388.285 892.537 389.488 891.348 390.269C890.159 391.051 888.733 391.358 887.339 391.132C886.702 390.996 886.1 390.721 885.573 390.327C885.047 389.933 884.607 389.428 884.285 388.846C883.962 388.264 883.763 387.618 883.701 386.95C883.639 386.283 883.716 385.61 883.926 384.976V384.976Z" fill="white"/>
<path d="M1108.01 972.865C1108.18 972.08 1108.61 971.381 1109.23 970.886C1109.85 970.391 1110.61 970.132 1111.39 970.151C1111.76 970.186 1112.11 970.301 1112.43 970.489C1112.75 970.676 1113.02 970.932 1113.24 971.238C1113.45 971.545 1113.6 971.895 1113.67 972.266C1113.75 972.636 1113.74 973.018 1113.66 973.386C1113.48 974.165 1113.04 974.856 1112.43 975.344C1111.81 975.831 1111.05 976.086 1110.28 976.065C1109.91 976.04 1109.55 975.934 1109.23 975.752C1108.91 975.569 1108.63 975.317 1108.42 975.011C1108.2 974.706 1108.05 974.355 1107.98 973.984C1107.91 973.613 1107.92 973.231 1108.01 972.865V972.865Z" fill="white"/>
<path d="M1128.56 1089.46C1128.56 1088.18 1129.37 1087.17 1130.21 1087.2C1131.06 1087.24 1131.67 1088.35 1131.6 1089.64C1131.53 1090.92 1130.79 1091.93 1129.94 1091.9C1129.1 1091.86 1128.49 1090.75 1128.56 1089.46Z" fill="white"/>
<g opacity="0.52">
<path opacity="0.52" d="M1195.47 1155.35C1195.47 1154.58 1195.94 1153.99 1196.42 1154.02C1196.89 1154.06 1197.3 1154.68 1197.26 1155.45C1197.23 1156.22 1196.79 1156.77 1196.28 1156.77C1195.78 1156.77 1195.44 1156.11 1195.47 1155.35Z" fill="white"/>
</g>
<g opacity="0.52">
<path opacity="0.52" d="M1097.17 1172.6C1097.17 1171.97 1097.57 1171.52 1097.94 1171.52C1098.31 1171.52 1098.62 1172.04 1098.58 1172.67C1098.55 1173.29 1098.21 1173.75 1097.84 1173.71C1097.47 1173.68 1097.13 1173.19 1097.17 1172.6Z" fill="white"/>
</g>
<g opacity="0.52">
<path opacity="0.52" d="M1128.22 1142.13C1128.22 1141.29 1128.73 1140.63 1129.27 1140.67C1129.81 1140.7 1130.22 1141.4 1130.18 1142.23C1130.15 1143.07 1129.64 1143.69 1129.1 1143.66C1128.56 1143.62 1128.19 1142.93 1128.22 1142.13Z" fill="white"/>
</g>
<path d="M817.927 993.249C817.927 994.745 816.947 995.893 815.967 995.823C814.986 995.753 814.277 994.501 814.378 993.005C814.479 991.51 815.324 990.327 816.304 990.396C817.284 990.466 818.028 991.718 817.927 993.249Z" fill="white"/>
<g opacity="0.52">
<path opacity="0.52" d="M1273.03 474.649C1272.87 475.059 1272.58 475.399 1272.2 475.609C1271.82 475.819 1271.39 475.885 1270.97 475.797C1270.77 475.778 1270.59 475.716 1270.42 475.617C1270.26 475.517 1270.11 475.383 1270 475.221C1269.89 475.06 1269.81 474.876 1269.77 474.681C1269.74 474.486 1269.74 474.286 1269.78 474.093C1269.95 473.684 1270.24 473.345 1270.61 473.13C1270.99 472.915 1271.42 472.838 1271.85 472.91C1272.04 472.929 1272.23 472.991 1272.4 473.092C1272.57 473.194 1272.72 473.332 1272.83 473.497C1272.94 473.663 1273.02 473.852 1273.05 474.051C1273.09 474.25 1273.08 474.454 1273.03 474.649V474.649Z" fill="white"/>
</g>
<path d="M1276.27 91.1516C1276.27 91.9516 1275.53 92.5429 1275.02 92.4386C1274.51 92.3342 1274.18 91.569 1274.35 90.7341C1274.52 89.8993 1275.06 89.3428 1275.6 89.4471C1276.14 89.5515 1276.44 90.3167 1276.27 91.1516Z" fill="white"/>
<g opacity="0.52">
<path opacity="0.52" d="M858.446 39.6359C859.087 39.2072 859.851 39.0151 860.612 39.0909C861.373 39.1667 862.087 39.506 862.636 40.0533C862.906 40.2851 863.123 40.575 863.272 40.9026C863.42 41.2302 863.498 41.5874 863.498 41.9491C863.498 42.3107 863.42 42.6679 863.272 42.9955C863.123 43.3231 862.906 43.613 862.636 43.8448C861.995 44.2869 861.227 44.49 860.458 44.4204C859.69 44.3508 858.968 44.0126 858.412 43.4622C858.138 43.228 857.919 42.9341 857.769 42.6018C857.619 42.2695 857.543 41.907 857.547 41.5408C857.55 41.1745 857.632 40.8136 857.788 40.4841C857.943 40.1547 858.168 39.8649 858.446 39.6359V39.6359Z" fill="white"/>
</g>
<path d="M858.311 671.041C859.18 670.425 860.231 670.144 861.282 670.245C862.332 670.347 863.314 670.826 864.056 671.598C864.41 671.924 864.693 672.324 864.887 672.77C865.081 673.217 865.181 673.7 865.181 674.189C865.181 674.679 865.081 675.162 864.887 675.609C864.693 676.055 864.41 676.455 864.056 676.781C863.187 677.397 862.136 677.679 861.085 677.577C860.035 677.475 859.053 676.996 858.311 676.224C857.957 675.898 857.674 675.499 857.48 675.052C857.286 674.606 857.186 674.122 857.186 673.633C857.186 673.144 857.286 672.66 857.48 672.214C857.674 671.767 857.957 671.368 858.311 671.041V671.041Z" fill="white"/>
<path d="M766.696 679.772C767.811 678.833 769.264 678.694 769.872 679.459C770.481 680.224 770.075 681.65 768.926 682.624C767.777 683.598 766.358 683.703 765.75 682.903C765.141 682.103 765.547 680.711 766.696 679.772Z" fill="white"/>
<path d="M763.823 790.978C764.499 790.422 765.344 790.317 765.716 790.804C766.088 791.291 765.716 792.056 765.141 792.613C764.567 793.17 763.654 793.274 763.283 792.787C762.911 792.3 763.181 791.535 763.823 790.978Z" fill="white"/>
<path opacity="0.53" d="M758.315 841.311C757.47 842.006 756.389 842.111 755.916 841.519C755.442 840.928 755.916 839.85 756.659 839.119C757.403 838.389 758.619 838.319 759.058 838.911C759.498 839.502 759.194 840.58 758.315 841.311Z" fill="white"/>
<path style="mix-blend-mode:screen" opacity="0.24" d="M-727.53 2302.26L-736.249 2208.1L-596.951 2224.65L-495.806 2234.43L-472.151 2259.37L-433.524 2278.78L-290.881 2284.31L10.5935 2273.25L2900.33 2137.59L2805.34 1433.66C2805.34 1433.66 -598.404 1442.98 -676.164 1433.66C-753.923 1424.34 -810.595 2303.93 -810.595 2303.93L-727.53 2302.26Z" fill="url(#paint1_linear)"/>
<g opacity="0.62">
<path style="mix-blend-mode:screen" opacity="0.62" d="M2873.87 2230.74C2873.87 2230.74 2722.07 2184.69 2704.9 2188.23C2687.74 2191.78 2703.65 2207.16 2703.65 2207.16C2703.65 2207.16 2349.56 2124.44 2294.34 2135.08C2239.12 2145.73 2284 2191.78 2284 2191.78C2284 2191.78 2118.41 2170.49 2087.36 2184.83C2056.3 2199.16 2073.57 2213.18 2073.57 2213.18C2073.57 2213.18 1655.98 2055.29 1619.75 2061.45C1583.52 2067.6 1732.89 2151.33 1732.89 2151.33C1732.89 2151.33 1656.01 2127.99 1645.64 2135.08C1635.26 2142.18 1745.7 2195.33 1745.7 2195.33C1745.7 2195.33 1314.46 2046.49 1290.3 2060.65C1266.13 2074.8 1442.1 2156.34 1442.1 2156.34C1442.1 2156.34 1095.07 1982.24 1044.31 2010.73C993.553 2039.22 1186.79 2142.25 1186.79 2142.25C1186.79 2142.25 838.338 2025.34 624.424 2067.85C410.509 2110.35 452.075 2206.04 452.075 2206.04L1821.74 2230.85L2880.39 2265.25L2873.87 2230.74Z" fill="url(#paint2_linear)"/>
</g>
<path style="mix-blend-mode:screen" opacity="0.47" d="M1410.2 2284.03C1858.91 2284.03 2222.67 2225.23 2222.67 2152.69C2222.67 2080.14 1858.91 2021.34 1410.2 2021.34C961.482 2021.34 597.727 2080.14 597.727 2152.69C597.727 2225.23 961.482 2284.03 1410.2 2284.03Z" fill="url(#paint3_radial)"/>
<g style="mix-blend-mode:screen" opacity="0.1">
<path d="M684.036 1868.25C684.036 1868.25 243.196 1434.66 213.356 1471.85C183.516 1509.03 359.176 1725.77 332.648 1744.38C306.12 1762.99 -545.618 1378.94 -578.77 1428.47C-611.922 1478 -452.821 1626.74 -462.756 1645.28C-472.691 1663.82 -1424.59 949.491 -1530.03 1223.94C-1639.39 1509.17 -1440.51 1985.47 -1440.51 1985.47L684.036 1868.25Z" fill="#00DBFF"/>
</g>
<path style="mix-blend-mode:color-dodge" opacity="0.22" d="M783.994 1804.9C797.843 1702.3 715.767 1605.78 600.672 1589.32C485.577 1572.86 381.047 1642.69 367.197 1745.29C353.348 1847.89 435.424 1944.41 550.519 1960.87C665.615 1977.33 770.145 1907.5 783.994 1804.9Z" fill="url(#paint4_linear)"/>
<g style="mix-blend-mode:multiply" opacity="0.14">
<path d="M367.49 1745.05C353.364 1847.73 435.077 1944.33 550.179 1961.06C555.417 1961.82 560.689 1962.24 565.656 1962.66C458.631 1940.01 436.395 1823.52 445.114 1760.18C453.833 1696.84 507.734 1583.68 616.685 1592.45C611.785 1591.41 606.547 1590.33 601.376 1589.56C486.309 1572.87 381.649 1642.4 367.49 1745.05Z" fill="#91345C"/>
</g>
<path d="M-1766.11 1958.1L-1565.01 1965.65L-1222.07 1978.52L2666.24 1998.94V1961.37L2291.88 1951.14L2256.93 1934.14L2097.22 1917.13L2017.34 1886.48L1703.05 1859.28L1673.11 1849.05L1628.03 1818.76L1548.21 1784.53L1338.69 1835.59L1273.81 1842.55L1124.06 1903.8L990.275 1912.33L809.445 1924.08L689.646 1890.03V1879.84L609.791 1872.88L579.816 1859.28L504.963 1842.27L420.107 1879.7V1896.71L320.28 1917.13L100.62 1924.08L58.8511 1921.58L-14.1772 1917.26C-14.1772 1917.26 -44.1187 1903.66 -49.1201 1903.66C-54.1216 1903.66 -104.035 1913.86 -104.035 1913.86L-173.887 1917.33L-538.285 1910.38L-668.053 1879.77L-812.792 1730.19L-837.765 1699.58L-1027.42 1679.17L-1192.13 1634.92L-1227.07 1600.87L-1341.97 1512.41L-1406.89 1539.61L-1486.47 1593.98H-1541.52L-1581.43 1614.4L-1671.29 1641.6L-1731.17 1689.25L-1766.11 1958.1Z" fill="url(#paint5_linear)"/>
<g style="mix-blend-mode:multiply" opacity="0.21">
<path d="M45.7393 1924.08L190.512 1927.46L245.427 1937.68L347.484 1980.36L674.675 1930.87L689.646 1910.45L614.759 1900.25H579.85L499.961 1893.44L504.963 1890.03H475.022V1883.25L508.545 1843.21L504.963 1842.41L420.107 1879.84V1896.85L320.28 1917.26L100.654 1924.08L58.8849 1921.58L45.7393 1924.08Z" fill="#086A7C"/>
</g>
<g style="mix-blend-mode:multiply" opacity="0.21">
<path d="M919.24 1981.93L1323.55 1951.28L1408.41 1873.02L1448.35 1821.99L1508.23 1808.36L1548.18 1784.53L1338.52 1835.59L1273.64 1842.41L1123.9 1903.66L990.275 1912.33L919.24 1981.93Z" fill="#086A7C"/>
</g>
<g style="mix-blend-mode:screen" opacity="0.09">
<path d="M1150.09 1344.82C1150.09 1344.82 838.203 1120.94 832.087 1154.06C825.97 1187.17 873.923 1218.51 873.923 1218.51L665.449 1098.4C665.449 1098.4 1028.53 1347.18 1025.69 1373.9C1022.85 1400.61 971.148 1348.68 961.483 1368.02C951.818 1387.36 1430.71 1693.88 1430.71 1693.88C1430.71 1693.88 1056.95 1417.17 1070.37 1411.78C1083.78 1406.38 1151.84 1432.65 1151.47 1419.19C1151.1 1405.72 999.737 1263.8 999.737 1263.8L1150.09 1344.82Z" fill="#00DBFF"/>
</g>
<path d="M-1696.23 1961.37V2563.84H2690.2V1961.37L1990.33 1985.2L1500.63 1957.89L1466.63 1945.51L1434.6 1935.28L1375.86 1867.45L1354.47 1840.22V1863.98L1317.06 1791.42L1301.01 1815.28L1290.33 1723.38L1194.15 1809.57L1129.94 1850.41V1829.89L1065.74 1874.1C1065.74 1874.1 1017.65 1904.74 985.578 1908.15C953.508 1911.56 894.774 1925.16 894.774 1925.16H891.09L798.597 1928.43V1897.79L729.151 1914.8L627.769 1925.02L649.127 1914.8L595.699 1925.02L446.128 1942.03L291.183 1952.26L205.685 1938.62L184.327 1931.67L183.111 1932.12L157.596 1941.86L72.1321 1945.34L-335.455 1961.37H-1696.23Z" fill="url(#paint6_linear)"/>
<g style="mix-blend-mode:screen" opacity="0.09">
<path d="M966.958 1526.36C966.958 1526.36 505.2 1370.56 511.215 1367.26C517.23 1363.95 698.534 1423.29 701.778 1419.43C705.022 1415.57 676.027 1403.19 676.027 1403.19C676.027 1403.19 760.072 1433.66 754.057 1436.96C748.042 1440.27 966.958 1526.36 966.958 1526.36Z" fill="#00DBFF"/>
</g>
<g style="mix-blend-mode:multiply" opacity="0.65">
<path d="M2258.32 2138.46L1714.75 2097.62L1635.23 2104.44H1502.62H1184.45L1370.05 2118.04L1817.51 2131.68L2258.32 2138.46Z" fill="#D45BA7"/>
</g>
<g style="mix-blend-mode:multiply" opacity="0.81">
<path d="M-1788.89 1961.37L-1935.93 2004.36L-1528.38 2015.95L-1299.76 2012.47L-768.117 2019.43L-247.084 2026.38L242.047 2019.43H449.372L316.461 2029.62L156.988 2050.04L895.991 2032.96L981.083 2026L954.488 2036.19L880.141 2049.79L316.596 2080.44L1491.44 2039.77L2177.25 2070.38L2185.32 2070.91C2192.08 2072.68 2215.98 2078.73 2226.11 2080.58C2226.79 2080.28 2227.52 2080.12 2228.26 2080.12C2229 2080.12 2229.73 2080.28 2230.41 2080.58C2231.66 2081.34 2229.8 2081.24 2226.11 2080.58C2218.04 2082.91 2203.84 2094.21 2203.84 2094.21L2182.59 2104.44L2081.54 2114.63H2288.9L2299.55 2111.15L2336.72 2114.63H2326.08L2251.73 2128.27H2544.15L2581.32 2131.74H2666.38L2682.33 2146.84L2729.64 2106.14L2863.09 2114.73L2724.88 1968.33H2671.68L2590.58 1964.85L2552.73 1971.81L2475.01 1975.28L2320.84 1985.51H2203.81L2049.64 1995.7H1977.05L1922.07 1992.22L1852.96 2005.86H1672.2C1656.25 2005.86 1783.72 1998.9 1783.72 1998.9L1858.07 1991.95L1874.02 1984.99H1778.31L1757.06 1978.03L1518 1964.85L1480.83 1957.89L1401.07 1961.37L1310.71 1930.73L1300.06 1920.53V1944.36L1321.32 1974.97L1246.16 1939.98L1234.64 1931.42L1262.92 1903.59L1257.58 1873.02L1300.13 1913.86C1300.13 1913.86 1297.33 1882.93 1292.63 1873.75L1305.44 1862.83V1852.6L1310.78 1835.59L1305.44 1817.05L1315.57 1792.7L1299.12 1818.51L1289.52 1801.75L1284.21 1822.16L1294.86 1839.17L1289.52 1852.77V1849.3L1273.43 1808.32L1225.58 1828.74L1230.92 1811.73H1225.58L1289.38 1723.24L1193.71 1809.47L1129.91 1850.3V1829.89L1066.11 1874.1C1066.11 1874.1 1018.26 1904.74 986.355 1908.15C954.454 1911.56 895.991 1925.16 895.991 1925.16H892.341L889.671 1926.03L816.271 1930.73L794.981 1934.2L757.808 1930.73L779.064 1913.72L784.403 1906.76L800.354 1899.11V1897.65L731.212 1914.66L630.202 1924.88L651.493 1914.66L598.301 1924.88L461.741 1940.5L449.44 1941.89L432.847 1942.97L295.272 1952.12L288.514 1951L324.267 1957.3L327.207 1957.82L314.974 1958.55L268.71 1961.23L226.198 1951L204.908 1947.53L183.652 1949.44L178.346 1944.15L184.496 1931.56L157.225 1942L77.3363 1945.16L-328.189 1961.09L-1788.89 1961.37ZM-488.845 1995.39H-270.875L-260.23 1991.91L-371.749 1988.43L-222.888 1984.95L64.3594 1971.32L133.502 2005.37L-4.74896 2008.85L-52.6009 2015.81L-121.709 2019.29L-228.024 2009.06L-419.432 2005.58L-488.845 1995.39Z" fill="#D45BA7"/>
</g>
<g style="mix-blend-mode:multiply">
<path d="M-1646.32 2026.17L-1511.55 2032.96L-1486.61 2050L-1416.72 2080.61L-1112.24 2118.04L-1087.3 2141.87L-932.557 2175.89L-443.392 2213.31H-358.536L315.278 2186.11H365.191L509.964 2158.88L749.528 2203.12L1108.93 2226.95L1288.61 2254.15L1947.48 2274.57L2010.37 2297.42L2776.04 2325.63L2132.17 2417.5H704.616L-1814.34 2409.18L-1860.94 2005.76L-1646.32 2026.17Z" fill="#D45BA7"/>
</g>
<g style="mix-blend-mode:multiply" opacity="0.47">
<path d="M790.047 2141.87L783.423 2138.46H770.143L753.583 2131.68H680.657L644.193 2145.28L485.125 2148.69L640.881 2152.1L693.938 2148.69H816.541L790.047 2141.87Z" fill="#D45BA7"/>
</g>
<g style="mix-blend-mode:screen" opacity="0.2">
<path d="M1771.25 1077.84C1771.25 1077.84 1339.3 659.285 1299.32 704.157C1259.34 749.028 1331.32 808.788 1299.32 823.745C1267.32 838.702 819.279 524.774 795.285 554.619C771.292 584.464 1635.33 1227.42 1635.33 1227.42C1635.33 1227.42 1323.31 958.291 1363.32 928.272C1403.34 898.253 2155.35 1481.34 2155.35 1481.34C2155.35 1481.34 2011.35 1316.88 2011.35 1257.09C2011.35 1197.29 2067.35 1257.09 2067.35 1257.09C2067.35 1257.09 1779.33 913.211 1755.33 928.168C1731.34 943.125 1771.25 1077.84 1771.25 1077.84Z" fill="#00DBFF"/>
</g>
<path style="mix-blend-mode:color-dodge" opacity="0.61" d="M871.727 2001.06C871.727 2001.06 883.689 2027.67 883.689 2045.41H926.641C924.795 2033.31 920.262 2021.81 913.394 2011.81L871.727 2001.06Z" fill="url(#paint7_linear)"/>
<path d="M567.38 2336.73L2434.32 2343.87L2709.09 2344.91L2686.49 2307.41L2582.84 2305.36L2569.7 2263.58L2568.88 2261.01L2196.1 2134.78L1646.55 2124.55L1228.25 2244.21L842.461 2250.09L829.856 2284.87L581.336 2279.41L567.38 2336.73Z" fill="url(#paint8_linear)"/>
<path opacity="0.51" d="M1237.21 2238.47L1321.96 2292.07L1600.02 2297.84L1604 2263.72L1796.73 2108.16L1237.21 2238.47Z" fill="#002744"/>
<path d="M923.905 2038.17L943.471 2006.87L947.561 2000.36L948.879 1998.28L785.891 1751.93C785.891 1751.93 741.249 1758.89 721.007 1777.15C719.096 1778.92 717.323 1780.84 715.701 1782.89C698.129 1805.05 685.287 1852.11 685.287 1852.11L882.845 2006L914.003 2030.35L923.905 2038.17Z" fill="url(#paint9_linear)"/>
<path style="mix-blend-mode:color-dodge" opacity="0.61" d="M913.969 2030.42L943.471 2007.04L948.98 2002.66L947.56 2000.54L785.35 1758.54C775.657 1758.81 766.047 1760.46 756.794 1763.45C736.248 1769.88 726.954 1777.36 726.954 1777.36L909.914 1983.91C905.708 1990.4 900.354 1996.02 894.132 2000.47C890.76 2003.08 886.943 2005.01 882.879 2006.17L913.969 2030.42Z" fill="url(#paint10_linear)"/>
<g style="mix-blend-mode:multiply" opacity="0.44">
<path d="M700.223 1821.33L883.217 1999.67L880.953 1999.81L688.632 1849.3L700.223 1821.33Z" fill="#FF4440"/>
</g>
<path d="M779.437 1797.29C788.933 1809.61 799.713 1817.19 803.092 1814.23C806.471 1811.28 801.977 1798.93 792.481 1786.65C782.985 1774.37 772.374 1766.72 768.825 1769.67C765.277 1772.63 769.974 1784.98 779.437 1797.29Z" fill="white"/>
<path d="M809.006 1828.08C811.709 1831.56 814.751 1833.78 815.765 1832.91C816.778 1832.04 815.427 1828.56 812.723 1825.02C810.019 1821.47 806.978 1819.35 805.964 1820.18C804.95 1821.02 806.268 1824.56 809.006 1828.08Z" fill="white"/>
<path d="M691.606 2284.27L760.511 2285.11L908.731 2286.95L1321.96 2292.07L1362.68 2292.55C1361.82 2274.35 1360.07 2256.21 1357.44 2238.19C1356.57 2231.99 1355.55 2225.38 1354.4 2218.46C1337.91 2120.3 1289.15 1952.68 1146.2 1892.32C1140 1889.73 1133.63 1887.33 1127.07 1885.12C1109.05 1879.12 1090.52 1874.89 1071.72 1872.5C1060.97 1871.11 1049.83 1870.26 1038.3 1869.96C1035.15 1869.96 1032.01 1869.96 1028.83 1869.96C1025.66 1869.96 1022.07 1869.96 1018.7 1870.13H1015.32H1015.11H1011.73L1008.35 1870.31L1005.28 1870.51H1004.23H1001.6H1000.75L997.372 1870.83L993.992 1871.14H993.756L991.018 1871.42H990.038L987.065 1871.77L984.361 1872.11H982.942L980.069 1872.53L976.994 1872.98L970.235 1874.1L967.059 1874.69L963.679 1875.31L960.908 1875.91L956.954 1876.74L954.251 1877.37H954.082L951.209 1878.06H951.007L948.438 1878.69L947.424 1878.97L944.958 1879.63H944.383L941.781 1880.36L938.942 1881.19H938.57L935.732 1882.03L932.353 1883.07L930.055 1883.84L929.514 1884.01L926.776 1884.92L924.783 1885.61H924.478C923.881 1885.78 923.294 1885.99 922.721 1886.24L917.855 1888.05L915.625 1888.88L914.509 1889.33L913.293 1889.82L911.941 1890.38L909.204 1891.52L907.075 1892.46H906.737L905.115 1893.16L903.695 1893.79L901.465 1894.79L898.795 1896.08L896.7 1897.09L895.754 1897.54L893.456 1898.69L891.023 1899.91L888.218 1901.37L886.089 1902.52L884.67 1903.32L882.946 1904.26L880.547 1905.61L877.505 1907.39L875.545 1908.53L873.585 1909.72L870.206 1911.73L868.516 1912.81L865.644 1914.69L863.447 1916.15L862.974 1916.46L861.487 1917.51L858.107 1919.8L856.35 1921.09L853.647 1923.04L851.653 1924.57L849.659 1926.07L847.023 1928.12L844.962 1929.75C844.218 1930.34 843.475 1930.94 842.765 1931.56C841.312 1932.74 839.859 1933.93 838.439 1935.04L836.513 1936.71L833.742 1939.14L832.12 1940.57L830.261 1942.31C828.741 1943.67 827.254 1945.06 825.801 1946.45L824.111 1948.08L822.252 1949.89L821.239 1950.9L818.096 1954.1L816.507 1955.74L815.933 1956.33L814.277 1958.1C809.771 1962.74 805.491 1967.56 801.435 1972.57C800.861 1973.3 800.286 1974 799.678 1974.69L798.428 1976.26L797.988 1978.76C797.583 1979.29 797.144 1979.81 796.738 1980.36L795.454 1981.96L794.609 1983.04C792.852 1985.3 791.23 1987.6 789.439 1990L788.29 1991.53C787.242 1992.99 786.161 1994.45 785.147 1995.91L783.66 1998.03L781.26 2001.51L779.571 2003.98L778.489 2005.65L776.969 2007.95L774.4 2011.91L772.575 2014.8C772.587 2014.88 772.587 2014.96 772.575 2015.04L770.548 2018.52L770.379 2018.77L768.487 2021.93C767.811 2023.01 767.169 2024.12 766.56 2025.2C766.56 2025.37 766.324 2025.55 766.222 2025.76C765.614 2026.77 765.04 2027.81 764.465 2028.82L762.539 2032.3L760.917 2035.25L760.106 2036.71L758.686 2039.36L757.098 2042.31C754.597 2047.07 752.198 2051.83 749.9 2056.61L749.224 2057.97L748.21 2060.16C747.568 2061.48 746.96 2062.8 746.351 2064.12L744.797 2067.6C744.256 2068.79 743.749 2069.97 743.209 2071.08C742.972 2071.6 742.77 2072.16 742.533 2072.68C742.296 2073.2 741.857 2074.14 741.553 2074.87C741.249 2075.6 740.573 2077.13 740.1 2078.35C739.593 2079.53 739.086 2080.72 738.613 2081.83C738.14 2082.94 737.836 2083.67 737.464 2084.61C736.822 2086.14 736.18 2087.67 735.571 2089.24L734.287 2092.44C733.375 2094.8 732.462 2097.17 731.584 2099.4L730.57 2102.14C729.962 2103.74 729.387 2105.34 728.813 2106.91C728.238 2108.47 728.069 2108.96 727.731 2109.97C726.616 2113.07 725.568 2116.16 724.352 2119.22L723.71 2121.14C723.372 2122.14 723.034 2123.15 722.73 2124.16L721.817 2126.91C721.04 2129.38 720.263 2131.81 719.519 2134.28C719.181 2135.33 718.877 2136.41 718.539 2137.45C716.883 2142.91 715.363 2148.3 713.91 2153.62C713.707 2154.32 713.538 2154.98 713.335 2155.64C712.321 2159.4 711.375 2163.12 710.462 2166.77C710.462 2167.36 710.158 2167.92 710.023 2168.48C709.618 2170.08 709.212 2171.71 708.84 2173.28C708.334 2175.47 707.827 2177.59 707.32 2179.71C707.151 2180.41 706.982 2181.1 706.847 2181.83C706.34 2183.96 705.867 2186.04 705.427 2188.13L704.109 2194.22L703.704 2196.24L703.366 2197.9L702.96 2199.89C702.555 2201.87 702.183 2203.82 701.811 2205.73C701.811 2206.39 701.575 2207.02 701.44 2207.68L700.73 2211.51C700.73 2212.13 700.527 2212.72 700.392 2213.31C700.257 2213.91 700.189 2214.6 700.054 2215.19C699.919 2215.78 699.817 2216.72 699.682 2217.45C699.547 2218.18 699.682 2218.39 699.446 2218.85L699.142 2220.62L698.837 2222.43C697.722 2229.07 696.776 2235.33 695.965 2241.14C695.424 2245.07 694.951 2248.79 694.512 2252.27C694.512 2253.63 694.208 2254.95 694.039 2256.24L693.735 2259.02L693.532 2260.97C693.515 2261.28 693.515 2261.6 693.532 2261.91C693.532 2262.43 693.532 2262.95 693.363 2263.44C693.194 2263.93 693.363 2264.24 693.363 2264.66V2265.66C693.363 2265.91 693.363 2266.15 693.363 2266.4C693.363 2266.64 693.363 2267.3 693.363 2267.72C693.363 2268.13 693.363 2269.07 693.363 2269.7V2270.64C693.363 2270.95 693.363 2271.27 693.363 2271.54C693.363 2272.62 693.363 2273.63 693.093 2274.57C693.093 2274.78 693.093 2274.99 693.093 2275.2C693.093 2275.4 693.093 2276.41 693.093 2276.97C692.822 2280.24 692.721 2282.47 692.653 2283.51V2283.68C691.606 2284.1 691.606 2284.27 691.606 2284.27Z" fill="url(#paint11_linear)"/>
<g style="mix-blend-mode:color-dodge" opacity="0.44">
<path d="M1324.9 2161.94C1327.63 2205.32 1326.65 2248.86 1321.96 2292.07L1362.68 2292.55C1362.68 2292.55 1353.36 1979.77 1146.06 1892.32C1196.99 1915.84 1315.03 1995.53 1324.9 2161.94Z" fill="#BED6F4"/>
</g>
<path style="mix-blend-mode:multiply" d="M895.044 2299.65L1216.86 2307.79L1158.23 2119.47L1116.36 2118.63L1116.8 2091.81L1109.87 2091.74H1109.67L1082.97 2091.43L1083.41 2064.92L1059.92 2049.62L1060.94 1983.46L1046.51 1938.07L1046.27 1939.01L1035.26 1980.64L1040.76 2048.09L1020.86 2063.67L1020.42 2090.73L985.612 2090.35L985.173 2118.32L950.838 2119.33L896.903 2293.63L895.044 2299.65Z" fill="url(#paint12_linear)"/>
<path style="mix-blend-mode:multiply" opacity="0.52" d="M896.903 2293.63L943.133 2290.92L964.862 2126.46L1121.87 2122.74L1004.84 2119.26L1005.25 2093.59L1109.87 2091.74H1109.67L1083.01 2091.19L1032.04 2090.14L1032.48 2062.18L1044.82 2047.6L1043.84 1980.26L1055.94 1980.5L1042.38 1977.37L1046.27 1939.01L1035.25 1980.64L1040.76 2048.09L1020.86 2063.67L1020.42 2090.73L985.611 2090.35L985.172 2118.32L950.838 2119.33L896.903 2293.63Z" fill="url(#paint13_linear)"/>
<path style="mix-blend-mode:multiply" d="M691.606 2284.24L760.511 2285.11L1116.93 2292.55C871.186 2286.64 833.067 2160.37 847.057 2069.34C877.066 1873.92 1065.97 1872.5 1071.48 1872.5L1030.32 1870.55L1018.66 1869.99C708.976 1878.58 691.606 2284.24 691.606 2284.24Z" fill="url(#paint14_linear)"/>
<g style="mix-blend-mode:color-dodge" opacity="0.41">
<path d="M1184.62 2006.59C1213.58 2058.04 1240.82 2096.2 1252.45 2089.48C1264.07 2082.77 1257.11 2031.53 1228.15 1980.09C1199.19 1928.64 1159.21 1896.6 1147.58 1903.21C1135.96 1909.82 1155.66 1955.11 1184.62 2006.59Z" fill="#BED6F4"/>
</g>
<path opacity="0.53" d="M1189.56 1951.84C1183.75 1955.32 1186.92 1972.22 1196.72 1990.1C1206.52 2007.98 1219.13 2019.67 1224.97 2016.4C1230.82 2013.13 1227.61 1995.98 1217.84 1978.14C1208.08 1960.29 1195.4 1948.57 1189.56 1951.84Z" fill="white"/>
<g style="mix-blend-mode:color-dodge" opacity="0.41">
<path d="M1257.75 2149.49C1261.84 2166.88 1268.63 2180.1 1272.99 2179.06C1277.35 2178.01 1277.56 2163.09 1273.5 2145.73C1269.45 2128.37 1262.62 2115.12 1258.29 2116.17C1253.97 2117.21 1253.7 2132.13 1257.75 2149.49Z" fill="#BED6F4"/>
</g>
<path opacity="0.53" d="M1259.71 2121.84C1256.91 2122.53 1256.33 2129.84 1258.19 2138.22C1260.05 2146.6 1264 2152.79 1266.78 2152.13C1269.55 2151.47 1270.15 2144.13 1268.33 2135.78C1266.51 2127.44 1262.52 2121.18 1259.71 2121.84Z" fill="white"/>
<path style="mix-blend-mode:screen" d="M1250.56 2085.13C1289.52 2063.8 1299.82 2005.34 1273.58 1954.56C1247.34 1903.78 1194.48 1879.91 1155.53 1901.24C1116.58 1922.56 1106.27 1981.02 1132.52 2031.8C1158.76 2082.58 1211.61 2106.45 1250.56 2085.13Z" fill="url(#paint15_radial)"/>
<path style="mix-blend-mode:screen" d="M1242.38 2144.06C1253.12 2166.01 1270.63 2179.37 1281.48 2173.91C1292.32 2168.44 1292.39 2146.08 1281.48 2124.3C1270.56 2102.53 1253.22 2089.03 1242.38 2094.49C1231.53 2099.95 1231.63 2122.15 1242.38 2144.06Z" fill="url(#paint16_radial)"/>
<g style="mix-blend-mode:multiply">
<path d="M760.511 2285.11C755.351 2270.7 751.095 2255.97 747.771 2241L1357.44 2238.19C1356.57 2231.99 1355.55 2225.38 1354.4 2218.46L743.175 2215.51C735.29 2161.83 742.587 2106.96 764.195 2057.45C804.578 1963.91 871.456 1916.64 932.589 1892.88C952.699 1898.61 973.405 1901.84 994.263 1902.48C1047.76 1905.06 1106.8 1887.45 1106.8 1887.45L1010.21 1872.81L998.994 1871.11H997.473L994.094 1871.42H993.857L991.12 1871.7H990.14L987.166 1872.05L984.463 1872.39H983.043L980.171 1872.81L977.096 1873.26L970.337 1874.38L967.16 1874.97L963.781 1875.59L961.01 1876.18L957.056 1877.02L954.352 1877.65H954.183L951.311 1878.34H951.108L948.54 1878.97L947.526 1879.25L945.059 1879.91H944.484L941.882 1880.64L939.044 1881.47H938.672L935.833 1882.31L932.454 1883.35L930.156 1884.12L929.615 1884.29L926.878 1885.19L924.884 1885.89H924.58C923.983 1886.06 923.396 1886.27 922.823 1886.52L920.153 1887.49L917.956 1888.32L915.726 1889.16L914.611 1889.61L913.394 1890.1L912.043 1890.65L909.305 1891.8L907.176 1892.74H906.838L905.216 1893.44L903.797 1894.06L901.567 1895.07L898.897 1896.36L896.801 1897.37L895.855 1897.82L893.557 1898.97L891.124 1900.19L888.319 1901.65L886.19 1902.79L884.771 1903.59L883.047 1904.53L880.648 1905.89L877.607 1907.66L875.647 1908.81L873.687 1909.99L870.307 1912.01L868.618 1913.09L865.745 1914.97L863.549 1916.43L863.075 1916.74L861.588 1917.79L858.209 1920.08L856.452 1921.37L853.748 1923.32L851.754 1924.85L849.761 1926.34L847.125 1928.4L845.063 1930.03C844.32 1930.62 843.576 1931.21 842.867 1931.84C841.414 1933.02 839.96 1934.2 838.541 1935.32L836.615 1936.99L833.844 1939.42L832.222 1940.85L830.363 1942.59C828.842 1943.94 827.355 1945.34 825.902 1946.73L824.213 1948.36L822.354 1950.17L821.34 1951.18L818.197 1954.38L816.609 1956.01L816.034 1956.61L814.378 1958.38C809.873 1963.02 805.592 1967.84 801.537 1972.85C800.962 1973.58 800.388 1974.28 799.78 1974.97L798.529 1976.54L797.988 1978.76C797.583 1979.29 797.144 1979.81 796.738 1980.36L795.454 1981.96L794.609 1983.04C792.852 1985.3 791.23 1987.6 789.439 1990L788.29 1991.53C787.242 1992.99 786.161 1994.45 785.147 1995.91L783.66 1998.03L781.261 2001.51L779.571 2003.98L778.489 2005.65L776.969 2007.95L774.4 2011.91L772.575 2014.8C772.587 2014.88 772.587 2014.96 772.575 2015.04L770.548 2018.52L770.379 2018.77L768.487 2021.93C767.811 2023.01 767.169 2024.12 766.56 2025.2C766.56 2025.37 766.324 2025.55 766.222 2025.76C765.614 2026.77 765.04 2027.81 764.465 2028.82L762.539 2032.3L760.917 2035.25L760.106 2036.71L758.686 2039.36L757.098 2042.31C754.597 2047.07 752.198 2051.83 749.9 2056.61L749.224 2057.97L748.21 2060.16C747.568 2061.48 746.96 2062.8 746.351 2064.12L744.797 2067.6C744.256 2068.79 743.749 2069.97 743.209 2071.08C742.972 2071.6 742.77 2072.16 742.533 2072.68C742.296 2073.2 741.857 2074.14 741.553 2074.87C741.249 2075.6 740.573 2077.13 740.1 2078.35C739.593 2079.53 739.086 2080.72 738.613 2081.83C738.14 2082.94 737.836 2083.67 737.464 2084.61C736.822 2086.14 736.18 2087.67 735.571 2089.24L734.287 2092.44C733.375 2094.8 732.462 2097.17 731.584 2099.4L730.57 2102.14C729.962 2103.74 729.387 2105.34 728.813 2106.91C728.238 2108.47 728.069 2108.96 727.731 2109.97C726.616 2113.07 725.568 2116.16 724.352 2119.22L723.71 2121.14C723.372 2122.14 723.034 2123.15 722.73 2124.16L721.817 2126.91C721.04 2129.38 720.263 2131.81 719.519 2134.28C719.181 2135.33 718.877 2136.41 718.539 2137.45C716.883 2142.91 715.363 2148.3 713.91 2153.62C713.707 2154.32 713.538 2154.98 713.335 2155.64C712.321 2159.4 711.375 2163.12 710.463 2166.77C710.463 2167.36 710.158 2167.92 710.023 2168.48C709.618 2170.08 709.212 2171.71 708.84 2173.28C708.3 2175.47 707.793 2177.59 707.32 2179.71C707.151 2180.41 706.982 2181.1 706.847 2181.83C706.34 2183.96 705.867 2186.04 705.427 2188.13L704.109 2194.22L703.704 2196.24L703.366 2197.91L702.96 2199.89C702.555 2201.87 702.183 2203.82 701.811 2205.73C701.811 2206.39 701.575 2207.02 701.44 2207.68L700.73 2211.51C700.73 2212.13 700.527 2212.72 700.392 2213.31C700.257 2213.91 700.189 2214.6 700.054 2215.19C699.919 2215.78 699.817 2216.72 699.682 2217.45C699.547 2218.18 699.682 2218.39 699.446 2218.85L699.142 2220.62L698.837 2222.43C697.722 2229.07 696.776 2235.33 695.965 2241.14C695.424 2245.07 694.951 2248.79 694.512 2252.27C694.512 2253.63 694.208 2254.95 694.039 2256.24L693.735 2259.02C693.735 2259.68 693.735 2260.34 693.532 2260.97C693.515 2261.28 693.515 2261.6 693.532 2261.91C693.532 2262.43 693.532 2262.95 693.363 2263.44C693.194 2263.93 693.363 2264.24 693.363 2264.66V2265.66C693.363 2265.91 693.363 2266.15 693.363 2266.4C693.363 2266.64 693.363 2267.3 693.363 2267.72C693.363 2268.13 693.363 2269.07 693.363 2269.7V2270.64C693.363 2270.95 693.363 2271.27 693.363 2271.54C693.363 2272.62 693.363 2273.63 693.093 2274.57C693.093 2274.78 693.093 2274.99 693.093 2275.2C693.093 2275.4 693.093 2276.41 693.093 2276.97C692.822 2280.24 692.721 2282.47 692.653 2283.51V2283.68C692.653 2284 692.653 2284.17 692.653 2284.17L760.511 2285.11Z" fill="#D29FA7"/>
</g>
<g style="mix-blend-mode:multiply">
<path d="M998.893 1871.11L1010.11 1872.81C1017.34 1871.77 1024.1 1871.04 1030.39 1870.55C1033.13 1870.31 1035.73 1870.13 1038.26 1869.96C1035.12 1869.96 1031.98 1869.96 1028.8 1869.96C1025.62 1869.96 1022.04 1869.96 1018.66 1870.13H1015.28H1015.08H1011.7L1008.32 1870.31L1005.25 1870.51H1004.2H1001.56H1000.75L998.893 1871.11Z" fill="#D29FA7"/>
</g>
<path d="M684.915 2227.27L1370.15 2227.72L1364.34 2203.13L1364 2201.73L1363.93 2201.49L1363.6 2200.1L1359.74 2183.82L695.695 2179.23L691.471 2198.05L691.167 2199.44L690.761 2201.18L690.457 2202.57L684.915 2227.27Z" fill="url(#paint17_linear)"/>
<g style="mix-blend-mode:multiply" opacity="0.44">
<path d="M1359.74 2183.82L725.062 2187.54L722.088 2225.91H689.004L698.669 2179.23L1359.74 2183.82Z" fill="#FF4440"/>
</g>
<path style="mix-blend-mode:color-dodge" opacity="0.35" d="M1367.92 2224.94L1358.63 2187.06H1272.72L1275.33 2221.25L1367.92 2224.94Z" fill="url(#paint18_linear)"/>
<g style="mix-blend-mode:multiply" opacity="0.65">
<path d="M690.457 2202.57L1364.34 2203.13L1364 2201.74L1363.93 2201.49L691.166 2199.44L690.761 2201.18L690.457 2202.57Z" fill="#FF4440"/>
</g>
<g style="mix-blend-mode:color-dodge" opacity="0.51">
<path d="M691.167 2199.44L1363.93 2201.49L1363.6 2200.1L691.471 2198.05L691.167 2199.44Z" fill="#FF4440"/>
</g>
<g style="mix-blend-mode:multiply">
<path d="M827.592 2000.75C818.198 2000.75 770.143 2020.96 772.711 2073.38C775.28 2125.8 797.077 2159.5 841.144 2158.67C932.725 2156.86 930.866 2060.4 930.866 2060.4C930.866 2060.4 836.987 2000.68 827.592 2000.75Z" fill="#D29FA7"/>
</g>
<path d="M804.308 2154.11L872.977 2147.4V2146.84C884.906 2146.84 906.771 2130.18 919.883 2104.3C924.729 2094.89 928.072 2084.75 929.784 2074.25C931.305 2064.7 931.305 2054.96 929.784 2045.41C927.95 2033.31 923.428 2021.81 916.571 2011.81C910.556 2003.22 903.865 1997.9 899.201 1997.13H898.829L837.663 1972.78L821.712 2059.25L804.308 2154.11Z" fill="url(#paint19_linear)"/>
<g style="mix-blend-mode:multiply" opacity="0.44">
<path d="M919.951 2104.3C906.737 2130.18 884.974 2146.7 873.045 2146.84V2147.4L804.41 2154.11L821.949 2059.12L836.953 2007.15C836.953 2007.15 866.624 1999.01 875.579 2032.37C884.535 2065.72 868.821 2105.41 868.821 2105.41L919.951 2104.3Z" fill="#FF4440"/>
</g>
<path d="M837.798 1972.64C815.73 1968.43 768.25 2015.39 761.931 2058.35C755.713 2100.3 785.147 2152.27 804.308 2154.11C823.469 2155.95 866.252 2119.33 874.734 2066.18C883.217 2013.03 852.43 1975.46 837.798 1972.64Z" fill="url(#paint20_linear)"/>
<g style="mix-blend-mode:multiply" opacity="0.74">
<path d="M870.476 2065.72C868.068 2080.3 862.889 2094.25 855.235 2106.77C852.337 2111.65 849.095 2116.3 845.536 2120.68C831.411 2138.08 815.122 2147.88 805.491 2146.95H804.578L809.58 2117.24L799.442 2113.27L781.294 2124.58C770.751 2106.77 763.012 2081.2 766.324 2058.77C772.17 2019.15 815.967 1975.84 836.311 1979.74C849.896 1982.24 878.283 2017.03 870.476 2065.72Z" fill="#D344BF"/>
</g>
<path style="mix-blend-mode:color-dodge" opacity="0.61" d="M836.783 2064.37C836.355 2067.34 835.78 2070.29 835.06 2073.2C829.078 2096.96 814.04 2113.8 807.721 2113.66C800.523 2113.34 789.134 2088.58 793.054 2060.33C796.974 2032.09 816.71 2010.59 822.151 2011.04C829.011 2011.6 840.737 2036.02 836.783 2064.37Z" fill="url(#paint21_linear)"/>
<path d="M832.864 2064.58C832.574 2067.06 832.156 2069.52 831.614 2071.95C827.221 2091.78 815.325 2105.62 810.155 2105.38C804.275 2104.96 794.542 2083.95 797.212 2060.16C799.882 2036.37 815.359 2018.87 819.921 2019.36C825.497 2020.09 835.534 2040.85 832.864 2064.58Z" fill="#8A174A"/>
<g style="mix-blend-mode:multiply" opacity="0.51">
<path d="M831.783 2071.95C827.389 2091.78 815.494 2105.62 810.324 2105.38C808.262 2101.9 799.206 2086 801.47 2069.97L831.783 2071.95Z" fill="#7C2345"/>
</g>
<path d="M940.666 1863.38L983.449 1877.54L1035.49 1880.57L1071.65 1882.65L1108.59 1864.88C1085.41 1858.48 1061.78 1853.94 1037.92 1851.28C1033.5 1850.9 1029.07 1850.58 1024.81 1850.44C987.234 1849.26 940.666 1863.38 940.666 1863.38Z" fill="#FFB9AE"/>
<path d="M940.666 1863.49L960.942 1873.92L1071.55 1878.76L1108.72 1864.6C1108.72 1864.6 1103.92 1864.15 1094.97 1863.52C1094.97 1863.52 1082.94 1869.96 1025.93 1871.14C968.918 1872.32 951.852 1862.44 951.852 1862.44C944.451 1863.11 940.666 1863.49 940.666 1863.49Z" fill="#FFB9AE"/>
<g style="mix-blend-mode:multiply" opacity="0.26">
<path d="M940.666 1863.38L983.449 1877.54L1035.49 1880.57L1047.32 1879.04C1047.32 1879.04 964.389 1868.6 973.48 1860.67C979.867 1855.17 1012.17 1850.44 1037.89 1851.28C1033.46 1850.9 1029.04 1850.58 1024.78 1850.44C987.234 1849.26 940.666 1863.38 940.666 1863.38Z" fill="#FF44A2"/>
</g>
<path d="M1108.59 1864.77C1079.07 1871.58 1048.91 1874.9 1018.66 1874.69C968.208 1874.41 940.666 1863.49 940.666 1863.49L943.099 1886.72C967.104 1893.1 991.776 1896.44 1016.57 1896.67C1058.78 1897.26 1105.48 1887.32 1105.48 1887.32L1108.59 1864.77Z" fill="#FF9881"/>
<g style="mix-blend-mode:multiply" opacity="0.44">
<path d="M941.41 1865.37L943.201 1886.24C961.907 1891.18 981.055 1894.14 1000.35 1895.07L1000.62 1875.38C962.125 1873.3 941.41 1865.37 941.41 1865.37Z" fill="#FF44A2"/>
</g>
<path d="M1058.2 1874.41L1057.52 1892.12C1073.05 1890.92 1088.48 1888.59 1103.69 1885.16L1106.56 1866.65C1090.73 1870.87 1074.53 1873.47 1058.2 1874.41V1874.41Z" fill="#FFB9AE"/>
<path d="M1037.15 1893.19C1043.3 1892.99 1049.14 1892.64 1054.65 1892.18L1054.42 1874.55C1049.21 1874.9 1043.67 1875.21 1037.72 1875.38L1037.15 1893.19Z" fill="#FFB9AE"/>
<path d="M972.601 1836.91L977.568 1862.79L989.599 1866.41L990.309 1866.38L1045.29 1865.54L1047.32 1865.51L1058.78 1862.93L1060.06 1862.65L1064.62 1837.19L1047.32 1833.61H985.51L972.601 1836.91Z" fill="#740148"/>
<path d="M1048.5 1842.34V1865.51L1059.08 1862.93L1063.17 1838.41L1048.5 1842.34Z" fill="#C22B8F"/>
<path d="M986.389 1842.34L989.734 1866.37L1044.68 1865.54V1842.34H986.389Z" fill="#C22B8F"/>
<path d="M1004.06 1835.7L999.94 1817.92H1004.06L1000.82 1643.69L1002 1647.03L1008.15 1817.92H1014.03L1011.4 1835.7H1004.06Z" fill="#740148"/>
<path d="M1056.41 1575.86C1056.41 1579.61 1046.27 1582.81 1033.57 1582.81C1020.86 1582.81 1010.69 1579.75 1010.69 1575.86C1010.69 1571.96 1020.82 1569.07 1033.57 1569.07C1046.31 1569.07 1056.41 1572.13 1056.41 1575.86Z" fill="#740148"/>
<path d="M1052.66 1559.82C1052.66 1562.85 1044.38 1565.32 1034.17 1565.32C1023.97 1565.32 1015.69 1562.85 1015.69 1559.82C1015.69 1556.79 1023.97 1554.32 1034.17 1554.32C1044.38 1554.32 1052.66 1556.79 1052.66 1559.82Z" fill="#740148"/>
<path d="M1003.86 1644.83C1003.86 1647.41 1002.51 1649.49 1000.89 1649.49C999.264 1649.49 997.913 1647.41 997.913 1644.83C997.913 1642.26 999.231 1640.17 1000.89 1640.17C1002.54 1640.17 1003.86 1642.19 1003.86 1644.83Z" fill="#FF9881"/>
<path d="M1028.09 1833.26L1033.67 1488.44L1035.42 1491.75L1036.57 1833.26H1028.09Z" fill="#740148"/>
<path d="M1034.92 1495.05C1037.72 1495.05 1039.99 1491.49 1039.99 1487.09C1039.99 1482.69 1037.72 1479.12 1034.92 1479.12C1032.12 1479.12 1029.85 1482.69 1029.85 1487.09C1029.85 1491.49 1032.12 1495.05 1034.92 1495.05Z" fill="#FF9881"/>
<path d="M1361.03 2269.22L1407.29 2297.39L670.147 2281.29L693.667 2265.18L1361.03 2269.22Z" fill="#740148"/>
<path d="M262.357 2399.73H2238.62L2206.72 2363.55H1990.1L1974.79 2319.2H1552.84L1537.57 2285.08L1063.17 2279.79L1057.49 2279.76H1057.46L558.053 2274.19L560.351 2273.25L290.271 2361.5L262.357 2399.73Z" fill="url(#paint22_linear)"/>
<path style="mix-blend-mode:color-dodge" opacity="0.45" d="M1715.66 2330.13L1730.26 2364.91H1390.06L1899.06 2373.78L1913.93 2399.73H2238.62L2206.72 2363.55H1990.1L1974.79 2319.2H1552.84L1537.57 2285.08L1063.17 2279.79L1377.42 2292.59L1385.39 2323.31H1183.37L1715.66 2330.13Z" fill="url(#paint23_linear)"/>
<path opacity="0.51" d="M842.664 2399.73L842.63 2372.42H1172.09L693.093 2362.86L699.716 2330.78L1013.93 2323.31L605.364 2313.74L615.333 2282.26L1057.46 2279.76L567.38 2274.19L292.941 2364.91L265.027 2399.73H842.664Z" fill="#002744"/>
<path style="mix-blend-mode:screen" opacity="0.38" d="M-1.09904 1074.72C0.387883 1103.24 16.8455 1125.5 35.601 1124.42C54.3565 1123.34 68.3809 1099.45 66.8602 1070.92C65.3395 1042.4 48.9157 1020.17 30.1602 1021.22C11.4046 1022.26 -2.61976 1046.23 -1.09904 1074.72Z" fill="url(#paint24_radial)"/>
<path d="M-1813.9 2601.41C-1813.9 2601.41 2647.52 2594.45 2647.52 2584.36C2647.52 2575.56 2678.51 2382.09 2687.03 2328.94C2688.41 2320.42 2689.19 2315.52 2689.19 2315.52L2079.42 2325.74L1891.79 2295.1L792.075 2226.95H677.413L515.845 2203.13L395.843 2213.32L51.8561 2230.36L-70.4438 2234.85L-568.361 2223.55L-881.461 2213.81L-1224.94 2203.13L-1282.39 2138.46L-1782.61 2117.91L-1813.9 2601.41Z" fill="url(#paint25_linear)"/>
<path d="M-881.326 2214.01L-651.528 2240.76L-568.125 2237.29L-542.07 2257.7C-542.07 2257.7 -375.298 2240.69 -364.889 2240.69H-312.745L-52.2629 2281.6L223.968 2237.35L494.994 2213.53L541.899 2237.35L390.74 2285.08L677.412 2251.06L745 2244.1L927.486 2254.29L1344.43 2291.76L1761.38 2295.24L1855.19 2325.88L1865.64 2346.3L1829.14 2376.91L1912.54 2380.39L1938.6 2387.35L2178.33 2343.1L2496.26 2329.5L2579.66 2336.28L2686.93 2329.32C2688.31 2320.8 2689.09 2315.9 2689.09 2315.9L2079.31 2326.12L1891.69 2295.48L1881.25 2294.85L1662.37 2281.32L792.075 2227.16H677.412L515.844 2203.34L395.843 2213.53L51.8558 2230.57L-70.444 2235.06L-568.362 2223.75L-588.435 2223.13H-588.976L-881.326 2214.01Z" fill="url(#paint26_linear)"/>
<g style="mix-blend-mode:multiply">
<path d="M-2100.54 2434.44L-1829.51 2642L2647.52 2584.26L2736.1 2417.5L2423.47 2509.4H2251.46L1730.29 2536.64L891.158 2512.81L1282.05 2482.17C1282.05 2482.17 1594.78 2420.91 1573.93 2424.32C1553.08 2427.73 1042.32 2454.97 1042.32 2454.97L1005.82 2417.5L1026.67 2393.71L1068.34 2308.63L729.556 2298.4L557.58 2308.63H479.347L254.619 2339.93L213.559 2325.5H104.101L83.0814 2363.76L78.1812 2373.29L65.3396 2366.58L52.1261 2359.62H-10.5613L-40.4351 2381.33L-104.305 2390.3H-401.454C-422.305 2390.3 -912.213 2417.5 -912.213 2417.5L-651.765 2359.66L-1047.86 2383.48L-1329.33 2369.88L-1443.82 2332.45L-1329.19 2298.4L-1172.83 2250.78H-1308.34L-1855.57 2271.2V2203.13L-1788.49 2170.29L-1907.71 2114.64L-2100.54 2434.44Z" fill="#D45BA7"/>
</g>
<path style="mix-blend-mode:color-dodge" opacity="0.94" d="M431.812 64.9822C437.127 -179.889 270.088 -382.337 58.7199 -387.198C-152.649 -392.059 -328.306 -197.493 -333.621 47.3781C-338.937 292.249 -171.898 494.697 39.4706 499.558C250.839 504.42 426.496 309.853 431.812 64.9822Z" fill="url(#paint27_radial)"/>
<path d="M128.485 340.667C67.3369 342.541 7.36619 323.101 -41.7044 285.499C-41.7044 285.499 -41.7044 285.499 -41.7044 285.499C-101.796 239.235 -140.933 167.908 -142.63 86.8028C-144.98 -26.0517 -73.9209 -124.056 27.5595 -162.996C56.423 -174.029 86.8676 -180.047 117.648 -180.802C264.532 -184.633 385.826 -71.0053 388.829 72.9942C391.832 216.994 275.271 336.836 128.485 340.667Z" fill="url(#paint28_linear)"/>
<path style="mix-blend-mode:multiply" opacity="0.31" d="M387.458 66.3418C390.232 199.12 275.663 309.589 131.488 313.352C124.96 313.352 118.432 313.352 112.165 313.016C247.298 300.517 291.33 155.476 289.633 73.7669C287.936 -7.94259 237.701 -160.342 102.209 -165.818C108.346 -166.355 114.906 -166.96 121.467 -167.128C265.642 -170.858 384.683 -66.4361 387.458 66.3418Z" fill="url(#paint29_linear)"/>
<g style="mix-blend-mode:multiply" opacity="0.14">
<path d="M128.289 286.309C125.025 295.481 118.04 300.957 112.622 298.505C107.203 296.052 105.441 286.611 108.705 277.405C111.969 268.2 118.954 262.757 124.372 265.21C129.791 267.662 131.553 277.103 128.289 286.309Z" fill="#A83373"/>
</g>
<g style="mix-blend-mode:multiply" opacity="0.14">
<path d="M283.529 96.3816C279.514 119.127 265.413 135.086 252.03 132.062C238.648 129.039 231.042 108.141 235.057 85.3952C239.072 62.6496 253.205 46.6571 266.556 49.7145C279.906 52.7719 287.544 73.636 283.529 96.3816Z" fill="#A83373"/>
</g>
<path style="mix-blend-mode:color-dodge" opacity="0.27" d="M125.58 98.0583C135.535 57.3716 162.464 28.444 191.906 22.9676C178.85 -73.6592 116.081 -151.169 33.2389 -162.256L27.5268 -162.895C-73.9537 -123.955 -145.47 -28.504 -143.054 84.2161C-142.044 123.467 -132.417 161.973 -114.893 196.85C-97.3692 231.726 -72.4037 262.068 -41.8677 285.6C-41.8677 285.6 -41.8677 285.6 -41.8677 285.6C-32.8426 288.615 -23.5656 290.763 -14.1557 292.017C51.6157 300.786 113.731 265.543 152.77 205.302C127.016 184.572 114.972 141.399 125.58 98.0583ZM26.0579 -101.344C35.0341 -100.134 41.2685 -89.1477 39.9955 -76.7502C38.7225 -64.3527 30.2032 -55.3821 21.4228 -56.5916C12.6424 -57.8011 6.17956 -68.7875 7.45255 -81.1179C8.72555 -93.4482 16.9184 -102.688 26.0579 -101.344ZM-18.3337 255.43C-20.3574 256.135 -22.6423 254.388 -23.393 251.6C-23.8373 250.42 -23.8432 249.113 -23.4095 247.929C-22.9759 246.745 -22.1332 245.767 -21.0429 245.182C-18.9865 244.477 -16.7016 246.19 -15.9509 249.046C-15.5109 250.225 -15.5109 251.53 -15.951 252.709C-16.3911 253.888 -17.24 254.857 -18.3337 255.43V255.43ZM-20.2595 140.19C-29.2357 139.014 -35.5027 127.994 -34.1971 115.664C-32.8915 103.333 -24.5681 94.2282 -15.5919 95.5049C-6.61565 96.7816 -0.381212 107.701 -1.68685 120.065C-2.99248 132.429 -11.3159 141.399 -20.2595 140.19ZM-1.45834 91.1036C-18.8233 88.7854 -33.0547 75.8503 -40.3989 58.0099C-39.7259 62.3777 -39.6271 66.8189 -40.1051 71.2138C-42.292 92.2123 -56.4256 107.566 -71.7015 105.551C-86.9775 103.535 -97.5857 84.8208 -95.3987 63.8223C-93.2118 42.8238 -79.0783 27.4025 -63.7697 29.4519C-59.4698 30.2159 -55.4245 32.0769 -52.0034 34.8647C-48.5822 37.6525 -45.8943 41.2783 -44.1852 45.4108C-45.7975 37.6185 -46.1942 29.6116 -45.3603 21.6909C-41.8678 -12.9147 -16.3752 -37.9449 11.598 -34.1484C39.5712 -30.3518 54.9124 -0.0131776 51.3219 34.626C47.7314 69.2652 26.4822 94.8329 -1.45834 91.1036ZM114.613 -22.49C113.115 -22.9454 111.841 -23.9684 111.048 -25.3526C110.254 -26.7368 110 -28.3792 110.337 -29.9487C110.728 -33.7452 113.307 -36.5002 116.049 -36.1642C117.545 -35.6879 118.813 -34.6491 119.599 -33.2546C120.385 -31.8602 120.633 -30.2121 120.292 -28.6384C119.9 -24.8754 117.452 -22.1204 114.613 -22.49Z" fill="url(#paint30_linear)"/>
<rect width="4485" height="2738" transform="matrix(1 0 0 -1 -1278 2593)" fill="url(#paint31_linear)" fill-opacity="0.6"/>
</g>
<defs>
<linearGradient id="paint0_linear" x1="448.291" y1="1829.61" x2="448.291" y2="69.003" gradientUnits="userSpaceOnUse">
<stop stop-color="#169080"/>
<stop offset="1" stop-color="#004167"/>
</linearGradient>
<linearGradient id="paint1_linear" x1="1015.11" y1="1455.4" x2="1046.62" y2="2223.12" gradientUnits="userSpaceOnUse">
<stop/>
<stop offset="0.1" stop-color="#000304"/>
<stop offset="0.2" stop-color="#000C0F"/>
<stop offset="0.29" stop-color="#001A22"/>
<stop offset="0.39" stop-color="#002F3D"/>
<stop offset="0.48" stop-color="#004960"/>
<stop offset="0.57" stop-color="#00698B"/>
<stop offset="0.66" stop-color="#0090BD"/>
<stop offset="0.75" stop-color="#00BBF6"/>
<stop offset="0.77" stop-color="#00C2FF"/>
<stop offset="0.79" stop-color="#00BDF7"/>
<stop offset="0.82" stop-color="#00AEE2"/>
<stop offset="0.85" stop-color="#0096C0"/>
<stop offset="0.9" stop-color="#007590"/>
<stop offset="0.94" stop-color="#004A53"/>
<stop offset="0.99" stop-color="#001709"/>
<stop offset="1" stop-color="#001000"/>
</linearGradient>
<linearGradient id="paint2_linear" x1="1668.01" y1="2297.6" x2="1647.5" y2="1906.58" gradientUnits="userSpaceOnUse">
<stop stop-color="#FFFC9D"/>
<stop offset="0.21" stop-color="#C3C178"/>
<stop offset="0.6" stop-color="#5B5A38"/>
<stop offset="0.87" stop-color="#1A1910"/>
<stop offset="1"/>
</linearGradient>
<radialGradient id="paint3_radial" cx="0" cy="0" r="1" gradientUnits="userSpaceOnUse" gradientTransform="translate(-5.22868e+06 120858) rotate(180) scale(389057 9676.29)">
<stop stop-color="#FFCE00"/>
<stop offset="0.08" stop-color="#E1B600"/>
<stop offset="0.28" stop-color="#9E7F00"/>
<stop offset="0.46" stop-color="#655200"/>
<stop offset="0.63" stop-color="#3A2F00"/>
<stop offset="0.78" stop-color="#1A1500"/>
<stop offset="0.91" stop-color="#070600"/>
<stop offset="1"/>
</radialGradient>
<linearGradient id="paint4_linear" x1="746.736" y1="1835.84" x2="376.953" y2="1766.82" gradientUnits="userSpaceOnUse">
<stop stop-color="#008881"/>
<stop offset="1" stop-color="#5F4581"/>
</linearGradient>
<linearGradient id="paint5_linear" x1="625.471" y1="1160.15" x2="293.836" y2="2515.66" gradientUnits="userSpaceOnUse">
<stop stop-color="#CD73A1"/>
<stop offset="1" stop-color="#5F4581"/>
</linearGradient>
<linearGradient id="paint6_linear" x1="1765.74" y1="1589.28" x2="87.1805" y2="2430.13" gradientUnits="userSpaceOnUse">
<stop stop-color="#F0BD60"/>
<stop offset="1" stop-color="#F35C79"/>
</linearGradient>
<linearGradient id="paint7_linear" x1="1032.45" y1="2082.94" x2="791.708" y2="1990.68" gradientUnits="userSpaceOnUse">
<stop stop-color="#00FBC2"/>
<stop offset="1"/>
</linearGradient>
<linearGradient id="paint8_linear" x1="2465.31" y1="2226.4" x2="1255.91" y2="2259.46" gradientUnits="userSpaceOnUse">
<stop stop-color="#609CC6"/>
<stop offset="0.22" stop-color="#1DB2AA"/>
<stop offset="1" stop-color="#5E4794"/>
</linearGradient>
<linearGradient id="paint9_linear" x1="894504" y1="178720" x2="886699" y2="137145" gradientUnits="userSpaceOnUse">
<stop stop-color="#9E4794"/>
<stop offset="0.55" stop-color="#D16D7F"/>
<stop offset="1" stop-color="#FFA684"/>
</linearGradient>
<linearGradient id="paint10_linear" x1="-385398" y1="1.2687e+06" x2="-390304" y2="1.27304e+06" gradientUnits="userSpaceOnUse">
<stop stop-color="#00FBC2"/>
<stop offset="1"/>
</linearGradient>
<linearGradient id="paint11_linear" x1="2.16041e+06" y1="255258" x2="2.29367e+06" y2="255258" gradientUnits="userSpaceOnUse">
<stop stop-color="#00FBC2"/>
<stop offset="0.78" stop-color="#009FBF"/>
</linearGradient>
<linearGradient id="paint12_linear" x1="1.03933e+06" y1="232819" x2="1.06928e+06" y2="228079" gradientUnits="userSpaceOnUse">
<stop stop-color="#00FBC2"/>
<stop offset="1" stop-color="#009FBF"/>
</linearGradient>
<linearGradient id="paint13_linear" x1="735190" y1="220712" x2="747742" y2="219264" gradientUnits="userSpaceOnUse">
<stop stop-color="#00FBC2"/>
<stop offset="1" stop-color="#009FBF"/>
</linearGradient>
<linearGradient id="paint14_linear" x1="1.4087e+06" y1="253564" x2="1.435e+06" y2="267438" gradientUnits="userSpaceOnUse">
<stop stop-color="#60FFFF"/>
<stop offset="1" stop-color="#D29FA7"/>
</linearGradient>
<radialGradient id="paint15_radial" cx="0" cy="0" r="1" gradientUnits="userSpaceOnUse" gradientTransform="translate(-303646 858961) rotate(153.582) scale(3229.39 4648.94)">
<stop stop-color="#00FBC2"/>
<stop offset="1"/>
</radialGradient>
<radialGradient id="paint16_radial" cx="0" cy="0" r="1" gradientUnits="userSpaceOnUse" gradientTransform="translate(-59191.5 307967) rotate(153.577) scale(301.528 783.508)">
<stop stop-color="#00FBC2"/>
<stop offset="1"/>
</radialGradient>
<linearGradient id="paint17_linear" x1="2.34686e+06" y1="32865.5" x2="2.24765e+06" y2="50071.7" gradientUnits="userSpaceOnUse">
<stop stop-color="#9E4794"/>
<stop offset="0.55" stop-color="#D16D7F"/>
<stop offset="1" stop-color="#FFA684"/>
</linearGradient>
<linearGradient id="paint18_linear" x1="307498" y1="26213.3" x2="310179" y2="26213.3" gradientUnits="userSpaceOnUse">
<stop stop-color="#00FBC2"/>
<stop offset="1"/>
</linearGradient>
<linearGradient id="paint19_linear" x1="429202" y1="115482" x2="424060" y2="108973" gradientUnits="userSpaceOnUse">
<stop stop-color="#9E4794"/>
<stop offset="0.55" stop-color="#D16D7F"/>
<stop offset="1" stop-color="#FFA684"/>
</linearGradient>
<linearGradient id="paint20_linear" x1="394622" y1="112292" x2="382294" y2="109834" gradientUnits="userSpaceOnUse">
<stop stop-color="#9E4794"/>
<stop offset="0.55" stop-color="#D16D7F"/>
<stop offset="1" stop-color="#FFA684"/>
</linearGradient>
<linearGradient id="paint21_linear" x1="155361" y1="63714.5" x2="152314" y2="63343.9" gradientUnits="userSpaceOnUse">
<stop stop-color="#00FBC2"/>
<stop offset="1"/>
</linearGradient>
<linearGradient id="paint22_linear" x1="6.17135e+06" y1="87171.6" x2="7.12995e+06" y2="178072" gradientUnits="userSpaceOnUse">
<stop stop-color="#609CC6"/>
<stop offset="0.22" stop-color="#1DB2AA"/>
<stop offset="1" stop-color="#5E4794"/>
</linearGradient>
<linearGradient id="paint23_linear" x1="3.41745e+06" y1="81038.6" x2="3.79343e+06" y2="342104" gradientUnits="userSpaceOnUse">
<stop stop-color="#00FBC2"/>
<stop offset="1"/>
</linearGradient>
<radialGradient id="paint24_radial" cx="0" cy="0" r="1" gradientUnits="userSpaceOnUse" gradientTransform="translate(-234843 292719) rotate(176.319) scale(571.314 1161.4)">
<stop stop-color="#00FBC2"/>
<stop offset="0.07" stop-color="#00E1AE"/>
<stop offset="0.27" stop-color="#009E7A"/>
<stop offset="0.46" stop-color="#00654E"/>
<stop offset="0.63" stop-color="#003A2C"/>
<stop offset="0.78" stop-color="#001A14"/>
<stop offset="0.91" stop-color="#000705"/>
<stop offset="1"/>
</radialGradient>
<linearGradient id="paint25_linear" x1="703.671" y1="1457.11" x2="438.547" y2="2282.01" gradientUnits="userSpaceOnUse">
<stop stop-color="#C24905"/>
<stop offset="1" stop-color="#8E0055"/>
</linearGradient>
<linearGradient id="paint26_linear" x1="1636.04" y1="2167.44" x2="-1500" y2="2587.66" gradientUnits="userSpaceOnUse">
<stop stop-color="#FC8964"/>
<stop offset="1" stop-color="#F35C79"/>
</linearGradient>
<radialGradient id="paint27_radial" cx="0" cy="0" r="1" gradientUnits="userSpaceOnUse" gradientTransform="translate(56.5901 53.5349) rotate(6.43142) scale(388.89 434.53)">
<stop stop-color="#70F7F7"/>
<stop offset="0.11" stop-color="#60D4D4"/>
<stop offset="0.36" stop-color="#3E8989"/>
<stop offset="0.58" stop-color="#244E4E"/>
<stop offset="0.77" stop-color="#102424"/>
<stop offset="0.91" stop-color="#040A0A"/>
<stop offset="1"/>
</radialGradient>
<linearGradient id="paint28_linear" x1="-150.263" y1="22.6643" x2="478.664" y2="147.078" gradientUnits="userSpaceOnUse">
<stop stop-color="#CFB883"/>
<stop offset="1" stop-color="#6862AF"/>
</linearGradient>
<linearGradient id="paint29_linear" x1="41.2449" y1="55.7351" x2="484.788" y2="133.57" gradientUnits="userSpaceOnUse">
<stop stop-color="white"/>
<stop offset="0.09" stop-color="#FCF8FC"/>
<stop offset="0.22" stop-color="#F4E6F3"/>
<stop offset="0.36" stop-color="#E6C8E5"/>
<stop offset="0.53" stop-color="#D39ED1"/>
<stop offset="0.71" stop-color="#BA68B7"/>
<stop offset="0.89" stop-color="#9D2899"/>
<stop offset="1" stop-color="#8B0086"/>
</linearGradient>
<linearGradient id="paint30_linear" x1="-309.064" y1="22.2824" x2="154.289" y2="80.6285" gradientUnits="userSpaceOnUse">
<stop stop-color="#FFFDA2"/>
<stop offset="0.21" stop-color="#C3C17C"/>
<stop offset="0.6" stop-color="#5B5A3A"/>
<stop offset="0.87" stop-color="#1A1910"/>
<stop offset="1"/>
</linearGradient>
<linearGradient id="paint31_linear" x1="2242.5" y1="0" x2="2242.5" y2="2738" gradientUnits="userSpaceOnUse">
<stop stop-color="#261C21"/>
<stop offset="1" stop-color="#B6B5B5" stop-opacity="0"/>
</linearGradient>
<clipPath id="clip0">
<rect width="1302" height="2537" fill="white"/>
</clipPath>
</defs>
</svg>
