<svg width="27" height="29" viewBox="0 0 27 29" fill="none" xmlns="http://www.w3.org/2000/svg">
<path d="M25.3433 23.0996C24.6986 21.5724 23.7629 20.1851 22.5885 19.0151C21.4176 17.8418 20.0306 16.9063 18.504 16.2603C18.4903 16.2534 18.4766 16.25 18.463 16.2432C20.5924 14.7051 21.9766 12.1997 21.9766 9.37305C21.9766 4.69043 18.1827 0.896484 13.5001 0.896484C8.81747 0.896484 5.02352 4.69043 5.02352 9.37305C5.02352 12.1997 6.4078 14.7051 8.53719 16.2466C8.52352 16.2534 8.50985 16.2568 8.49618 16.2637C6.96493 16.9097 5.5909 17.8359 4.41171 19.0186C3.23835 20.1894 2.30283 21.5765 1.65682 23.103C1.02218 24.5975 0.679907 26.1999 0.648523 27.8232C0.647611 27.8597 0.654009 27.896 0.667342 27.93C0.680674 27.964 0.700671 27.9949 0.726153 28.021C0.751636 28.0471 0.782088 28.0679 0.815717 28.0821C0.849345 28.0962 0.88547 28.1035 0.92196 28.1035H2.97274C3.12313 28.1035 3.24276 27.9839 3.24618 27.8369C3.31454 25.1982 4.37411 22.7271 6.24715 20.854C8.18514 18.916 10.7589 17.8496 13.5001 17.8496C16.2413 17.8496 18.815 18.916 20.753 20.854C22.6261 22.7271 23.6856 25.1982 23.754 27.8369C23.7574 27.9873 23.877 28.1035 24.0274 28.1035H26.0782C26.1147 28.1035 26.1508 28.0962 26.1844 28.0821C26.2181 28.0679 26.2485 28.0471 26.274 28.021C26.2995 27.9949 26.3195 27.964 26.3328 27.93C26.3462 27.896 26.3526 27.8597 26.3516 27.8232C26.3175 26.1895 25.9791 24.6001 25.3433 23.0996ZM13.5001 15.252C11.9312 15.252 10.4547 14.6401 9.34383 13.5293C8.23299 12.4185 7.62118 10.9419 7.62118 9.37305C7.62118 7.8042 8.23299 6.32764 9.34383 5.2168C10.4547 4.10596 11.9312 3.49414 13.5001 3.49414C15.0689 3.49414 16.5455 4.10596 17.6563 5.2168C18.7672 6.32764 19.379 7.8042 19.379 9.37305C19.379 10.9419 18.7672 12.4185 17.6563 13.5293C16.5455 14.6401 15.0689 15.252 13.5001 15.252Z" fill="white"/>
</svg>
