<svg width="55" height="79" viewBox="0 0 55 79" fill="none" xmlns="http://www.w3.org/2000/svg">
<path d="M49.566 18.6078C48.2607 15.4285 49.3167 10.563 46.9333 8.1711C44.55 5.7792 39.7833 6.83401 36.6667 5.51178C33.616 4.24154 30.998 0 27.5147 0C24.0313 0 21.406 4.23411 18.37 5.50435C15.334 6.77458 10.428 5.75691 8.06667 8.1711C5.70533 10.5853 6.74667 15.4137 5.44867 18.5707C4.18733 21.6608 0 24.3127 0 27.8412C0 31.3696 4.18733 34.0289 5.434 37.0968C6.73933 40.2835 5.68333 45.149 8.06667 47.5409C10.45 49.9328 15.2167 48.878 18.3333 50.1928C21.384 51.4705 24.0093 55.712 27.4853 55.712C30.9613 55.712 33.6013 51.4779 36.6667 50.2003C39.732 48.9226 44.572 49.9551 46.9333 47.5409C49.2947 45.1268 48.2533 40.2984 49.5513 37.1414C50.8127 34.0512 55 31.3919 55 27.8634C55 24.335 50.82 21.6757 49.566 18.6078ZM27.4927 43.5222C24.4338 43.5208 21.444 42.6005 18.9015 40.8779C16.3589 39.1552 14.3777 36.7076 13.2085 33.8444C12.0392 30.9812 11.7344 27.8311 12.3326 24.7924C12.9308 21.7537 14.4051 18.963 16.5691 16.7731C18.7331 14.5832 21.4895 13.0924 24.4899 12.4894C27.4903 11.8863 30.5999 12.1981 33.4254 13.3852C36.2508 14.5723 38.6654 16.5814 40.3636 19.1585C42.0618 21.7356 42.9674 24.765 42.966 27.8634C42.965 29.9208 42.564 31.9577 41.7859 33.8581C41.0078 35.7584 39.8678 37.4849 38.4309 38.939C36.9941 40.393 35.2886 41.5462 33.4118 42.3326C31.535 43.119 29.5237 43.5232 27.4927 43.5222Z" fill="white"/>
<path d="M45.5693 76.2507L42.438 53.8693L41.426 53.9659C40.3892 54.0066 39.3606 54.1687 38.3606 54.4487C37.5231 54.9427 36.7433 55.5307 36.036 56.2018C34.012 57.94 31.24 60.3096 27.4853 60.3096C23.7306 60.3096 20.966 57.94 18.942 56.1944C18.2366 55.5209 17.4565 54.9326 16.6173 54.4413C15.6201 54.1588 14.5939 53.9943 13.5593 53.951L12.8626 53.8842L9.45262 76.7632C9.39988 77.1176 9.44476 77.4799 9.58232 77.8101C9.71988 78.1403 9.94479 78.4256 10.2322 78.6345C10.5197 78.8435 10.8585 78.968 11.2114 78.9943C11.5642 79.0207 11.9174 78.9478 12.232 78.7837L26.796 71.1772C27.0643 71.0401 27.3607 70.9686 27.6613 70.9686C27.9619 70.9686 28.2583 71.0401 28.5266 71.1772L42.8193 78.286C43.1341 78.4434 43.4854 78.5103 43.8351 78.4797C44.1848 78.449 44.5195 78.3219 44.8029 78.1121C45.0863 77.9024 45.3076 77.618 45.4427 77.2898C45.5778 76.9617 45.6216 76.6023 45.5693 76.2507ZM19.8 32.357V29.044L18.7953 28.4646V32.3273C18.5286 32.4436 18.3097 32.6495 18.1755 32.9103C18.0413 33.171 18 33.4707 18.0586 33.7588C18.1172 34.0468 18.2721 34.3055 18.4971 34.4913C18.7222 34.6771 19.0036 34.7786 19.294 34.7786C19.5843 34.7786 19.8657 34.6771 20.0908 34.4913C20.3158 34.3055 20.4707 34.0468 20.5293 33.7588C20.5879 33.4707 20.5466 33.171 20.4124 32.9103C20.2782 32.6495 20.0593 32.4436 19.7926 32.3273L19.8 32.357ZM27.6906 33.2781C27.3024 33.2775 26.9209 33.1751 26.5833 32.981L21.0613 29.7646V32.2902L21.1346 32.3422L26.6933 35.5809C26.9972 35.7561 27.3409 35.8482 27.6906 35.8482C28.0403 35.8482 28.384 35.7561 28.688 35.5809L34.254 32.3422C34.5582 32.1651 34.8107 31.9097 34.9859 31.6018C35.161 31.2939 35.2526 30.9445 35.2513 30.5891V29.2297L28.798 32.9439C28.4637 33.1507 28.0821 33.2658 27.6906 33.2781ZM37.3486 24.8248L28.6953 19.781C28.3913 19.6058 28.0477 19.5137 27.698 19.5137C27.3483 19.5137 27.0046 19.6058 26.7006 19.781L18.0473 24.8173C17.8982 24.9058 17.7746 25.0322 17.6886 25.184C17.6027 25.3358 17.5575 25.5077 17.5575 25.6827C17.5575 25.8577 17.6027 26.0297 17.6886 26.1815C17.7746 26.3333 17.8982 26.4597 18.0473 26.5481L27.214 31.8816C27.362 31.9691 27.5303 32.0151 27.7016 32.0151C27.873 32.0151 28.0413 31.9691 28.1893 31.8816L37.356 26.5555C37.5065 26.468 37.6315 26.3416 37.7182 26.1892C37.8049 26.0368 37.8502 25.8639 37.8494 25.688C37.8487 25.5121 37.8019 25.3396 37.714 25.188C37.626 25.0363 37.4999 24.911 37.3486 24.8248Z" fill="white"/>
</svg>
