<svg width="55" height="79" viewBox="0 0 55 79" fill="none" xmlns="http://www.w3.org/2000/svg">
<path d="M35.6401 50.357L30.9259 49.6718L28.8201 45.4443C28.0894 43.9806 26.9109 43.9806 26.1801 45.4443L24.0744 49.6718L19.3601 50.357C17.7337 50.5905 17.3644 51.7039 18.5744 52.8406L21.9844 56.1338L21.1987 60.8052C20.9237 62.409 21.8744 63.1408 23.3359 62.3623L27.5001 60.1278L31.7194 62.3234C33.173 63.1019 34.1316 62.3934 33.8487 60.7663L33.063 56.0949L36.473 52.8016C37.6359 51.7039 37.2744 50.6061 35.6401 50.357ZM52.8787 1.60915e-05H34.4223C34.0433 0.00172844 33.6716 0.103652 33.3456 0.295263C33.0197 0.486873 32.7512 0.761226 32.568 1.08999L19.9966 23.6681C22.4488 23.0486 24.9695 22.7348 27.5001 22.7338C32.5129 22.7343 37.4494 23.9505 41.8787 26.2763L54.733 3.11424C54.9127 2.79486 55.0049 2.43442 55.0004 2.06878C54.9959 1.70313 54.8949 1.34503 54.7074 1.03009C54.5198 0.71515 54.2524 0.454349 53.9315 0.273633C53.6107 0.0929165 53.2477 -0.00141716 52.8787 1.60915e-05Z" fill="white"/>
<path d="M24.2864 5.138L22.4321 1.79022C22.2485 1.46236 21.9797 1.18913 21.6537 0.998844C21.3277 0.80856 20.9562 0.70815 20.5778 0.708024H2.12137C1.75234 0.706591 1.38936 0.800924 1.06854 0.981641C0.747727 1.16236 0.480253 1.42316 0.292729 1.7381C0.105205 2.05304 0.00416847 2.41114 -0.000331127 2.77679C-0.00483072 3.14243 0.087364 3.50287 0.267082 3.82225L12.6421 26.1123L24.2864 5.138ZM27.4999 27.973C22.4075 27.973 17.4294 29.4694 13.1952 32.2728C8.96098 35.0762 5.66082 39.0609 3.71202 43.7228C1.76323 48.3847 1.25333 53.5146 2.24682 58.4637C3.24031 63.4128 5.69255 67.9588 9.29346 71.5269C12.8944 75.095 17.4822 77.5249 22.4768 78.5093C27.4714 79.4938 32.6484 78.9885 37.3532 77.0575C42.058 75.1264 46.0793 71.8563 48.9085 67.6607C51.7377 63.4651 53.2478 58.5323 53.2478 53.4863C53.2478 46.7197 50.5351 40.2304 45.7064 35.4457C40.8778 30.661 34.3287 27.973 27.4999 27.973ZM27.4999 68.5124C24.5007 68.5124 21.5689 67.6311 19.0751 65.98C16.5814 64.329 14.6377 61.9822 13.49 59.2365C12.3422 56.4909 12.0419 53.4696 12.627 50.5548C13.2121 47.6401 14.6564 44.9627 16.7772 42.8612C18.8979 40.7598 21.6 39.3287 24.5415 38.7489C27.4831 38.1691 30.5322 38.4667 33.3031 39.604C36.074 40.7413 38.4423 42.6672 40.1086 45.1382C41.7749 47.6093 42.6642 50.5144 42.6642 53.4863C42.6642 57.4715 41.0666 61.2934 38.2227 64.1114C35.3789 66.9293 31.5218 68.5124 27.4999 68.5124Z" fill="white"/>
</svg>
