<svg width="70" height="60" viewBox="0 0 70 60" fill="none" xmlns="http://www.w3.org/2000/svg">
<g clip-path="url(#clip0)">
<path d="M12 42.8304C13.3117 42.8324 14.5945 42.4452 15.6862 41.7179C16.7778 40.9906 17.6291 39.9558 18.1324 38.7445C18.6358 37.5332 18.7685 36.1998 18.5138 34.9131C18.2591 33.6263 17.6285 32.444 16.7017 31.5158C15.7748 30.5876 14.5935 29.9551 13.3071 29.6985C12.0208 29.4419 10.6872 29.5726 9.47512 30.0741C8.26307 30.5756 7.22701 31.4254 6.49805 32.5159C5.7691 33.6064 5.38 34.8887 5.38 36.2004C5.38 37.957 6.07714 39.6419 7.31835 40.885C8.55955 42.128 10.2433 42.8277 12 42.8304ZM51.37 36.2004C51.37 37.5117 51.7588 38.7935 52.4874 39.8838C53.2159 40.9741 54.2513 41.8239 55.4628 42.3257C56.6743 42.8275 58.0074 42.9588 59.2934 42.703C60.5795 42.4472 61.7609 41.8157 62.6881 40.8885C63.6153 39.9613 64.2468 38.7799 64.5026 37.4938C64.7584 36.2077 64.6271 34.8747 64.1253 33.6632C63.6235 32.4517 62.7737 31.4163 61.6834 30.6877C60.5931 29.9592 59.3113 29.5704 58 29.5704C56.2416 29.5704 54.5552 30.2689 53.3119 31.5123C52.0685 32.7556 51.37 34.442 51.37 36.2004ZM48.37 38.4404C47.9436 36.6701 48.0269 34.8154 48.61 33.0904C49.0423 31.8267 49.7234 30.6624 50.6131 29.6662C51.5028 28.6701 52.583 27.8622 53.79 27.2904C55.609 26.3752 57.6764 26.0769 59.68 26.4404C59.7957 26.456 59.9134 26.4468 60.0253 26.4133C60.1371 26.3798 60.2405 26.3228 60.3286 26.2461C60.4166 26.1695 60.4873 26.0749 60.5358 25.9687C60.5843 25.8625 60.6096 25.7471 60.61 25.6304V3.28038C60.61 2.84711 60.5242 2.41813 60.3575 2.01821C60.1908 1.6183 59.9465 1.25537 59.6387 0.9504C59.331 0.645428 58.9658 0.404453 58.5644 0.241393C58.163 0.0783328 57.7333 -0.00358145 57.3 0.000381399H13C12.5642 -0.00626436 12.1315 0.0739998 11.7271 0.236484C11.3227 0.398969 10.9548 0.640416 10.6447 0.946718C10.3347 1.25302 10.0888 1.61804 9.92147 2.02044C9.75411 2.42284 9.66862 2.85457 9.67 3.29038V25.5804C9.66721 25.6972 9.69004 25.8132 9.73688 25.9202C9.78372 26.0272 9.85344 26.1227 9.94112 26.1999C10.0288 26.2771 10.1323 26.3342 10.2444 26.3671C10.3565 26.4 10.4745 26.4079 10.59 26.3904C13.0556 26.0259 15.5662 26.6356 17.59 28.0904C19.2573 29.1825 20.5468 30.7627 21.2824 32.6152C22.018 34.4676 22.1638 36.502 21.7 38.4404C21.671 38.5605 21.6699 38.6857 21.6967 38.8064C21.7236 38.927 21.7777 39.04 21.8549 39.1365C21.9321 39.233 22.0304 39.3106 22.1422 39.3632C22.254 39.4159 22.3764 39.4423 22.5 39.4404H24.41C25.03 39.4404 25.34 39.1704 25.41 38.8004C25.934 36.6441 27.1672 34.7264 28.9118 33.3551C30.6563 31.9837 32.811 31.2382 35.03 31.2382C37.249 31.2382 39.4037 31.9837 41.1482 33.3551C42.8927 34.7264 44.126 36.6441 44.65 38.8004C44.6905 38.9804 44.7905 39.1415 44.9338 39.2576C45.0772 39.3737 45.2555 39.4381 45.44 39.4404H47.58C47.7011 39.4378 47.82 39.4081 47.9281 39.3535C48.0361 39.2988 48.1306 39.2207 48.2044 39.1247C48.2783 39.0288 48.3297 38.9175 48.3549 38.7991C48.3801 38.6807 48.3784 38.5581 48.35 38.4404H48.37ZM34.18 22.5804H22.68C22.1363 22.5804 21.6149 22.3644 21.2304 21.9799C20.846 21.5955 20.63 21.0741 20.63 20.5304C20.63 19.9867 20.846 19.4653 21.2304 19.0808C21.6149 18.6964 22.1363 18.4804 22.68 18.4804H34.18C34.7237 18.4804 35.2451 18.6964 35.6296 19.0808C36.014 19.4653 36.23 19.9867 36.23 20.5304C36.23 21.0741 36.014 21.5955 35.6296 21.9799C35.2451 22.3644 34.7237 22.5804 34.18 22.5804ZM22.68 14.3704C22.1363 14.3704 21.6149 14.1544 21.2304 13.7699C20.846 13.3855 20.63 12.8641 20.63 12.3204C20.63 11.7767 20.846 11.2553 21.2304 10.8708C21.6149 10.4864 22.1363 10.2704 22.68 10.2704H49C49.5437 10.2704 50.0651 10.4864 50.4496 10.8708C50.834 11.2553 51.05 11.7767 51.05 12.3204C51.05 12.8641 50.834 13.3855 50.4496 13.7699C50.0651 14.1544 49.5437 14.3704 49 14.3704H22.68ZM18.61 46.1704H5.4C3.96783 46.1704 2.59432 46.7393 1.58162 47.752C0.568927 48.7647 2.7867e-10 50.1382 2.78667e-10 51.5704L2.78667e-10 53.1304C-8.00494e-06 53.5663 0.172457 53.9844 0.479733 54.2936C0.787008 54.6027 1.20413 54.7777 1.64 54.7804H19.25C19.4331 54.7787 19.6104 54.7157 19.7536 54.6015C19.8967 54.4873 19.9976 54.3285 20.04 54.1504C20.546 52.4176 21.5809 50.8862 23 49.7704C23.1653 49.6382 23.2753 49.4492 23.3086 49.2402C23.3419 49.0312 23.296 48.8173 23.18 48.6404C22.6887 47.8764 22.012 47.2492 21.2129 46.8173C20.4138 46.3854 19.5183 46.1628 18.61 46.1704ZM64.61 46.1704H51.39C50.4901 46.1712 49.6049 46.3978 48.8152 46.8293C48.0255 47.2608 47.3567 47.8835 46.87 48.6404C46.754 48.8173 46.7081 49.0312 46.7414 49.2402C46.7747 49.4492 46.8847 49.6382 47.05 49.7704C48.4654 50.8876 49.4967 52.4189 50 54.1504C50.0424 54.3285 50.1433 54.4873 50.2864 54.6015C50.4296 54.7157 50.6069 54.7787 50.79 54.7804H68.36C68.7959 54.7777 69.213 54.6027 69.5203 54.2936C69.8275 53.9844 70 53.5663 70 53.1304V51.5704C70 50.1382 69.4311 48.7647 68.4184 47.752C67.4057 46.7393 66.0322 46.1704 64.6 46.1704H64.61Z" fill="white"/>
<path d="M35 47.76C36.3113 47.76 37.5932 47.3712 38.6835 46.6426C39.7738 45.9141 40.6235 44.8787 41.1254 43.6672C41.6272 42.4557 41.7585 41.1227 41.5026 39.8366C41.2468 38.5505 40.6154 37.3691 39.6881 36.4419C38.7609 35.5147 37.5796 34.8832 36.2935 34.6274C35.0074 34.3716 33.6743 34.5029 32.4628 35.0047C31.2514 35.5065 30.2159 36.3563 29.4874 37.4466C28.7589 38.5369 28.37 39.8187 28.37 41.13C28.37 42.8884 29.0685 44.5748 30.3119 45.8181C31.5553 47.0615 33.2416 47.76 35 47.76ZM41.6 51.1H28.4C26.9679 51.1 25.5944 51.6689 24.5817 52.6816C23.569 53.6943 23 55.0678 23 56.5V58.06C22.9987 58.2757 23.0402 58.4896 23.1222 58.6892C23.2041 58.8887 23.3249 59.0701 23.4774 59.2226C23.63 59.3752 23.8113 59.4959 24.0109 59.5779C24.2104 59.6598 24.4243 59.7013 24.64 59.7H45.36C45.5758 59.7013 45.7896 59.6598 45.9892 59.5779C46.1888 59.4959 46.3701 59.3752 46.5226 59.2226C46.6752 59.0701 46.7959 58.8887 46.8779 58.6892C46.9598 58.4896 47.0014 58.2757 47 58.06V56.5C47 55.0678 46.4311 53.6943 45.4184 52.6816C44.4057 51.6689 43.0322 51.1 41.6 51.1Z" fill="white"/>
</g>
<defs>
<clipPath id="clip0">
<rect width="70" height="59.7" fill="white"/>
</clipPath>
</defs>
</svg>
