<svg width="61" height="69" viewBox="0 0 61 69" fill="none" xmlns="http://www.w3.org/2000/svg">
<g clip-path="url(#clip0)">
<path d="M59.2572 61.1084H1.74287C1.28064 61.1084 0.837334 61.2932 0.510485 61.622C0.183636 61.9509 1.37387e-05 62.3969 1.37387e-05 62.8619V68.1224C1.37387e-05 68.3549 0.0918247 68.5779 0.255249 68.7424C0.418674 68.9068 0.640325 68.9992 0.871442 68.9992H60.1286C60.3597 68.9992 60.5814 68.9068 60.7448 68.7424C60.9082 68.5779 61 68.3549 61 68.1224V62.8619C61 62.3969 60.8164 61.9509 60.4895 61.622C60.1627 61.2932 59.7194 61.1084 59.2572 61.1084ZM4.35716 54.0945V55.848C4.35716 56.0805 4.44897 56.3035 4.61239 56.4679C4.77582 56.6323 4.99747 56.7247 5.22859 56.7247H13.9429C14.174 56.7247 14.3956 56.6323 14.5591 56.4679C14.7225 56.3035 14.8143 56.0805 14.8143 55.848V54.0945C14.8143 53.8619 14.7225 53.6389 14.5591 53.4745C14.3956 53.3101 14.174 53.2177 13.9429 53.2177V32.1758C14.174 32.1758 14.3956 32.0834 14.5591 31.919C14.7225 31.7546 14.8143 31.5316 14.8143 31.299V29.5455C14.8143 29.313 14.7225 29.09 14.5591 28.9256C14.3956 28.7612 14.174 28.6688 13.9429 28.6688H5.22859C4.99747 28.6688 4.77582 28.7612 4.61239 28.9256C4.44897 29.09 4.35716 29.313 4.35716 29.5455V31.299C4.35716 31.5316 4.44897 31.7546 4.61239 31.919C4.77582 32.0834 4.99747 32.1758 5.22859 32.1758V53.2177C4.99747 53.2177 4.77582 53.3101 4.61239 53.4745C4.44897 53.6389 4.35716 53.8619 4.35716 54.0945ZM60.1286 16.7626L31.3714 0.227111C31.1065 0.0732099 30.806 -0.0078125 30.5 -0.0078125C30.1941 -0.0078125 29.8935 0.0732099 29.6286 0.227111L0.871442 16.7626C0.605475 16.9171 0.384804 17.1395 0.231776 17.4074C0.0787471 17.6753 -0.00120551 17.9791 1.37387e-05 18.2881V23.4083C1.37387e-05 23.6408 0.0918247 23.8638 0.255249 24.0283C0.418674 24.1927 0.640325 24.2851 0.871442 24.2851H60.1286C60.3597 24.2851 60.5814 24.1927 60.7448 24.0283C60.9082 23.8638 61 23.6408 61 23.4083V18.2881C61.0012 17.9791 60.9213 17.6753 60.7683 17.4074C60.6152 17.1395 60.3946 16.9171 60.1286 16.7626ZM30.5 19.4629C29.509 19.4629 28.5402 19.1673 27.7162 18.6133C26.8922 18.0594 26.25 17.272 25.8707 16.3509C25.4915 15.4297 25.3922 14.4161 25.5856 13.4381C25.7789 12.4602 26.2561 11.562 26.9569 10.8569C27.6577 10.1519 28.5505 9.67174 29.5225 9.47722C30.4945 9.2827 31.5019 9.38253 32.4175 9.7641C33.3331 10.1457 34.1157 10.7918 34.6663 11.6209C35.2169 12.4499 35.5107 13.4246 35.5107 14.4216C35.5107 15.7587 34.9828 17.041 34.0431 17.9864C33.1034 18.9318 31.8289 19.4629 30.5 19.4629ZM46.1857 54.0945V55.848C46.1857 56.0805 46.2775 56.3035 46.441 56.4679C46.6044 56.6323 46.826 56.7247 47.0572 56.7247H55.7714C56.0026 56.7247 56.2242 56.6323 56.3876 56.4679C56.5511 56.3035 56.6429 56.0805 56.6429 55.848V54.0945C56.6429 53.8619 56.5511 53.6389 56.3876 53.4745C56.2242 53.3101 56.0026 53.2177 55.7714 53.2177V32.1758C56.0026 32.1758 56.2242 32.0834 56.3876 31.919C56.5511 31.7546 56.6429 31.5316 56.6429 31.299V29.5455C56.6429 29.313 56.5511 29.09 56.3876 28.9256C56.2242 28.7612 56.0026 28.6688 55.7714 28.6688H47.0572C46.826 28.6688 46.6044 28.7612 46.441 28.9256C46.2775 29.09 46.1857 29.313 46.1857 29.5455V31.299C46.1912 31.4954 46.262 31.6842 46.3868 31.8353C46.5116 31.9863 46.6833 32.0908 46.8742 32.1319V53.2528C46.6818 53.2943 46.5091 53.4001 46.3841 53.5529C46.2591 53.7057 46.1892 53.8966 46.1857 54.0945Z" fill="white"/>
<path d="M27.1885 34.9296C26.2948 34.9326 25.4229 35.2077 24.6875 35.7186C23.9815 36.2035 23.4738 36.9292 23.2584 37.7615C23.1399 38.2189 23.0986 38.6931 23.1364 39.1643C23.2061 39.9078 23.4841 40.6162 23.9381 41.2071C24.4473 41.8725 25.1515 42.3602 25.9511 42.6011C26.3989 42.7421 26.8681 42.8015 27.3367 42.7765C27.5836 42.7606 27.8286 42.7225 28.0687 42.6625C28.5302 42.5442 28.9842 42.3978 29.4281 42.2241C30.0381 41.9786 30.622 41.6805 31.171 41.4087C31.843 41.0789 32.5325 40.7862 33.2362 40.532C33.6574 40.3952 34.0933 40.3099 34.5347 40.2777C35.036 40.2407 35.5399 40.2702 36.0335 40.3654C37.3054 40.589 38.5027 41.1251 39.5192 41.926C40.6869 42.8207 41.5685 44.0399 42.0551 45.433C42.1931 45.8304 42.3009 46.2378 42.3775 46.6517C42.4833 47.1706 42.5243 47.7007 42.4995 48.2298C42.4819 48.553 42.447 48.8749 42.395 49.1943C42.3072 49.8798 42.1162 50.548 41.8285 51.1757C41.5225 51.8376 41.1233 52.4518 40.6434 52.9993C39.9455 53.8023 39.0913 54.4528 38.1337 54.9106C37.7206 55.1138 37.2886 55.2753 36.844 55.3929C36.6 55.4542 36.3472 55.5244 36.0945 55.5682C35.8418 55.612 35.563 55.6296 35.3015 55.6646C34.8178 55.7173 34.3299 55.7173 33.8462 55.6646C32.3899 55.5202 31.0006 54.9775 29.829 54.0953C28.8202 53.3215 28.0202 52.3057 27.5022 51.1406C27.2869 50.6084 27.1235 50.0564 27.0142 49.4923C26.8835 48.9751 26.7528 48.449 26.5785 47.9493C26.4487 47.5679 26.2286 47.2241 25.937 46.9476C25.6455 46.6711 25.2914 46.4702 24.9054 46.3624C24.1454 46.1399 23.4163 45.8217 22.7355 45.4155C22.1146 45.0371 21.5535 44.5672 21.0711 44.0214C20.4584 43.3156 19.9878 42.4968 19.6855 41.6104C19.5562 41.2332 19.4571 40.8462 19.3892 40.4531C19.3051 40.0051 19.2642 39.55 19.2672 39.0941C19.2699 38.7097 19.2991 38.326 19.3544 37.9456C19.4768 36.9506 19.7969 35.9905 20.2955 35.1225C20.8075 34.199 21.5049 33.3928 22.3434 32.7552C22.9411 32.3013 23.6017 31.9379 24.3041 31.6768C24.6576 31.5521 25.0185 31.4496 25.3847 31.37C25.7438 31.2866 26.1075 31.2252 26.474 31.1859C26.8135 31.164 27.154 31.164 27.4935 31.1859C27.8351 31.2065 28.1754 31.2446 28.5131 31.2998C28.784 31.3475 29.0518 31.4119 29.3148 31.4927C29.8569 31.639 30.3803 31.8479 30.8747 32.1152C31.503 32.446 32.0599 32.899 32.513 33.4479C32.7447 33.7434 32.9138 34.0835 33.0097 34.4474C33.0943 34.7314 33.1181 35.0302 33.0794 35.3241C33.0491 35.5262 32.9758 35.7193 32.8645 35.8903C32.7532 36.0613 32.6065 36.2061 32.4345 36.3148C32.0333 36.5678 31.5612 36.6824 31.0895 36.6413C30.6177 36.6002 30.1722 36.4055 29.8202 36.0869C29.5937 35.894 29.3932 35.6748 29.158 35.4907C28.7847 35.2059 28.3423 35.0273 27.877 34.9734L27.1885 34.9296ZM34.7177 51.8771C35.176 51.8862 35.6318 51.8058 36.0597 51.6404C36.8341 51.364 37.504 50.8523 37.9768 50.1762C38.4295 49.5355 38.6759 48.7704 38.6827 47.9843C38.6981 47.4849 38.6152 46.9873 38.4387 46.5202C38.1688 45.8235 37.7125 45.2155 37.1204 44.7636C36.5282 44.3118 35.8233 44.0337 35.0837 43.9601C34.7564 43.925 34.4263 43.925 34.099 43.9601C33.8015 44.0014 33.5093 44.0749 33.2275 44.1793C32.5329 44.4484 31.9285 44.9106 31.4847 45.5119C31.0458 46.0665 30.7737 46.7357 30.7004 47.4408C30.6207 48.1162 30.718 48.8008 30.9824 49.4267C31.2468 50.0526 31.6693 50.5981 32.208 51.0091C32.9192 51.5825 33.8064 51.8893 34.7177 51.8771Z" fill="white"/>
<path d="M38.0902 38.849C37.6406 38.8475 37.1967 38.7479 36.789 38.5572C36.3813 38.3665 36.0195 38.0892 35.7286 37.7443C35.3894 37.3567 35.1606 36.8841 35.0663 36.3766C35.0259 36.1773 35.0026 35.9749 34.9966 35.7716C34.9949 35.3353 35.0875 34.9039 35.2681 34.5072C35.4486 34.1105 35.7128 33.7582 36.0423 33.4745C36.6461 32.9319 37.4386 32.6514 38.247 32.6942C38.8935 32.7201 39.5158 32.9487 40.0267 33.348C40.5377 33.7473 40.9117 34.2974 41.0966 34.9212C41.2184 35.3301 41.254 35.7601 41.2012 36.1837C41.1321 36.7169 40.918 37.2205 40.5825 37.6391C40.1293 38.2289 39.4793 38.6338 38.7525 38.7788C38.5259 38.8227 38.3429 38.8227 38.0902 38.849Z" fill="white"/>
</g>
<defs>
<clipPath id="clip0">
<rect width="61" height="69" fill="white"/>
</clipPath>
</defs>
</svg>
