<svg width="80" height="75" viewBox="0 0 80 75" fill="none" xmlns="http://www.w3.org/2000/svg">
<g clip-path="url(#clip0)">
<path d="M47.9299 0.269862C46.4701 -0.125432 44.926 -0.0792037 43.4925 0.402707C42.0591 0.884617 40.8006 1.78059 39.8761 2.97741C38.9516 4.17424 38.4026 5.61823 38.2984 7.12695C38.1943 8.63566 38.5396 10.1414 39.2908 11.4539C40.042 12.7665 41.1654 13.8269 42.5191 14.5012C43.8727 15.1756 45.3958 15.4336 46.896 15.2427C48.3962 15.0518 49.8062 14.4205 50.9478 13.4286C52.0894 12.4367 52.9113 11.1287 53.3099 9.66986C53.8425 7.70993 53.575 5.61868 52.5661 3.85594C51.5572 2.09321 49.8896 0.803305 47.9299 0.269862Z" fill="white"/>
<path d="M11.2801 37.9103C11.5871 36.8139 11.5611 35.651 11.2054 34.5694C10.8498 33.4878 10.1805 32.5364 9.28263 31.8362C8.38479 31.136 7.29901 30.7186 6.16334 30.6372C5.02767 30.5557 3.89343 30.8138 2.90486 31.3787C1.91629 31.9436 1.11806 32.7898 0.611663 33.8095C0.105268 34.8293 -0.0864048 35.9767 0.061018 37.1057C0.208441 38.2347 0.688299 39.2943 1.43957 40.1499C2.19084 41.0054 3.17958 41.6182 4.28006 41.9103C5.73849 42.3001 7.29183 42.0987 8.60255 41.3497C9.91327 40.6007 10.8755 39.3647 11.2801 37.9103ZM32.2801 72.1403C36.1 74.0771 40.3408 75.0356 44.6224 74.9299C48.9039 74.8242 53.0923 73.6575 56.812 71.5345C60.5316 69.4116 63.6663 66.3987 65.9348 62.766C68.2034 59.1333 69.5349 54.9943 69.8101 50.7203C64.1595 55.1728 58.1752 59.1846 51.9101 62.7203C45.6234 66.3628 39.0637 69.5122 32.2901 72.1403H32.2801ZM79.2801 26.5103C76.4301 21.6103 67.1001 23.1303 57.1301 26.7403C53.2274 24.4339 48.7868 23.1943 44.2538 23.146C39.7208 23.0977 35.2548 24.2422 31.3038 26.4649C27.3528 28.6876 24.0558 31.9102 21.7436 35.8094C19.4313 39.7087 18.1852 44.1474 18.1301 48.6803C11.9401 53.6803 7.26006 58.6803 6.13006 62.6803C5.88341 63.4556 5.797 64.2729 5.87608 65.0826C5.95515 65.8923 6.19807 66.6774 6.59006 67.3903C7.87006 69.5903 10.4701 70.5003 13.8401 70.5003C23.3901 70.5003 39.1601 63.2603 49.1301 57.6703C62.8801 50.0003 77.6701 38.8003 79.7301 31.2203C79.9767 30.4451 80.0631 29.6277 79.984 28.8181C79.905 28.0084 79.662 27.2232 79.2701 26.5103H79.2801ZM11.6101 64.5103C11.6101 63.1203 14.0501 59.7903 18.9201 55.5103C19.4895 57.7496 20.3573 59.9022 21.5001 61.9103C21.7601 62.3803 22.0501 62.8203 22.3501 63.2603C16.5601 64.9303 12.7401 65.2203 11.6001 64.5203L11.6101 64.5103ZM36.4201 35.8103C34.2396 37.054 32.4008 38.818 31.0677 40.945C29.7347 43.0719 28.9487 45.4958 28.7801 48.0003C28.7395 48.6043 28.4713 49.1705 28.0296 49.5844C27.5878 49.9983 27.0054 50.2291 26.4001 50.2303H26.2301C25.5994 50.1892 25.0106 49.8999 24.5927 49.4257C24.1748 48.9516 23.9617 48.3312 24.0001 47.7003C24.2217 44.4165 25.2503 41.238 26.9947 38.447C28.7391 35.6559 31.1454 33.3385 34.0001 31.7003C34.2729 31.5373 34.5755 31.4302 34.8902 31.3855C35.2049 31.3409 35.5253 31.3594 35.8328 31.44C36.1402 31.5207 36.4285 31.6619 36.6807 31.8553C36.9329 32.0488 37.144 32.2906 37.3017 32.5666C37.4593 32.8426 37.5603 33.1473 37.5987 33.4628C37.6371 33.7783 37.6123 34.0983 37.5255 34.4041C37.4388 34.7099 37.2919 34.9953 37.0935 35.2436C36.8951 35.4919 36.6491 35.6982 36.3701 35.8503L36.4201 35.8103ZM67.4001 38.0003C67.1188 37.3646 66.8051 36.7438 66.4601 36.1403C65.3677 34.2684 64.044 32.5414 62.5201 31.0003C68.8701 29.0003 73.0701 28.6703 74.2701 29.4203C74.2701 30.7603 72.0001 33.9203 67.4001 38.0003Z" fill="white"/>
</g>
<defs>
<clipPath id="clip0">
<rect width="80" height="74.94" fill="white"/>
</clipPath>
</defs>
</svg>
