<svg width="54" height="50" viewBox="0 0 54 50" fill="none" xmlns="http://www.w3.org/2000/svg">
<g clip-path="url(#clip0)">
<path d="M35.5245 0.000154H18.5145C17.2399 0.000154 16.0174 0.503894 15.1161 1.40056C14.2148 2.29722 13.7085 3.51336 13.7085 4.78143V8.28872H18.5145V4.78143H35.5631V8.28872H40.3691V4.78143C40.3691 4.1503 40.2435 3.52541 39.9996 2.94281C39.7556 2.3602 39.3982 1.8314 38.9478 1.38692C38.4974 0.94243 37.9631 0.591047 37.3755 0.353034C36.788 0.115021 36.1589 -0.00491123 35.5245 0.000154Z" fill="white"/>
<path d="M29.1291 37.9817V38.9794C29.1291 39.5412 28.9048 40.0799 28.5055 40.4772C28.1062 40.8744 27.5647 41.0976 27 41.0976C26.4353 41.0976 25.8938 40.8744 25.4945 40.4772C25.0952 40.0799 24.8709 39.5412 24.8709 38.9794V37.9817H5.68543C4.7185 37.9811 3.75776 37.8283 2.83886 37.5289V47.1682C2.83886 47.5401 2.91249 47.9083 3.05554 48.2519C3.19859 48.5955 3.40827 48.9077 3.6726 49.1707C3.93693 49.4336 4.25073 49.6422 4.59609 49.7845C4.94145 49.9269 5.31161 50.0001 5.68543 50.0001H48.3146C49.0695 50.0001 49.7936 49.7017 50.3274 49.1707C50.8612 48.6396 51.1611 47.9193 51.1611 47.1682V37.5289C50.2422 37.8283 49.2815 37.9811 48.3146 37.9817H29.1291ZM51.1611 11.8267H2.83886C2.08595 11.8267 1.36387 12.1242 0.831482 12.6539C0.299093 13.1835 0 13.9019 0 14.6509L0 28.7952C0.00204414 30.294 0.601945 31.7307 1.66795 32.7898C2.73395 33.8488 4.17889 34.4437 5.68543 34.4437H24.8709V32.786C24.8709 32.2242 25.0952 31.6854 25.4945 31.2882C25.8938 30.891 26.4353 30.6678 27 30.6678C27.5647 30.6678 28.1062 30.891 28.5055 31.2882C28.9048 31.6854 29.1291 32.2242 29.1291 32.786V34.4437H48.3146C49.8211 34.4437 51.266 33.8488 52.3321 32.7898C53.3981 31.7307 53.998 30.294 54 28.7952V14.6509C54 13.9019 53.7009 13.1835 53.1685 12.6539C52.6361 12.1242 51.9141 11.8267 51.1611 11.8267Z" fill="white"/>
</g>
<defs>
<clipPath id="clip0">
<rect width="54" height="50" fill="white"/>
</clipPath>
</defs>
</svg>
