<svg width="881" height="702" viewBox="0 0 881 702" fill="none" xmlns="http://www.w3.org/2000/svg">
<path opacity="0.71" d="M790.23 416.001C788.899 461.588 777.042 506.249 755.587 546.493C754.736 548.147 753.838 549.801 752.893 551.219C734.533 584.377 709.873 613.629 680.297 637.332C671.405 644.482 662.093 651.095 652.412 657.135C631.836 670.042 609.737 680.345 586.623 687.808C584.969 688.375 583.409 688.895 581.896 689.368C539.914 702.078 495.622 705.248 452.257 698.645C408.893 692.043 367.551 675.835 331.253 651.206C294.956 626.578 264.619 594.15 242.461 556.294C220.303 518.438 206.883 476.109 203.181 432.401C203.181 430.605 202.898 428.762 202.756 426.966C200.067 385.155 206.369 343.254 221.236 304.083C222.653 300.397 224.166 296.71 225.678 293.024C233.671 274.258 243.57 256.362 255.217 239.617C260.725 231.705 266.641 224.086 272.941 216.789C273.933 215.56 274.973 214.331 276.06 213.15C294.255 192.566 315.276 174.665 338.494 159.979C340.148 158.892 341.755 157.9 343.22 156.955C347.947 154.166 352.295 151.567 356.927 149.062C358.392 148.305 359.81 147.502 361.275 146.793C420.225 116.345 487.741 106.728 552.849 119.504C617.957 132.28 676.831 166.699 719.903 217.167C721.557 219.058 723.164 220.995 724.63 222.933C732.604 232.748 739.93 243.074 746.559 253.843C747.788 255.875 749.017 257.907 750.199 259.987C762.494 281.083 772.115 303.627 778.84 327.1C779.312 328.707 779.738 330.314 780.163 331.826C785.636 352.148 788.9 373.001 789.899 394.024C790.325 401.349 790.419 408.628 790.23 416.001Z" fill="url(#paint0_radial)"/>
<g style="mix-blend-mode:multiply" opacity="0.1">
<path d="M783.614 470.166C783.614 470.166 648.443 480.611 620.699 431.411C592.956 382.21 564.835 369.969 520.739 375.074C476.643 380.178 421.204 415.767 367.655 401.446C314.107 387.126 212.303 331.025 212.303 331.025C203.56 358.059 202 408.677 202 408.677C202 408.677 225.868 493.75 292.981 498.476C360.093 503.203 511.239 526.834 610.538 556.231C709.837 585.629 737.013 576.696 737.013 576.696C759.889 544.872 775.771 508.566 783.614 470.166ZM300.259 472.765C293.264 455.42 338.069 453.341 346.671 465.912C355.273 478.484 314.958 509.488 300.259 472.765ZM489.309 393.553C531.137 376.492 604.63 407.07 597.635 434.483C590.64 461.895 457.076 406.692 489.357 393.553H489.309ZM573.484 533.971C572.302 509.583 601.842 525.416 608.978 538.13C616.115 550.843 574.477 553.679 573.531 533.971H573.484ZM703.362 533.403C703.431 530.853 704.51 528.434 706.363 526.679C708.215 524.924 710.689 523.976 713.239 524.045C715.79 524.114 718.209 525.194 719.964 527.046C721.719 528.899 722.666 531.372 722.598 533.923C722.314 548.149 703.031 540.162 703.409 533.403H703.362Z" fill="#974D8B"/>
</g>
<g style="mix-blend-mode:soft-light" opacity="0.51">
<path d="M790.183 416C790.183 416 693.294 355.173 616.682 339.718C540.069 324.263 455.28 372.377 357.21 355.504C306.45 346.76 259.187 318.356 225.489 292.976C233.443 274.19 243.344 256.291 255.028 239.569C272.894 257.481 322.378 304.13 368.459 320.955C426.214 341.94 479.478 319.112 576.745 324.689C660.022 329.415 762.203 379.75 789.805 394.07C790.325 401.349 790.419 408.674 790.183 416Z" fill="#F1F1A8"/>
</g>
<g style="mix-blend-mode:soft-light" opacity="0.51">
<path d="M320.345 563.131C309.144 570.883 281.732 562.423 284.095 556.987C288.632 546.92 331.499 555.569 320.345 563.131ZM341.519 547.157C345.678 541.107 370.586 545.55 369.12 549.378C367.655 553.206 337.738 552.781 341.519 547.346V547.157ZM620.368 625.707C628.592 616.255 672.83 634.12 670.467 644.612C668.104 655.105 612.192 635.16 620.463 625.896L620.368 625.707ZM415.532 554.813C304.701 532.883 243.213 511.993 217.502 501.974C227.21 530.765 241.337 557.871 259.377 582.32C306.639 583.076 352.2 541.296 478.77 580.43C539.314 599.282 597.534 624.919 652.318 656.853C662.002 650.818 671.314 644.205 680.203 637.05C633.744 617.909 529.482 577.594 415.627 555.144L415.532 554.813Z" fill="#F1F1A8"/>
</g>
<g style="mix-blend-mode:multiply" opacity="0.1">
<path d="M359.148 263.487C356.974 274.121 399.746 293.972 407.923 281.92C416.099 269.868 363.78 241.227 359.148 263.487Z" fill="#690058"/>
</g>
<g style="mix-blend-mode:multiply" opacity="0.1">
<path d="M373.8 298.458C375.595 306.918 385.426 307.059 386.655 303.184C387.884 299.308 372.004 289.998 373.8 298.458Z" fill="#690058"/>
</g>
<g style="mix-blend-mode:multiply" opacity="0.1">
<path d="M620.368 405.179C632.279 393.127 637.761 399.933 640.502 406.266C643.244 412.599 616.682 408.913 620.368 405.179Z" fill="#690058"/>
</g>
<g style="mix-blend-mode:multiply" opacity="0.1">
<path d="M625.048 306.209C636.958 294.157 642.44 301.01 645.181 307.296C647.923 313.582 621.361 309.99 625.048 306.209Z" fill="#690058"/>
</g>
<g style="mix-blend-mode:multiply" opacity="0.1">
<path d="M462.511 624.572C474.422 612.52 479.904 619.373 482.645 625.659C485.387 631.945 458.825 628.164 462.511 624.572Z" fill="#690058"/>
</g>
<g style="mix-blend-mode:multiply" opacity="0.1">
<path d="M677.083 444.976C678.501 451.073 689.183 452.254 688.521 445.259C687.859 438.264 674.72 434.531 677.083 444.976Z" fill="#690058"/>
</g>
<g style="mix-blend-mode:multiply" opacity="0.1">
<path d="M455.99 193.11C457.407 199.254 468.089 200.389 467.427 193.394C466.765 186.399 453.626 182.76 455.99 193.11Z" fill="#690058"/>
</g>
<g style="mix-blend-mode:soft-light" opacity="0.51">
<path d="M661.581 592.526C666.308 593.803 682.802 604.956 681.999 614.787C681.195 624.618 640.219 616.016 641.684 607.131C643.149 598.245 655.248 590.778 661.581 592.526Z" fill="#F1F1A8"/>
</g>
<g style="mix-blend-mode:soft-light" opacity="0.51">
<path d="M671.932 305.878C676.659 307.154 693.106 318.308 692.303 328.091C691.499 337.874 650.522 329.367 651.988 320.434C653.453 311.502 665.505 304.082 671.932 305.878Z" fill="#F1F1A8"/>
</g>
<g style="mix-blend-mode:soft-light" opacity="0.51">
<path d="M557.462 187.012C558.596 191.738 556.942 211.588 548.009 215.7C539.077 219.812 526.505 179.828 535.012 176.756C543.519 173.684 555.997 180.537 557.462 187.012Z" fill="#F1F1A8"/>
</g>
<g style="mix-blend-mode:soft-light" opacity="0.71">
<g style="mix-blend-mode:soft-light" opacity="0.71">
<path d="M621.881 259.608C623.106 254.977 623.252 250.126 622.306 245.429C622.198 244.677 621.941 243.954 621.55 243.303C621.047 242.767 620.427 242.355 619.738 242.101C619.049 241.847 618.31 241.756 617.58 241.837C615.778 242.028 614.075 242.757 612.692 243.928C611.31 245.1 610.312 246.66 609.829 248.407C609.403 250.156 609.4 251.981 609.819 253.731C610.238 255.482 611.067 257.108 612.239 258.474C612.84 259.268 613.592 259.936 614.452 260.439C615.311 260.942 616.262 261.27 617.249 261.404C618.268 261.549 619.306 261.324 620.173 260.769C621.041 260.214 621.68 259.366 621.975 258.379C621.871 258.263 621.739 258.175 621.591 258.123C621.444 258.07 621.286 258.055 621.132 258.078C620.977 258.101 620.831 258.163 620.706 258.257C620.581 258.351 620.481 258.474 620.416 258.616L621.881 259.608Z" fill="#E9E9A8"/>
</g>
<g style="mix-blend-mode:soft-light" opacity="0.71">
<path d="M690.932 286.595C691.17 285.258 691.071 283.883 690.641 282.595C690.212 281.308 689.467 280.148 688.474 279.222C687.174 279.604 685.984 280.292 685.005 281.23C684.027 282.168 683.287 283.327 682.85 284.61C682.662 285.255 682.604 285.931 682.678 286.599C682.753 287.268 682.958 287.914 683.283 288.503C683.608 289.091 684.046 289.61 684.572 290.028C685.098 290.447 685.701 290.758 686.347 290.943C688.994 291.415 691.688 288.06 690.176 285.791L690.932 286.595Z" fill="#E9E9A8"/>
</g>
<g style="mix-blend-mode:soft-light" opacity="0.71">
<path d="M682.897 262.255C682.656 261.365 682.273 260.519 681.762 259.75C681.762 259.75 681.762 259.75 681.526 259.75C681.474 259.728 681.417 259.717 681.361 259.717C681.304 259.717 681.247 259.728 681.195 259.75C680.392 260.223 680.25 261.688 679.305 261.735C679.151 261.688 678.986 261.688 678.832 261.735C678.596 261.735 678.832 262.302 678.832 262.491C679.1 262.744 679.42 262.935 679.771 263.049C680.121 263.164 680.492 263.2 680.857 263.155C681.223 263.11 681.574 262.985 681.886 262.788C682.197 262.592 682.462 262.329 682.66 262.019V262.444L682.897 262.255Z" fill="#E9E9A8"/>
</g>
<g style="mix-blend-mode:soft-light" opacity="0.71">
<path d="M663.756 239.333C663.27 237.658 662.538 236.065 661.582 234.607C661.544 234.51 661.487 234.423 661.413 234.35C661.34 234.277 661.253 234.219 661.157 234.181C661.052 234.137 660.939 234.114 660.826 234.114C660.712 234.114 660.6 234.137 660.495 234.181C658.935 235.079 658.746 237.868 656.95 237.962C656.619 237.962 656.289 237.962 656.005 237.962C655.721 237.962 656.005 238.955 656.005 239.38C656.511 239.858 657.117 240.218 657.778 240.435C658.44 240.652 659.141 240.72 659.832 240.634C660.523 240.548 661.186 240.311 661.775 239.939C662.363 239.567 662.862 239.069 663.236 238.482V239.286L663.756 239.333Z" fill="#E9E9A8"/>
</g>
<g style="mix-blend-mode:soft-light" opacity="0.71">
<path d="M710.356 227.942C709.883 226.271 709.166 224.678 708.229 223.215C708.125 223.041 707.979 222.894 707.804 222.79C707.7 222.743 707.587 222.719 707.473 222.719C707.359 222.719 707.246 222.743 707.142 222.79C705.583 223.641 705.394 226.429 703.598 226.524C703.29 226.429 702.96 226.429 702.652 226.524C702.227 226.807 702.652 227.516 702.652 227.894C703.119 228.436 703.703 228.865 704.36 229.148C705.016 229.431 705.729 229.562 706.443 229.53C707.157 229.498 707.855 229.305 708.484 228.964C709.113 228.623 709.656 228.145 710.073 227.564V228.32L710.356 227.942Z" fill="#E9E9A8"/>
</g>
<g style="mix-blend-mode:soft-light" opacity="0.71">
<path d="M688.332 246.8C688.429 246.18 688.382 245.546 688.193 244.948C688.005 244.349 687.68 243.802 687.245 243.35C686.774 243.663 686.385 244.085 686.111 244.579C685.958 244.81 685.877 245.082 685.877 245.359C685.877 245.636 685.958 245.907 686.111 246.139C686.631 246.753 687.576 246.611 688.285 246.422L687.954 246.989L688.332 246.8Z" fill="#E9E9A8"/>
</g>
<g style="mix-blend-mode:soft-light" opacity="0.71">
<path d="M679.825 243.211C679.739 242.869 679.559 242.558 679.305 242.313C678.981 242.22 678.637 242.22 678.312 242.313C677.377 242.289 676.445 242.194 675.524 242.029L678.454 245.621C678.494 245.728 678.494 245.845 678.454 245.952C678.454 246.377 678.123 246.708 677.982 247.086C677.84 247.464 678.407 248.268 678.927 248.552C683.039 250.537 680.392 245.054 679.825 243.211Z" fill="#E9E9A8"/>
</g>
<g style="mix-blend-mode:soft-light" opacity="0.71">
<path d="M635.492 226.618C635.443 226.273 635.276 225.956 635.02 225.72C634.696 225.626 634.352 225.626 634.027 225.72C633.09 225.721 632.156 225.626 631.239 225.436L634.169 229.028C634.169 229.028 634.169 229.028 634.169 229.359C634.169 229.69 633.838 230.115 633.696 230.54C633.555 230.966 634.122 231.675 634.642 232.006C638.754 233.943 636.06 228.461 635.492 226.618Z" fill="#E9E9A8"/>
</g>
<g style="mix-blend-mode:soft-light" opacity="0.71">
<path d="M692.586 215.988L691.783 214.854C691.412 215.13 691.138 215.517 691.002 215.959C690.866 216.401 690.875 216.875 691.027 217.312C691.405 218.115 692.728 218.399 693.201 217.595C693.673 216.792 693.72 216.225 694.193 216.508L692.586 215.988Z" fill="#E9E9A8"/>
</g>
<g style="mix-blend-mode:soft-light" opacity="0.71">
<path d="M624.433 214.948C624.421 215.267 624.325 215.577 624.157 215.848C623.988 216.12 623.752 216.342 623.472 216.495C623.191 216.647 622.876 216.724 622.557 216.718C622.238 216.712 621.925 216.624 621.651 216.461C621.376 216.298 621.149 216.066 620.991 215.789C620.832 215.512 620.749 215.198 620.748 214.879C620.747 214.56 620.83 214.246 620.987 213.968C621.144 213.69 621.371 213.458 621.645 213.294C621.934 213.152 622.253 213.085 622.575 213.098C622.896 213.111 623.209 213.203 623.486 213.367C623.763 213.532 623.994 213.762 624.159 214.038C624.325 214.314 624.419 214.627 624.433 214.948Z" fill="#E9E9A8"/>
</g>
<g style="mix-blend-mode:soft-light" opacity="0.71">
<path d="M640.691 228.416C641.495 229.031 642.393 230.023 641.873 230.921C641.353 231.819 640.124 231.583 639.179 231.252C638.234 230.921 638.328 230.921 638.234 230.543C638.139 230.165 640.124 229.362 640.077 228.322C640.361 228.322 640.691 228.605 640.455 228.794L640.691 228.416Z" fill="#E9E9A8"/>
</g>
<g style="mix-blend-mode:soft-light" opacity="0.71">
<path d="M705.489 300.018C705.407 299.275 705.15 298.562 704.739 297.937C704.328 297.313 703.775 296.795 703.125 296.426C701.755 295.811 699.77 296.426 699.723 298.127C699.701 298.339 699.724 298.554 699.789 298.757C699.854 298.96 699.96 299.148 700.101 299.309C700.253 299.531 700.445 299.723 700.668 299.876C701.446 300.528 702.441 300.865 703.456 300.821C703.705 300.803 703.947 300.736 704.17 300.624C704.392 300.512 704.591 300.357 704.753 300.168C704.916 299.98 705.039 299.76 705.117 299.524C705.194 299.287 705.224 299.037 705.205 298.789L705.489 300.018Z" fill="#E9E9A8"/>
</g>
<g style="mix-blend-mode:soft-light" opacity="0.71">
<path d="M736.776 316.893C736.344 316.927 735.931 317.091 735.595 317.366C735.374 317.737 735.2 318.134 735.075 318.547C734.602 319.493 733.515 319.871 732.806 320.674C732.384 321.467 732.164 322.352 732.164 323.25C732.164 324.148 732.384 325.033 732.806 325.826C732.806 326.251 733.185 326.677 733.563 326.771C733.852 326.88 734.171 326.88 734.461 326.771C736.446 326.015 737.769 327.905 739.612 327.669C740.484 327.461 741.296 327.054 741.985 326.48C742.674 325.906 743.22 325.181 743.582 324.361C743.855 323.388 743.876 322.361 743.643 321.378C743.41 320.394 742.931 319.487 742.25 318.74C741.57 317.993 740.71 317.431 739.752 317.108C738.795 316.785 737.771 316.711 736.776 316.893Z" fill="#E9E9A8"/>
</g>
<g style="mix-blend-mode:soft-light" opacity="0.71">
<path d="M688.994 262.066C689.27 262.339 689.466 262.682 689.561 263.058C689.065 263.007 688.588 262.838 688.169 262.567C687.75 262.296 687.401 261.93 687.151 261.499C686.82 261.073 686.489 260.506 686.772 260.033C687.056 259.561 687.387 259.608 687.67 259.372C687.954 259.136 688.568 257.812 689.325 257.907C689.534 257.966 689.719 258.088 689.854 258.258C689.99 258.427 690.069 258.635 690.081 258.852C690.043 259.284 689.914 259.702 689.703 260.081L688.521 262.633L688.994 262.066Z" fill="#E9E9A8"/>
</g>
<g style="mix-blend-mode:soft-light" opacity="0.71">
<path d="M678.502 272.608C678.502 271.805 677.178 271.663 676.706 272.324C676.553 272.692 676.475 273.085 676.475 273.482C676.475 273.88 676.553 274.273 676.706 274.64C677.251 274.579 677.766 274.358 678.187 274.005C678.607 273.651 678.914 273.182 679.069 272.655L678.502 272.608Z" fill="#E9E9A8"/>
</g>
<g style="mix-blend-mode:soft-light" opacity="0.71">
<path d="M676.091 261.072C676.02 260.686 675.876 260.317 675.666 259.985C675.557 259.83 675.405 259.711 675.228 259.643C675.051 259.576 674.858 259.563 674.673 259.607C674.059 259.607 673.964 260.647 673.539 261.072C673.114 261.498 672.263 261.592 671.979 262.159C671.696 262.726 672.263 263.388 672.877 263.53C673.51 263.558 674.137 263.393 674.673 263.057C675.174 262.813 675.599 262.437 675.902 261.97C676.075 261.747 676.168 261.473 676.168 261.19C676.168 260.908 676.075 260.634 675.902 260.41L676.091 261.072Z" fill="#E9E9A8"/>
</g>
<g style="mix-blend-mode:soft-light" opacity="0.71">
<path d="M674.437 256.208C674.421 256.301 674.385 256.389 674.332 256.467C674.279 256.546 674.21 256.612 674.129 256.661C674.049 256.71 673.959 256.741 673.865 256.753C673.771 256.764 673.676 256.756 673.586 256.727C673.402 256.692 673.229 256.614 673.081 256.499C672.933 256.384 672.814 256.236 672.735 256.066C672.67 255.882 672.67 255.682 672.735 255.499C672.704 255.36 672.704 255.216 672.735 255.078C672.767 254.94 672.829 254.81 672.918 254.699C673.006 254.588 673.119 254.498 673.247 254.437C673.375 254.375 673.515 254.343 673.657 254.343C673.799 254.343 673.939 254.375 674.067 254.437C674.195 254.498 674.307 254.588 674.396 254.699C674.484 254.81 674.547 254.94 674.578 255.078C674.61 255.216 674.61 255.36 674.578 255.499C674.566 255.754 674.456 255.994 674.272 256.17C674.087 256.346 673.841 256.444 673.586 256.444L674.437 256.208Z" fill="#E9E9A8"/>
</g>
<g style="mix-blend-mode:soft-light" opacity="0.71">
<path d="M622.165 266.415C622.12 266.599 622.007 266.759 621.85 266.864C621.692 266.969 621.501 267.011 621.314 266.982C620.959 266.873 620.656 266.638 620.463 266.32C620.364 266.124 620.285 265.918 620.227 265.706C620.239 265.451 620.349 265.211 620.534 265.035C620.719 264.859 620.964 264.76 621.22 264.761C621.47 264.795 621.699 264.92 621.865 265.111C622.03 265.303 622.12 265.548 622.118 265.801C622.086 266.061 621.965 266.302 621.775 266.483C621.585 266.663 621.339 266.773 621.078 266.793L622.165 266.415Z" fill="#E9E9A8"/>
</g>
<g style="mix-blend-mode:soft-light" opacity="0.71">
<path d="M678.88 254.364C679.067 254.315 679.238 254.219 679.377 254.085C679.517 253.952 679.62 253.785 679.677 253.6C679.733 253.415 679.742 253.219 679.702 253.03C679.662 252.842 679.574 252.666 679.447 252.521C679.028 252.572 678.642 252.774 678.36 253.088C678.237 253.251 678.171 253.45 678.171 253.655C678.171 253.859 678.237 254.058 678.36 254.222C678.422 254.301 678.501 254.364 678.591 254.408C678.681 254.452 678.78 254.474 678.88 254.474C678.98 254.474 679.079 254.452 679.169 254.408C679.259 254.364 679.338 254.301 679.4 254.222L678.88 254.364Z" fill="#E9E9A8"/>
</g>
<g style="mix-blend-mode:soft-light" opacity="0.71">
<path d="M625.851 196.891C626.038 196.85 626.21 196.76 626.351 196.631C626.492 196.502 626.596 196.339 626.654 196.157C626.711 195.974 626.72 195.78 626.678 195.594C626.637 195.408 626.547 195.235 626.418 195.095C626.007 195.138 625.623 195.321 625.331 195.615C625.192 195.771 625.115 195.973 625.115 196.182C625.115 196.391 625.192 196.593 625.331 196.749C625.388 196.827 625.463 196.891 625.549 196.934C625.636 196.978 625.731 197.001 625.828 197.001C625.924 197.001 626.02 196.978 626.106 196.934C626.192 196.891 626.267 196.827 626.324 196.749L625.851 196.891Z" fill="#E9E9A8"/>
</g>
<g style="mix-blend-mode:soft-light" opacity="0.71">
<path d="M609.309 233.805C609.508 233.375 609.611 232.907 609.611 232.434C609.611 231.961 609.508 231.493 609.309 231.063L607.277 232.198C606.934 232.353 606.64 232.598 606.426 232.907C606.358 233.067 606.324 233.24 606.326 233.415C606.327 233.589 606.365 233.762 606.436 233.921C606.507 234.081 606.609 234.224 606.738 234.342C606.866 234.46 607.018 234.551 607.182 234.608C607.537 234.682 607.905 234.649 608.241 234.515C608.578 234.38 608.867 234.15 609.073 233.852L609.309 233.805Z" fill="#E9E9A8"/>
</g>
<g style="mix-blend-mode:soft-light" opacity="0.71">
<path d="M630.813 241.743L633.224 245.193C632.846 245.855 631.9 245.193 631.381 244.909C630.789 244.489 630.343 243.894 630.104 243.208C630.104 242.499 630.105 241.601 631.05 241.601L630.813 241.743Z" fill="#E9E9A8"/>
</g>
<g style="mix-blend-mode:soft-light" opacity="0.71">
<path d="M728.788 275.96C728.948 275.771 729.057 275.544 729.105 275.3C729.153 275.057 729.139 274.806 729.063 274.57C728.988 274.334 728.853 274.12 728.673 273.95C728.493 273.78 728.272 273.659 728.032 273.597C727.528 273.512 727.01 273.608 726.569 273.867C726.128 274.126 725.793 274.533 725.622 275.015C725.458 275.441 725.458 275.912 725.622 276.338C725.803 276.623 726.071 276.841 726.386 276.96C726.701 277.08 727.047 277.093 727.371 277C728.026 276.793 728.625 276.437 729.119 275.96H728.788Z" fill="#E9E9A8"/>
</g>
<g style="mix-blend-mode:soft-light" opacity="0.71">
<path d="M636.343 224.069C636.679 223.727 636.906 223.294 636.999 222.823C637.091 222.353 637.044 221.866 636.863 221.422C636.169 221.485 635.518 221.786 635.02 222.273C634.686 222.579 634.47 222.993 634.41 223.442C634.349 223.891 634.448 224.347 634.689 224.731C635.256 225.44 636.721 225.109 636.721 224.211L636.343 224.069Z" fill="#E9E9A8"/>
</g>
<g style="mix-blend-mode:soft-light" opacity="0.71">
<path d="M633.791 233.52C633.787 233.844 633.672 234.156 633.466 234.405C633.26 234.655 632.974 234.826 632.657 234.891L631.428 233.142C631.578 232.946 631.771 232.787 631.993 232.678C632.214 232.569 632.457 232.512 632.704 232.512C632.951 232.512 633.195 232.569 633.416 232.678C633.637 232.787 633.83 232.946 633.98 233.142L633.791 233.52Z" fill="#E9E9A8"/>
</g>
<g style="mix-blend-mode:soft-light" opacity="0.71">
<path d="M711.964 286.267L709.979 289.008C709.763 289.249 709.616 289.542 709.553 289.859C709.471 290.169 709.471 290.495 709.553 290.804C709.979 291.891 710.735 293.215 711.916 293.12C713.098 293.026 713.712 291.466 714.28 290.284C715.319 288.11 720.944 284.566 719.006 281.73C717.068 278.894 713.098 284.66 711.964 286.267Z" fill="#E9E9A8"/>
</g>
<g style="mix-blend-mode:soft-light" opacity="0.71">
<path d="M722.975 270.954L723.59 271.568C723.011 271.898 722.364 272.092 721.699 272.135C721.37 272.144 721.046 272.048 720.774 271.861C720.502 271.675 720.297 271.406 720.187 271.095C720.187 270.434 720.66 269.678 721.274 269.914C721.92 270.106 722.484 270.504 722.881 271.048L722.975 270.954Z" fill="#E9E9A8"/>
</g>
<g style="mix-blend-mode:soft-light" opacity="0.71">
<path d="M670.703 266.653C670.647 266.917 670.521 267.162 670.338 267.362C670.155 267.561 669.922 267.708 669.663 267.787C669.395 267.852 669.114 267.838 668.853 267.746C668.593 267.653 668.365 267.487 668.198 267.267C667.962 266.983 667.915 266.463 668.198 266.274H668.671H670.703V266.558V266.653Z" fill="#E9E9A8"/>
</g>
<g style="mix-blend-mode:soft-light" opacity="0.71">
<path d="M660.353 269.726C659.691 269.489 659.029 270.056 658.604 270.576C658.179 271.096 657.611 271.663 656.95 271.569C656.852 271.571 656.756 271.545 656.673 271.495C656.589 271.445 656.521 271.372 656.477 271.285C656.477 270.86 656.808 270.482 657.091 270.104C657.277 269.771 657.435 269.423 657.564 269.064C657.742 268.643 658.047 268.288 658.437 268.051C658.828 267.813 659.283 267.705 659.738 267.741C659.947 267.865 660.116 268.048 660.225 268.265C660.334 268.483 660.378 268.727 660.353 268.969C660.299 269.21 660.184 269.432 660.018 269.615C659.852 269.797 659.642 269.933 659.407 270.009L660.353 269.726Z" fill="#E9E9A8"/>
</g>
<g style="mix-blend-mode:soft-light" opacity="0.71">
<path d="M658.509 263.156L658.179 262.447C657.968 262.428 657.758 262.485 657.586 262.606C657.413 262.727 657.288 262.905 657.233 263.108C657.205 263.215 657.201 263.326 657.22 263.434C657.24 263.542 657.282 263.644 657.345 263.734C657.408 263.824 657.49 263.899 657.585 263.955C657.68 264.01 657.786 264.044 657.895 264.054C658 264.058 658.105 264.037 658.201 263.993C658.297 263.949 658.38 263.882 658.445 263.799C658.51 263.716 658.554 263.618 658.573 263.514C658.593 263.411 658.587 263.304 658.557 263.203L658.509 263.156Z" fill="#E9E9A8"/>
</g>
<g style="mix-blend-mode:soft-light" opacity="0.71">
<path d="M640.124 261.64L639.793 260.931C639.585 260.922 639.379 260.981 639.208 261.101C639.037 261.221 638.91 261.394 638.848 261.593C638.828 261.699 638.829 261.807 638.851 261.912C638.874 262.018 638.917 262.117 638.979 262.206C639.04 262.294 639.119 262.369 639.21 262.426C639.302 262.483 639.403 262.521 639.51 262.538C639.61 262.54 639.709 262.52 639.801 262.478C639.892 262.436 639.972 262.375 640.036 262.297C640.1 262.22 640.145 262.129 640.168 262.032C640.192 261.934 640.193 261.833 640.171 261.735L640.124 261.64Z" fill="#E9E9A8"/>
</g>
<g style="mix-blend-mode:soft-light" opacity="0.71">
<path d="M684.22 251.809C684.22 252.329 684.835 252.612 685.307 252.471C685.779 252.247 686.237 251.994 686.678 251.714C686.913 251.598 687.172 251.537 687.434 251.537C687.696 251.537 687.955 251.598 688.19 251.714C688.329 251.774 688.452 251.865 688.55 251.98C688.649 252.094 688.719 252.23 688.757 252.376C688.822 252.576 688.822 252.791 688.757 252.99C688.302 253.895 687.597 254.649 686.725 255.165C686.305 255.445 685.812 255.595 685.307 255.595C684.802 255.595 684.309 255.445 683.889 255.165C683.629 254.931 683.432 254.635 683.316 254.304C683.2 253.974 683.17 253.619 683.228 253.274C683.294 252.927 683.451 252.604 683.684 252.338C683.916 252.072 684.216 251.873 684.551 251.762L684.22 251.809Z" fill="#E9E9A8"/>
</g>
<g style="mix-blend-mode:soft-light" opacity="0.71">
<path d="M615.406 168.44C615.406 168.912 616.02 169.243 616.493 169.101C616.965 168.96 617.391 168.534 617.863 168.345C618.098 168.229 618.357 168.168 618.619 168.168C618.882 168.168 619.141 168.229 619.376 168.345C619.514 168.405 619.637 168.496 619.736 168.61C619.834 168.725 619.905 168.861 619.943 169.007C619.998 169.192 619.998 169.389 619.943 169.574C619.471 170.494 618.75 171.264 617.863 171.795C617.443 172.076 616.95 172.226 616.445 172.226C615.941 172.226 615.447 172.076 615.027 171.795C614.763 171.554 614.564 171.25 614.448 170.911C614.332 170.573 614.304 170.21 614.366 169.858C614.439 169.512 614.605 169.192 614.847 168.934C615.088 168.676 615.396 168.488 615.736 168.393L615.406 168.44Z" fill="#E9E9A8"/>
</g>
<g style="mix-blend-mode:soft-light" opacity="0.71">
<path d="M689.419 239.146C689.479 238.998 689.508 238.838 689.505 238.678C689.502 238.518 689.466 238.36 689.399 238.214C689.333 238.068 689.238 237.937 689.119 237.829C689.001 237.722 688.862 237.639 688.71 237.586C688.404 237.487 688.077 237.47 687.762 237.536C687.447 237.602 687.154 237.75 686.914 237.965C686.914 237.965 686.536 238.437 686.678 238.674C686.82 238.91 687.009 238.674 687.198 238.957L689.514 239.335L689.419 239.146Z" fill="#E9E9A8"/>
</g>
<g style="mix-blend-mode:soft-light" opacity="0.71">
<path d="M614.886 194.483C616.514 194.055 617.907 193.002 618.762 191.552C618.817 191.434 618.845 191.305 618.845 191.174C618.845 191.044 618.817 190.915 618.762 190.796C618.762 190.182 617.722 190.324 617.06 190.276C616.399 190.229 615.123 189.331 614.036 189.331C613.151 189.394 612.316 189.761 611.673 190.371C610.68 191.174 609.546 192.45 610.255 193.537C610.71 194.023 611.338 194.312 612.003 194.341C613.364 194.577 614.755 194.577 616.115 194.341L614.886 194.483Z" fill="#E9E9A8"/>
</g>
<g style="mix-blend-mode:soft-light" opacity="0.71">
<path d="M661.392 212.866C662.385 212.866 662.857 211.685 662.905 210.692C662.978 210.385 662.974 210.063 662.891 209.758C662.809 209.452 662.651 209.172 662.432 208.944C661.818 208.424 660.825 208.944 660.116 209.322L658.32 210.551C658.036 210.551 657.706 210.976 657.706 211.307C657.703 211.449 657.732 211.59 657.789 211.721C657.846 211.851 657.93 211.968 658.037 212.063C658.983 213.164 660.14 214.063 661.439 214.71L661.392 212.866Z" fill="#E9E9A8"/>
</g>
<g style="mix-blend-mode:soft-light" opacity="0.71">
<path d="M650.522 243.588C659.171 245.856 660.92 235.553 654.208 231.914C647.497 228.275 643.007 241.744 650.522 243.588Z" fill="#E9E9A8"/>
</g>
<g style="mix-blend-mode:soft-light" opacity="0.71">
<path d="M689.466 274.498C689.272 274.753 689.022 274.959 688.735 275.101C688.448 275.243 688.133 275.317 687.812 275.317C687.492 275.317 687.176 275.243 686.889 275.101C686.602 274.959 686.352 274.753 686.158 274.498C686.713 273.648 687.5 272.975 688.427 272.56C689.419 272.276 690.695 272.56 690.79 273.789C690.448 274.259 690.132 274.748 689.845 275.254L689.466 274.498Z" fill="#E9E9A8"/>
</g>
<g style="mix-blend-mode:soft-light" opacity="0.71">
<path d="M665.504 290.992L664.606 289.81C663.315 290.908 661.822 291.743 660.211 292.268C659.379 292.443 658.57 292.712 657.8 293.071C657.411 293.262 657.076 293.548 656.828 293.904C656.58 294.259 656.427 294.672 656.382 295.104C656.382 296.663 658.367 297.467 659.974 297.372C660.983 297.344 661.972 297.092 662.872 296.634C663.771 296.176 664.557 295.524 665.173 294.725C665.765 293.916 666.083 292.939 666.083 291.937C666.083 290.934 665.765 289.958 665.173 289.148L663.519 290.235L665.504 290.992Z" fill="#E9E9A8"/>
</g>
<g style="mix-blend-mode:soft-light" opacity="0.71">
<path d="M656.005 280.122C656.43 279.555 656.005 279.271 655.296 279.507C654.583 279.767 653.914 280.133 653.311 280.594L648.963 283.667C648.159 284.234 647.214 284.943 647.072 285.557C646.93 286.171 647.545 286.219 648.254 286.03C649.026 285.735 649.769 285.371 650.475 284.943C652.886 283.477 655.721 281.445 656.241 279.696L654.871 279.98L656.005 280.122Z" fill="#E9E9A8"/>
</g>
<g style="mix-blend-mode:soft-light" opacity="0.71">
<path d="M651.373 271.568C651.367 271.643 651.347 271.715 651.312 271.782C651.278 271.848 651.231 271.907 651.174 271.956C651.117 272.004 651.051 272.041 650.98 272.063C650.908 272.086 650.833 272.094 650.759 272.088C650.458 272.026 650.19 271.859 650.003 271.615C649.824 271.467 649.692 271.27 649.624 271.048C649.565 270.821 649.585 270.581 649.679 270.367C649.773 270.152 649.937 269.976 650.144 269.867C650.354 269.751 650.59 269.69 650.83 269.69C651.069 269.69 651.305 269.751 651.515 269.867C651.707 270.002 651.842 270.204 651.893 270.434C651.893 270.434 651.893 270.954 651.562 270.954L651.373 271.568Z" fill="#E9E9A8"/>
</g>
<g style="mix-blend-mode:soft-light" opacity="0.71">
<path d="M668.34 228.793C669.272 227.865 670.096 226.834 670.798 225.721C670.681 225.582 670.537 225.468 670.374 225.387C670.212 225.305 670.034 225.258 669.853 225.249C669.375 225.223 668.898 225.294 668.449 225.458C668 225.622 667.589 225.875 667.24 226.201C666.891 226.528 666.612 226.922 666.419 227.359C666.227 227.797 666.124 228.268 666.119 228.746C666.107 228.893 666.126 229.04 666.174 229.178C666.223 229.317 666.301 229.443 666.402 229.55C666.554 229.657 666.736 229.715 666.922 229.715C667.109 229.715 667.29 229.657 667.442 229.55C667.778 229.363 668.069 229.105 668.293 228.793H668.34Z" fill="#E9E9A8"/>
</g>
<g style="mix-blend-mode:soft-light" opacity="0.71">
<path d="M673.823 249.4L673.445 248.644C673.024 248.747 672.655 248.999 672.405 249.353C672.405 249.731 672.405 250.298 672.878 250.25C673.019 250.275 673.163 250.275 673.303 250.25L674.438 249.211L673.823 249.4Z" fill="#E9E9A8"/>
</g>
<g style="mix-blend-mode:soft-light" opacity="0.71">
<path d="M612.712 218.584C612.71 217.905 612.582 217.232 612.334 216.599C612.191 216.292 611.965 216.032 611.681 215.848C611.396 215.664 611.066 215.564 610.727 215.56C610.386 215.619 610.071 215.784 609.829 216.032C609.668 216.215 609.544 216.428 609.465 216.659C609.386 216.89 609.353 217.134 609.368 217.378C609.384 217.622 609.447 217.86 609.554 218.079C609.662 218.298 609.811 218.494 609.994 218.655C610.178 218.817 610.391 218.94 610.621 219.019C610.852 219.098 611.097 219.131 611.34 219.116C611.584 219.1 611.822 219.037 612.041 218.93C612.26 218.822 612.456 218.673 612.617 218.49L612.712 218.584Z" fill="#E9E9A8"/>
</g>
<g style="mix-blend-mode:soft-light" opacity="0.71">
<path d="M635.918 193.063C636.058 193.247 636.15 193.464 636.185 193.692C636.219 193.921 636.195 194.155 636.115 194.372C636.035 194.589 635.901 194.782 635.726 194.934C635.551 195.085 635.341 195.189 635.114 195.238C634.656 194.952 634.256 194.583 633.933 194.151C634.307 193.682 634.85 193.377 635.445 193.3L635.918 193.063Z" fill="#E9E9A8"/>
</g>
<g style="mix-blend-mode:soft-light" opacity="0.71">
<path d="M644.094 208.044C644.425 207.524 643.385 207.052 643.055 207.524C642.922 207.799 642.892 208.112 642.97 208.406C643.048 208.701 643.229 208.958 643.48 209.131C643.718 208.989 643.905 208.776 644.016 208.521C644.126 208.267 644.153 207.984 644.094 207.713V208.044Z" fill="#E9E9A8"/>
</g>
<g style="mix-blend-mode:soft-light" opacity="0.71">
<path d="M693.862 292.599L693.011 291.512C692.689 291.657 692.4 291.866 692.161 292.127C692.269 292.447 692.496 292.713 692.795 292.872C693.094 293.03 693.442 293.068 693.768 292.977L693.862 292.599Z" fill="#E9E9A8"/>
</g>
<g style="mix-blend-mode:soft-light" opacity="0.71">
<path d="M810.27 283.428L809.419 282.341C809.099 282.469 808.809 282.662 808.568 282.908C808.617 283.071 808.697 283.221 808.804 283.352C808.912 283.483 809.044 283.591 809.194 283.67C809.343 283.749 809.507 283.798 809.675 283.813C809.844 283.829 810.014 283.81 810.175 283.759L810.27 283.428Z" fill="#E9E9A8"/>
</g>
<g style="mix-blend-mode:soft-light" opacity="0.71">
<path d="M750.908 273.93C751.527 274.456 752 275.132 752.281 275.893C752.562 276.655 752.643 277.476 752.515 278.278C752.581 278.445 752.581 278.631 752.515 278.798C752.378 278.877 752.223 278.918 752.066 278.918C751.908 278.918 751.753 278.877 751.617 278.798C749.868 278.467 747.741 277.805 747.458 276.009C747.434 275.637 747.501 275.264 747.653 274.923C747.805 274.582 748.037 274.282 748.329 274.05C748.622 273.818 748.966 273.66 749.333 273.59C749.699 273.519 750.078 273.539 750.435 273.646L750.861 275.064L750.908 273.93Z" fill="#E9E9A8"/>
</g>
<g style="mix-blend-mode:soft-light" opacity="0.71">
<path d="M724.11 417.374C724.362 416.037 724.268 414.659 723.838 413.368C723.408 412.078 722.656 410.919 721.652 410.001C720.355 410.39 719.169 411.081 718.191 412.018C717.214 412.954 716.472 414.11 716.028 415.389C715.665 416.693 715.834 418.087 716.499 419.266C717.164 420.444 718.269 421.311 719.573 421.675C722.219 422.147 724.866 418.839 723.401 416.57L724.11 417.374Z" fill="#E9E9A8"/>
</g>
<g style="mix-blend-mode:soft-light" opacity="0.71">
<path d="M716.123 392.983C715.851 392.104 715.47 391.263 714.988 390.479C714.91 390.462 714.83 390.462 714.752 390.479C714.7 390.453 714.644 390.44 714.587 390.44C714.529 390.44 714.473 390.453 714.421 390.479C713.57 390.951 713.476 392.464 712.531 392.464C712.531 392.464 712.153 392.464 712.011 392.464C711.869 392.464 712.011 392.983 712.011 393.22C712.279 393.472 712.599 393.663 712.949 393.778C713.299 393.892 713.67 393.928 714.036 393.883C714.402 393.838 714.753 393.713 715.064 393.516C715.376 393.32 715.641 393.057 715.839 392.747V393.125L716.123 392.983Z" fill="#E9E9A8"/>
</g>
<g style="mix-blend-mode:soft-light" opacity="0.71">
<path d="M743.582 358.72C743.118 357.045 742.401 355.451 741.455 353.993C741.455 353.993 741.219 353.615 740.983 353.568C740.887 353.522 740.782 353.498 740.676 353.498C740.569 353.498 740.464 353.522 740.368 353.568C738.809 354.466 738.572 357.255 736.776 357.349C736.493 357.349 736.115 357.349 735.878 357.349C735.642 357.349 735.878 358.389 735.878 358.767C736.384 359.236 736.987 359.589 737.643 359.801C738.3 360.013 738.995 360.078 739.68 359.992C740.364 359.907 741.022 359.672 741.606 359.306C742.191 358.939 742.688 358.448 743.062 357.869V358.672L743.582 358.72Z" fill="#E9E9A8"/>
</g>
<g style="mix-blend-mode:soft-light" opacity="0.71">
<path d="M721.416 377.577C721.504 376.949 721.452 376.311 721.264 375.706C721.076 375.102 720.757 374.546 720.329 374.079C719.864 374.414 719.464 374.83 719.148 375.308C718.997 375.549 718.917 375.827 718.917 376.111C718.917 376.396 718.997 376.674 719.148 376.915C719.667 377.482 720.566 377.34 721.322 377.198L720.991 377.718L721.416 377.577Z" fill="#E9E9A8"/>
</g>
<g style="mix-blend-mode:soft-light" opacity="0.71">
<path d="M713.003 374.08C712.994 373.9 712.946 373.724 712.861 373.564C712.776 373.405 712.658 373.266 712.513 373.158C712.369 373.05 712.202 372.974 712.025 372.938C711.849 372.901 711.666 372.904 711.491 372.946C710.57 372.945 709.651 372.85 708.75 372.662C709.695 373.891 710.687 375.073 711.68 376.301V376.585C711.68 377.01 711.349 377.341 711.207 377.766C711.065 378.192 711.585 378.948 712.152 379.232C716.264 381.264 713.57 375.781 713.003 374.08Z" fill="#E9E9A8"/>
</g>
<g style="mix-blend-mode:soft-light" opacity="0.71">
<path d="M725.764 346.716L724.961 345.629C724.605 345.907 724.342 346.286 724.207 346.717C724.072 347.147 724.071 347.609 724.205 348.04C724.583 348.89 725.953 349.127 726.379 348.323C726.804 347.52 726.946 347 727.419 347.284L725.764 346.716Z" fill="#E9E9A8"/>
</g>
<g style="mix-blend-mode:soft-light" opacity="0.71">
<path d="M738.667 430.793C738.585 430.05 738.328 429.337 737.917 428.713C737.507 428.088 736.954 427.57 736.304 427.201C734.933 426.587 732.948 427.201 732.901 428.902C732.903 429.34 733.035 429.768 733.279 430.131L733.846 430.651C734.62 431.317 735.614 431.67 736.635 431.644C737.144 431.596 737.616 431.352 737.951 430.965C738.285 430.577 738.457 430.075 738.431 429.564L738.667 430.793Z" fill="#E9E9A8"/>
</g>
<g style="mix-blend-mode:soft-light" opacity="0.71">
<path d="M722.172 392.985C722.449 393.238 722.646 393.567 722.739 393.93C722.254 393.88 721.788 393.717 721.378 393.455C720.968 393.192 720.624 392.837 720.376 392.418C720.045 391.992 719.714 391.378 719.951 390.905C720.237 390.647 720.555 390.425 720.896 390.244C721.463 389.771 721.747 388.731 722.503 388.826C722.716 388.86 722.909 388.969 723.048 389.134C723.187 389.299 723.262 389.508 723.259 389.724C723.222 390.15 723.11 390.566 722.928 390.953L721.699 393.505L722.172 392.985Z" fill="#E9E9A8"/>
</g>
<g style="mix-blend-mode:soft-light" opacity="0.71">
<path d="M712.247 385.092C712.433 385.051 712.606 384.962 712.747 384.833C712.887 384.704 712.992 384.54 713.049 384.358C713.107 384.176 713.115 383.982 713.074 383.796C713.033 383.609 712.943 383.437 712.814 383.296C712.402 383.369 712.022 383.567 711.727 383.864C711.604 384.027 711.538 384.226 711.538 384.431C711.538 384.635 711.604 384.834 711.727 384.998C711.784 385.076 711.859 385.14 711.945 385.183C712.031 385.227 712.127 385.25 712.223 385.25C712.32 385.25 712.415 385.227 712.502 385.183C712.588 385.14 712.663 385.076 712.72 384.998L712.247 385.092Z" fill="#E9E9A8"/>
</g>
<g style="mix-blend-mode:soft-light" opacity="0.71">
<path d="M761.967 406.739C762.771 406.078 762.251 404.612 761.259 404.329C760.743 404.254 760.217 404.358 759.77 404.625C759.322 404.892 758.98 405.305 758.801 405.794C758.635 406.203 758.635 406.661 758.801 407.07C758.983 407.367 759.257 407.597 759.581 407.724C759.904 407.852 760.261 407.871 760.597 407.779C761.239 407.544 761.832 407.191 762.346 406.739H761.967Z" fill="#E9E9A8"/>
</g>
<g style="mix-blend-mode:soft-light" opacity="0.71">
<path d="M745.047 417.043L743.062 419.737C742.856 419.984 742.711 420.275 742.637 420.588C742.542 420.896 742.542 421.225 742.637 421.533C743.109 422.667 743.818 423.991 745.047 423.896C746.276 423.802 746.843 422.242 747.41 421.06C748.45 418.886 754.027 415.294 752.136 412.459C750.246 409.623 746.323 415.389 745.047 417.043Z" fill="#E9E9A8"/>
</g>
<g style="mix-blend-mode:soft-light" opacity="0.71">
<path d="M756.154 401.729L756.815 402.296C756.232 402.616 755.588 402.809 754.925 402.863C754.594 402.879 754.267 402.791 753.988 402.614C753.709 402.436 753.491 402.177 753.365 401.871C753.365 401.209 753.838 400.453 754.499 400.689C755.13 400.885 755.689 401.264 756.106 401.776L756.154 401.729Z" fill="#E9E9A8"/>
</g>
<g style="mix-blend-mode:soft-light" opacity="0.71">
<path d="M717.399 382.539C717.399 383.059 718.013 383.39 718.533 383.2C718.994 382.984 719.436 382.732 719.856 382.444C720.103 382.339 720.368 382.285 720.636 382.285C720.904 382.285 721.17 382.339 721.416 382.444C721.551 382.515 721.669 382.615 721.759 382.738C721.849 382.861 721.91 383.003 721.936 383.153C721.982 383.339 721.982 383.534 721.936 383.72C721.481 384.637 720.777 385.407 719.904 385.942C719.475 386.22 718.974 386.369 718.462 386.369C717.95 386.369 717.45 386.22 717.021 385.942C716.756 385.7 716.557 385.396 716.441 385.058C716.326 384.719 716.297 384.357 716.359 384.004C716.441 383.662 716.611 383.347 716.851 383.09C717.091 382.834 717.394 382.644 717.73 382.539H717.399Z" fill="#E9E9A8"/>
</g>
<g style="mix-blend-mode:soft-light" opacity="0.71">
<path d="M722.645 369.872C722.741 369.571 722.722 369.244 722.591 368.956C722.46 368.667 722.226 368.438 721.936 368.313C721.63 368.208 721.302 368.188 720.986 368.255C720.67 368.321 720.377 368.472 720.14 368.691C719.903 368.691 719.714 369.211 719.903 369.447C720.057 369.497 720.222 369.497 720.376 369.447L722.739 369.872H722.645Z" fill="#E9E9A8"/>
</g>
<g style="mix-blend-mode:soft-light" opacity="0.71">
<path d="M722.645 405.275C722.451 405.53 722.201 405.737 721.914 405.879C721.627 406.021 721.311 406.095 720.991 406.095C720.67 406.095 720.355 406.021 720.068 405.879C719.781 405.737 719.53 405.53 719.336 405.275C719.911 404.436 720.715 403.78 721.652 403.385C721.884 403.297 722.132 403.258 722.38 403.27C722.628 403.283 722.871 403.347 723.093 403.458C723.315 403.569 723.512 403.725 723.67 403.915C723.829 404.106 723.947 404.328 724.015 404.567L723.023 406.032L722.645 405.275Z" fill="#E9E9A8"/>
</g>
<g style="mix-blend-mode:soft-light" opacity="0.71">
<path d="M727.04 423.375L726.142 422.288C725.825 422.421 725.536 422.613 725.292 422.855C725.38 423.18 725.594 423.457 725.886 423.626C726.178 423.794 726.525 423.84 726.851 423.753L727.04 423.375Z" fill="#E9E9A8"/>
</g>
<g style="mix-blend-mode:soft-light" opacity="0.71">
<path d="M784.133 404.705C784.744 405.226 785.213 405.895 785.494 406.647C785.775 407.4 785.86 408.212 785.74 409.006C785.72 409.215 785.638 409.412 785.504 409.573C785.37 409.633 785.225 409.664 785.078 409.664C784.932 409.664 784.787 409.633 784.653 409.573C782.857 409.242 780.777 408.533 780.494 406.785C780.47 406.412 780.537 406.039 780.689 405.698C780.841 405.357 781.073 405.058 781.365 404.826C781.658 404.594 782.002 404.436 782.369 404.365C782.736 404.295 783.114 404.314 783.471 404.422C783.471 404.894 783.708 405.367 783.849 405.84L784.133 404.705Z" fill="#E9E9A8"/>
</g>
<g style="mix-blend-mode:soft-light" opacity="0.71">
<path d="M692.302 358.86C692.922 359.377 693.4 360.043 693.689 360.796C693.979 361.548 694.071 362.363 693.957 363.161C693.937 363.37 693.854 363.568 693.72 363.729C693.579 363.79 693.426 363.821 693.271 363.821C693.117 363.821 692.964 363.79 692.822 363.729C691.074 363.398 688.947 362.689 688.663 360.94C688.64 360.567 688.707 360.195 688.859 359.853C689.01 359.512 689.242 359.213 689.535 358.981C689.827 358.749 690.172 358.591 690.538 358.52C690.905 358.45 691.283 358.469 691.641 358.577L692.066 359.995L692.302 358.86Z" fill="#E9E9A8"/>
</g>
</g>
<g style="mix-blend-mode:soft-light" opacity="0.51">
<g style="mix-blend-mode:soft-light" opacity="0.51">
<path d="M349.27 164.656L338.305 159.93C339.959 158.843 341.566 157.851 343.031 156.905L350.972 160.355L356.738 162.908C438.871 198.831 525.831 222.509 614.839 233.187C624.575 234.369 634.358 235.408 644.141 236.401C667.773 238.859 692.255 241.411 715.981 246.184C726.252 248.227 736.411 250.798 746.418 253.888C747.647 255.92 748.875 257.953 750.057 260.032C738.582 256.187 726.887 253.03 715.035 250.58C691.404 245.854 667.206 243.301 643.669 241.127C633.838 240.087 624.055 239.095 614.272 237.913C524.794 227.099 437.388 203.214 354.847 167.019L349.27 164.656Z" fill="#F1F1A8"/>
</g>
<g style="mix-blend-mode:soft-light" opacity="0.51">
<path d="M780.211 331.871C756.91 330.311 734.46 322.418 712.672 314.431L699.628 309.705C645.201 289.973 587.6 280.456 529.719 281.631C517.998 282.056 506.087 283.001 494.555 283.899C476.433 285.701 458.225 286.506 440.014 286.31C385.287 284.664 332.522 265.552 289.436 231.769C283.51 227.162 277.933 222.123 272.752 216.692C273.744 215.463 274.784 214.234 275.871 213.053C280.976 218.478 286.49 223.503 292.366 228.082C334.647 261.261 386.435 280.042 440.156 281.678C458.193 281.863 476.226 281.075 494.177 279.315C505.757 278.37 517.809 277.424 529.577 277.046C584.023 275.156 641.778 284.703 701.187 305.404L714.279 310.13C735.264 317.645 756.816 325.396 778.887 327.239C779.36 328.704 779.785 330.311 780.211 331.871Z" fill="#F1F1A8"/>
</g>
</g>
<g style="mix-blend-mode:soft-light" opacity="0.51">
<g style="mix-blend-mode:soft-light" opacity="0.51">
<path d="M755.587 546.494C754.736 548.148 753.838 549.803 752.893 551.22C749.726 551.22 746.56 551.693 743.44 551.835C720.518 552.827 689.892 549.377 673.917 527.211C670.783 522.525 668.033 517.594 665.693 512.465C661.392 503.533 657.328 495.12 649.482 490.583C643.548 487.577 636.827 486.487 630.246 487.463C617.438 488.928 606.095 494.978 594.09 501.358C584.504 506.979 574.267 511.407 563.606 514.545C547.348 518.562 530.05 516.435 514.737 514.545L512.988 514.308C478.139 510.023 443.307 505.659 408.49 501.217C401.751 500.818 395.176 498.981 389.207 495.829C385.918 494.023 383.289 491.218 381.7 487.82C380.111 484.421 379.645 480.605 380.369 476.924C381.718 473.027 384.026 469.533 387.08 466.762C388.857 465.083 390.442 463.213 391.806 461.185C393.518 457.541 394.056 453.456 393.345 449.493C392.633 445.531 390.709 441.887 387.836 439.066C381.538 433.157 373.497 429.443 364.914 428.479C343.173 424.793 320.771 429.756 299.124 434.529C280.219 438.735 260.558 443.084 240.85 441.855C227.737 440.97 214.909 437.619 203.04 431.977C203.04 430.181 202.756 428.338 202.614 426.542C214.599 432.614 227.682 436.215 241.086 437.129C259.991 438.357 279.369 434.056 297.801 429.945C319.873 425.218 342.701 419.972 365.339 423.848C374.932 424.961 383.904 429.157 390.909 435.805C394.532 439.344 396.941 443.939 397.79 448.932C398.64 453.925 397.885 459.058 395.635 463.596C394.136 465.903 392.393 468.042 390.436 469.976C387.952 472.2 386.039 474.988 384.859 478.105C384.467 480.773 384.906 483.496 386.115 485.905C387.324 488.315 389.245 490.294 391.617 491.575C397.002 494.355 402.913 495.965 408.963 496.301C443.969 501.091 478.801 505.596 513.46 509.818H515.162C530.759 511.756 546.922 513.741 562.424 509.818C572.704 506.771 582.576 502.486 591.822 497.058C603.685 490.724 615.973 484.202 629.632 482.879C637.215 481.71 644.972 483.019 651.751 486.612C660.872 491.859 665.457 501.311 669.9 510.244C672.07 515.185 674.663 519.929 677.651 524.423C692.397 544.935 721.416 548.054 743.109 547.109C747.316 547.109 751.475 546.825 755.587 546.494Z" fill="#F1F1A8"/>
</g>
</g>
<g style="mix-blend-mode:soft-light" opacity="0.51">
<g style="mix-blend-mode:soft-light" opacity="0.51">
<path d="M586.576 687.806C584.922 688.373 583.362 688.893 581.849 689.366C577.377 683.405 573.409 677.081 569.987 670.461L567.245 665.735C549.096 634.21 525.89 611.099 500.085 598.811C470.357 584.632 436.186 583.828 403.669 584.915C365.339 586.239 321.811 590.918 289.341 615.447L286.505 611.713C319.967 586.333 364.441 581.56 403.528 580.189C436.611 579.055 471.491 580.189 502.117 594.368C528.774 607.034 552.736 630.855 571.357 663.182L574.098 667.909C577.617 674.922 581.795 681.584 586.576 687.806Z" fill="#F1F1A8"/>
</g>
</g>
<g style="mix-blend-mode:soft-light" opacity="0.51">
<g style="mix-blend-mode:soft-light" opacity="0.51">
<path d="M724.677 222.839L716.69 221.374C682.828 214.422 648.317 211.126 613.752 211.543C609.63 211.865 605.486 211.367 601.558 210.078C593.004 206.723 589.837 198.121 586.812 189.803C585.536 186.178 583.955 182.668 582.086 179.31C574.571 166.077 558.455 161.539 545.694 161.729C533.033 162.542 520.554 165.168 508.64 169.527L502.685 171.37C469.365 181.484 442.519 184.509 418.179 180.823C394.594 177.68 372.855 166.376 356.738 148.873C358.203 148.117 359.621 147.313 361.086 146.604C376.413 162.843 396.885 173.279 419.03 176.144C442.661 179.641 468.892 176.663 501.503 166.691L507.411 164.848C519.764 160.328 532.706 157.621 545.836 156.813C560.014 156.813 577.879 161.539 586.387 176.758C588.25 180.364 589.83 184.109 591.113 187.959C593.902 195.663 596.595 202.894 603.165 205.494C606.463 206.525 609.93 206.911 613.374 206.628C648.289 206.194 683.149 209.522 717.352 216.553L719.478 216.979C721.416 219.058 723.165 220.996 724.677 222.839Z" fill="#F1F1A8"/>
</g>
</g>
<path fill-rule="evenodd" clip-rule="evenodd" d="M310.007 0.877795L307.285 11.562L317.48 21.4616L324.136 13.7017C324.136 13.7017 326.994 7.53937 321.659 0.449856C321.631 0.449856 312.525 -0.80543 310.007 0.877795Z" fill="url(#paint1_linear)"/>
<path fill-rule="evenodd" clip-rule="evenodd" d="M307.285 11.0466L312.243 7.42969L324.1 13.2979L317.458 21.4623C313.608 18.5812 310.178 15.069 307.285 11.0466Z" fill="url(#paint2_linear)"/>
<path fill-rule="evenodd" clip-rule="evenodd" d="M216.058 237.398L217.015 242.054L225.836 245.397L228.066 241.65C228.066 241.65 228.309 238.854 223.206 236.317C223.206 236.317 217.273 236.49 216.058 237.398Z" fill="url(#paint3_linear)"/>
<path fill-rule="evenodd" clip-rule="evenodd" d="M216.058 242.178L218.497 240.444L228.068 241.82L225.644 245.397C222.34 244.598 219.129 243.52 216.058 242.178Z" fill="url(#paint4_linear)"/>
<path fill-rule="evenodd" clip-rule="evenodd" d="M364.947 136.425L372.222 138.089L378.6 130.635L373.19 126.141C373.19 126.141 368.919 124.291 364.335 128.231C364.335 128.231 363.737 134.689 364.947 136.425Z" fill="url(#paint5_linear)"/>
<path fill-rule="evenodd" clip-rule="evenodd" d="M371.668 138.088L368.992 134.777L372.721 126.532L378.6 130.874C376.711 133.575 374.374 136.007 371.668 138.088Z" fill="url(#paint6_linear)"/>
<path fill-rule="evenodd" clip-rule="evenodd" d="M436.594 82.3861L440.635 83.3704L444.204 78.8932L441.254 76.1941C440.402 75.8992 439.49 75.8616 438.619 76.0856C437.748 76.3095 436.95 76.7864 436.313 77.4643C436.313 77.4643 435.915 81.3382 436.594 82.3861Z" fill="url(#paint7_linear)"/>
<path fill-rule="evenodd" clip-rule="evenodd" d="M439.943 83.3704L438.6 81.2502L440.483 75.9414L443.404 78.7355C442.466 80.4693 441.299 82.0322 439.943 83.3704Z" fill="url(#paint8_linear)"/>
<path fill-rule="evenodd" clip-rule="evenodd" d="M386.606 117.11L387.209 121.407L391.927 123.231L393.012 119.305C392.952 118.369 392.671 117.471 392.198 116.707C391.725 115.944 391.08 115.345 390.332 114.977C390.332 114.977 387.183 116.074 386.606 117.11Z" fill="url(#paint9_linear)"/>
<path fill-rule="evenodd" clip-rule="evenodd" d="M387.407 121.671L388.507 119.929H393.012L391.963 123.231C390.374 122.948 388.837 122.422 387.407 121.671Z" fill="url(#paint10_linear)"/>
<path fill-rule="evenodd" clip-rule="evenodd" d="M201.229 47.8268L205.691 48.7012L209.601 44.7238L206.356 42.3261C205.418 42.0609 204.415 42.0259 203.456 42.225C202.496 42.4241 201.619 42.8495 200.921 43.4544C200.921 43.4544 200.483 46.8959 201.229 47.8268Z" fill="url(#paint11_linear)"/>
<path fill-rule="evenodd" clip-rule="evenodd" d="M206.15 48.7012L204.796 46.8166L206.688 42.0977L209.6 44.5813C208.669 46.1255 207.505 47.5153 206.15 48.7012Z" fill="url(#paint12_linear)"/>
<path fill-rule="evenodd" clip-rule="evenodd" d="M0 327.791L2.33821 334.808L11.8171 336.352L12.8112 329.503C12.8112 329.503 12.1951 324.998 6.51059 323.146C6.5526 323.076 0.840075 325.882 0 327.791Z" fill="url(#paint13_linear)"/>
<path fill-rule="evenodd" clip-rule="evenodd" d="M4.00293 334.826L5.35165 331.182L12.8106 329.749L11.9427 336.353C9.24362 336.307 6.56635 335.792 4.00293 334.826Z" fill="url(#paint14_linear)"/>
<path fill-rule="evenodd" clip-rule="evenodd" d="M865.067 225.588L862.221 235.87L872.879 245.397L879.837 237.929C879.837 237.929 882.826 231.999 877.247 225.176C877.191 225.176 867.699 224.009 865.067 225.588Z" fill="url(#paint15_linear)"/>
<path fill-rule="evenodd" clip-rule="evenodd" d="M862.221 236.207L867.178 233.016L879.035 238.193L872.462 245.397C868.588 242.861 865.134 239.761 862.221 236.207Z" fill="url(#paint16_linear)"/>
<path fill-rule="evenodd" clip-rule="evenodd" d="M91.7219 286.93L88.877 298.016L99.5312 308.287L106.501 300.236C106.501 300.236 109.474 293.842 103.898 286.486C103.898 286.486 94.3961 285.139 91.7219 286.93Z" fill="url(#paint17_linear)"/>
<path fill-rule="evenodd" clip-rule="evenodd" d="M88.877 299.098L94.317 295.906L107.293 301.084L100.01 308.288C95.7959 305.747 92.0417 302.648 88.877 299.098Z" fill="url(#paint18_linear)"/>
<defs>
<radialGradient id="paint0_radial" cx="0" cy="0" r="1" gradientUnits="userSpaceOnUse" gradientTransform="translate(444.126 681.428) scale(574.808)">
<stop offset="0.59" stop-color="#DE595B"/>
<stop offset="1" stop-color="#FE835C"/>
</radialGradient>
<linearGradient id="paint1_linear" x1="5840.79" y1="3225.9" x2="5840.79" y2="2920.93" gradientUnits="userSpaceOnUse">
<stop stop-color="#3D0A61"/>
<stop offset="0.23" stop-color="#320A64"/>
<stop offset="0.64" stop-color="#250968"/>
<stop offset="1" stop-color="#200969"/>
</linearGradient>
<linearGradient id="paint2_linear" x1="3983.79" y1="4617.33" x2="4156.53" y2="4710.85" gradientUnits="userSpaceOnUse">
<stop stop-color="#090D4C"/>
<stop offset="1" stop-color="#180033"/>
</linearGradient>
<linearGradient id="paint3_linear" x1="10718.6" y1="6442.62" x2="10730.5" y2="6391.99" gradientUnits="userSpaceOnUse">
<stop stop-color="#090D4C"/>
<stop offset="1" stop-color="#180033"/>
</linearGradient>
<linearGradient id="paint4_linear" x1="10983.9" y1="4352.61" x2="11070" y2="4375.12" gradientUnits="userSpaceOnUse">
<stop stop-color="#090D4C"/>
<stop offset="1" stop-color="#180033"/>
</linearGradient>
<linearGradient id="paint5_linear" x1="6183.64" y1="-8646.14" x2="6079.27" y2="-8703.19" gradientUnits="userSpaceOnUse">
<stop stop-color="#090D4C"/>
<stop offset="1" stop-color="#180033"/>
</linearGradient>
<linearGradient id="paint6_linear" x1="4421.73" y1="-4778.62" x2="4451.16" y2="-4839.31" gradientUnits="userSpaceOnUse">
<stop stop-color="#090D4C"/>
<stop offset="1" stop-color="#180033"/>
</linearGradient>
<linearGradient id="paint7_linear" x1="3598.54" y1="-5199.5" x2="3566.21" y2="-5215.9" gradientUnits="userSpaceOnUse">
<stop stop-color="#090D4C"/>
<stop offset="1" stop-color="#180033"/>
</linearGradient>
<linearGradient id="paint8_linear" x1="2369.26" y1="-2969.94" x2="2380.63" y2="-2988.45" gradientUnits="userSpaceOnUse">
<stop stop-color="#090D4C"/>
<stop offset="1" stop-color="#180033"/>
</linearGradient>
<linearGradient id="paint9_linear" x1="3873.57" y1="609.637" x2="3878.97" y2="567.558" gradientUnits="userSpaceOnUse">
<stop stop-color="#090D4C"/>
<stop offset="1" stop-color="#180033"/>
</linearGradient>
<linearGradient id="paint10_linear" x1="3411.73" y1="542.997" x2="3434.7" y2="545.539" gradientUnits="userSpaceOnUse">
<stop stop-color="#090D4C"/>
<stop offset="1" stop-color="#180033"/>
</linearGradient>
<linearGradient id="paint11_linear" x1="2504.02" y1="-4522.13" x2="2472" y2="-4542.25" gradientUnits="userSpaceOnUse">
<stop stop-color="#090D4C"/>
<stop offset="1" stop-color="#180033"/>
</linearGradient>
<linearGradient id="paint12_linear" x1="1199.28" y1="-2690.9" x2="1208.88" y2="-2708.44" gradientUnits="userSpaceOnUse">
<stop stop-color="#090D4C"/>
<stop offset="1" stop-color="#180033"/>
</linearGradient>
<linearGradient id="paint13_linear" x1="2448.17" y1="2544.48" x2="2442" y2="2417.97" gradientUnits="userSpaceOnUse">
<stop stop-color="#3D0A61"/>
<stop offset="0.23" stop-color="#320A64"/>
<stop offset="0.64" stop-color="#250968"/>
<stop offset="1" stop-color="#200969"/>
</linearGradient>
<linearGradient id="paint14_linear" x1="1623.27" y1="1460.66" x2="1690.87" y2="1457.77" gradientUnits="userSpaceOnUse">
<stop stop-color="#090D4C"/>
<stop offset="1" stop-color="#180033"/>
</linearGradient>
<linearGradient id="paint15_linear" x1="14834.3" y1="1389.88" x2="14834.3" y2="1096.64" gradientUnits="userSpaceOnUse">
<stop stop-color="#3D0A61"/>
<stop offset="0.23" stop-color="#320A64"/>
<stop offset="0.64" stop-color="#250968"/>
<stop offset="1" stop-color="#200969"/>
</linearGradient>
<linearGradient id="paint16_linear" x1="11379.8" y1="7309.56" x2="11542" y2="7409.13" gradientUnits="userSpaceOnUse">
<stop stop-color="#090D4C"/>
<stop offset="1" stop-color="#180033"/>
</linearGradient>
<linearGradient id="paint17_linear" x1="5104.49" y1="9926.06" x2="5104.49" y2="9609.36" gradientUnits="userSpaceOnUse">
<stop stop-color="#3D0A61"/>
<stop offset="0.23" stop-color="#320A64"/>
<stop offset="0.64" stop-color="#250968"/>
<stop offset="1" stop-color="#200969"/>
</linearGradient>
<linearGradient id="paint18_linear" x1="1312.08" y1="6848.19" x2="1480.69" y2="6961.41" gradientUnits="userSpaceOnUse">
<stop stop-color="#090D4C"/>
<stop offset="1" stop-color="#180033"/>
</linearGradient>
</defs>
</svg>
