<svg width="778" height="757" viewBox="0 0 778 757" fill="none" xmlns="http://www.w3.org/2000/svg">
<path style="mix-blend-mode:screen" opacity="0.81" d="M463.863 246.062C463.851 250.441 462.479 254.718 459.919 258.353C457.359 261.988 453.727 264.818 449.481 266.486C445.235 268.153 440.566 268.584 436.063 267.723C431.561 266.862 427.427 264.747 424.184 261.647C420.941 258.547 418.735 254.6 417.843 250.305C416.952 246.01 417.415 241.559 419.175 237.515C420.936 233.471 423.913 230.015 427.732 227.584C431.551 225.152 436.04 223.855 440.632 223.854C443.688 223.854 446.714 224.429 449.536 225.546C452.359 226.663 454.922 228.3 457.08 230.362C459.238 232.425 460.948 234.874 462.112 237.568C463.276 240.262 463.871 243.149 463.863 246.062Z" fill="url(#paint0_radial)"/>
<path opacity="0.5" d="M245.6 182.795C245.6 184.291 245.188 185.753 244.417 186.997C243.645 188.241 242.548 189.21 241.265 189.783C239.981 190.355 238.569 190.505 237.207 190.213C235.844 189.921 234.593 189.201 233.611 188.143C232.629 187.085 231.96 185.738 231.689 184.271C231.418 182.803 231.557 181.283 232.088 179.901C232.62 178.518 233.52 177.337 234.675 176.506C235.83 175.675 237.188 175.231 238.577 175.231C240.44 175.231 242.226 176.028 243.543 177.447C244.86 178.865 245.6 180.789 245.6 182.795Z" fill="#AFF1FF"/>
<path style="mix-blend-mode:screen" d="M685.031 453.314C725.917 285.592 622.407 116.315 453.835 75.221C285.262 34.1275 115.463 136.78 74.5767 304.501C33.6906 472.222 137.201 641.5 305.773 682.594C474.346 723.687 644.145 621.035 685.031 453.314Z" fill="url(#paint1_radial)"/>
<path d="M575.843 639.869C572.039 642.667 568.234 645.333 564.43 647.866C519.352 678.421 467.214 697.112 412.892 702.191C358.57 707.27 303.839 698.571 253.819 676.908C249.197 674.923 244.575 672.824 239.952 670.498C190.74 646.25 148.623 609.836 117.645 564.751C86.6665 519.666 67.8659 467.425 63.0473 413.039C62.4767 405.609 62.0772 398.121 61.9631 390.691C61.3021 353.086 67.3296 315.661 79.7677 280.141C81.708 274.468 83.9906 268.513 86.3303 262.727C103.087 222.714 127.767 186.458 158.902 156.115C190.038 125.771 226.993 101.96 267.572 86.0961C271.453 84.6214 275.39 83.1466 279.328 81.8987C327.549 65.0849 379.115 59.9762 429.726 66.9989C480.337 74.0215 528.525 92.9719 570.269 122.269C612.013 151.566 646.104 190.361 669.698 235.417C693.291 280.472 705.702 330.482 705.897 381.275C705.897 389.613 705.897 398.292 705.098 406.403C702.008 446.524 691.382 485.714 673.769 521.945C668.023 533.831 661.504 545.332 654.252 556.375C640.994 576.908 625.366 595.83 607.686 612.756C597.67 622.466 587.034 631.522 575.843 639.869V639.869Z" fill="url(#paint2_linear)"/>
<g style="mix-blend-mode:multiply" opacity="0.5">
<path d="M258.519 569.506C225.555 525.242 205.17 473.016 199.489 418.275C193.809 363.534 203.042 308.284 226.225 258.289C249.408 208.293 285.692 165.383 331.292 134.035C376.892 102.687 430.137 84.0499 485.473 80.0669C437.469 64.3454 386.41 60.0391 336.418 67.4957C286.426 74.9523 238.903 93.9629 197.683 122.993C156.463 152.023 122.703 190.259 99.1267 234.614C75.5506 278.97 62.8193 328.202 61.9606 378.337C61.1019 428.472 72.1398 478.105 94.1834 523.229C116.227 568.353 148.658 607.705 188.86 638.107C229.062 668.509 275.907 689.109 325.615 698.246C375.322 707.383 426.499 704.799 475.014 690.704C432.405 686.583 391.134 673.673 353.852 652.801C316.569 631.93 284.097 603.558 258.519 569.506V569.506Z" fill="#D61BDB"/>
</g>
<g style="mix-blend-mode:screen" opacity="0.25">
<path d="M147.107 582.127C99.1043 518.45 75.1494 440.277 79.3692 361.074C83.589 281.871 115.719 206.597 170.225 148.219C127.487 185.853 95.6233 233.961 77.8731 287.653C60.123 341.346 57.1186 398.71 69.1652 453.917C81.2118 509.123 107.88 560.205 146.46 601.972C185.04 643.738 234.157 674.701 288.821 691.714C232.506 668.288 183.578 630.451 147.107 582.127V582.127Z" fill="#45EDE8"/>
</g>
<g style="mix-blend-mode:lighten" opacity="0.2">
<path d="M686.888 390.116C694.612 279.762 632.902 185.545 549.053 179.675C465.204 173.806 390.969 258.507 383.245 368.861C375.52 479.214 437.231 573.432 521.079 579.301C604.928 585.171 679.163 500.469 686.888 390.116Z" fill="white"/>
</g>
<path d="M643.367 289.379C645.095 266.078 632.151 246.126 614.456 244.814C596.761 243.502 581.016 261.327 579.289 284.628C577.561 307.929 590.506 327.881 608.2 329.193C625.895 330.505 641.64 312.679 643.367 289.379Z" fill="white"/>
<path d="M665.825 384.579C664.749 399.775 653.867 411.481 641.91 410.749C629.952 410.018 620.626 397.073 621.702 381.878C622.778 366.683 633.659 354.977 645.617 355.708C657.574 356.44 666.961 369.384 665.825 384.579Z" fill="white"/>
<g style="mix-blend-mode:lighten" opacity="0.25">
<path d="M656.259 559.892C610.917 515.88 569.826 466.394 518.249 427.968C452.182 377.848 378.47 338.839 299.984 312.463C230.88 289.749 158.341 279.444 85.6855 282.019C87.6126 276.318 89.8797 270.332 92.2035 264.517L108.527 262.807C170.872 255.566 233.898 248.326 294.939 261.153C365.673 276.033 427.792 316.625 488.04 356.419C548.288 396.213 636.309 453.338 675.643 525.514C669.928 537.383 663.453 548.867 656.259 559.892V559.892Z" fill="#76FFFF"/>
</g>
<g style="mix-blend-mode:lighten" opacity="0.25">
<path d="M577.086 642.53C573.273 645.348 569.461 648.032 565.649 650.584C540.202 598.091 498.229 554.395 442.817 538.059C416.341 530.291 388.435 528.977 360.815 527.721C350.364 526.442 339.758 527.756 329.936 531.548C311.237 540.744 306.662 564.562 301.344 584.725C292.02 619.19 276.032 651.499 254.281 679.828C249.649 677.829 245.018 675.716 240.386 673.374C256.194 655.727 268.984 635.599 278.242 613.799C297.227 567.704 293.338 509.1 257.083 475.171C237.698 457.008 211.736 447.812 186.633 439.129C146.604 425.25 104.23 411.427 63.0006 414.111C62.4287 406.629 62.0284 399.089 61.9141 391.607C89.2797 385.079 117.847 385.511 145.003 392.863C213.623 412.569 261.658 477.97 330.107 498.419C363.903 508.586 400.158 506.872 435.155 512.013C495.34 521.569 550.477 551.302 591.496 596.321C595.728 601.004 602.189 607.744 608.651 615.455C598.718 625.144 588.175 634.187 577.086 642.53V642.53Z" fill="#76FFFF"/>
</g>
<g style="mix-blend-mode:lighten" opacity="0.25">
<path d="M302.867 132.011C299.082 126.441 295.473 121.261 291.924 115.859C287.606 108.897 278.378 98.6485 270.452 87.5093C274.474 86.0611 278.556 84.613 282.637 83.3877C288.789 99.8181 293.521 117.53 302.867 132.011Z" fill="#76FFFF"/>
</g>
<g style="mix-blend-mode:lighten" opacity="0.25">
<path d="M705.079 407.54C643.638 299.901 535.04 219.681 412.781 196.057C388.805 191.411 363.753 188.579 342.838 176.115C328.17 166.64 315.657 154.191 306.109 139.574C307.089 140.885 308.149 142.134 309.283 143.313C327.251 163.142 354.627 171.639 381.38 174.529C408.133 177.418 435.113 176.682 461.412 181.95C521.436 194.357 569.388 237.526 614.165 279.336C647.436 310.325 682.181 344.316 705.873 382.557C705.986 390.771 705.703 399.212 705.079 407.54Z" fill="#76FFFF"/>
</g>
<path opacity="0.5" d="M443.099 158.591C444.187 154.929 446.275 151.689 449.098 149.281C451.922 146.872 455.355 145.403 458.966 145.057C462.577 144.711 466.204 145.504 469.39 147.337C472.576 149.169 475.178 151.959 476.87 155.355C478.561 158.751 479.265 162.6 478.894 166.419C478.522 170.238 477.092 173.855 474.782 176.815C472.473 179.774 469.388 181.944 465.916 183.05C462.444 184.157 458.741 184.151 455.272 183.033C452.951 182.285 450.792 181.057 448.922 179.42C447.051 177.784 445.505 175.771 444.374 173.499C443.242 171.226 442.546 168.738 442.328 166.18C442.109 163.621 442.371 161.042 443.099 158.591V158.591Z" fill="#AFF1FF"/>
<path opacity="0.5" d="M714.948 299.487C715.483 297.75 716.521 296.212 717.931 295.066C719.34 293.92 721.058 293.217 722.866 293.047C724.675 292.877 726.494 293.247 728.092 294.111C729.69 294.975 730.996 296.293 731.845 297.899C732.694 299.505 733.048 301.327 732.861 303.134C732.675 304.941 731.956 306.652 730.797 308.051C729.638 309.45 728.09 310.474 726.349 310.993C724.608 311.512 722.752 311.503 721.017 310.967C718.69 310.249 716.743 308.636 715.605 306.483C714.468 304.33 714.231 301.814 714.948 299.487V299.487Z" fill="#AFF1FF"/>
<path opacity="0.85" d="M600.489 141.68C601.13 139.952 602.358 138.423 604.019 137.286C605.68 136.149 607.7 135.455 609.825 135.291C611.949 135.127 614.084 135.5 615.959 136.364C617.834 137.228 619.367 138.543 620.364 140.145C621.361 141.747 621.777 143.564 621.561 145.367C621.346 147.169 620.507 148.877 619.15 150.276C617.794 151.675 615.981 152.701 613.939 153.227C611.898 153.752 609.719 153.753 607.676 153.229C604.921 152.507 602.615 150.884 601.268 148.718C599.92 146.553 599.64 144.021 600.489 141.68V141.68Z" fill="#AFF1FF"/>
<path opacity="0.2" d="M763.468 133.069C763.88 131.334 764.676 129.799 765.757 128.656C766.837 127.512 768.152 126.814 769.536 126.647C770.921 126.481 772.312 126.854 773.534 127.72C774.755 128.586 775.753 129.906 776.401 131.513C777.049 133.12 777.317 134.942 777.173 136.748C777.028 138.554 776.477 140.264 775.588 141.661C774.7 143.058 773.515 144.08 772.182 144.597C770.85 145.114 769.43 145.103 768.102 144.566C766.328 143.83 764.847 142.211 763.98 140.059C763.113 137.908 762.929 135.396 763.468 133.069Z" fill="#AFF1FF"/>
<path opacity="0.2" d="M530.014 173.928C530.311 172.819 530.868 171.84 531.617 171.115C532.365 170.389 533.272 169.95 534.224 169.851C535.176 169.751 536.13 169.997 536.968 170.557C537.807 171.117 538.491 171.966 538.937 172.999C539.383 174.032 539.57 175.202 539.475 176.364C539.38 177.525 539.007 178.627 538.402 179.531C537.798 180.436 536.989 181.102 536.077 181.448C535.164 181.794 534.189 181.804 533.272 181.476C532.647 181.252 532.065 180.878 531.561 180.374C531.056 179.871 530.64 179.249 530.336 178.545C530.032 177.841 529.847 177.07 529.792 176.277C529.737 175.484 529.812 174.685 530.014 173.928V173.928Z" fill="#AFF1FF"/>
<path opacity="0.2" d="M575.423 136.569C575.655 135.756 576.031 135.001 576.53 134.347C577.03 133.692 577.642 133.152 578.333 132.755C579.024 132.359 579.779 132.115 580.556 132.038C581.334 131.96 582.117 132.05 582.862 132.303C583.608 132.556 584.3 132.966 584.9 133.511C585.5 134.055 585.995 134.724 586.358 135.477C586.722 136.231 586.945 137.055 587.016 137.903C587.087 138.751 587.005 139.605 586.773 140.418C586.305 142.06 585.258 143.432 583.863 144.232C582.468 145.032 580.839 145.195 579.334 144.685C577.829 144.174 576.571 143.032 575.838 141.51C575.104 139.989 574.955 138.211 575.423 136.569Z" fill="#AFF1FF"/>
<path opacity="0.2" d="M580.844 206.188C581.094 205.103 581.502 204.094 582.044 203.219C582.587 202.344 583.253 201.621 584.005 201.089C584.757 200.558 585.581 200.229 586.428 200.122C587.276 200.014 588.131 200.131 588.945 200.464C589.759 200.798 590.515 201.342 591.172 202.065C591.828 202.788 592.371 203.677 592.769 204.68C593.168 205.683 593.414 206.781 593.495 207.911C593.575 209.041 593.488 210.181 593.238 211.266C592.733 213.458 591.595 215.292 590.076 216.365C588.557 217.439 586.78 217.663 585.136 216.99C583.493 216.316 582.117 214.8 581.312 212.774C580.507 210.749 580.339 208.379 580.844 206.188Z" fill="#AFF1FF"/>
<defs>
<radialGradient id="paint0_radial" cx="0" cy="0" r="1" gradientUnits="userSpaceOnUse" gradientTransform="translate(443.762 246.07) scale(23.2809 22.198)">
<stop stop-color="#45EDE8"/>
<stop offset="0.99"/>
</radialGradient>
<radialGradient id="paint1_radial" cx="0" cy="0" r="1" gradientUnits="userSpaceOnUse" gradientTransform="translate(379.739 378.915) rotate(0.0665717) scale(314.077 312.668)">
<stop stop-color="#36FAFF"/>
<stop offset="0.12" stop-color="#2ED5D9"/>
<stop offset="0.36" stop-color="#1E8A8D"/>
<stop offset="0.58" stop-color="#114F50"/>
<stop offset="0.77" stop-color="#082425"/>
<stop offset="0.91" stop-color="#020A0A"/>
<stop offset="1"/>
</radialGradient>
<linearGradient id="paint2_linear" x1="106.087" y1="246.198" x2="684.095" y2="526.361" gradientUnits="userSpaceOnUse">
<stop stop-color="#4300DB"/>
<stop offset="0.08" stop-color="#450ADC"/>
<stop offset="0.23" stop-color="#4A25E0"/>
<stop offset="0.41" stop-color="#5351E6"/>
<stop offset="0.63" stop-color="#5F8DEF"/>
<stop offset="0.87" stop-color="#6ED9FA"/>
<stop offset="0.98" stop-color="#76FFFF"/>
</linearGradient>
</defs>
</svg>
