<svg width="145" height="145" viewBox="0 0 145 145" fill="none" xmlns="http://www.w3.org/2000/svg">
<path d="M103.936 54.5597C103.936 60.7898 102.089 66.88 98.6277 72.0602C95.1664 77.2403 90.2468 81.2778 84.4909 83.6619C78.735 86.0461 72.4014 86.6699 66.291 85.4545C60.1806 84.239 54.5679 81.2389 50.1625 76.8336C45.7571 72.4282 42.7571 66.8155 41.5416 60.7051C40.3262 54.5947 40.95 48.2611 43.3342 42.5052C45.7183 36.7493 49.7558 31.8297 54.9359 28.3684C60.116 24.9072 66.2063 23.0597 72.4364 23.0597C80.7878 23.0691 88.7945 26.3909 94.6999 32.2962C100.605 38.2016 103.927 46.2083 103.936 54.5597ZM121.936 54.5597C121.938 61.8532 120.325 69.0565 117.213 75.653C114.102 82.2494 109.569 88.0754 103.94 92.713V135.56C103.94 136.327 103.744 137.081 103.37 137.751C102.997 138.421 102.458 138.984 101.806 139.388C101.153 139.791 100.409 140.021 99.6424 140.055C98.8761 140.09 98.1138 139.928 97.4277 139.585L72.4358 127.091L47.4524 139.584C46.7663 139.927 46.0039 140.089 45.2376 140.055C44.4714 140.021 43.7266 139.791 43.0741 139.388C42.4216 138.984 41.883 138.421 41.5094 137.751C41.1359 137.081 40.9398 136.327 40.9397 135.56V92.718C34.5088 87.4096 29.5235 80.5622 26.4466 72.8118C23.3697 65.0613 22.3011 56.6591 23.3399 48.3851C24.3787 40.1112 27.4913 32.234 32.3887 25.4847C37.2861 18.7355 43.8095 13.3331 51.3531 9.7792C58.8968 6.22531 67.2161 4.63515 75.5387 5.15634C83.8612 5.67754 91.9172 8.29321 98.9585 12.7605C106 17.2277 111.798 23.4018 115.815 30.7093C119.832 38.0168 121.938 46.2209 121.936 54.5597ZM112.936 54.5597C112.936 46.5496 110.561 38.7193 106.111 32.0591C101.661 25.3989 95.3354 20.208 87.935 17.1426C80.5346 14.0773 72.3914 13.2752 64.5352 14.8379C56.679 16.4006 49.4626 20.2579 43.7985 25.9219C38.1345 31.5859 34.2773 38.8023 32.7146 46.6586C31.1519 54.5148 31.9539 62.658 35.0192 70.0584C38.0846 77.4588 43.2756 83.784 49.9358 88.2342C56.596 92.6844 64.4262 95.0597 72.4364 95.0597C83.1739 95.0477 93.4683 90.7768 101.061 83.1842C108.653 75.5916 112.924 65.2973 112.936 54.5597Z" fill="white"/>
<path d="M65.7548 48.9196V44.0236C67.5308 43.1356 69.3188 42.6916 71.1188 42.6916C73.6628 42.6916 75.6788 43.3036 77.1668 44.5276C78.6548 45.7276 79.3988 47.2996 79.3988 49.2436C79.3988 51.9076 78.1868 53.7436 75.7628 54.7516C78.4988 55.3996 79.8668 57.1756 79.8668 60.0796C79.8668 62.0956 79.0988 63.7156 77.5628 64.9396C76.0508 66.1396 73.9268 66.7396 71.1908 66.7396C68.6228 66.7396 66.4988 66.3316 64.8188 65.5156V60.4756C66.7388 61.5316 68.7188 62.0596 70.7588 62.0596C71.9348 62.0596 72.8468 61.8076 73.4948 61.3036C74.1668 60.7996 74.5028 60.1636 74.5028 59.3956C74.5028 57.6436 72.8828 56.7676 69.6428 56.7676H68.3828V52.4476H69.6428C70.9148 52.4476 71.9588 52.2316 72.7748 51.7996C73.5908 51.3676 73.9988 50.7196 73.9988 49.8556C73.9988 48.1996 72.9188 47.3716 70.7588 47.3716C69.1028 47.3716 67.4348 47.8876 65.7548 48.9196Z" fill="#FB9480"/>
</svg>
