<svg xmlns="http://www.w3.org/2000/svg" xmlns:xlink="http://www.w3.org/1999/xlink" viewBox="0 0 937.81 823.35"><defs><style>.cls-1,.cls-2,.cls-3{fill-rule:evenodd;}.cls-2,.cls-3{stroke-miterlimit:22.93;stroke-width:0.69px;}.cls-2{stroke:url(#linear-gradient);}.cls-3{stroke:url(#linear-gradient-2);}</style><linearGradient id="linear-gradient" x1="9.29" y1="546.5" x2="929.22" y2="546.5" gradientUnits="userSpaceOnUse"><stop offset="0" stop-color="#231e20"/><stop offset="0.05" stop-color="#413d3e"/><stop offset="0.21" stop-color="#928f90"/><stop offset="0.33" stop-color="#cdcbcc"/><stop offset="0.42" stop-color="#f1f1f1"/><stop offset="0.47" stop-color="#fff"/><stop offset="0.48" stop-color="#b7b5b6"/><stop offset="0.49" stop-color="#777475"/><stop offset="0.49" stop-color="#4a4547"/><stop offset="0.5" stop-color="#2d292b"/><stop offset="0.5" stop-color="#231e20"/><stop offset="0.54" stop-color="#423d3f"/><stop offset="0.6" stop-color="#737072"/><stop offset="0.67" stop-color="#9e9c9d"/><stop offset="0.73" stop-color="#c1c0c0"/><stop offset="0.8" stop-color="#dcdcdc"/><stop offset="0.87" stop-color="#f0efef"/><stop offset="0.93" stop-color="#fbfbfb"/><stop offset="1" stop-color="#fff"/></linearGradient><linearGradient id="linear-gradient-2" x1="244.85" y1="154.54" x2="640.85" y2="154.54" xlink:href="#linear-gradient"/></defs><g id="Layer_2" data-name="Layer 2"><g id="Layer_1-2" data-name="Layer 1"><g id="Logo_Hitam" data-name="Logo Hitam"><path d="M527.52,822.62l-11.51,0V785l-11.31,4.26v-8.72L526.47,773h1Z"/><path d="M418.13,822.66H383.51v-7.49l15.95-16.76q5.9-6.7,5.89-10.66a7.4,7.4,0,0,0-1.4-4.87,5,5,0,0,0-4.05-1.67,5,5,0,0,0-4.26,2.23A9.17,9.17,0,0,0,394,789H382.49a16.17,16.17,0,0,1,2.29-8.43,16,16,0,0,1,6.33-6.05,18.84,18.84,0,0,1,9.06-2.18q8,0,12.39,3.71t4.34,10.67a15.39,15.39,0,0,1-1.09,5.7,25.45,25.45,0,0,1-3.39,5.83,85.25,85.25,0,0,1-7.41,8.16l-6.4,7.39h19.52Z"/><path d="M458.36,802.39q0,10.07-4.52,15.51t-12.72,5.45q-8.28,0-12.81-5.49t-4.53-15.47v-9.06q0-10.05,4.51-15.5t12.76-5.45q8.25,0,12.78,5.49t4.53,15.5Zm-11.48-10.52q0-5.36-1.4-8a4.67,4.67,0,0,0-4.43-2.64,4.57,4.57,0,0,0-4.31,2.45c-.9,1.64-1.38,4.11-1.45,7.43v12.67q0,5.55,1.4,8.13a4.69,4.69,0,0,0,4.43,2.57,4.64,4.64,0,0,0,4.33-2.51c.93-1.66,1.4-4.28,1.43-7.85Z"/><path d="M498.93,822.66H464.32v-7.49l15.94-16.76q5.89-6.7,5.89-10.66a7.4,7.4,0,0,0-1.39-4.87,5,5,0,0,0-4.06-1.67,5,5,0,0,0-4.26,2.23,9.17,9.17,0,0,0-1.63,5.57H463.3a16.26,16.26,0,0,1,2.28-8.43,16,16,0,0,1,6.33-6.05,18.91,18.91,0,0,1,9.07-2.18q8,0,12.38,3.71t4.34,10.67a15.39,15.39,0,0,1-1.09,5.7,25.45,25.45,0,0,1-3.39,5.83,85.25,85.25,0,0,1-7.41,8.16l-6.4,7.39h19.52Z"/><path class="cls-1" d="M0,734.38H9.18V685.94H0v48.44Zm19.63,0h9.18V702.61l20.78,31.77h8.84V685.94H49.25v31.85L28.4,685.94H19.63v48.44Zm50,0H78.8V712.59H93.65v-8.9H78.8v-8.84H93.65v-8.91h-24v48.44Zm42.44-46.21a24.6,24.6,0,0,0-9.25,9.17,25.54,25.54,0,0,0-3.37,12.82A25,25,0,0,0,106.67,728a25.23,25.23,0,0,0,35.82.2,24.4,24.4,0,0,0,7.29-17.94,24.87,24.87,0,0,0-7.42-18.15,24.11,24.11,0,0,0-17.68-7.42,24.38,24.38,0,0,0-12.61,3.44Zm23.74,10.39a16.05,16.05,0,0,1,4.66,11.67A16.33,16.33,0,0,1,135.88,722a15,15,0,0,1-11.13,4.72,15.77,15.77,0,0,1-10.26-3.64c-3.84-3.1-5.73-7.36-5.73-12.75a16.35,16.35,0,0,1,4.59-11.88,15.72,15.72,0,0,1,22.46.14Zm23.35,35.82h9.17V713.87h.95l10.86,20.51h10.12l-11.47-21.52A12.63,12.63,0,0,0,188,700a14.34,14.34,0,0,0-2.09-7.82,11.34,11.34,0,0,0-5.47-4.79c-2.29-1-6.07-1.42-11.47-1.42h-9.78v48.44Zm9.17-39.47h2.57a17.37,17.37,0,0,1,5.13.54,4.93,4.93,0,0,1,2.22,1.69,4.63,4.63,0,0,1,.81,2.77,4.37,4.37,0,0,1-1.68,3.84c-1.08.75-3.18,1.15-6.14,1.15h-2.91v-10ZM194,734.38h9l5.33-30.56,10.18,30.56h8.1l10.32-30.56L242,734.38h8.91l-8.1-48.44h-9l-11.27,33.8-11.34-33.8h-8.9L194,734.38Zm60.52,0h9.58l3.85-10h19.83l3.78,10h9.65l-18.69-48.44h-9.24l-18.76,48.44Zm29.89-18.89H271.29l6.61-16.66,6.48,16.66Zm19.23-20.44h8.57v39.33h9.38V695.05h8.83v-9.11H303.61v9.11ZM336,734.38h9.18V685.94H336v48.44Zm29.76-46.21a24.6,24.6,0,0,0-9.25,9.17,25.54,25.54,0,0,0-3.37,12.82A25,25,0,0,0,360.35,728a25.24,25.24,0,0,0,35.83.2,24.43,24.43,0,0,0,7.28-17.94A24.83,24.83,0,0,0,396,692.15a24.08,24.08,0,0,0-17.68-7.42,24.38,24.38,0,0,0-12.61,3.44Zm23.75,10.39a16.08,16.08,0,0,1,4.65,11.67A16.33,16.33,0,0,1,389.56,722a15,15,0,0,1-11.13,4.72,15.74,15.74,0,0,1-10.25-3.64c-3.85-3.1-5.74-7.36-5.74-12.75A16.35,16.35,0,0,1,367,698.42a15.73,15.73,0,0,1,22.47.14Zm22.8,35.82h9.18V702.61l20.78,31.77h8.83V685.94h-9.17v31.85l-20.85-31.85H412.3v48.44Zm87.1-48a14.94,14.94,0,0,0-6.95-1.68A13.47,13.47,0,0,0,483,688.3a11.53,11.53,0,0,0-3.85,8.64,12.38,12.38,0,0,0,2.3,7c1.55,2.36,5,5.66,10.25,10a35.31,35.31,0,0,1,5.4,5,5.73,5.73,0,0,1,1.21,3.31,4.23,4.23,0,0,1-1.62,3.24,6.2,6.2,0,0,1-4,1.35c-3,0-5.73-2.16-8.09-6.41l-7.76,4.65a19.76,19.76,0,0,0,6.61,8,15.88,15.88,0,0,0,9,2.57c4.46,0,8-1.28,10.8-3.92a12.79,12.79,0,0,0,4.11-9.78,14,14,0,0,0-1.14-5.67,20.53,20.53,0,0,0-4-5.39c-.75-.81-2.9-2.63-6.41-5.6A64.74,64.74,0,0,1,489,699a3.79,3.79,0,0,1-.81-2.29,3,3,0,0,1,1.15-2.23,4.71,4.71,0,0,1,3-.94c2.49,0,4.92,1.68,7.35,5l6.82-6a25.11,25.11,0,0,0-7.09-6.14Zm27.46,27v21h9.31v-21l14.24-27.46h-9.92l-9,17.41-9-17.41h-9.85l14.17,27.46Zm49.46-27a15,15,0,0,0-7-1.68,13.52,13.52,0,0,0-9.45,3.57,11.55,11.55,0,0,0-3.84,8.64,12.44,12.44,0,0,0,2.29,7c1.55,2.36,5,5.66,10.26,10a35.59,35.59,0,0,1,5.39,5,5.75,5.75,0,0,1,1.22,3.31,4.23,4.23,0,0,1-1.62,3.24,6.22,6.22,0,0,1-4,1.35c-3,0-5.74-2.16-8.1-6.41l-7.76,4.65a19.76,19.76,0,0,0,6.61,8,15.94,15.94,0,0,0,9,2.57c4.45,0,8-1.28,10.79-3.92a12.76,12.76,0,0,0,4.12-9.78,14,14,0,0,0-1.15-5.67,20.53,20.53,0,0,0-4-5.39c-.74-.81-2.9-2.63-6.41-5.6a64.19,64.19,0,0,1-6.81-6.21,3.79,3.79,0,0,1-.81-2.29,3,3,0,0,1,1.14-2.23,4.73,4.73,0,0,1,3-.94c2.5,0,4.93,1.68,7.36,5l6.81-6a25,25,0,0,0-7.08-6.14Zm12,8.64h8.56v39.33h9.38V695.05h8.84v-9.11H588.33v9.11Zm33.12,39.33H647.9v-9H630.63V712.59H647.9v-8.9H630.63V695H647.9v-9H621.45v48.44Zm31.31,0h9l5.33-30.56,10.19,30.56h8.1l10.32-30.56,5.13,30.56h8.9l-8.09-48.44h-9l-11.27,33.8L670,685.94h-8.91l-8.36,48.44Zm82.78-48a14.94,14.94,0,0,0-6.95-1.68,13.47,13.47,0,0,0-9.44,3.57,11.53,11.53,0,0,0-3.85,8.64,12.38,12.38,0,0,0,2.3,7c1.55,2.36,5,5.66,10.25,10a35.31,35.31,0,0,1,5.4,5,5.73,5.73,0,0,1,1.21,3.31,4.23,4.23,0,0,1-1.62,3.24,6.22,6.22,0,0,1-4,1.35c-3,0-5.73-2.16-8.09-6.41L713,725.07a19.76,19.76,0,0,0,6.61,8,15.88,15.88,0,0,0,9,2.57c4.46,0,8-1.28,10.8-3.92a12.79,12.79,0,0,0,4.11-9.78,14,14,0,0,0-1.14-5.67,20.53,20.53,0,0,0-4-5.39c-.75-.81-2.91-2.63-6.41-5.6a64.74,64.74,0,0,1-6.82-6.21,3.79,3.79,0,0,1-.81-2.29,3,3,0,0,1,1.15-2.23,4.71,4.71,0,0,1,3-.94c2.49,0,4.92,1.68,7.35,5l6.82-6a25.11,25.11,0,0,0-7.09-6.14Zm35.69,48h26.45v-9H780.41V712.59h17.27v-8.9H780.41V695h17.27v-9H771.23v48.44Zm47.23-24.89-16.33,24.89h10.46l11.07-16.93,11.06,16.93h10.53l-16.33-24.89,15.45-23.55H833.91l-10.25,15.59-10.19-15.59H803l15.45,23.55Zm33.6,24.89h9.18V713.87a44.56,44.56,0,0,0,9.78-.74,13.76,13.76,0,0,0,7.22-4.72,13.15,13.15,0,0,0,2.63-8.44,14.61,14.61,0,0,0-2-7.82,11.45,11.45,0,0,0-5.54-4.72c-2.36-1-6.14-1.49-11.47-1.49h-9.78v48.44Zm9.18-39.47h2.63c2.9,0,4.85.34,5.93,1A4.49,4.49,0,0,1,872,700a4.63,4.63,0,0,1-.81,2.77,4,4,0,0,1-2.09,1.69,16.33,16.33,0,0,1-4.86.47h-3v-10Zm38.86-6.74a24.6,24.6,0,0,0-9.25,9.17,25.54,25.54,0,0,0-3.37,12.82A25,25,0,0,0,894.7,728a25.24,25.24,0,0,0,35.83.2,24.43,24.43,0,0,0,7.28-17.94,24.83,24.83,0,0,0-7.42-18.15,24.08,24.08,0,0,0-17.68-7.42,24.38,24.38,0,0,0-12.61,3.44Zm23.75,10.39a16.08,16.08,0,0,1,4.65,11.67A16.33,16.33,0,0,1,923.91,722a15,15,0,0,1-11.13,4.72,15.74,15.74,0,0,1-10.25-3.64c-3.85-3.1-5.74-7.36-5.74-12.75a16.35,16.35,0,0,1,4.59-11.88,15.73,15.73,0,0,1,22.47.14Z"/><g id="_BOT" data-name="! BOT"><polygon class="cls-1" points="732.2 435.21 732.07 509.66 807.42 496.3 807.42 421.9 778.58 427.01 732.2 435.21"/></g><g id="_TOP" data-name="! TOP"><polygon class="cls-1" points="801.68 268.02 802.06 231.5 723.57 245.39 723.57 281.87 746.15 417.37 792.38 408.77 801.68 268.02"/></g><g id="E"><polygon class="cls-1" points="510.62 548.88 701 515.17 701 452.87 672.44 457.62 587.06 473.28 587.06 427.05 676.26 411.18 676.28 352.84 624.95 361.67 587.11 368.37 587.02 347.5 587.06 326.62 692.59 307.92 692.59 250.9 510.75 283.1 510.62 548.88"/></g><g id="S"><path class="cls-1" d="M375,477.94c8.11.85,21.9,1.75,28,7.49,9.47,9,1.16,23.46-9.33,28.77-18.28,9.32-37.9,3.42-55.22-6.13-7.23-5.17-6.43-3.61-12.57-10.05l-68.46,31.14c5.75,22.78,42.63,39.3,63.9,43.36,45.94,8.82,115.38-1.44,145-39.43,12.66-16.25,21-41.92,18-63.35-1.36-9.81-1.84-13.79-5.05-21.83-4.51-11.27-13.75-20.28-23.64-26.89a69.78,69.78,0,0,0-14.93-7.67,143.91,143.91,0,0,0-37.33-8.9c-15.26-1.63-56.18-4.2-54.73-24.66.41-5.7,6-9.34,10.19-12.34,19.38-13.9,47.33,5.74,53.14,14.43,7.47-1.74,58.55-26.82,63.42-28-.9-10.8-24-28.75-33.38-34.34-8.08-4.84-14.28-7.47-23.72-10.7-6.74-2.28-22.1-3.37-31-3.35-41.8.15-94.48,13.71-112.91,55.89-11.26,25.8-11,56.33,3.25,76.41,13,18.41,38.46,29.19,60,34.64C350.62,475.76,362.4,476.59,375,477.94Z"/></g><g id="I"><polygon class="cls-1" points="159.69 611.06 234.64 597.13 234.34 332.4 167.01 344.48 160.09 345.23 159.69 611.06"/></g><polygon class="cls-2" points="9.94 636.4 928.5 636.4 925.09 632.21 914.26 616.94 900.01 597.48 812.89 476.77 813 503.06 785.47 508 852.95 601.42 264.62 601.42 142.71 623.29 142.71 601.42 83.34 601.42 134.38 530.65 140.54 519.41 140.54 457.09 131.44 466.44 33.84 601.57 9.94 636.4"/><polygon class="cls-3" points="245.63 309.19 300.92 299.26 467.6 67.79 596.47 246.25 640.25 238.39 467.6 0 245.63 309.19"/></g></g></g></svg>