<svg width="313" height="358" viewBox="0 0 313 358" fill="none" xmlns="http://www.w3.org/2000/svg">
<g clip-path="url(#clip0)">
<path d="M188.978 223.732L170.625 221.004L162.353 204.374C159.51 198.528 154.986 198.528 152.143 204.374L144 221.004L125.647 223.732C119.314 224.641 117.892 229.059 122.416 233.476L135.341 246.468L132.239 264.786C131.075 271.153 134.824 273.881 140.51 270.893L156.925 262.188L173.21 270.893C178.897 273.881 182.645 270.893 181.611 264.786L178.768 246.078L191.692 233.086C196.604 229.059 195.182 224.641 188.978 223.732ZM255.928 25.2157H184.196C182.721 25.2289 181.276 25.632 180.006 26.3846C178.735 27.1372 177.684 28.2127 176.958 29.503L127.973 118.627C137.548 116.09 147.411 114.824 157.313 114.86C176.806 114.972 195.975 119.878 213.147 129.151L263.037 38.2076C263.95 36.9504 264.487 35.4577 264.585 33.9046C264.684 32.3515 264.34 30.8023 263.594 29.4387C262.848 28.0751 261.73 26.9535 260.373 26.2055C259.015 25.4576 257.473 25.1142 255.928 25.2157Z" fill="white"/>
<path d="M144.775 45.4895L137.537 32.4976C136.877 31.1601 135.866 30.0294 134.613 29.2279C133.36 28.4264 131.913 27.9846 130.428 27.9504H58.6959C57.1585 27.8746 55.6305 28.2314 54.2838 28.9809C52.9372 29.7303 51.8253 30.8426 51.0732 32.1926C50.3211 33.5426 49.9586 35.0768 50.0266 36.6225C50.0946 38.1683 50.5903 39.6643 51.458 40.9423L99.538 128.118L144.775 45.4895ZM157.699 135.523C137.892 135.421 118.5 141.231 101.981 152.217C85.4624 163.204 72.56 178.873 64.909 197.238C57.2581 215.603 55.2031 235.838 59.0045 255.378C62.8059 274.918 72.2925 292.885 86.2622 307C100.232 321.115 118.056 330.744 137.475 334.666C156.894 338.589 177.035 336.628 195.345 329.032C213.654 321.437 229.309 308.549 240.324 292.001C251.339 275.453 257.22 255.991 257.22 236.081C257.237 222.882 254.665 209.808 249.652 197.609C244.639 185.41 237.282 174.323 228.003 164.984C218.724 155.645 207.705 148.235 195.575 143.18C183.445 138.125 170.443 135.523 157.312 135.523H157.699ZM157.699 295.324C146.043 295.324 134.648 291.849 124.956 285.34C115.264 278.83 107.71 269.577 103.249 258.752C98.7881 247.927 97.6209 236.015 99.895 224.523C102.169 213.031 107.782 202.475 116.025 194.19C124.267 185.904 134.769 180.262 146.201 177.976C157.634 175.69 169.484 176.863 180.253 181.347C191.023 185.831 200.227 193.425 206.703 203.167C213.18 212.91 216.636 224.364 216.636 236.081C216.636 243.894 215.099 251.629 212.113 258.843C209.127 266.056 204.751 272.604 199.237 278.11C193.723 283.617 187.18 287.972 179.985 290.927C172.789 293.881 165.084 295.375 157.312 295.324H157.699Z" fill="white"/>
</g>
<defs>
<clipPath id="clip0">
<rect width="213.646" height="311.416" fill="white" transform="translate(50.4219 25.2109)"/>
</clipPath>
</defs>
</svg>
