<svg width="818" height="688" viewBox="0 0 818 688" fill="none" xmlns="http://www.w3.org/2000/svg">
<path fill-rule="evenodd" clip-rule="evenodd" d="M381.364 532.875L382.834 529.666L390.973 528.399L390.053 534.178C387.102 534.15 384.173 533.711 381.364 532.875Z" fill="url(#paint0_linear)"/>
<path d="M372.787 94.9701L372.891 78.3903L366.162 56.3647L346.946 31.9458L306.71 0L294.744 20.2566L311.636 75.9623L315.278 104.89L348.854 126.292L359.537 102.774L372.787 94.9701Z" fill="url(#paint1_linear)"/>
<g style="mix-blend-mode:multiply" opacity="0.5">
<path d="M372.788 94.9684L351.387 86.1236L330.09 63.4736L310.458 23.7929L308.827 35.3086L294.745 20.2549L312.99 80.6432L315.279 104.889L348.855 126.29L359.538 102.773L372.788 94.9684Z" fill="#610051"/>
</g>
<path d="M306.71 0L310.457 23.7946L308.826 35.3103L294.744 20.2566L306.71 0Z" fill="#083982"/>
<path d="M14.3948 130.395L5.68855 144.512L0.00012207 166.815L3.74615 197.651L21.54 245.864L42.2821 234.765L56.7809 178.365L68.7129 151.761L51.0924 116L29.7606 130.568L14.3948 130.395Z" fill="url(#paint2_linear)"/>
<g style="mix-blend-mode:multiply" opacity="0.5">
<path d="M14.3947 130.395L28.0956 149.021L34.5472 179.475L30.6971 223.561L38.0852 214.543L42.2821 234.765L58.0643 173.648L68.7129 151.761L51.0924 116L29.7606 130.568L14.3947 130.395Z" fill="#610051"/>
</g>
<path d="M21.5401 245.865L30.6971 223.562L32.6743 188.529L42.2822 234.766L21.5401 245.865Z" fill="#903982"/>
<path d="M68.7129 151.761L54.9772 175.382L40.1316 224.358L42.2821 234.764L58.5846 177.949L68.7129 151.761Z" fill="#903982"/>
<path d="M515.624 126.741L525.44 101.698L519.474 76.2038L520.792 58.8608L516.352 51.4727L493.841 67.2895L492.107 90.1128L491.517 117.862L509.97 135.309L515.624 126.741Z" fill="url(#paint3_linear)"/>
<g style="mix-blend-mode:multiply" opacity="0.5">
<path d="M519.474 76.2051L517.74 98.9243L510.907 107.353L502.374 116.718L491.517 117.863L509.97 135.31L515.624 126.742L525.44 101.699L519.474 76.2051Z" fill="#610051"/>
</g>
<path d="M516.352 51.4727L514.132 64.6186L511.565 82.6554L493.182 95.8707L493.841 67.2895L516.352 51.4727Z" fill="#083982"/>
<path d="M307.057 321.993L311.046 299.968L294.639 279.156L284.65 276.971L284.268 312.281L292.107 325.115L307.057 321.993Z" fill="url(#paint4_linear)"/>
<g style="mix-blend-mode:multiply" opacity="0.5">
<path d="M311.046 299.961L300.814 308.841L287.529 311.581L284.268 312.275L292.107 325.108L307.057 321.987L311.046 299.961Z" fill="#610051"/>
</g>
<path d="M787.965 523.831L789.714 475.858L777.173 466.238L788.503 457.079L808.658 394.536L789.046 350.508L770.675 331.782L739.386 324.423L723.632 334.557L712.975 320.841L670.507 291.937L615.37 291.371L561.2 308.895L556.375 375.975L555.034 392.783L560.057 506.271L557.154 509.076L580.28 544.33L573.663 555.471L625.235 623.42L650.599 674.594L736.767 603.133L787.965 523.831Z" fill="url(#paint5_linear)"/>
<g style="mix-blend-mode:multiply" opacity="0.5">
<path d="M770.674 331.784L791.597 366.427L781.844 390.462L780.675 379.428L740.934 441.531L723.695 417.202L725.378 347.778L701.771 437.512L693.745 482.436L704.444 497.446L723.596 537.452L705.333 568.982L657.376 574.208L630.5 558.166L643.146 519.191L614.195 421.763L601.603 414.334L618.355 346.212L592.35 399.507L555.033 392.784L561.653 501.589L557.153 509.078L559.377 512.897L572.023 527.619L597.757 541.87L595.488 554.469L573.663 555.472L591.197 579.308L625.235 623.422L635.037 647.51L650.598 674.595L744.677 593.66L787.965 523.833L789.714 475.859L777.172 466.239L788.503 457.081L808.657 394.538L789.046 350.51L770.674 331.784Z" fill="#610051"/>
</g>
<path d="M723.632 334.557L695.93 317.732L658.602 316.901L645.973 322.405L617.176 348.53L621.226 330.814L612.052 322.69L585.246 319.556L561.2 308.895L615.37 291.37L670.508 291.937L712.975 320.841L723.632 334.557Z" fill="#083982"/>
<path d="M770.676 331.781L789.048 350.507L791.599 366.425L758.991 360.708L738.118 345.631L739.387 324.422L770.676 331.781Z" fill="#083982"/>
<path d="M738.115 536.639L705.334 568.981L657.377 574.207L627.874 566.438L620.285 570.401L630.501 558.165L643.576 521.465L690.518 506.756L711.625 507.666L738.115 536.639Z" fill="#083982"/>
<path d="M754.622 577.625L738.116 536.635L708.438 506.777L693.746 482.431L645.844 436.825L614.196 421.758L601.604 414.329L578.071 411.914L555.438 399.376L556.24 412.29L564.425 413.06L574.135 412.557L583.092 414.975L601.469 418.36L613.691 424.635L644.321 437.401L689.597 489.223L700.907 501.332L703.289 508.027L708.134 509.744L737.185 537.551L751.38 573.875L749.153 586.408L754.622 577.625Z" fill="#FF8337"/>
<path d="M557.731 357.318L573.304 358.811L586.677 360.323L596.087 361.393L612.653 361.349L627.838 370.02L647.954 390.773L666.762 406.615L706.561 419.381L663.251 408.208L648.662 393.391L644.276 389.245L624.367 369.525L613.984 368.773L606.164 368.529L602.778 363.125L580.293 361.376L570.337 362.238L557.162 365.245L557.731 357.318Z" fill="#FF8337"/>
<path style="mix-blend-mode:screen" opacity="0.61" d="M669.823 491.309C681.513 501.749 696.403 504.113 703.212 496.548C710.02 488.983 705.971 474.411 694.319 463.94C682.666 453.47 667.738 451.136 660.929 458.702C654.121 466.267 658.136 480.835 669.823 491.309Z" fill="url(#paint6_radial)"/>
<defs>
<linearGradient id="paint0_linear" x1="9691.5" y1="1461.61" x2="9765.27" y2="1457.73" gradientUnits="userSpaceOnUse">
<stop stop-color="#090D4C"/>
<stop offset="1" stop-color="#180033"/>
</linearGradient>
<linearGradient id="paint1_linear" x1="-16572.1" y1="24966.1" x2="-15959.5" y2="20672.7" gradientUnits="userSpaceOnUse">
<stop stop-color="#002974"/>
<stop offset="1" stop-color="#00093E"/>
</linearGradient>
<linearGradient id="paint2_linear" x1="41422.2" y1="-9500.96" x2="38592.4" y2="-6055.93" gradientUnits="userSpaceOnUse">
<stop stop-color="#002974"/>
<stop offset="1" stop-color="#00093E"/>
</linearGradient>
<linearGradient id="paint3_linear" x1="-5049.76" y1="17843.9" x2="-4895.97" y2="15817.5" gradientUnits="userSpaceOnUse">
<stop stop-color="#002974"/>
<stop offset="1" stop-color="#00093E"/>
</linearGradient>
<linearGradient id="paint4_linear" x1="-2620.19" y1="12069.2" x2="-2757.63" y2="11407.8" gradientUnits="userSpaceOnUse">
<stop stop-color="#003D9F"/>
<stop offset="1" stop-color="#1D2486"/>
</linearGradient>
<linearGradient id="paint5_linear" x1="651.806" y1="674.717" x2="690.865" y2="294.026" gradientUnits="userSpaceOnUse">
<stop stop-color="#002974"/>
<stop offset="1" stop-color="#00093E"/>
</linearGradient>
<radialGradient id="paint6_radial" cx="0" cy="0" r="1" gradientUnits="userSpaceOnUse" gradientTransform="translate(15066.6 -6807.04) rotate(132.016) scale(267.565 366.212)">
<stop stop-color="#FFAE00"/>
<stop offset="0.12" stop-color="#D18E00"/>
<stop offset="0.3" stop-color="#926400"/>
<stop offset="0.48" stop-color="#5E4000"/>
<stop offset="0.64" stop-color="#352400"/>
<stop offset="0.78" stop-color="#181000"/>
<stop offset="0.91" stop-color="#060400"/>
<stop offset="1"/>
</radialGradient>
</defs>
</svg>
