<svg xmlns="http://www.w3.org/2000/svg" viewBox="0 0 937.92 823.44"><defs><style>.cls-1,.cls-2{fill:#fff;}.cls-2{fill-rule:evenodd;}</style></defs><g id="Layer_2" data-name="Layer 2"><g id="Layer_1-2" data-name="Layer 1"><g id="Logo_Putih" data-name="Logo Putih"><path class="cls-1" d="M527.59,822.72l-11.52,0V785.1l-11.31,4.27v-8.72l21.77-7.53h1.06Z"/><path class="cls-1" d="M418.18,822.76H383.56v-7.49l15.95-16.76q5.88-6.72,5.89-10.67A7.42,7.42,0,0,0,404,783,5,5,0,0,0,400,781.3a5,5,0,0,0-4.26,2.23,9.19,9.19,0,0,0-1.64,5.57H382.54a16.31,16.31,0,0,1,2.28-8.43,16,16,0,0,1,6.34-6,18.84,18.84,0,0,1,9.06-2.18q8,0,12.38,3.71T417,786.82a15.69,15.69,0,0,1-1.09,5.71,25.19,25.19,0,0,1-3.39,5.82,86.64,86.64,0,0,1-7.41,8.16l-6.41,7.39h19.53Z"/><path class="cls-1" d="M458.41,802.49q0,10.05-4.51,15.5t-12.73,5.45q-8.28,0-12.81-5.48t-4.53-15.47v-9.06q0-10,4.52-15.5t12.75-5.45q8.25,0,12.78,5.48t4.53,15.5ZM446.93,792c0-3.56-.47-6.23-1.4-8a4.67,4.67,0,0,0-4.43-2.64,4.57,4.57,0,0,0-4.31,2.46c-.89,1.63-1.38,4.11-1.44,7.42v12.68q0,5.55,1.39,8.12a4.69,4.69,0,0,0,4.43,2.58,4.63,4.63,0,0,0,4.33-2.51q1.39-2.51,1.43-7.85Z"/><path class="cls-1" d="M499,822.76H464.37v-7.49l15.95-16.76q5.9-6.72,5.89-10.67a7.37,7.37,0,0,0-1.4-4.87,5,5,0,0,0-4.05-1.67,5,5,0,0,0-4.26,2.23,9.19,9.19,0,0,0-1.63,5.57H463.35a16.31,16.31,0,0,1,2.28-8.43,16.12,16.12,0,0,1,6.34-6,18.84,18.84,0,0,1,9.06-2.18q8,0,12.39,3.71t4.34,10.67a15.48,15.48,0,0,1-1.09,5.71,25.19,25.19,0,0,1-3.39,5.82,85.25,85.25,0,0,1-7.41,8.16l-6.4,7.39H499Z"/><path class="cls-2" d="M0,734.47H9.18V686H0v48.45Zm19.64,0h9.17V702.69L49.6,734.47h8.83V686H49.26v31.85L28.41,686H19.64v48.45Zm50,0h9.17V712.68H93.66v-8.91H78.81v-8.84H93.66V686h-24v48.45Zm42.44-46.22a24.7,24.7,0,0,0-9.25,9.18,25.49,25.49,0,0,0-3.37,12.82,25,25,0,0,0,7.22,17.88,25.24,25.24,0,0,0,35.83.2,24.42,24.42,0,0,0,7.29-18,24.87,24.87,0,0,0-7.42-18.15,24.15,24.15,0,0,0-17.68-7.42,24.51,24.51,0,0,0-12.62,3.44Zm23.75,10.39a16.11,16.11,0,0,1,4.66,11.67,16.41,16.41,0,0,1-4.59,11.75,15,15,0,0,1-11.14,4.72,15.82,15.82,0,0,1-10.25-3.64c-3.85-3.11-5.74-7.36-5.74-12.76a16.31,16.31,0,0,1,4.59-11.87,15.72,15.72,0,0,1,22.47.13Zm23.35,35.83h9.17V714h1l10.86,20.51h10.12L178.81,713A12.6,12.6,0,0,0,188,700.06a14.29,14.29,0,0,0-2.09-7.83,11.39,11.39,0,0,0-5.47-4.79c-2.29-.94-6.07-1.42-11.47-1.42h-9.78v48.45ZM168.35,695h2.57a17,17,0,0,1,5.13.54,4.84,4.84,0,0,1,2.22,1.68,4.65,4.65,0,0,1,.81,2.77,4.39,4.39,0,0,1-1.68,3.85c-1.08.74-3.17,1.14-6.14,1.14h-2.91V695ZM194,734.47h9l5.33-30.57,10.19,30.57h8.1l10.32-30.57L242,734.47H251L242.85,686h-9l-11.26,33.81L211.27,686h-8.91L194,734.47Zm60.52,0h9.58l3.85-10h19.84l3.78,10h9.65L282.53,686h-9.25l-18.76,48.45Zm29.89-18.89H271.32l6.62-16.67,6.47,16.67Zm19.24-20.45h8.56v39.34h9.38V695.13h8.84V686H303.65v9.11ZM336,734.47h9.18V686H336v48.45Zm29.76-46.22a24.6,24.6,0,0,0-9.24,9.18,25.4,25.4,0,0,0-3.38,12.82,25,25,0,0,0,7.22,17.88,25.24,25.24,0,0,0,35.83.2,24.42,24.42,0,0,0,7.29-18,24.87,24.87,0,0,0-7.42-18.15,24.15,24.15,0,0,0-17.68-7.42,24.51,24.51,0,0,0-12.62,3.44Zm23.75,10.39a16.07,16.07,0,0,1,4.66,11.67,16.37,16.37,0,0,1-4.59,11.75,15,15,0,0,1-11.13,4.72,15.83,15.83,0,0,1-10.26-3.64c-3.85-3.11-5.74-7.36-5.74-12.76a16.35,16.35,0,0,1,4.59-11.87,15.72,15.72,0,0,1,22.47.13Zm22.81,35.83h9.18V702.69l20.78,31.78h8.84V686H442v31.85L421.12,686h-8.77v48.45Zm87.11-48a14.83,14.83,0,0,0-6.95-1.69,13.44,13.44,0,0,0-9.44,3.58,11.51,11.51,0,0,0-3.85,8.63,12.44,12.44,0,0,0,2.29,7c1.56,2.36,5,5.67,10.26,10a34.8,34.8,0,0,1,5.4,5,5.73,5.73,0,0,1,1.21,3.31,4.2,4.2,0,0,1-1.62,3.23,6.16,6.16,0,0,1-4,1.35c-3,0-5.73-2.16-8.1-6.41l-7.75,4.66a19.82,19.82,0,0,0,6.61,8,15.88,15.88,0,0,0,9,2.57c4.46,0,8-1.29,10.8-3.92a12.8,12.8,0,0,0,4.11-9.78,14,14,0,0,0-1.14-5.67,20.56,20.56,0,0,0-4-5.4c-.75-.81-2.91-2.63-6.41-5.6a63.59,63.59,0,0,1-6.82-6.21,3.79,3.79,0,0,1-.81-2.29,3,3,0,0,1,1.15-2.23,4.77,4.77,0,0,1,3-.94c2.49,0,4.92,1.68,7.35,5l6.82-6c-2.57-3-4.93-5.07-7.09-6.14Zm27.46,27v21h9.32v-21L550.47,686h-9.91l-9,17.41-9-17.41h-9.86l14.17,27.47Zm49.47-27a14.89,14.89,0,0,0-6.95-1.69,13.45,13.45,0,0,0-9.45,3.58,11.51,11.51,0,0,0-3.85,8.63,12.38,12.38,0,0,0,2.3,7c1.55,2.36,5,5.67,10.25,10a34.8,34.8,0,0,1,5.4,5,5.75,5.75,0,0,1,1.22,3.31,4.2,4.2,0,0,1-1.62,3.23,6.16,6.16,0,0,1-4,1.35c-3,0-5.74-2.16-8.1-6.41l-7.76,4.66a19.9,19.9,0,0,0,6.61,8,15.91,15.91,0,0,0,9,2.57c4.45,0,8-1.29,10.79-3.92a12.78,12.78,0,0,0,4.12-9.78,14,14,0,0,0-1.15-5.67,20.56,20.56,0,0,0-4-5.4c-.74-.81-2.9-2.63-6.41-5.6a64.69,64.69,0,0,1-6.82-6.21,3.79,3.79,0,0,1-.81-2.29,3,3,0,0,1,1.15-2.23,4.79,4.79,0,0,1,3-.94c2.5,0,4.93,1.68,7.36,5l6.81-6a24.79,24.79,0,0,0-7.08-6.14Zm12,8.63H597v39.34h9.38V695.13h8.83V686H588.4v9.11Zm33.13,39.34H648v-9H630.7V712.68H648v-8.91H630.7v-8.71H648v-9H621.53v48.45Zm31.31,0h9l5.33-30.57,10.19,30.57h8.1l10.32-30.57,5.13,30.57h8.91L701.69,686h-9l-11.27,33.81L670.11,686H661.2l-8.36,48.45Zm82.79-48a14.86,14.86,0,0,0-7-1.69,13.48,13.48,0,0,0-9.45,3.58,11.53,11.53,0,0,0-3.84,8.63,12.44,12.44,0,0,0,2.29,7c1.55,2.36,5,5.67,10.26,10a35.29,35.29,0,0,1,5.4,5,5.73,5.73,0,0,1,1.21,3.31,4.2,4.2,0,0,1-1.62,3.23,6.16,6.16,0,0,1-4,1.35c-3,0-5.74-2.16-8.1-6.41l-7.76,4.66a19.83,19.83,0,0,0,6.62,8,15.88,15.88,0,0,0,9,2.57c4.45,0,8-1.29,10.8-3.92a12.8,12.8,0,0,0,4.11-9.78,14,14,0,0,0-1.14-5.67,20.39,20.39,0,0,0-4-5.4c-.74-.81-2.9-2.63-6.41-5.6a64.13,64.13,0,0,1-6.81-6.21,3.79,3.79,0,0,1-.81-2.29,3,3,0,0,1,1.15-2.23,4.77,4.77,0,0,1,3-.94c2.49,0,4.92,1.68,7.35,5l6.82-6c-2.57-3-4.93-5.07-7.09-6.14Zm35.7,48h26.45v-9H780.5V712.68h17.28v-8.91H780.5v-8.71h17.28v-9H771.33v48.45Zm47.23-24.9-16.33,24.9h10.46l11.06-16.94,11.07,16.94h10.53L829,709.57,844.47,686H834l-10.26,15.59L813.57,686H803.11l15.45,23.55Zm33.6,24.9h9.18V714a44.56,44.56,0,0,0,9.78-.74,13.72,13.72,0,0,0,7.22-4.73,13.07,13.07,0,0,0,2.63-8.43,14.53,14.53,0,0,0-2-7.83,11.42,11.42,0,0,0-5.53-4.72c-2.36-1-6.14-1.49-11.47-1.49h-9.79v48.45ZM861.34,695H864c2.9,0,4.86.33,5.94.94a4.5,4.5,0,0,1,2.16,4.12,4.6,4.6,0,0,1-.81,2.76,4,4,0,0,1-2.09,1.69,16.42,16.42,0,0,1-4.86.47h-3V695Zm38.87-6.75a24.63,24.63,0,0,0-9.25,9.18,25.39,25.39,0,0,0-3.37,12.82,25,25,0,0,0,7.22,17.88,25.24,25.24,0,0,0,35.83.2,24.41,24.41,0,0,0,7.28-18,24.83,24.83,0,0,0-7.42-18.15,24.12,24.12,0,0,0-17.68-7.42,24.48,24.48,0,0,0-12.61,3.44ZM924,698.64a16.1,16.1,0,0,1,4.65,11.67A16.37,16.37,0,0,1,924,722.06a15,15,0,0,1-11.13,4.72,15.83,15.83,0,0,1-10.26-3.64c-3.84-3.11-5.73-7.36-5.73-12.76a16.31,16.31,0,0,1,4.59-11.87,15.72,15.72,0,0,1,22.47.13Z"/><g id="_BOT" data-name="! BOT"><polygon class="cls-2" points="732.28 435.27 732.16 509.72 807.51 496.36 807.51 421.95 778.67 427.06 732.28 435.27"/></g><g id="_TOP" data-name="! TOP"><polygon class="cls-2" points="801.77 268.06 802.15 231.53 723.66 245.42 723.66 281.9 746.24 417.42 792.47 408.82 801.77 268.06"/></g><g id="E"><polygon class="cls-2" points="510.68 548.95 701.08 515.23 701.08 452.92 672.52 457.68 587.13 473.34 587.13 427.1 676.35 411.23 676.36 352.88 625.03 361.71 587.18 368.42 587.09 347.54 587.13 326.66 692.67 307.95 692.67 250.93 510.81 283.13 510.68 548.95"/></g><g id="S"><path class="cls-2" d="M375,478c8.11.86,21.89,1.76,28,7.5,9.47,9,1.16,23.46-9.33,28.78-18.29,9.32-37.9,3.41-55.23-6.14-7.24-5.17-6.43-3.6-12.57-10.06L257.4,529.22c5.75,22.79,42.63,39.31,63.9,43.37,45.95,8.82,115.4-1.44,145-39.43,12.66-16.26,21-41.93,18-63.36C482.89,460,482.42,456,479.2,448c-4.5-11.27-13.74-20.28-23.64-26.89a69.55,69.55,0,0,0-14.93-7.67,143.91,143.91,0,0,0-37.33-8.9c-15.26-1.63-56.19-4.21-54.74-24.67.41-5.69,6-9.34,10.19-12.33,19.38-13.91,47.34,5.73,53.15,14.43,7.47-1.74,58.56-26.83,63.43-28-.9-10.81-24-28.76-33.39-34.35-8.08-4.84-14.28-7.48-23.72-10.71-6.74-2.28-22.1-3.37-31-3.34-41.8.14-94.5,13.71-112.93,55.89-11.26,25.8-11,56.34,3.26,76.42,13,18.41,38.46,29.2,60,34.64C350.66,475.81,362.45,476.65,375,478Z"/></g><g id="I"><polygon class="cls-2" points="159.71 611.13 234.66 597.2 234.37 332.44 167.03 344.52 160.11 345.27 159.71 611.13"/></g><polygon class="cls-2" points="9.94 636.48 928.61 636.48 925.2 632.28 914.37 617.02 900.12 597.55 812.99 476.82 813.09 503.12 785.57 508.06 853.05 601.49 264.65 601.49 142.72 623.36 142.72 601.49 83.35 601.49 134.4 530.71 140.56 519.47 140.56 457.15 131.46 466.5 33.84 601.64 9.94 636.48"/><polygon class="cls-2" points="245.66 309.22 300.96 299.3 467.66 67.8 596.54 246.28 640.33 238.42 467.66 0 245.66 309.22"/></g></g></g></svg>