<svg width="43" height="62" viewBox="0 0 43 62" fill="none" xmlns="http://www.w3.org/2000/svg">
<path d="M27.4779 39.3711L23.8381 38.83L22.1976 35.5319C21.6337 34.3725 20.7365 34.3725 20.1726 35.5319L18.5577 38.83L14.9178 39.3711C13.6618 39.5515 13.3799 40.4275 14.277 41.3035L16.8403 43.8802L16.2251 47.5132C15.9944 48.7757 16.7378 49.3168 17.8656 48.7242L21.121 46.9978L24.3507 48.7242C25.4786 49.3168 26.2219 48.7242 26.0169 47.5132L25.453 43.8029L28.0162 41.2262C28.9903 40.4275 28.7083 39.5515 27.4779 39.3711ZM40.7558 0.000524457H26.5295C26.2371 0.00314248 25.9505 0.0830973 25.6985 0.232353C25.4465 0.381608 25.2381 0.594905 25.0941 0.850805L15.3792 18.5263C17.2781 18.0232 19.2342 17.772 21.1979 17.7791C25.0638 17.8013 28.8656 18.7744 32.2713 20.6134L42.1656 2.57713C42.3466 2.3278 42.4531 2.03177 42.4726 1.72375C42.4922 1.41573 42.424 1.10849 42.276 0.838053C42.128 0.567612 41.9064 0.345183 41.6372 0.196843C41.3679 0.0485031 41.0622 -0.019598 40.7558 0.000524457Z" fill="black"/>
<path d="M18.7116 4.02142L17.2762 1.44481C17.1453 1.17955 16.9448 0.955305 16.6963 0.796351C16.4478 0.637396 16.1608 0.549785 15.8663 0.542999H1.64011C1.33521 0.527956 1.03217 0.598731 0.765096 0.747362C0.498021 0.895994 0.277502 1.11659 0.128344 1.38432C-0.0208141 1.65206 -0.0926936 1.95632 -0.079209 2.26289C-0.0657243 2.56945 0.0325894 2.86615 0.204673 3.11961L9.7401 20.4086L18.7116 4.02142ZM21.2749 21.8773C17.3466 21.8569 13.5008 23.0092 10.2247 25.1881C6.94856 27.367 4.38969 30.4745 2.87233 34.1167C1.35496 37.759 0.94741 41.772 1.70132 45.6474C2.45522 49.5227 4.33665 53.0858 7.10717 55.8852C9.8777 58.6846 13.4126 60.5942 17.2639 61.3721C21.1152 62.15 25.1096 61.7611 28.7408 60.2548C32.3721 58.7484 35.4767 56.1924 37.6613 52.9106C39.8459 49.6288 41.0121 45.769 41.0122 41.8203C41.0155 39.2025 40.5055 36.6098 39.5113 34.1904C38.517 31.7709 37.0581 29.5722 35.2178 27.72C33.3775 25.8678 31.1921 24.3984 28.7865 23.3959C26.3808 22.3933 23.8022 21.8773 21.198 21.8773H21.2749ZM21.2749 53.5696C18.9631 53.5696 16.7032 52.8805 14.7811 51.5895C12.8589 50.2984 11.3607 48.4634 10.476 46.3165C9.59136 44.1696 9.35988 41.8072 9.81089 39.5281C10.2619 37.2489 11.3751 35.1554 13.0098 33.5122C14.6445 31.869 16.7272 30.75 18.9945 30.2967C21.2619 29.8433 23.6121 30.076 25.7479 30.9653C27.8837 31.8546 29.7092 33.3605 30.9936 35.2927C32.2779 37.2248 32.9635 39.4965 32.9635 41.8203C32.9635 43.3697 32.6586 44.9039 32.0664 46.3345C31.4742 47.765 30.6064 49.0637 29.5128 50.1557C28.4193 51.2478 27.1216 52.1116 25.6946 52.6975C24.2676 53.2834 22.7394 53.5798 21.198 53.5696H21.2749Z" fill="black"/>
</svg>
