<svg width="476" height="461" viewBox="0 0 476 461" fill="none" xmlns="http://www.w3.org/2000/svg">
<path opacity="0.71" d="M460.318 236.33C459.276 272.004 449.998 306.954 433.208 338.446C432.542 339.741 431.839 341.035 431.1 342.145C416.732 368.093 397.434 390.984 374.29 409.532C367.332 415.128 360.045 420.303 352.469 425.029C336.367 435.13 319.074 443.192 300.986 449.032V449.032C299.691 449.476 298.471 449.883 297.287 450.253C264.434 460.199 229.773 462.68 195.838 457.513C161.903 452.346 129.551 439.663 101.147 420.39C72.7422 401.117 49.0026 375.741 31.6627 346.116C14.3228 316.492 3.82087 283.368 0.924236 249.164C0.924236 247.759 0.702282 246.316 0.591326 244.911C-1.51264 212.192 3.41846 179.402 15.0526 148.749C16.1621 145.864 17.3457 142.979 18.5292 140.094C24.7842 125.409 32.5301 111.405 41.645 98.3012C45.955 92.1099 50.5844 86.1472 55.5144 80.4373C56.2911 79.4757 57.1048 78.5141 57.9555 77.5894C72.1942 61.4818 88.6435 47.4731 106.813 35.981C108.107 35.1304 109.365 34.3537 110.511 33.614C114.21 31.4318 117.613 29.3976 121.237 27.4374C122.384 26.8457 123.493 26.2169 124.64 25.6621C170.772 1.83502 223.606 -5.69106 274.556 4.30693C325.506 14.3049 371.578 41.2393 405.284 80.7332C406.578 82.2126 407.836 83.729 408.982 85.2454C415.223 92.9263 420.955 101.006 426.144 109.434C427.105 111.024 428.067 112.614 428.991 114.242C438.613 130.75 446.142 148.392 451.404 166.761C451.774 168.018 452.107 169.276 452.44 170.459C456.723 186.362 459.277 202.681 460.059 219.132C460.392 224.865 460.466 230.56 460.318 236.33Z" fill="url(#paint0_radial)"/>
<g style="mix-blend-mode:multiply" opacity="0.1">
<path d="M455.14 278.718C455.14 278.718 349.363 286.891 327.652 248.39C305.942 209.888 283.936 200.309 249.428 204.303C214.921 208.298 171.538 236.148 129.633 224.941C87.729 213.735 8.06276 169.833 8.06276 169.833C1.22049 190.989 0 230.6 0 230.6C0 230.6 18.6776 297.173 71.1966 300.872C123.716 304.57 241.994 323.063 319.7 346.068C397.406 369.073 418.673 362.082 418.673 362.082C436.575 337.179 449.003 308.768 455.14 278.718ZM76.8923 280.752C71.4185 267.178 106.481 265.551 113.212 275.389C119.943 285.227 88.3947 309.489 76.8923 280.752V280.752ZM224.833 218.765C257.565 205.413 315.077 229.342 309.603 250.794C304.13 272.245 199.609 229.046 224.87 218.765H224.833ZM290.704 328.648C289.779 309.563 312.895 321.953 318.48 331.902C324.065 341.851 291.481 344.071 290.741 328.648H290.704ZM392.339 328.204C392.393 326.208 393.238 324.315 394.688 322.941C396.137 321.568 398.073 320.827 400.069 320.881C402.066 320.935 403.958 321.779 405.332 323.229C406.705 324.679 407.446 326.615 407.392 328.611C407.171 339.743 392.081 333.493 392.376 328.204H392.339Z" fill="#974D8B"/>
</g>
<g style="mix-blend-mode:soft-light" opacity="0.51">
<path d="M460.281 236.33C460.281 236.33 384.462 188.73 324.509 176.635C264.555 164.541 198.204 202.192 121.46 188.988C81.7374 182.146 44.7522 159.918 18.3817 140.057C24.6061 125.357 32.3537 111.349 41.4975 98.2637C55.4779 112.281 94.2015 148.786 130.262 161.952C175.458 178.374 217.14 160.51 293.256 164.874C358.424 168.573 438.386 207.962 459.986 219.168C460.392 224.864 460.466 230.597 460.281 236.33Z" fill="#F1F1A8"/>
</g>
<g style="mix-blend-mode:soft-light" opacity="0.51">
<path d="M92.6112 351.466C83.8457 357.532 62.3943 350.912 64.2436 346.658C67.7941 338.78 101.34 345.549 92.6112 351.466ZM109.181 338.965C112.435 334.231 131.927 337.708 130.78 340.704C129.633 343.699 106.222 343.367 109.181 339.113V338.965ZM327.394 400.435C333.829 393.038 368.447 407.018 366.598 415.229C364.749 423.44 320.995 407.832 327.468 400.583L327.394 400.435ZM167.1 344.957C80.3691 327.796 32.2513 311.448 12.1313 303.607C19.7285 326.138 30.7836 347.35 44.9003 366.482C81.8855 367.074 117.539 334.379 216.586 365.003C263.965 379.756 309.524 399.818 352.396 424.808C359.974 420.085 367.261 414.91 374.217 409.311C337.86 394.332 256.271 362.784 167.174 345.216L167.1 344.957Z" fill="#F1F1A8"/>
</g>
<g style="mix-blend-mode:multiply" opacity="0.1">
<path d="M122.976 116.981C121.275 125.303 154.746 140.836 161.145 131.405C167.543 121.974 126.6 99.5609 122.976 116.981Z" fill="#690058"/>
</g>
<g style="mix-blend-mode:multiply" opacity="0.1">
<path d="M134.441 144.347C135.847 150.967 143.54 151.078 144.501 148.045C145.463 145.013 133.036 137.727 134.441 144.347Z" fill="#690058"/>
</g>
<g style="mix-blend-mode:multiply" opacity="0.1">
<path d="M327.393 227.862C336.714 218.43 341.004 223.756 343.149 228.712C345.294 233.668 324.509 230.783 327.393 227.862Z" fill="#690058"/>
</g>
<g style="mix-blend-mode:multiply" opacity="0.1">
<path d="M331.055 150.412C340.375 140.981 344.665 146.344 346.811 151.263C348.956 156.182 328.17 153.371 331.055 150.412Z" fill="#690058"/>
</g>
<g style="mix-blend-mode:multiply" opacity="0.1">
<path d="M203.863 399.547C213.183 390.116 217.473 395.479 219.618 400.398C221.763 405.317 200.978 402.358 203.863 399.547Z" fill="#690058"/>
</g>
<g style="mix-blend-mode:multiply" opacity="0.1">
<path d="M371.775 259.005C372.885 263.776 381.244 264.701 380.726 259.227C380.208 253.753 369.926 250.831 371.775 259.005Z" fill="#690058"/>
</g>
<g style="mix-blend-mode:multiply" opacity="0.1">
<path d="M198.759 61.9071C199.868 66.7151 208.227 67.6028 207.709 62.129C207.191 56.6552 196.91 53.8073 198.759 61.9071Z" fill="#690058"/>
</g>
<g style="mix-blend-mode:soft-light" opacity="0.51">
<path d="M359.644 374.47C363.343 375.468 376.251 384.197 375.622 391.89C374.993 399.583 342.927 392.851 344.074 385.898C345.22 378.945 354.688 373.101 359.644 374.47Z" fill="#F1F1A8"/>
</g>
<g style="mix-blend-mode:soft-light" opacity="0.51">
<path d="M367.744 150.154C371.443 151.152 384.314 159.881 383.685 167.537C383.056 175.193 350.99 168.535 352.137 161.545C353.283 154.555 362.714 148.748 367.744 150.154Z" fill="#F1F1A8"/>
</g>
<g style="mix-blend-mode:soft-light" opacity="0.51">
<path d="M278.166 57.1357C279.054 60.8342 277.759 76.368 270.769 79.5857C263.779 82.8034 253.941 51.5139 260.598 49.1099C267.255 46.7058 277.02 52.0687 278.166 57.1357Z" fill="#F1F1A8"/>
</g>
<g style="mix-blend-mode:soft-light" opacity="0.71">
<g style="mix-blend-mode:soft-light" opacity="0.71">
<path d="M328.577 113.945C329.536 110.32 329.649 106.524 328.909 102.849C328.825 102.261 328.624 101.695 328.318 101.185C327.925 100.765 327.439 100.443 326.9 100.244C326.361 100.045 325.782 99.9748 325.211 100.038C323.801 100.187 322.468 100.757 321.386 101.674C320.304 102.591 319.524 103.812 319.145 105.179C318.812 106.548 318.809 107.976 319.137 109.346C319.465 110.716 320.115 111.988 321.032 113.057C321.502 113.679 322.09 114.201 322.763 114.595C323.436 114.988 324.18 115.245 324.952 115.35C325.75 115.464 326.562 115.287 327.24 114.853C327.919 114.418 328.42 113.755 328.651 112.983C328.569 112.892 328.465 112.823 328.35 112.782C328.235 112.741 328.112 112.729 327.991 112.747C327.87 112.766 327.755 112.814 327.657 112.887C327.56 112.96 327.481 113.057 327.43 113.168L328.577 113.945Z" fill="#E9E9A8"/>
</g>
<g style="mix-blend-mode:soft-light" opacity="0.71">
<path d="M382.612 135.064C382.799 134.018 382.721 132.942 382.385 131.934C382.049 130.926 381.466 130.019 380.689 129.294C379.671 129.593 378.74 130.132 377.974 130.865C377.209 131.599 376.63 132.506 376.288 133.51C376.141 134.015 376.095 134.545 376.153 135.067C376.212 135.59 376.372 136.096 376.627 136.557C376.881 137.017 377.224 137.423 377.635 137.751C378.047 138.078 378.519 138.322 379.025 138.466C381.096 138.836 383.204 136.21 382.021 134.435L382.612 135.064Z" fill="#E9E9A8"/>
</g>
<g style="mix-blend-mode:soft-light" opacity="0.71">
<path d="M376.324 116.017C376.136 115.32 375.836 114.658 375.437 114.056C375.437 114.056 375.437 114.056 375.252 114.056C375.211 114.039 375.167 114.03 375.122 114.03C375.078 114.03 375.034 114.039 374.993 114.056C374.364 114.426 374.253 115.573 373.514 115.61C373.393 115.573 373.264 115.573 373.144 115.61C372.959 115.61 373.144 116.054 373.144 116.202C373.353 116.399 373.604 116.548 373.878 116.638C374.152 116.728 374.442 116.756 374.728 116.721C375.015 116.685 375.289 116.587 375.533 116.434C375.777 116.28 375.984 116.075 376.139 115.832V116.165L376.324 116.017Z" fill="#E9E9A8"/>
</g>
<g style="mix-blend-mode:soft-light" opacity="0.71">
<path d="M361.346 98.0789C360.966 96.7683 360.392 95.5218 359.644 94.3804C359.615 94.3051 359.57 94.2367 359.513 94.1794C359.455 94.1222 359.387 94.0773 359.312 94.0475C359.23 94.0129 359.142 93.9951 359.053 93.9951C358.964 93.9951 358.876 94.0129 358.794 94.0475C357.573 94.7503 357.425 96.9324 356.02 97.0063C355.761 97.0063 355.502 97.0063 355.28 97.0063C355.058 97.0063 355.28 97.783 355.28 98.1159C355.676 98.4899 356.15 98.7718 356.668 98.9414C357.186 99.1109 357.734 99.1641 358.275 99.0969C358.816 99.0298 359.335 98.844 359.795 98.553C360.256 98.2619 360.646 97.8727 360.939 97.4132V98.0419L361.346 98.0789Z" fill="#E9E9A8"/>
</g>
<g style="mix-blend-mode:soft-light" opacity="0.71">
<path d="M397.813 89.1643C397.442 87.8566 396.882 86.6104 396.149 85.4658C396.067 85.329 395.952 85.2146 395.816 85.1329C395.734 85.0962 395.646 85.0771 395.557 85.0771C395.467 85.0771 395.379 85.0962 395.298 85.1329C394.077 85.7987 393.929 87.9808 392.524 88.0548C392.283 87.9806 392.025 87.9806 391.784 88.0548C391.451 88.2767 391.784 88.8315 391.784 89.1273C392.15 89.5512 392.606 89.8866 393.12 90.1084C393.634 90.3301 394.191 90.4324 394.751 90.4074C395.31 90.3825 395.856 90.2311 396.348 89.9645C396.84 89.6979 397.265 89.3231 397.591 88.8684V89.4602L397.813 89.1643Z" fill="#E9E9A8"/>
</g>
<g style="mix-blend-mode:soft-light" opacity="0.71">
<path d="M380.578 103.922C380.654 103.436 380.617 102.94 380.469 102.472C380.322 102.003 380.068 101.575 379.727 101.222C379.359 101.467 379.055 101.797 378.84 102.183C378.72 102.364 378.657 102.577 378.657 102.794C378.657 103.01 378.72 103.223 378.84 103.404C379.246 103.885 379.986 103.774 380.541 103.626L380.282 104.07L380.578 103.922Z" fill="#E9E9A8"/>
</g>
<g style="mix-blend-mode:soft-light" opacity="0.71">
<path d="M373.921 101.113C373.853 100.846 373.712 100.602 373.514 100.41C373.26 100.337 372.991 100.337 372.737 100.41C372.005 100.391 371.276 100.317 370.555 100.188L372.848 102.999C372.879 103.083 372.879 103.175 372.848 103.258C372.848 103.591 372.589 103.85 372.478 104.146C372.367 104.442 372.811 105.071 373.218 105.292C376.436 106.846 374.365 102.556 373.921 101.113Z" fill="#E9E9A8"/>
</g>
<g style="mix-blend-mode:soft-light" opacity="0.71">
<path d="M339.229 88.1287C339.19 87.8589 339.059 87.6107 338.859 87.426C338.605 87.3531 338.336 87.3531 338.082 87.426C337.349 87.4273 336.618 87.353 335.9 87.2041L338.193 90.015C338.193 90.015 338.193 90.015 338.193 90.2739C338.193 90.5328 337.934 90.8656 337.823 91.1985C337.712 91.5314 338.156 92.0862 338.563 92.345C341.78 93.8614 339.672 89.5712 339.229 88.1287Z" fill="#E9E9A8"/>
</g>
<g style="mix-blend-mode:soft-light" opacity="0.71">
<path d="M383.907 79.8095L383.278 78.9219C382.988 79.1378 382.774 79.4408 382.668 79.7866C382.561 80.1325 382.568 80.5033 382.687 80.8451C382.982 81.4739 384.018 81.6958 384.388 81.067C384.758 80.4383 384.795 79.9944 385.165 80.2164L383.907 79.8095Z" fill="#E9E9A8"/>
</g>
<g style="mix-blend-mode:soft-light" opacity="0.71">
<path d="M330.574 78.996C330.564 79.2457 330.49 79.4885 330.358 79.7006C330.226 79.9128 330.041 80.0871 329.822 80.2064C329.602 80.3258 329.355 80.3861 329.106 80.3814C328.856 80.3767 328.612 80.3072 328.397 80.1798C328.182 80.0523 328.004 79.8712 327.88 79.6543C327.756 79.4373 327.691 79.1919 327.69 78.9421C327.69 78.6922 327.754 78.4466 327.877 78.2291C328 78.0117 328.177 77.8299 328.392 77.7016C328.618 77.5908 328.868 77.538 329.119 77.5481C329.371 77.5581 329.616 77.6306 329.833 77.7591C330.049 77.8875 330.23 78.0679 330.36 78.2838C330.489 78.4998 330.563 78.7445 330.574 78.996V78.996Z" fill="#E9E9A8"/>
</g>
<g style="mix-blend-mode:soft-light" opacity="0.71">
<path d="M343.297 89.5359C343.926 90.0167 344.629 90.7934 344.222 91.4961C343.815 92.1988 342.853 92.0139 342.114 91.755C341.374 91.4961 341.448 91.4961 341.374 91.2002C341.3 90.9043 342.853 90.2756 342.816 89.4619C343.038 89.4619 343.297 89.6838 343.112 89.8318L343.297 89.5359Z" fill="#E9E9A8"/>
</g>
<g style="mix-blend-mode:soft-light" opacity="0.71">
<path d="M394.004 145.567C393.94 144.986 393.739 144.428 393.417 143.939C393.096 143.451 392.663 143.045 392.155 142.756C391.082 142.275 389.529 142.756 389.492 144.088C389.475 144.254 389.493 144.422 389.544 144.581C389.595 144.74 389.677 144.887 389.787 145.012C389.907 145.187 390.057 145.337 390.231 145.456C390.841 145.967 391.619 146.231 392.413 146.196C392.608 146.182 392.798 146.13 392.972 146.042C393.146 145.954 393.301 145.833 393.428 145.685C393.555 145.537 393.652 145.366 393.713 145.181C393.774 144.995 393.797 144.8 393.782 144.606L394.004 145.567Z" fill="#E9E9A8"/>
</g>
<g style="mix-blend-mode:soft-light" opacity="0.71">
<path d="M418.488 158.773C418.149 158.799 417.826 158.929 417.563 159.143C417.39 159.434 417.254 159.744 417.156 160.068C416.787 160.808 415.936 161.104 415.381 161.732C415.051 162.353 414.878 163.045 414.878 163.748C414.878 164.451 415.051 165.143 415.381 165.764C415.381 166.097 415.677 166.429 415.973 166.503C416.199 166.589 416.449 166.589 416.676 166.503C418.229 165.912 419.265 167.391 420.707 167.206C421.389 167.043 422.025 166.725 422.564 166.276C423.103 165.827 423.531 165.259 423.814 164.617C424.028 163.856 424.044 163.052 423.862 162.283C423.679 161.513 423.304 160.803 422.771 160.218C422.239 159.634 421.566 159.194 420.817 158.942C420.067 158.689 419.266 158.631 418.488 158.773V158.773Z" fill="#E9E9A8"/>
</g>
<g style="mix-blend-mode:soft-light" opacity="0.71">
<path d="M381.096 115.868C381.312 116.081 381.465 116.35 381.54 116.645C381.151 116.604 380.778 116.472 380.45 116.26C380.123 116.048 379.85 115.762 379.653 115.424C379.395 115.091 379.136 114.647 379.358 114.277C379.58 113.908 379.838 113.945 380.06 113.76C380.282 113.575 380.763 112.539 381.355 112.613C381.518 112.659 381.663 112.755 381.769 112.888C381.876 113.021 381.937 113.183 381.947 113.353C381.917 113.691 381.816 114.018 381.651 114.314L380.726 116.312L381.096 115.868Z" fill="#E9E9A8"/>
</g>
<g style="mix-blend-mode:soft-light" opacity="0.71">
<path d="M372.885 124.118C372.885 123.49 371.85 123.379 371.48 123.896C371.361 124.184 371.299 124.492 371.299 124.803C371.299 125.113 371.361 125.421 371.48 125.709C371.907 125.661 372.31 125.487 372.639 125.211C372.968 124.935 373.208 124.567 373.329 124.155L372.885 124.118Z" fill="#E9E9A8"/>
</g>
<g style="mix-blend-mode:soft-light" opacity="0.71">
<path d="M370.999 115.091C370.943 114.789 370.83 114.5 370.666 114.241C370.581 114.119 370.462 114.026 370.323 113.973C370.185 113.921 370.034 113.911 369.889 113.945C369.409 113.945 369.335 114.758 369.002 115.091C368.669 115.424 368.003 115.498 367.781 115.942C367.559 116.386 368.003 116.904 368.484 117.015C368.979 117.037 369.469 116.908 369.889 116.645C370.281 116.454 370.613 116.159 370.851 115.794C370.986 115.619 371.059 115.405 371.059 115.184C371.059 114.963 370.986 114.748 370.851 114.573L370.999 115.091Z" fill="#E9E9A8"/>
</g>
<g style="mix-blend-mode:soft-light" opacity="0.71">
<path d="M369.704 111.284C369.692 111.357 369.664 111.426 369.622 111.487C369.581 111.549 369.527 111.6 369.464 111.639C369.401 111.677 369.33 111.702 369.257 111.711C369.183 111.72 369.109 111.713 369.038 111.691C368.894 111.664 368.759 111.602 368.643 111.512C368.527 111.422 368.435 111.306 368.373 111.173C368.322 111.03 368.322 110.873 368.373 110.729C368.348 110.621 368.348 110.508 368.373 110.4C368.398 110.292 368.446 110.19 368.516 110.104C368.585 110.017 368.673 109.947 368.773 109.898C368.873 109.85 368.983 109.825 369.094 109.825C369.205 109.825 369.315 109.85 369.415 109.898C369.515 109.947 369.603 110.017 369.672 110.104C369.741 110.19 369.79 110.292 369.815 110.4C369.84 110.508 369.84 110.621 369.815 110.729C369.806 110.929 369.72 111.117 369.575 111.255C369.43 111.392 369.238 111.469 369.038 111.469L369.704 111.284Z" fill="#E9E9A8"/>
</g>
<g style="mix-blend-mode:soft-light" opacity="0.71">
<path d="M328.799 119.272C328.764 119.416 328.676 119.541 328.552 119.623C328.429 119.706 328.279 119.739 328.133 119.716C327.855 119.631 327.618 119.447 327.467 119.198C327.39 119.044 327.328 118.883 327.282 118.717C327.292 118.518 327.378 118.33 327.523 118.192C327.667 118.054 327.859 117.977 328.059 117.978C328.255 118.005 328.435 118.102 328.564 118.252C328.693 118.402 328.764 118.593 328.762 118.791C328.737 118.995 328.642 119.183 328.494 119.325C328.345 119.466 328.153 119.552 327.948 119.568L328.799 119.272Z" fill="#E9E9A8"/>
</g>
<g style="mix-blend-mode:soft-light" opacity="0.71">
<path d="M373.181 109.841C373.327 109.803 373.461 109.728 373.57 109.623C373.68 109.518 373.76 109.388 373.805 109.243C373.849 109.099 373.856 108.945 373.824 108.798C373.793 108.65 373.724 108.512 373.625 108.398C373.297 108.439 372.995 108.597 372.774 108.842C372.678 108.97 372.626 109.126 372.626 109.286C372.626 109.446 372.678 109.602 372.774 109.73C372.823 109.791 372.884 109.841 372.955 109.875C373.025 109.91 373.103 109.927 373.181 109.927C373.259 109.927 373.337 109.91 373.407 109.875C373.478 109.841 373.539 109.791 373.588 109.73L373.181 109.841Z" fill="#E9E9A8"/>
</g>
<g style="mix-blend-mode:soft-light" opacity="0.71">
<path d="M331.684 64.8654C331.83 64.8332 331.964 64.7632 332.075 64.6623C332.185 64.5615 332.267 64.4333 332.312 64.2909C332.357 64.1484 332.363 63.9966 332.331 63.8507C332.299 63.7049 332.228 63.5701 332.128 63.46C331.806 63.4936 331.505 63.6373 331.277 63.8668C331.168 63.9889 331.107 64.1469 331.107 64.3106C331.107 64.4744 331.168 64.6324 331.277 64.7544C331.322 64.8156 331.38 64.8653 331.447 64.8996C331.515 64.9339 331.59 64.9518 331.665 64.9518C331.741 64.9518 331.816 64.9339 331.883 64.8996C331.951 64.8653 332.009 64.8156 332.054 64.7544L331.684 64.8654Z" fill="#E9E9A8"/>
</g>
<g style="mix-blend-mode:soft-light" opacity="0.71">
<path d="M318.739 93.7526C318.894 93.4164 318.975 93.0504 318.975 92.68C318.975 92.3095 318.894 91.9436 318.739 91.6074L317.148 92.4951C316.88 92.6164 316.65 92.8081 316.483 93.0498C316.43 93.1757 316.403 93.311 316.404 93.4476C316.405 93.5841 316.435 93.719 316.49 93.8438C316.546 93.9685 316.626 94.0806 316.727 94.1731C316.827 94.2656 316.945 94.3364 317.074 94.3813C317.352 94.4389 317.64 94.4135 317.903 94.3082C318.166 94.203 318.393 94.0226 318.554 93.7896L318.739 93.7526Z" fill="#E9E9A8"/>
</g>
<g style="mix-blend-mode:soft-light" opacity="0.71">
<path d="M335.567 99.9645L337.453 102.664C337.157 103.182 336.418 102.664 336.011 102.442C335.548 102.113 335.199 101.648 335.012 101.111C335.012 100.556 335.012 99.8535 335.752 99.8535L335.567 99.9645Z" fill="#E9E9A8"/>
</g>
<g style="mix-blend-mode:soft-light" opacity="0.71">
<path d="M412.237 126.741C412.362 126.593 412.447 126.415 412.485 126.225C412.523 126.034 412.511 125.838 412.452 125.653C412.393 125.468 412.288 125.301 412.147 125.168C412.006 125.035 411.833 124.94 411.645 124.892C411.251 124.825 410.845 124.9 410.5 125.103C410.155 125.306 409.893 125.624 409.759 126.001C409.631 126.335 409.631 126.704 409.759 127.037C409.901 127.26 410.11 127.43 410.357 127.524C410.604 127.617 410.874 127.628 411.128 127.555C411.641 127.393 412.109 127.114 412.496 126.741H412.237Z" fill="#E9E9A8"/>
</g>
<g style="mix-blend-mode:soft-light" opacity="0.71">
<path d="M339.894 86.1337C340.157 85.8657 340.335 85.5269 340.407 85.1589C340.479 84.7909 340.443 84.4098 340.301 84.0625C339.758 84.1116 339.248 84.3468 338.859 84.7282C338.597 84.968 338.429 85.2916 338.381 85.643C338.334 85.9944 338.411 86.3512 338.6 86.6515C339.044 87.2062 340.19 86.9473 340.19 86.2446L339.894 86.1337Z" fill="#E9E9A8"/>
</g>
<g style="mix-blend-mode:soft-light" opacity="0.71">
<path d="M337.897 93.5303C337.894 93.7836 337.804 94.0281 337.642 94.2232C337.481 94.4183 337.258 94.5523 337.01 94.6029L336.048 93.2345C336.165 93.0811 336.316 92.9568 336.49 92.8713C336.663 92.7857 336.853 92.7412 337.046 92.7412C337.24 92.7412 337.43 92.7857 337.603 92.8713C337.777 92.9568 337.928 93.0811 338.045 93.2345L337.897 93.5303Z" fill="#E9E9A8"/>
</g>
<g style="mix-blend-mode:soft-light" opacity="0.71">
<path d="M399.071 134.806L397.517 136.952C397.349 137.14 397.234 137.37 397.185 137.617C397.12 137.86 397.12 138.115 397.185 138.357C397.518 139.208 398.109 140.243 399.034 140.169C399.959 140.095 400.439 138.875 400.883 137.95C401.697 136.249 406.098 133.475 404.582 131.256C403.065 129.037 399.959 133.549 399.071 134.806Z" fill="#E9E9A8"/>
</g>
<g style="mix-blend-mode:soft-light" opacity="0.71">
<path d="M407.688 122.823L408.169 123.304C407.716 123.562 407.21 123.714 406.689 123.748C406.431 123.754 406.178 123.679 405.965 123.533C405.753 123.387 405.592 123.177 405.506 122.934C405.506 122.416 405.876 121.824 406.356 122.009C406.862 122.159 407.303 122.471 407.614 122.897L407.688 122.823Z" fill="#E9E9A8"/>
</g>
<g style="mix-blend-mode:soft-light" opacity="0.71">
<path d="M366.783 119.458C366.739 119.665 366.64 119.857 366.497 120.013C366.354 120.169 366.172 120.284 365.969 120.346C365.759 120.397 365.539 120.386 365.335 120.313C365.131 120.241 364.953 120.111 364.822 119.939C364.638 119.717 364.601 119.31 364.822 119.162H365.192H366.783V119.384V119.458Z" fill="#E9E9A8"/>
</g>
<g style="mix-blend-mode:soft-light" opacity="0.71">
<path d="M358.683 121.862C358.165 121.677 357.647 122.121 357.314 122.528C356.981 122.935 356.538 123.379 356.02 123.305C355.943 123.306 355.868 123.286 355.803 123.247C355.738 123.208 355.684 123.151 355.65 123.083C355.65 122.75 355.909 122.454 356.131 122.158C356.276 121.898 356.4 121.625 356.501 121.345C356.639 121.015 356.878 120.738 357.184 120.552C357.489 120.366 357.845 120.281 358.202 120.309C358.365 120.407 358.498 120.549 358.583 120.72C358.668 120.89 358.703 121.081 358.683 121.271C358.641 121.459 358.55 121.633 358.421 121.775C358.291 121.918 358.126 122.025 357.943 122.084L358.683 121.862Z" fill="#E9E9A8"/>
</g>
<g style="mix-blend-mode:soft-light" opacity="0.71">
<path d="M357.24 116.721L356.982 116.167C356.817 116.152 356.653 116.196 356.518 116.291C356.382 116.386 356.285 116.525 356.242 116.685C356.22 116.768 356.217 116.854 356.232 116.939C356.247 117.024 356.28 117.104 356.329 117.174C356.379 117.245 356.443 117.304 356.517 117.347C356.591 117.39 356.674 117.416 356.76 117.424C356.842 117.428 356.924 117.411 356.999 117.377C357.074 117.342 357.139 117.29 357.19 117.225C357.241 117.16 357.275 117.083 357.29 117.002C357.306 116.921 357.301 116.838 357.277 116.758L357.24 116.721Z" fill="#E9E9A8"/>
</g>
<g style="mix-blend-mode:soft-light" opacity="0.71">
<path d="M342.853 115.535L342.594 114.98C342.431 114.973 342.27 115.02 342.136 115.113C342.002 115.207 341.903 115.342 341.854 115.498C341.839 115.581 341.839 115.666 341.857 115.748C341.874 115.831 341.908 115.909 341.957 115.978C342.005 116.047 342.067 116.105 342.138 116.15C342.209 116.195 342.289 116.224 342.372 116.238C342.451 116.24 342.528 116.224 342.6 116.191C342.671 116.158 342.734 116.11 342.784 116.049C342.834 115.989 342.869 115.918 342.888 115.841C342.906 115.765 342.907 115.686 342.89 115.609L342.853 115.535Z" fill="#E9E9A8"/>
</g>
<g style="mix-blend-mode:soft-light" opacity="0.71">
<path d="M377.36 107.842C377.36 108.248 377.841 108.47 378.211 108.359C378.58 108.184 378.939 107.987 379.284 107.768C379.468 107.676 379.67 107.629 379.875 107.629C380.081 107.629 380.283 107.676 380.467 107.768C380.576 107.814 380.672 107.885 380.749 107.975C380.826 108.065 380.881 108.171 380.911 108.285C380.962 108.442 380.962 108.61 380.911 108.766C380.554 109.474 380.003 110.064 379.321 110.468C378.992 110.687 378.606 110.804 378.211 110.804C377.816 110.804 377.43 110.687 377.102 110.468C376.898 110.284 376.743 110.053 376.653 109.794C376.562 109.536 376.539 109.258 376.584 108.988C376.635 108.717 376.759 108.464 376.941 108.256C377.123 108.048 377.357 107.892 377.619 107.805L377.36 107.842Z" fill="#E9E9A8"/>
</g>
<g style="mix-blend-mode:soft-light" opacity="0.71">
<path d="M323.51 42.6014C323.51 42.9712 323.99 43.2301 324.36 43.1192C324.73 43.0082 325.063 42.6753 325.433 42.5274C325.617 42.4362 325.819 42.3887 326.025 42.3887C326.23 42.3887 326.432 42.4362 326.616 42.5274C326.725 42.5743 326.821 42.6452 326.898 42.735C326.975 42.8247 327.031 42.9308 327.06 43.0452C327.103 43.19 327.103 43.3442 327.06 43.489C326.691 44.2092 326.127 44.8115 325.433 45.2273C325.104 45.4468 324.718 45.5639 324.323 45.5639C323.928 45.5639 323.542 45.4468 323.214 45.2273C323.007 45.0386 322.851 44.8006 322.76 44.5355C322.67 44.2705 322.648 43.9868 322.696 43.7109C322.753 43.4401 322.883 43.1901 323.072 42.988C323.261 42.7859 323.502 42.6394 323.769 42.5644L323.51 42.6014Z" fill="#E9E9A8"/>
</g>
<g style="mix-blend-mode:soft-light" opacity="0.71">
<path d="M381.429 97.9325C381.476 97.8162 381.499 97.6916 381.496 97.5662C381.493 97.4409 381.465 97.3173 381.413 97.2031C381.361 97.089 381.287 96.9865 381.194 96.9021C381.101 96.8177 380.992 96.753 380.874 96.712C380.634 96.6342 380.378 96.6206 380.132 96.6725C379.885 96.7245 379.657 96.8401 379.469 97.0079C379.469 97.0079 379.173 97.3777 379.284 97.5626C379.395 97.7475 379.543 97.5626 379.69 97.7845L381.503 98.0804L381.429 97.9325Z" fill="#E9E9A8"/>
</g>
<g style="mix-blend-mode:soft-light" opacity="0.71">
<path d="M323.103 62.9816C324.377 62.6471 325.467 61.8229 326.136 60.6885C326.179 60.5958 326.201 60.4948 326.201 60.3926C326.201 60.2904 326.179 60.1894 326.136 60.0967C326.136 59.6159 325.322 59.7269 324.804 59.6899C324.287 59.6529 323.288 58.9502 322.437 58.9502C321.745 58.9991 321.092 59.2867 320.588 59.7639C319.811 60.3926 318.924 61.3912 319.479 62.2419C319.835 62.622 320.326 62.8477 320.847 62.8706C321.912 63.0557 323 63.0557 324.065 62.8706L323.103 62.9816Z" fill="#E9E9A8"/>
</g>
<g style="mix-blend-mode:soft-light" opacity="0.71">
<path d="M359.496 77.3672C360.273 77.3672 360.643 76.4426 360.68 75.6659C360.738 75.425 360.734 75.1735 360.67 74.9344C360.605 74.6954 360.481 74.4763 360.31 74.2974C359.829 73.8906 359.053 74.2974 358.498 74.5933L357.092 75.5549C356.87 75.5549 356.611 75.8878 356.611 76.1467C356.61 76.2581 356.632 76.3686 356.677 76.4707C356.721 76.5728 356.787 76.6641 356.87 76.7384C357.611 77.5997 358.516 78.3039 359.533 78.8096L359.496 77.3672Z" fill="#E9E9A8"/>
</g>
<g style="mix-blend-mode:soft-light" opacity="0.71">
<path d="M350.99 101.408C357.758 103.184 359.127 95.1208 353.875 92.2729C348.623 89.4251 345.109 99.9659 350.99 101.408Z" fill="#E9E9A8"/>
</g>
<g style="mix-blend-mode:soft-light" opacity="0.71">
<path d="M381.466 125.596C381.314 125.796 381.118 125.957 380.893 126.069C380.669 126.18 380.422 126.238 380.171 126.238C379.921 126.238 379.673 126.18 379.449 126.069C379.224 125.957 379.029 125.796 378.877 125.596C379.311 124.931 379.927 124.405 380.652 124.08C381.429 123.858 382.427 124.08 382.501 125.042C382.233 125.41 381.986 125.792 381.762 126.188L381.466 125.596Z" fill="#E9E9A8"/>
</g>
<g style="mix-blend-mode:soft-light" opacity="0.71">
<path d="M362.714 138.504L362.011 137.579C361.001 138.439 359.833 139.092 358.572 139.503C357.921 139.639 357.288 139.85 356.685 140.131C356.38 140.28 356.119 140.505 355.925 140.783C355.73 141.061 355.61 141.384 355.576 141.722C355.576 142.942 357.129 143.571 358.387 143.497C359.176 143.475 359.95 143.278 360.654 142.919C361.358 142.561 361.973 142.051 362.455 141.426C362.918 140.792 363.167 140.028 363.167 139.244C363.167 138.459 362.918 137.695 362.455 137.062L361.16 137.912L362.714 138.504Z" fill="#E9E9A8"/>
</g>
<g style="mix-blend-mode:soft-light" opacity="0.71">
<path d="M355.28 129.998C355.613 129.555 355.28 129.333 354.726 129.518C354.168 129.721 353.644 130.007 353.172 130.368L349.77 132.772C349.141 133.216 348.401 133.771 348.29 134.252C348.179 134.732 348.66 134.769 349.215 134.622C349.819 134.391 350.4 134.106 350.953 133.771C352.839 132.624 355.058 131.034 355.465 129.665L354.393 129.887L355.28 129.998Z" fill="#E9E9A8"/>
</g>
<g style="mix-blend-mode:soft-light" opacity="0.71">
<path d="M351.656 123.304C351.651 123.362 351.635 123.419 351.608 123.471C351.582 123.523 351.545 123.569 351.5 123.607C351.455 123.645 351.404 123.674 351.348 123.691C351.292 123.709 351.233 123.716 351.175 123.71C350.94 123.662 350.73 123.531 350.583 123.341C350.443 123.225 350.34 123.071 350.287 122.897C350.241 122.719 350.256 122.532 350.33 122.364C350.404 122.196 350.532 122.058 350.694 121.972C350.858 121.882 351.043 121.834 351.231 121.834C351.418 121.834 351.603 121.882 351.767 121.972C351.917 122.078 352.023 122.236 352.063 122.416C352.063 122.416 352.063 122.823 351.804 122.823L351.656 123.304Z" fill="#E9E9A8"/>
</g>
<g style="mix-blend-mode:soft-light" opacity="0.71">
<path d="M364.933 89.8306C365.663 89.1039 366.308 88.2975 366.857 87.4266C366.765 87.3174 366.652 87.2282 366.525 87.1646C366.398 87.1009 366.259 87.0642 366.117 87.0567C365.743 87.0367 365.37 87.0925 365.018 87.2206C364.667 87.3487 364.345 87.5465 364.072 87.8022C363.799 88.0578 363.581 88.366 363.43 88.7083C363.28 89.0505 363.2 89.4197 363.195 89.7936C363.186 89.9081 363.2 90.0234 363.239 90.1318C363.277 90.2401 363.338 90.3392 363.417 90.4223C363.536 90.5068 363.678 90.5521 363.824 90.5521C363.97 90.5521 364.112 90.5068 364.231 90.4223C364.494 90.2767 364.721 90.0746 364.896 89.8306H364.933Z" fill="#E9E9A8"/>
</g>
<g style="mix-blend-mode:soft-light" opacity="0.71">
<path d="M369.224 105.956L368.928 105.364C368.599 105.445 368.31 105.642 368.114 105.919C368.114 106.215 368.114 106.659 368.484 106.622C368.594 106.641 368.707 106.641 368.817 106.622L369.705 105.808L369.224 105.956Z" fill="#E9E9A8"/>
</g>
<g style="mix-blend-mode:soft-light" opacity="0.71">
<path d="M321.402 81.8417C321.4 81.31 321.3 80.7833 321.106 80.2883C320.994 80.0479 320.817 79.844 320.595 79.7C320.372 79.556 320.113 79.4779 319.848 79.4746C319.581 79.5212 319.335 79.6506 319.146 79.8445C319.019 79.9878 318.923 80.1545 318.861 80.3352C318.799 80.5159 318.773 80.707 318.785 80.8976C318.797 81.0882 318.847 81.2746 318.931 81.4461C319.015 81.6176 319.132 81.7709 319.275 81.8972C319.418 82.0234 319.585 82.1203 319.766 82.1821C319.946 82.2439 320.138 82.2696 320.328 82.2575C320.519 82.2455 320.705 82.1961 320.877 82.112C321.048 82.028 321.201 81.911 321.328 81.7677L321.402 81.8417Z" fill="#E9E9A8"/>
</g>
<g style="mix-blend-mode:soft-light" opacity="0.71">
<path d="M339.561 61.8701C339.671 62.0139 339.743 62.1832 339.77 62.3622C339.797 62.5412 339.778 62.7242 339.716 62.8941C339.653 63.0639 339.548 63.2151 339.411 63.3335C339.274 63.452 339.11 63.5338 338.932 63.5714C338.574 63.3477 338.261 63.0593 338.008 62.7208C338.301 62.3539 338.725 62.1152 339.191 62.055L339.561 61.8701Z" fill="#E9E9A8"/>
</g>
<g style="mix-blend-mode:soft-light" opacity="0.71">
<path d="M345.96 73.5943C346.219 73.1874 345.405 72.8176 345.146 73.1874C345.042 73.4022 345.019 73.6472 345.08 73.8778C345.141 74.1085 345.282 74.3097 345.479 74.4449C345.665 74.3337 345.812 74.1667 345.898 73.9676C345.984 73.7686 346.006 73.5474 345.96 73.3354V73.5943Z" fill="#E9E9A8"/>
</g>
<g style="mix-blend-mode:soft-light" opacity="0.71">
<path d="M384.905 139.762L384.24 138.911C383.987 139.024 383.761 139.188 383.574 139.392C383.659 139.643 383.836 139.851 384.07 139.975C384.304 140.099 384.576 140.128 384.831 140.058L384.905 139.762Z" fill="#E9E9A8"/>
</g>
<g style="mix-blend-mode:soft-light" opacity="0.71">
<path d="M476 132.585L475.334 131.734C475.084 131.834 474.857 131.985 474.669 132.178C474.707 132.305 474.769 132.423 474.853 132.525C474.937 132.628 475.041 132.712 475.158 132.774C475.275 132.836 475.403 132.874 475.535 132.886C475.667 132.898 475.8 132.884 475.926 132.844L476 132.585Z" fill="#E9E9A8"/>
</g>
<g style="mix-blend-mode:soft-light" opacity="0.71">
<path d="M429.546 125.152C430.03 125.563 430.401 126.093 430.621 126.689C430.841 127.285 430.904 127.927 430.804 128.555C430.855 128.685 430.855 128.831 430.804 128.962C430.697 129.023 430.576 129.056 430.452 129.056C430.329 129.056 430.208 129.023 430.101 128.962C428.733 128.703 427.068 128.185 426.846 126.779C426.828 126.488 426.88 126.196 426.999 125.929C427.118 125.662 427.3 125.428 427.528 125.246C427.757 125.065 428.027 124.941 428.314 124.886C428.601 124.831 428.897 124.846 429.176 124.93L429.509 126.04L429.546 125.152Z" fill="#E9E9A8"/>
</g>
<g style="mix-blend-mode:soft-light" opacity="0.71">
<path d="M408.576 237.404C408.773 236.359 408.7 235.28 408.363 234.27C408.027 233.26 407.438 232.353 406.653 231.635C405.638 231.939 404.71 232.48 403.944 233.213C403.179 233.946 402.599 234.85 402.251 235.851C401.967 236.871 402.1 237.962 402.62 238.885C403.14 239.807 404.005 240.485 405.025 240.77C407.096 241.14 409.168 238.551 408.021 236.776L408.576 237.404Z" fill="#E9E9A8"/>
</g>
<g style="mix-blend-mode:soft-light" opacity="0.71">
<path d="M402.325 218.317C402.113 217.629 401.815 216.971 401.438 216.357C401.377 216.344 401.314 216.344 401.253 216.357C401.212 216.337 401.168 216.327 401.123 216.327C401.078 216.327 401.034 216.337 400.994 216.357C400.328 216.727 400.254 217.91 399.514 217.91C399.514 217.91 399.219 217.91 399.108 217.91C398.997 217.91 399.108 218.317 399.108 218.502C399.317 218.7 399.568 218.849 399.842 218.939C400.116 219.028 400.406 219.057 400.692 219.021C400.979 218.986 401.253 218.888 401.497 218.734C401.741 218.581 401.948 218.375 402.103 218.132V218.428L402.325 218.317Z" fill="#E9E9A8"/>
</g>
<g style="mix-blend-mode:soft-light" opacity="0.71">
<path d="M423.814 191.504C423.451 190.194 422.889 188.947 422.149 187.806C422.149 187.806 421.965 187.51 421.78 187.473C421.705 187.437 421.622 187.418 421.539 187.418C421.456 187.418 421.374 187.437 421.299 187.473C420.078 188.175 419.893 190.358 418.488 190.432C418.266 190.432 417.97 190.432 417.785 190.432C417.6 190.432 417.785 191.245 417.785 191.541C418.181 191.908 418.652 192.185 419.166 192.35C419.68 192.516 420.224 192.567 420.76 192.5C421.296 192.433 421.81 192.25 422.268 191.963C422.725 191.676 423.114 191.292 423.407 190.838V191.467L423.814 191.504Z" fill="#E9E9A8"/>
</g>
<g style="mix-blend-mode:soft-light" opacity="0.71">
<path d="M406.468 206.261C406.536 205.771 406.496 205.271 406.349 204.798C406.201 204.325 405.952 203.89 405.617 203.524C405.253 203.786 404.94 204.112 404.693 204.486C404.574 204.674 404.512 204.892 404.512 205.115C404.512 205.337 404.574 205.555 404.693 205.744C405.099 206.187 405.802 206.076 406.394 205.965L406.135 206.372L406.468 206.261Z" fill="#E9E9A8"/>
</g>
<g style="mix-blend-mode:soft-light" opacity="0.71">
<path d="M399.884 203.525C399.877 203.384 399.839 203.246 399.773 203.121C399.707 202.996 399.614 202.888 399.501 202.803C399.388 202.718 399.258 202.659 399.119 202.631C398.981 202.602 398.838 202.604 398.701 202.637C397.98 202.636 397.261 202.562 396.556 202.415C397.295 203.377 398.072 204.301 398.849 205.263V205.485C398.849 205.818 398.59 206.077 398.479 206.409C398.368 206.742 398.775 207.334 399.219 207.556C402.436 209.146 400.328 204.856 399.884 203.525Z" fill="#E9E9A8"/>
</g>
<g style="mix-blend-mode:soft-light" opacity="0.71">
<path d="M409.871 182.111L409.242 181.261C408.963 181.478 408.757 181.775 408.652 182.112C408.546 182.448 408.545 182.81 408.65 183.147C408.946 183.813 410.018 183.998 410.351 183.369C410.684 182.74 410.795 182.333 411.165 182.555L409.871 182.111Z" fill="#E9E9A8"/>
</g>
<g style="mix-blend-mode:soft-light" opacity="0.71">
<path d="M419.967 247.906C419.903 247.325 419.702 246.767 419.381 246.278C419.059 245.79 418.627 245.384 418.118 245.095C417.046 244.614 415.492 245.095 415.455 246.427C415.457 246.769 415.56 247.104 415.751 247.388L416.195 247.795C416.801 248.316 417.578 248.593 418.377 248.572C418.776 248.534 419.145 248.344 419.407 248.041C419.669 247.737 419.803 247.345 419.783 246.944L419.967 247.906Z" fill="#E9E9A8"/>
</g>
<g style="mix-blend-mode:soft-light" opacity="0.71">
<path d="M407.059 218.319C407.276 218.517 407.43 218.774 407.503 219.059C407.124 219.02 406.759 218.892 406.438 218.687C406.117 218.481 405.848 218.203 405.654 217.875C405.395 217.542 405.136 217.061 405.321 216.692C405.546 216.489 405.794 216.316 406.061 216.174C406.505 215.804 406.727 214.99 407.318 215.064C407.485 215.091 407.636 215.177 407.745 215.306C407.854 215.435 407.912 215.598 407.91 215.767C407.881 216.1 407.793 216.426 407.651 216.729L406.69 218.726L407.059 218.319Z" fill="#E9E9A8"/>
</g>
<g style="mix-blend-mode:soft-light" opacity="0.71">
<path d="M399.293 212.142C399.438 212.11 399.573 212.04 399.684 211.939C399.794 211.838 399.875 211.71 399.92 211.567C399.965 211.425 399.972 211.273 399.94 211.127C399.907 210.981 399.837 210.846 399.736 210.736C399.414 210.793 399.117 210.948 398.886 211.18C398.79 211.308 398.738 211.464 398.738 211.624C398.738 211.784 398.79 211.94 398.886 212.068C398.93 212.129 398.989 212.179 399.056 212.213C399.124 212.247 399.198 212.265 399.274 212.265C399.35 212.265 399.424 212.247 399.492 212.213C399.559 212.179 399.618 212.129 399.662 212.068L399.293 212.142Z" fill="#E9E9A8"/>
</g>
<g style="mix-blend-mode:soft-light" opacity="0.71">
<path d="M438.201 229.083C438.83 228.565 438.423 227.418 437.646 227.196C437.243 227.137 436.831 227.219 436.481 227.428C436.131 227.637 435.863 227.96 435.723 228.343C435.594 228.663 435.594 229.021 435.723 229.341C435.866 229.574 436.08 229.753 436.333 229.853C436.587 229.954 436.866 229.969 437.129 229.896C437.631 229.712 438.095 229.436 438.497 229.083H438.201Z" fill="#E9E9A8"/>
</g>
<g style="mix-blend-mode:soft-light" opacity="0.71">
<path d="M424.96 237.145L423.407 239.253C423.246 239.446 423.132 239.674 423.074 239.919C423 240.16 423 240.417 423.074 240.658C423.444 241.546 423.999 242.582 424.96 242.508C425.922 242.434 426.366 241.213 426.809 240.289C427.623 238.587 431.987 235.776 430.508 233.557C429.029 231.338 425.959 235.85 424.96 237.145Z" fill="#E9E9A8"/>
</g>
<g style="mix-blend-mode:soft-light" opacity="0.71">
<path d="M433.652 225.162L434.169 225.606C433.713 225.856 433.209 226.007 432.69 226.049C432.431 226.061 432.175 225.993 431.957 225.854C431.739 225.715 431.568 225.512 431.47 225.273C431.47 224.755 431.839 224.163 432.357 224.348C432.851 224.502 433.288 224.798 433.615 225.199L433.652 225.162Z" fill="#E9E9A8"/>
</g>
<g style="mix-blend-mode:soft-light" opacity="0.71">
<path d="M403.324 210.144C403.324 210.551 403.805 210.81 404.212 210.662C404.572 210.493 404.919 210.295 405.247 210.07C405.44 209.988 405.648 209.945 405.858 209.945C406.067 209.945 406.275 209.988 406.468 210.07C406.574 210.125 406.665 210.204 406.736 210.3C406.807 210.396 406.854 210.507 406.875 210.625C406.911 210.771 406.911 210.923 406.875 211.069C406.519 211.786 405.967 212.389 405.284 212.807C404.948 213.025 404.557 213.141 404.156 213.141C403.756 213.141 403.364 213.025 403.028 212.807C402.821 212.618 402.665 212.38 402.575 212.115C402.484 211.85 402.462 211.567 402.51 211.291C402.575 211.023 402.707 210.777 402.895 210.576C403.083 210.375 403.32 210.226 403.583 210.144H403.324Z" fill="#E9E9A8"/>
</g>
<g style="mix-blend-mode:soft-light" opacity="0.71">
<path d="M407.429 200.232C407.505 199.996 407.49 199.741 407.387 199.515C407.285 199.29 407.102 199.11 406.874 199.012C406.635 198.93 406.378 198.915 406.131 198.967C405.884 199.019 405.655 199.137 405.469 199.308C405.284 199.308 405.136 199.715 405.284 199.899C405.404 199.939 405.534 199.939 405.654 199.899L407.503 200.232H407.429Z" fill="#E9E9A8"/>
</g>
<g style="mix-blend-mode:soft-light" opacity="0.71">
<path d="M407.429 227.936C407.278 228.135 407.082 228.297 406.857 228.408C406.633 228.519 406.386 228.577 406.135 228.577C405.884 228.577 405.637 228.519 405.413 228.408C405.188 228.297 404.992 228.135 404.84 227.936C405.29 227.279 405.919 226.765 406.653 226.457C406.834 226.388 407.028 226.357 407.222 226.367C407.416 226.377 407.606 226.427 407.78 226.514C407.954 226.6 408.108 226.722 408.232 226.872C408.356 227.021 408.448 227.195 408.502 227.381L407.725 228.528L407.429 227.936Z" fill="#E9E9A8"/>
</g>
<g style="mix-blend-mode:soft-light" opacity="0.71">
<path d="M410.869 242.1L410.166 241.249C409.918 241.353 409.692 241.504 409.501 241.693C409.57 241.947 409.737 242.164 409.966 242.296C410.194 242.428 410.466 242.463 410.721 242.396L410.869 242.1Z" fill="#E9E9A8"/>
</g>
<g style="mix-blend-mode:soft-light" opacity="0.71">
<path d="M455.547 227.491C456.025 227.899 456.392 228.422 456.612 229.011C456.832 229.6 456.898 230.235 456.804 230.857C456.789 231.02 456.724 231.174 456.62 231.3C456.515 231.347 456.401 231.372 456.287 231.372C456.172 231.372 456.059 231.347 455.954 231.3C454.548 231.042 452.921 230.487 452.699 229.118C452.681 228.827 452.733 228.535 452.852 228.268C452.971 228.001 453.152 227.767 453.381 227.585C453.61 227.404 453.879 227.28 454.166 227.225C454.453 227.17 454.749 227.185 455.029 227.269C455.029 227.639 455.214 228.009 455.325 228.379L455.547 227.491Z" fill="#E9E9A8"/>
</g>
<g style="mix-blend-mode:soft-light" opacity="0.71">
<path d="M383.685 191.614C384.17 192.018 384.543 192.539 384.77 193.128C384.997 193.717 385.069 194.355 384.979 194.98C384.964 195.143 384.899 195.297 384.794 195.423C384.683 195.471 384.564 195.496 384.443 195.496C384.322 195.496 384.203 195.471 384.092 195.423C382.723 195.165 381.059 194.61 380.837 193.241C380.819 192.95 380.871 192.658 380.99 192.391C381.109 192.124 381.29 191.89 381.519 191.708C381.748 191.527 382.017 191.403 382.304 191.348C382.591 191.293 382.887 191.308 383.167 191.392L383.5 192.502L383.685 191.614Z" fill="#E9E9A8"/>
</g>
</g>
<g style="mix-blend-mode:soft-light" opacity="0.51">
<g style="mix-blend-mode:soft-light" opacity="0.51">
<path d="M115.246 39.6408L106.665 35.9422C107.96 35.0916 109.217 34.3149 110.364 33.5752L116.577 36.2751L121.09 38.2723C185.363 66.3838 253.413 84.9135 323.066 93.2694C330.685 94.194 338.341 95.0077 345.997 95.7844C364.489 97.7076 383.648 99.7048 402.214 103.44C410.252 105.039 418.203 107.051 426.033 109.469C426.995 111.059 427.956 112.65 428.881 114.277C419.901 111.268 410.749 108.798 401.475 106.88C382.982 103.181 364.046 101.184 345.627 99.4829C337.934 98.6692 330.278 97.8925 322.622 96.9679C252.602 88.5055 184.203 69.8138 119.61 41.49L115.246 39.6408Z" fill="#F1F1A8"/>
</g>
<g style="mix-blend-mode:soft-light" opacity="0.51">
<path d="M452.477 170.495C434.244 169.274 416.676 163.098 399.625 156.847L389.418 153.149C346.826 137.708 301.75 130.26 256.455 131.179C247.283 131.512 237.963 132.252 228.938 132.955C214.757 134.365 200.508 134.994 186.258 134.841C143.431 133.553 102.14 118.597 68.4225 92.1598C63.7851 88.5549 59.4213 84.6114 55.3667 80.3615C56.1434 79.3999 56.957 78.4383 57.8077 77.5137C61.8021 81.7595 66.1175 85.6916 70.7156 89.275C103.803 115.239 144.33 129.936 186.368 131.216C200.483 131.361 214.595 130.744 228.643 129.367C237.704 128.627 247.135 127.888 256.345 127.592C298.952 126.112 344.148 133.583 390.638 149.783L400.883 153.481C417.304 159.362 434.17 165.428 451.442 166.87C451.812 168.017 452.144 169.274 452.477 170.495Z" fill="#F1F1A8"/>
</g>
</g>
<g style="mix-blend-mode:soft-light" opacity="0.51">
<g style="mix-blend-mode:soft-light" opacity="0.51">
<path d="M433.208 338.447C432.543 339.742 431.84 341.036 431.1 342.146C428.622 342.146 426.144 342.516 423.703 342.627C405.765 343.403 381.799 340.704 369.298 323.357C366.846 319.69 364.693 315.831 362.862 311.818C359.497 304.828 356.316 298.244 350.176 294.694C345.532 292.342 340.273 291.489 335.123 292.253C325.1 293.399 316.224 298.134 306.83 303.127C299.328 307.525 291.317 310.99 282.974 313.445C270.251 316.589 256.715 314.925 244.731 313.445L243.363 313.26C216.092 309.907 188.834 306.492 161.589 303.016C156.315 302.704 151.17 301.266 146.499 298.799C143.925 297.386 141.868 295.191 140.624 292.532C139.381 289.872 139.016 286.886 139.582 284.005C140.638 280.956 142.444 278.221 144.834 276.053C146.225 274.74 147.465 273.276 148.533 271.689C149.872 268.838 150.293 265.64 149.737 262.54C149.18 259.439 147.674 256.587 145.426 254.38C140.497 249.756 134.205 246.849 127.488 246.095C110.475 243.21 92.9439 247.094 76.0047 250.829C61.2106 254.121 45.8248 257.524 30.4019 256.562C20.1407 255.87 10.1023 253.247 0.813745 248.832C0.813745 247.427 0.591791 245.984 0.480835 244.579C9.85924 249.331 20.0975 252.148 30.5868 252.864C45.3809 253.825 60.5449 250.46 74.9691 247.242C92.2412 243.543 110.105 239.438 127.821 242.471C135.328 243.342 142.349 246.626 147.83 251.828C150.666 254.597 152.551 258.193 153.216 262.1C153.88 266.007 153.289 270.025 151.529 273.575C150.356 275.381 148.992 277.055 147.46 278.568C145.517 280.308 144.02 282.49 143.096 284.93C142.79 287.017 143.133 289.148 144.079 291.034C145.025 292.919 146.528 294.468 148.385 295.471C152.598 297.646 157.224 298.906 161.958 299.169C189.352 302.917 216.61 306.443 243.733 309.747H245.064C257.269 311.263 269.918 312.817 282.05 309.747C290.094 307.362 297.819 304.009 305.054 299.761C314.338 294.805 323.954 289.701 334.643 288.665C340.576 287.751 346.647 288.775 351.952 291.587C359.09 295.692 362.677 303.09 366.154 310.08C367.852 313.946 369.882 317.659 372.22 321.175C383.759 337.227 406.468 339.668 423.444 338.928C426.736 338.928 429.991 338.706 433.208 338.447Z" fill="#F1F1A8"/>
</g>
</g>
<g style="mix-blend-mode:soft-light" opacity="0.51">
<g style="mix-blend-mode:soft-light" opacity="0.51">
<path d="M300.949 449.031C299.655 449.475 298.434 449.881 297.25 450.251C293.751 445.586 290.645 440.638 287.967 435.457L285.822 431.759C271.62 407.09 253.46 389.004 233.266 379.388C210.002 368.292 183.262 367.663 157.816 368.514C127.821 369.549 93.7576 373.211 68.3488 392.406L66.1296 389.485C92.3152 369.623 127.118 365.888 157.705 364.815C183.595 363.928 210.89 364.815 234.856 375.911C255.716 385.823 274.468 404.464 289.04 429.761L291.185 433.46C293.938 438.948 297.208 444.162 300.949 449.031V449.031Z" fill="#F1F1A8"/>
</g>
</g>
<g style="mix-blend-mode:soft-light" opacity="0.51">
<g style="mix-blend-mode:soft-light" opacity="0.51">
<path d="M409.02 85.1719L402.769 84.0253C376.271 78.5851 349.265 76.006 322.216 76.3324C318.99 76.5844 315.747 76.1947 312.673 75.1858C305.979 72.5599 303.501 65.8286 301.134 59.3192C300.135 56.4827 298.898 53.7359 297.435 51.1084C291.555 40.7526 278.943 37.202 268.957 37.3499C259.049 37.9867 249.284 40.0418 239.96 43.4525L235.3 44.8949C209.226 52.8098 188.218 55.1768 169.171 52.292C150.714 49.8327 133.703 40.9865 121.09 27.2899C122.236 26.6982 123.346 26.0694 124.492 25.5146C136.487 38.2218 152.507 46.3888 169.836 48.6304C188.329 51.3673 208.856 49.0373 234.376 41.2334L238.999 39.791C248.665 36.2537 258.794 34.1359 269.068 33.5035C280.163 33.5035 294.144 37.202 300.801 49.1112C302.259 51.9329 303.495 54.8636 304.5 57.8767C306.682 63.9053 308.79 69.5641 313.931 71.5983C316.512 72.4056 319.224 72.707 321.92 72.4859C349.242 72.1466 376.522 74.7506 403.287 80.2528L404.951 80.5857C406.468 82.213 407.836 83.7294 409.02 85.1719Z" fill="#F1F1A8"/>
</g>
</g>
<defs>
<radialGradient id="paint0_radial" cx="0" cy="0" r="1" gradientUnits="userSpaceOnUse" gradientTransform="translate(189.475 444.039) scale(449.815)">
<stop offset="0.59" stop-color="#DE595B"/>
<stop offset="1" stop-color="#FE835C"/>
</radialGradient>
</defs>
</svg>
