<svg width="2169" height="757" viewBox="0 0 2169 757" fill="none" xmlns="http://www.w3.org/2000/svg">
<path d="M1973.99 257.122C1973.99 257.122 1985.37 256.144 1988.09 257.122C1990.81 258.1 2003.82 266.927 2007.47 266.818C2011.13 266.71 2019.57 260.448 2021.46 256.687C2023.34 252.926 2030.53 250.557 2032.1 249.839C2033.67 249.122 2042.22 245.839 2044.82 244.6C2052.4 240.969 2081.97 241.86 2081.97 241.86C2081.97 241.86 2047.85 236.708 2035.24 239.556C2027.19 241.36 2005.66 244.382 1998.37 247.882C1991.09 251.383 1988.32 249.078 1985.06 249.839C1981.8 250.6 1973.99 257.122 1973.99 257.122Z" fill="url(#paint0_linear)"/>
<path d="M1348.41 320.574C1348.41 320.574 1362.88 315.811 1365.6 316.789C1368.31 317.768 1381.95 321.531 1384 325.49C1396.26 348.697 1401.99 345.065 1405.41 345.783C1414.81 347.784 1425.39 326.207 1424.21 318.791C1423.87 316.615 1416.56 309.286 1419.18 308.024C1426.73 304.392 1484.59 290.841 1484.59 290.841C1484.59 290.841 1427.61 295.191 1415.01 297.932C1406.98 299.759 1379.97 307.807 1372.71 311.308C1365.45 314.81 1362.67 312.505 1359.4 313.288C1356.13 314.071 1348.41 320.574 1348.41 320.574Z" fill="url(#paint1_linear)"/>
<path d="M1246.58 553.63C1258.82 556.238 1256.94 562.573 1284.12 564.086C1311.3 565.598 1327.91 537.628 1337.71 527.216C1347.51 516.804 1368.46 523.686 1380.03 516.519C1391.6 509.351 1376.87 500.78 1387.14 491.244C1397.41 481.709 1427.62 468.36 1427.62 468.36C1427.62 468.36 1384.04 484.625 1367.66 491.595C1351.28 498.566 1344.72 506.479 1322.31 518.557C1299.89 530.635 1260.98 537.233 1245.73 542.297C1230.48 547.36 1203 571.473 1203 571.473C1203 571.473 1233.02 550.78 1246.58 553.63Z" fill="url(#paint2_linear)"/>
<path d="M1973 140.491C1978.43 144.079 2003.26 163.656 2016.36 160.419C2035.35 155.694 2018.43 145.894 2018.43 145.894C2024.14 142.941 2033.2 150.269 2039.35 149.132C2045.5 147.994 2039.6 141.191 2045.44 138.741C2051.28 136.292 2066.77 135.963 2066.77 135.963C2066.77 135.963 2044.62 135.067 2036.22 135.067C2027.81 135.067 2023.87 137.538 2012.11 138.807C2000.34 140.076 1981.47 135.657 1973.79 135.045C1966.11 134.432 1950.66 140.316 1950.66 140.316C1950.66 140.316 1966.98 136.554 1973 140.491Z" fill="url(#paint3_linear)"/>
<path d="M1690.23 261.578C1696.55 261.021 1730.66 268.501 1736.1 268.924C1741.54 269.347 1755.03 296.639 1764.83 286.065C1769.5 281.034 1767.48 264.694 1768.57 265.095C1769.67 265.496 1787.35 261.733 1787.35 261.733C1787.35 261.733 1765.88 262.691 1755.86 262.156C1745.84 261.622 1744.65 261.511 1737.21 262.646C1729.78 263.781 1690.23 261.578 1690.23 261.578Z" fill="url(#paint4_linear)"/>
<path d="M1999.35 354.704C1994.45 333.583 1967.07 336.41 1960.79 330.45C1954.52 324.491 1932.75 316.143 1918.04 316.604C1903.32 317.064 1878.81 299.076 1878.81 299.076C1878.81 299.076 1886.98 300.259 1892.72 295.417C1898.45 290.575 1885.41 274.515 1896.67 275.435C1907.93 276.356 1914.42 284.374 1925.46 280.606C1936.49 276.838 1950.79 272.324 1956.82 266.65C1962.41 261.413 1981.47 255.892 1984.27 255.103C1980.82 255.87 1953.21 262.114 1951.58 262.333C1949.94 262.552 1910.83 271.601 1891.72 266.715C1872.61 261.829 1866.7 284.813 1860.14 287.026C1853.59 289.238 1871.58 304.553 1878.48 308.497C1885.38 312.441 1907.25 328.347 1921.27 324.929C1940.05 320.35 1958.87 332.619 1958.87 332.619L1959.37 333.123C1962.2 335.906 1975.95 349.599 1978.46 354.77C1981.27 360.554 1967.02 376.088 1965.39 382.223C1963.75 388.357 1953.95 400.934 1940.49 406.74C1927.04 412.546 1904.83 425.691 1892.81 430.95C1880.8 436.208 1858.49 439.976 1846.17 450.668C1833.84 461.36 1827.25 458.293 1819.88 459.717C1812.51 461.141 1737.55 467.32 1734.04 467.32C1730.52 467.32 1717.51 494.225 1693.18 489.229C1668.84 484.234 1629.07 495.802 1613.51 500.184C1597.95 504.566 1572.47 525.753 1568.59 526.191C1564.72 526.629 1514.11 542.535 1510.29 547.377C1506.47 552.219 1504.31 561.531 1501.04 564.445C1497.77 567.359 1479.58 570.295 1469.77 573.581C1459.96 576.868 1417.86 609.338 1417.86 609.338C1433.87 619.64 1450.59 627.843 1467.78 633.833C1496.31 644.108 1530.33 650.462 1556.4 639.726C1602.43 620.687 1607.82 595.118 1613.51 593.672C1619.2 592.226 1630.7 617.028 1658.49 599.5C1686.28 581.973 1697.18 541.812 1697.72 538.811C1698.26 535.809 1718.97 530.31 1722.12 531.449C1725.28 532.588 1737.7 562.122 1764.37 550.992C1791.05 539.862 1821.19 510.043 1824.18 511.139C1827.17 512.234 1834.27 525.271 1851.97 514.097C1869.67 502.923 1898.42 454.174 1901.28 453.1C1904.14 452.027 1928.66 471.154 1942.9 460.747C1957.13 450.34 1942.49 429 1950.25 420.74C1958.02 412.48 1977.22 381.303 1979.26 379.659C1981.31 378.016 2004.26 375.847 1999.35 354.704Z" fill="url(#paint5_linear)"/>
<g style="mix-blend-mode:multiply" opacity="0.1">
<path d="M1967.8 334.384C1965.27 333.474 1962.65 333.017 1960.03 333.024C1962.86 335.809 1976.63 349.519 1979.15 354.696C1981.96 360.487 1967.69 376.04 1966.05 382.182C1964.42 388.324 1954.59 400.915 1941.12 406.728C1927.65 412.541 1905.49 425.769 1893.46 431.033C1881.43 436.298 1859.09 440.071 1846.75 450.776C1834.41 461.48 1827.81 458.409 1820.43 459.835C1813.05 461.261 1737.99 467.447 1734.47 467.447C1730.95 467.447 1717.92 494.384 1693.55 489.383C1669.18 484.382 1629.36 495.964 1613.78 500.351C1598.19 504.738 1572.68 525.95 1568.8 526.389C1564.92 526.828 1514.25 542.753 1510.42 547.601C1506.59 552.449 1504.43 561.772 1501.15 564.689C1497.88 567.607 1479.66 570.546 1469.84 573.836C1460.02 577.127 1417.86 609.636 1417.86 609.636C1433.89 619.95 1450.63 628.163 1467.84 634.16L1483.1 597.834C1485.83 591.253 1489.12 584.256 1494.56 582.479C1499.02 580.987 1504.23 583.532 1508.09 580.176C1511.48 577.28 1512.28 571.204 1514.64 566.795C1519.24 558.021 1528.6 557.297 1536.62 557.472C1554.72 557.889 1573.76 558.635 1589.36 570.963C1596.49 576.6 1602.58 584.453 1609.9 589.652C1609.55 578.457 1607.33 567.51 1603.4 557.62C1599.47 547.729 1593.93 539.148 1587.2 532.509C1594.81 520.61 1605.1 512.356 1616.53 508.994C1648.44 499.715 1683.76 529.855 1713.09 510.595C1718.3 507.195 1722.91 502.391 1727.82 498.267C1738.91 489.031 1751.36 483.136 1764.32 480.992C1777.27 478.848 1790.42 480.506 1802.85 485.851C1810.14 489.076 1817.58 493.617 1825.16 491.598C1834.98 488.966 1841.12 476.243 1848.4 467.052C1853.96 460.084 1860.56 454.778 1867.76 451.484C1874.96 448.19 1882.6 446.984 1890.17 447.946C1893.77 448.429 1897.6 449.372 1900.88 447.31C1902.96 445.702 1904.83 443.666 1906.44 441.277C1919.14 425.484 1939.49 424.957 1952.14 409.054C1958.92 400.542 1962.73 388.434 1969.52 379.945C1973.97 374.373 1979.83 370.029 1981.94 362.396C1985.22 350.463 1976.95 337.63 1967.8 334.384Z" fill="#DB406B"/>
</g>
<path d="M2154.44 372.638C2143.81 364.438 2107.69 384.806 2099.72 380.378C2091.76 375.949 2077.31 368.56 2068.64 363.737C2059.96 358.913 2022.66 342.623 2020.68 341.812C2022.31 342.908 2048.18 360.382 2053.12 362.75C2070.3 370.994 2068.05 394.015 2077.91 398.531C2087.78 403.048 2091.97 388.095 2106.27 387.569C2123.58 386.889 2152.25 358.19 2155.78 385.376C2159.56 414.799 2130.73 434.882 2108.9 447.686C2097.01 454.702 2087.19 459.569 2085.9 462.639C2082.2 471.408 2063.96 477.986 2054.09 483.357C2044.22 488.729 2025.76 497.06 2018.74 503.638C2011.73 510.215 2010.45 520.958 1988.18 525.716C1965.91 530.473 1833.47 612.12 1833.47 612.12C1833.47 612.12 1880.65 632.434 1912.24 631.803C1941.49 631.219 1957.48 627.866 1984.86 612.12C2012.24 596.375 1993.24 566.079 2029.04 549.35C2043.55 542.576 2055.77 520.498 2056.38 520.498C2056.98 520.498 2068.31 533.28 2083.59 526.329C2098.87 519.379 2099.14 483.226 2103.23 477.745C2107.32 472.263 2123.09 453.255 2125.66 451.26C2128.23 449.265 2167.27 448.497 2168.12 427.757C2168.97 407.016 2165.08 380.838 2154.44 372.638Z" fill="url(#paint6_linear)"/>
<g style="mix-blend-mode:multiply" opacity="0.1">
<path d="M2118.32 448.281C2115.2 447.576 2112.05 447.238 2108.89 447.271C2097 454.297 2087.18 459.172 2085.89 462.245C2082.19 471.028 2063.95 477.615 2054.08 482.994C2044.21 488.373 2025.76 496.717 2018.74 503.303C2011.72 509.89 2010.44 520.649 1988.17 525.413C1965.9 530.178 1833.47 611.898 1833.47 611.898H1891C1895.11 604.363 1900.04 597.702 1905.63 592.138C1923.39 575.912 1944.7 568.206 1965.25 561.004C1969.26 559.577 1973.53 558.172 1977.49 559.84C1983.18 562.234 1987.5 570.687 1993.44 569.787C1994.9 562.146 1985.54 559.928 1982.2 553.429C1978.86 546.93 1982.46 538.258 1987.35 534.459C1992.25 530.661 1998.1 530.068 2003.39 527.411C2012.55 522.822 2019.75 512.305 2029.09 508.705C2035.44 506.268 2042.18 507.212 2048.73 506.729C2058.64 505.966 2068.26 501.915 2076.73 494.938C2078.98 493.15 2081.06 490.997 2082.93 488.527C2084.93 485.445 2086.8 482.212 2088.52 478.844C2096.16 465.451 2107.39 456.691 2118.32 448.281Z" fill="#DB406B"/>
</g>
<path d="M466.398 587.11C466.398 587.11 456.756 591.614 454.065 591.63C451.373 591.645 437.156 588.095 433.996 589.361C430.837 590.627 425.453 598.813 425.012 602.708C424.57 606.602 419.042 610.979 417.897 612.111C416.752 613.243 410.327 618.855 408.447 620.774C402.979 626.381 376.824 635.08 376.824 635.08C376.824 635.08 408.327 628.649 418.443 622.116C424.912 617.955 442.78 608.408 448.032 603.01C453.284 597.612 456.443 598.741 459.05 597.031C461.656 595.32 466.398 587.11 466.398 587.11Z" fill="url(#paint7_linear)"/>
<path d="M993.395 331.024C993.395 331.024 982.258 339.832 979.569 339.846C976.88 339.86 963.74 340.941 960.682 338.133C942.509 321.761 938.666 326.774 935.445 327.242C926.576 328.507 924.235 350.777 927.644 356.888C928.641 358.681 937.388 362.75 935.503 364.693C930.056 370.294 883.775 400.701 883.775 400.701C883.775 400.701 932.233 378.626 942.387 372.186C948.827 368.013 969.871 352.315 975.102 346.923C980.332 341.531 983.504 342.657 986.115 340.923C988.726 339.189 993.395 331.024 993.395 331.024Z" fill="url(#paint8_linear)"/>
<path d="M1007.77 94.4718C996.221 96.1135 995.839 89.9668 971.573 97.358C947.306 104.749 941.738 134.548 936.504 146.799C931.27 159.05 910.73 159.746 902.907 169.726C895.085 179.706 910.72 182.483 904.789 194.119C898.858 205.755 876.705 227.121 876.705 227.121C876.705 227.121 909.621 198.918 921.721 187.566C933.821 176.215 937.018 167.19 952.755 149.437C968.493 131.683 1000.42 113.435 1012.14 104.114C1023.87 94.7933 1040.18 64.8877 1040.18 64.8877C1040.18 64.8877 1020.55 92.6156 1007.77 94.4718Z" fill="url(#paint9_linear)"/>
<path d="M504.662 688.835C498.759 687.438 470.757 678.27 460.337 685.301C445.239 695.523 463.185 698.672 463.185 698.672C459.135 703.086 448.859 699.58 443.839 702.548C438.819 705.516 446.17 709.574 441.843 713.591C437.517 717.607 424.068 722.861 424.068 722.861C424.068 722.861 443.74 716.543 451.091 713.849C458.443 711.155 461.097 707.729 470.985 702.847C480.873 697.964 498.803 695.779 505.719 693.852C512.635 691.926 524.26 681.826 524.26 681.826C524.26 681.826 511.194 690.348 504.662 688.835Z" fill="url(#paint10_linear)"/>
<path d="M713.242 492.233C707.887 494.748 675.649 499.138 670.753 500.513C665.856 501.887 645.31 482.331 640.121 494.726C637.645 500.627 644.657 514.273 643.57 514.274C642.484 514.274 628.219 523.235 628.219 523.235C628.219 523.235 646.7 515.513 655.636 512.768C664.572 510.024 665.651 509.739 671.793 506.362C677.935 502.984 713.242 492.233 713.242 492.233Z" fill="url(#paint11_linear)"/>
<path d="M412.925 509.864C423.987 526.771 447.035 515.521 454.437 518.722C461.839 521.924 483.564 522.247 496.287 517.128C509.01 512.009 536.229 519.887 536.229 519.887C536.229 519.887 528.699 521.472 525.232 527.548C521.765 533.623 538.326 543.493 528.177 546.298C518.029 549.104 509.781 544.168 501.336 551.003C492.891 557.837 481.825 566.371 478.367 573.27C475.155 579.643 460.251 590.584 458.058 592.171C460.83 590.394 482.982 576.08 484.342 575.364C485.702 574.648 517.022 554.191 535.306 552.34C553.59 550.488 551.399 528.483 556.424 524.445C561.449 520.408 540.794 512.778 533.494 511.539C526.195 510.3 501.961 503.395 490.786 510.882C475.823 520.909 455.429 516.206 455.429 516.206L454.824 515.928C451.458 514.4 435.041 506.826 431.181 503.109C426.867 498.95 434.356 480.789 433.82 474.898C433.283 469.006 437.831 454.859 447.739 445.466C457.647 436.074 472.867 417.45 481.693 408.998C490.518 400.546 508.83 390.095 516.185 376.789C523.54 363.483 530.286 364.055 536.279 360.446C542.272 356.836 605.875 327.398 608.949 326.271C612.024 325.145 614.781 297.433 637.677 294.001C660.572 290.568 691.657 267.697 703.866 258.874C716.076 250.052 731.578 223.345 734.827 221.72C738.076 220.094 777.251 189.953 779.045 184.49C780.839 179.028 779.741 170.189 781.667 166.591C783.593 162.994 798.568 154.592 806.095 148.573C813.622 142.553 840.05 100.645 840.05 100.645C822.739 96.765 805.482 94.9476 788.523 95.2179C760.259 95.3773 728.462 100.724 709.094 118.475C674.928 149.89 678.406 173.99 673.893 177.079C669.38 180.168 651.36 162.158 632.669 186.402C613.977 210.646 617.314 249.278 617.805 252.078C618.295 254.877 601.939 266.328 598.814 266.342C595.689 266.357 575.351 244.5 555.581 262.79C535.81 281.08 519 316.833 516.032 316.834C513.064 316.834 502.677 307.703 490.772 323.155C478.867 338.606 469.341 390.476 467.183 392.332C465.025 394.189 437.441 385.315 428.322 398.984C419.202 412.654 438.858 426.63 434.713 436.346C430.568 446.062 423.761 479.497 422.5 481.59C421.239 483.683 401.857 492.938 412.925 509.864Z" fill="url(#paint12_linear)"/>
<g style="mix-blend-mode:multiply" opacity="0.1">
<path d="M447.043 517.528C449.554 517.511 451.987 517.073 454.282 516.225C450.911 514.696 434.472 507.114 430.607 503.393C426.287 499.228 433.788 481.045 433.251 475.147C432.714 469.248 437.269 455.083 447.191 445.678C457.113 436.274 472.262 417.595 481.099 409.132C489.936 400.669 508.274 390.205 515.639 376.882C523.005 363.56 529.76 364.132 535.762 360.518C541.763 356.904 605.452 327.426 608.531 326.298C611.61 325.17 614.373 297.424 637.299 293.986C660.225 290.549 691.353 267.648 703.58 258.814C715.806 249.979 731.33 223.239 734.584 221.612C737.837 219.984 777.066 189.804 778.863 184.335C780.66 178.865 779.561 170.016 781.49 166.414C783.418 162.812 798.414 154.399 805.952 148.372C813.489 142.345 839.955 100.384 839.955 100.384C822.62 96.5001 805.341 94.6814 788.358 94.9529L786.658 131.626C786.377 138.26 785.742 145.437 781.557 148.734C778.126 151.472 772.756 150.914 770.453 155.089C768.417 158.709 769.663 164.282 769.015 168.895C767.804 178.047 759.845 181.682 752.771 184.1C736.8 189.539 719.906 194.989 702.306 189.204C694.255 186.56 686.41 181.641 678.342 179.438C682.238 189.121 687.691 197.986 694.3 205.38C700.909 212.773 708.504 218.506 716.525 222.156C713.68 235.007 707.319 245.53 698.403 252.133C673.453 270.485 632.887 255.439 613.4 281.693C609.936 286.337 607.438 292.02 604.464 297.202C597.726 308.838 588.72 317.987 578.073 324.017C567.425 330.046 555.389 332.811 542.801 332.12C535.394 331.634 527.423 330.049 521.439 334.244C513.691 339.696 512.4 352.795 508.975 363.172C506.348 371.049 502.278 377.807 497.033 382.997C491.789 388.188 485.491 391.693 478.555 393.28C475.25 394.012 471.596 394.415 469.393 397.269C468.09 399.342 467.099 401.725 466.459 404.331C460.41 422.221 442.779 429.205 436.808 447.175C433.608 456.795 434.154 468.611 430.932 478.217C428.824 484.519 425.09 490.198 425.69 497.553C426.652 509.044 437.998 517.621 447.043 517.528Z" fill="#DB406B"/>
</g>
<path d="M271.484 543.896C283.418 547.66 308.484 518.262 316.876 519.582C325.268 520.902 340.278 522.734 349.412 524.174C358.546 525.613 396.41 527.905 398.402 527.979C396.619 527.545 368.383 520.551 363.3 520.063C345.625 518.359 340.22 497.494 330.139 496.706C320.058 495.918 321.188 510.343 308.844 515.388C293.915 521.534 278.034 555.834 266.226 533.182C253.485 508.651 272.272 481.836 287.265 463.635C295.423 453.683 302.452 446.277 302.599 443.177C303.023 434.318 316.877 422.714 323.787 414.851C330.698 406.988 344.176 393.781 348.209 385.775C352.241 377.77 349.914 367.962 367.873 356.659C385.832 345.356 475.531 231.459 475.531 231.459C475.531 231.459 427.74 228.813 400.304 239.492C374.893 249.384 361.982 257.442 343.077 279.996C324.171 302.551 350.508 322.965 324.547 349.08C314.021 359.661 310.405 382.896 309.876 383.09C309.346 383.284 295.341 375.731 284.198 386.712C273.055 397.693 284.417 429.408 282.595 435.516C280.773 441.623 273.067 463.311 271.459 465.88C269.851 468.45 235.938 481.638 241.843 500.058C247.749 518.477 259.549 540.132 271.484 543.896Z" fill="url(#paint13_linear)"/>
<g style="mix-blend-mode:multiply" opacity="0.1">
<path d="M278.838 466.133C281.788 465.752 284.655 465.037 287.407 463.995C295.562 454.034 302.589 446.622 302.734 443.518C303.154 434.649 317.004 423.037 323.912 415.167C330.819 407.297 344.293 394.08 348.322 386.066C352.352 378.053 350.019 368.231 367.975 356.923C385.932 345.614 475.602 231.654 475.602 231.654L425.268 250.099C424.089 258.009 421.91 265.418 418.805 272.078C408.461 291.971 392.292 305.544 376.621 318.434C373.571 320.968 370.285 323.566 366.286 323.376C360.537 323.108 354.047 317.097 349.139 319.788C350.315 326.94 359.214 325.88 364.218 330.496C369.222 335.112 368.854 343.854 365.791 348.746C362.728 353.638 357.793 356.034 354.021 360.053C347.476 367.006 344.549 378.516 337.529 384.661C332.756 388.829 326.555 390.165 320.983 392.686C312.553 396.531 305.436 403.16 300.269 411.977C298.87 414.265 297.738 416.816 296.899 419.575C296.137 422.913 295.539 426.34 295.108 429.84C292.716 444.008 285.704 455.272 278.838 466.133Z" fill="#DB406B"/>
</g>
<path d="M1214.7 473.816C1214.7 473.816 1203.46 475.824 1200.66 475.097C1197.87 474.369 1184.1 466.762 1180.48 467.202C1176.85 467.642 1169.01 474.644 1167.47 478.561C1165.94 482.477 1159 485.49 1157.5 486.348C1156 487.205 1147.79 491.25 1145.31 492.721C1138.09 497.025 1108.56 498.824 1108.56 498.824C1108.56 498.824 1143.01 500.855 1155.3 496.874C1163.16 494.345 1184.33 489.38 1191.26 485.232C1198.2 481.085 1201.16 483.128 1204.34 482.075C1207.52 481.021 1214.7 473.816 1214.7 473.816Z" fill="url(#paint14_linear)"/>
<path d="M1831.93 353.797C1831.93 353.797 1817.95 359.855 1815.16 359.127C1812.37 358.399 1798.44 355.891 1796.05 352.134C1781.72 330.137 1776.35 334.274 1772.88 333.87C1763.34 332.732 1754.76 355.18 1756.61 362.459C1757.15 364.594 1765.09 371.229 1762.6 372.723C1755.41 377.027 1699.01 395.778 1699.01 395.778C1699.01 395.778 1755.36 386.27 1767.67 382.395C1775.5 379.846 1801.66 369.379 1808.57 365.232C1815.49 361.085 1818.46 363.128 1821.65 362.051C1824.84 360.974 1831.93 353.797 1831.93 353.797Z" fill="url(#paint15_linear)"/>
<path d="M1912.17 112.455C1899.74 110.969 1901.04 104.489 1873.84 105.452C1846.63 106.415 1832.63 135.779 1823.82 147.038C1815.01 158.297 1793.51 153.346 1782.64 161.535C1771.78 169.724 1787.22 176.922 1777.86 187.351C1768.5 197.78 1739.62 213.819 1739.62 213.819C1739.62 213.819 1781.54 193.662 1797.23 185.232C1812.91 176.802 1818.72 168.326 1839.94 154.262C1861.16 140.197 1899.32 130.092 1914.05 123.664C1928.78 117.235 1953.95 90.7266 1953.95 90.7266C1953.95 90.7266 1925.94 114.06 1912.17 112.455Z" fill="url(#paint16_linear)"/>
<path d="M1226.29 589.875C1220.55 586.796 1194.04 569.555 1181.3 573.969C1162.82 580.399 1180.56 588.621 1180.56 588.621C1175.14 592.08 1165.45 585.606 1159.42 587.298C1153.4 588.99 1159.9 595.228 1154.3 598.198C1148.71 601.169 1133.31 602.903 1133.31 602.903C1133.31 602.903 1155.46 601.783 1163.82 601.02C1172.19 600.256 1175.89 597.437 1187.49 595.105C1199.1 592.772 1218.29 595.458 1226 595.37C1233.7 595.283 1248.55 588.02 1248.55 588.02C1248.55 588.02 1232.64 593.249 1226.29 589.875Z" fill="url(#paint17_linear)"/>
<path d="M1496.89 443.601C1490.64 444.73 1456 440.379 1450.54 440.452C1445.08 440.526 1429.17 414.571 1420.37 425.992C1416.17 431.427 1419.67 447.515 1418.55 447.215C1417.42 446.916 1400.15 452.269 1400.15 452.269C1400.15 452.269 1421.45 449.365 1431.48 448.987C1441.5 448.609 1442.7 448.611 1450 446.805C1457.3 444.999 1496.89 443.601 1496.89 443.601Z" fill="url(#paint18_linear)"/>
<path d="M1180.58 378.942C1187.38 399.53 1214.39 394.228 1221.18 399.593C1227.98 404.957 1250.42 411.292 1265.02 409.498C1279.63 407.703 1305.68 423.389 1305.68 423.389C1305.68 423.389 1297.44 422.954 1292.16 428.297C1286.89 433.64 1301.34 448.448 1290.04 448.555C1278.74 448.662 1271.55 441.265 1260.9 446.02C1250.26 450.776 1236.43 456.57 1230.94 462.769C1225.84 468.491 1207.37 475.721 1204.65 476.76C1208.02 475.683 1234.94 466.957 1236.55 466.59C1238.16 466.224 1276.29 453.659 1295.76 456.789C1315.24 459.919 1319.04 436.493 1325.37 433.694C1331.69 430.895 1312.38 417.278 1305.15 413.977C1297.92 410.677 1274.7 396.823 1261.04 401.501C1242.76 407.767 1222.91 397.257 1222.91 397.257L1222.36 396.801C1219.29 394.287 1204.36 381.899 1201.38 376.979C1198.05 371.474 1210.84 354.709 1211.91 348.451C1212.98 342.194 1221.6 328.779 1234.47 321.775C1247.34 314.77 1268.27 299.661 1279.75 293.333C1291.24 287.005 1313.12 281.226 1324.42 269.458C1335.72 257.691 1342.56 260.147 1349.77 258.059C1356.98 255.972 1431.07 243.009 1434.57 242.69C1438.07 242.371 1448.58 214.395 1473.27 217.159C1497.96 219.923 1536.52 204.789 1551.61 199.012C1566.71 193.235 1590.16 169.821 1593.98 169.033C1597.8 168.244 1646.75 147.807 1650.12 142.637C1653.49 137.468 1654.79 127.999 1657.78 124.8C1660.77 121.601 1678.62 117.024 1688.09 112.861C1697.56 108.697 1736.54 72.5361 1736.54 72.5361C1719.66 63.7314 1702.27 57.0809 1684.6 52.6772C1655.25 45.0366 1620.8 41.7991 1595.81 54.8587C1551.7 78.0008 1548.65 103.954 1543.12 105.91C1537.59 107.867 1523.88 84.2133 1497.8 104.193C1471.72 124.172 1464.51 165.157 1464.24 168.195C1463.98 171.233 1443.85 178.591 1440.61 177.743C1437.36 176.895 1422.31 148.612 1396.76 162.119C1371.2 175.626 1343.9 208.06 1340.82 207.241C1337.74 206.422 1329.49 194.084 1312.88 206.819C1296.26 219.555 1272.06 270.714 1269.31 272.043C1266.56 273.372 1240.4 256.552 1227.17 268.209C1213.94 279.866 1230.46 299.788 1223.48 308.719C1216.5 317.65 1200.21 350.443 1198.32 352.265C1196.43 354.087 1173.78 358.332 1180.58 378.942Z" fill="url(#paint19_linear)"/>
<g style="mix-blend-mode:multiply" opacity="0.1">
<path d="M1213.85 396.312C1216.45 396.988 1219.1 397.206 1221.71 396.961C1218.64 394.443 1203.69 382.041 1200.71 377.114C1197.38 371.603 1210.18 354.818 1211.25 348.553C1212.32 342.287 1220.96 328.856 1233.84 321.843C1246.73 314.831 1267.6 299.645 1279.1 293.309C1290.6 286.973 1312.51 281.186 1323.83 269.405C1335.14 257.623 1341.99 260.082 1349.21 257.992C1356.43 255.901 1430.62 242.922 1434.13 242.602C1437.63 242.283 1448.16 214.273 1472.88 217.04C1497.61 219.807 1536.21 204.655 1551.33 198.87C1566.45 193.086 1589.94 169.643 1593.76 168.854C1597.58 168.065 1646.6 147.602 1649.97 142.426C1653.35 137.25 1654.65 127.77 1657.65 124.567C1660.64 121.364 1678.52 116.782 1688 112.613C1697.48 108.444 1736.51 72.2394 1736.51 72.2394C1719.61 63.4244 1702.19 56.766 1684.51 52.3573L1672.61 89.9188C1670.49 96.7207 1667.85 103.988 1662.6 106.251C1658.28 108.143 1652.87 106.081 1649.33 109.775C1646.22 112.966 1645.97 119.09 1644.02 123.695C1640.24 132.851 1630.98 134.422 1622.98 134.976C1604.92 136.206 1585.89 137.192 1569.24 126.332C1561.62 121.366 1554.84 114.099 1547.08 109.586C1548.45 120.703 1551.66 131.403 1556.47 140.895C1561.28 150.388 1567.57 158.431 1574.88 164.43C1568.38 176.972 1558.88 186.127 1547.81 190.513C1516.87 202.653 1478.95 175.846 1451.5 197.691C1446.62 201.55 1442.46 206.753 1437.95 211.306C1427.74 221.511 1415.88 228.513 1403.17 231.825C1390.46 235.137 1377.22 234.68 1364.36 230.486C1356.81 227.937 1348.98 224.091 1341.62 226.79C1332.08 230.303 1327.12 243.531 1320.7 253.346C1315.8 260.789 1309.71 266.673 1302.84 270.607C1295.97 274.542 1288.47 276.437 1280.84 276.167C1277.21 276.014 1273.31 275.422 1270.24 277.773C1268.31 279.563 1266.63 281.761 1265.24 284.286C1254.03 301.169 1233.82 303.541 1222.66 320.528C1216.69 329.62 1213.99 342.025 1208 351.096C1204.07 357.049 1198.63 361.907 1197.22 369.701C1195.04 381.882 1204.44 393.91 1213.85 396.312Z" fill="#DB406B"/>
</g>
<path d="M1024.5 375.17C1035.84 382.37 1069.95 358.806 1078.29 362.492C1086.63 366.179 1101.69 372.224 1110.77 376.24C1119.84 380.256 1158.47 393.089 1160.52 393.717C1158.79 392.774 1131.44 377.722 1126.3 375.813C1108.44 369.164 1108.6 346.034 1098.36 342.432C1088.13 338.831 1085.32 354.102 1071.12 355.925C1053.94 358.175 1028 389.36 1022.01 362.607C1015.57 333.649 1042.46 311.03 1063.04 296.296C1074.25 288.228 1083.58 282.489 1084.59 279.315C1087.47 270.246 1105.05 262.038 1114.38 255.792C1123.72 249.547 1141.35 239.573 1147.74 232.385C1154.13 225.197 1154.43 214.383 1176.17 207.622C1197.92 200.861 1322.4 107.52 1322.4 107.52C1322.4 107.52 1273.57 91.5765 1242.16 95.0742C1213.08 98.3138 1197.47 103.105 1171.63 121.273C1145.8 139.44 1167.47 167.885 1133.34 187.797C1119.5 195.862 1109.33 218.959 1108.73 219.014C1108.13 219.069 1095.69 207.368 1081.1 215.678C1066.51 223.988 1069.54 260.016 1065.96 265.846C1062.38 271.676 1048.4 292.039 1046.03 294.259C1043.65 296.479 1004.84 300.79 1005.87 321.522C1006.91 342.255 1013.17 367.971 1024.5 375.17Z" fill="url(#paint20_linear)"/>
<g style="mix-blend-mode:multiply" opacity="0.1">
<path d="M1053.61 296.558C1056.77 296.978 1059.94 297.028 1063.08 296.708C1074.29 288.631 1083.63 282.885 1084.63 279.706C1087.52 270.624 1105.09 262.407 1114.43 256.154C1123.76 249.9 1141.39 239.915 1147.78 232.718C1154.17 225.52 1154.46 214.69 1176.21 207.923C1197.95 201.155 1322.42 107.741 1322.42 107.741L1265.12 112.967C1261.72 120.844 1257.41 127.926 1252.35 133.975C1236.13 151.748 1215.61 161.358 1195.8 170.397C1191.94 172.182 1187.82 173.969 1183.72 172.667C1177.83 170.801 1172.76 162.775 1166.93 164.211C1166.17 171.953 1175.7 173.311 1179.61 179.48C1183.52 185.649 1180.73 194.613 1176.2 198.84C1171.67 203.067 1165.89 204.19 1160.87 207.315C1152.16 212.718 1145.95 223.845 1136.97 228.28C1130.87 231.284 1124.07 230.956 1117.6 232.031C1107.79 233.691 1098.58 238.599 1090.79 246.316C1088.71 248.302 1086.83 250.635 1085.2 253.264C1083.48 256.516 1081.92 259.905 1080.5 263.415C1074.11 277.447 1063.73 287.191 1053.61 296.558Z" fill="#DB406B"/>
</g>
<path d="M194.24 257.122C194.24 257.122 182.862 256.144 180.144 257.122C177.427 258.1 164.411 266.927 160.76 266.818C157.109 266.71 148.662 260.448 146.779 256.687C144.896 252.926 137.709 250.557 136.137 249.839C134.565 249.122 126.019 245.839 123.416 244.6C115.836 240.969 86.2688 241.86 86.2688 241.86C86.2688 241.86 120.387 236.708 132.994 239.556C141.049 241.36 162.577 244.382 169.863 247.882C177.148 251.383 179.915 249.078 183.173 249.839C186.431 250.6 194.24 257.122 194.24 257.122Z" fill="url(#paint21_linear)"/>
<path d="M819.825 320.574C819.825 320.574 805.351 315.811 802.637 316.789C799.922 317.768 786.282 321.531 784.238 325.49C771.972 348.697 766.247 345.065 762.829 345.783C753.425 347.784 742.844 326.207 744.021 318.791C744.365 316.615 751.675 309.286 749.059 308.024C741.503 304.392 683.64 290.841 683.64 290.841C683.64 290.841 740.62 295.191 753.229 297.932C761.259 299.759 788.261 307.807 795.522 311.308C802.784 314.81 805.564 312.505 808.835 313.288C812.106 314.071 819.825 320.574 819.825 320.574Z" fill="url(#paint22_linear)"/>
<path d="M921.653 553.63C909.414 556.238 911.298 562.573 884.117 564.086C856.936 565.598 840.323 537.628 830.525 527.216C820.728 516.804 799.772 523.686 788.205 516.519C776.638 509.351 791.367 500.78 781.095 491.244C770.822 481.709 740.61 468.36 740.61 468.36C740.61 468.36 784.191 484.625 800.575 491.595C816.959 498.566 823.513 506.479 845.926 518.557C868.339 530.635 907.251 537.233 922.505 542.297C937.758 547.36 965.234 571.473 965.234 571.473C965.234 571.473 935.219 550.78 921.653 553.63Z" fill="url(#paint23_linear)"/>
<path d="M195.235 140.491C189.803 144.079 164.973 163.656 151.876 160.419C132.888 155.694 149.809 145.894 149.809 145.894C144.097 142.941 135.038 150.269 128.884 149.132C122.73 147.994 128.638 141.191 122.796 138.741C116.953 136.292 101.461 135.963 101.461 135.963C101.461 135.963 123.616 135.067 132.019 135.067C140.421 135.067 144.36 137.538 156.127 138.807C167.894 140.076 186.767 135.657 194.447 135.045C202.128 134.432 217.571 140.316 217.571 140.316C217.571 140.316 201.258 136.554 195.235 140.491Z" fill="url(#paint24_linear)"/>
<path d="M478.005 261.578C471.681 261.021 437.575 268.501 432.133 268.924C426.692 269.347 413.209 296.639 403.404 286.065C398.731 281.034 400.757 264.694 399.662 265.095C398.567 265.496 380.885 261.733 380.885 261.733C380.885 261.733 402.358 262.691 412.376 262.156C422.394 261.622 423.587 261.511 431.022 262.646C438.458 263.781 478.005 261.578 478.005 261.578Z" fill="url(#paint25_linear)"/>
<path d="M168.882 354.704C173.786 333.583 201.164 336.41 207.44 330.45C213.717 324.491 235.488 316.143 250.199 316.604C264.91 317.064 289.427 299.076 289.427 299.076C289.427 299.076 281.255 300.259 275.518 295.417C269.781 290.575 282.824 274.515 271.562 275.435C260.3 276.356 253.811 284.374 242.778 280.606C231.745 276.838 217.443 272.324 211.412 266.65C205.822 261.413 186.764 255.892 183.969 255.103C187.417 255.87 215.024 262.114 216.659 262.333C218.293 262.552 257.407 271.601 276.515 266.715C295.622 261.829 301.539 284.813 308.094 287.026C314.648 289.238 296.652 304.553 289.754 308.497C282.857 312.441 260.987 328.347 246.963 324.929C228.182 320.35 209.369 332.619 209.369 332.619L208.862 333.123C206.035 335.906 192.288 349.599 189.771 354.77C186.96 360.554 201.213 376.088 202.847 382.223C204.482 388.357 214.289 400.934 227.741 406.74C241.193 412.546 263.406 425.691 275.42 430.95C287.433 436.208 309.744 439.976 322.069 450.668C334.393 461.36 340.98 458.293 348.352 459.717C355.723 461.141 430.682 467.32 434.196 467.32C437.71 467.32 450.721 494.225 475.059 489.229C499.397 484.234 539.164 495.802 554.725 500.184C570.285 504.566 595.768 525.753 599.641 526.191C603.515 526.629 654.12 542.535 657.944 547.377C661.769 552.219 663.927 561.531 667.196 564.445C670.465 567.359 688.657 570.295 698.464 573.581C708.271 576.868 750.376 609.338 750.376 609.338C734.364 619.64 717.647 627.843 700.458 633.833C671.919 644.108 637.905 650.462 611.835 639.726C565.807 620.687 560.413 595.118 554.725 593.672C549.037 592.226 537.53 617.028 509.743 599.5C481.956 581.973 471.054 541.812 470.515 538.811C469.976 535.809 449.266 530.31 446.112 531.449C442.957 532.588 430.535 562.122 403.86 550.992C377.184 539.862 347.044 510.043 344.053 511.139C341.062 512.234 333.968 525.271 316.266 514.097C298.564 502.923 269.813 454.174 266.953 453.1C264.092 452.027 239.575 471.154 225.338 460.747C211.102 450.34 225.747 429 217.983 420.74C210.219 412.48 191.013 381.303 188.97 379.659C186.927 378.016 163.979 375.847 168.882 354.704Z" fill="url(#paint26_linear)"/>
<g style="mix-blend-mode:multiply" opacity="0.1">
<path d="M200.431 334.384C202.966 333.474 205.581 333.017 208.205 333.024C205.374 335.809 191.609 349.519 189.088 354.696C186.273 360.487 200.545 376.04 202.182 382.182C203.819 388.324 213.639 400.915 227.11 406.728C240.58 412.541 262.742 425.769 274.772 431.033C286.802 436.298 309.143 440.071 321.484 450.776C333.825 461.48 340.421 458.409 347.803 459.835C355.185 461.261 430.246 467.447 433.765 467.447C437.284 467.447 450.312 494.384 474.683 489.383C499.054 484.382 538.876 495.964 554.458 500.351C570.04 504.738 595.557 525.95 599.436 526.389C603.315 526.828 653.988 542.753 657.818 547.601C661.648 552.449 663.809 561.772 667.082 564.689C670.356 567.607 688.573 570.546 698.393 573.836C708.214 577.127 750.376 609.636 750.376 609.636C734.342 619.95 717.603 628.163 700.39 634.16L685.135 597.834C682.402 591.253 679.112 584.256 673.678 582.479C669.21 580.987 664.005 583.532 660.142 580.176C656.754 577.28 655.952 571.204 653.595 566.795C648.996 558.021 639.634 557.297 631.614 557.472C613.512 557.889 594.476 558.635 578.878 570.963C571.742 576.6 565.653 584.453 558.337 589.652C558.687 578.457 560.909 567.51 564.838 557.62C568.767 547.729 574.304 539.148 581.039 532.509C573.427 520.61 563.131 512.356 551.708 508.994C519.792 499.715 484.471 529.855 455.141 510.595C449.936 507.195 445.32 502.391 440.41 498.267C429.324 489.031 416.871 483.136 403.915 480.992C390.96 478.848 377.811 480.506 365.382 485.851C358.098 489.076 350.651 493.617 343.073 491.598C333.252 488.966 327.115 476.243 319.831 467.052C314.276 460.084 307.679 454.778 300.478 451.484C293.277 448.19 285.636 446.984 278.062 447.946C274.461 448.429 270.631 449.372 267.357 447.31C265.278 445.702 263.4 443.666 261.792 441.277C249.091 425.484 228.747 424.957 216.095 409.054C209.318 400.542 205.505 388.434 198.712 379.945C194.26 374.373 188.401 370.029 186.289 362.396C183.016 350.463 191.281 337.63 200.431 334.384Z" fill="#DB406B"/>
</g>
<path d="M13.7925 372.638C24.4284 364.438 60.5412 384.806 68.5099 380.378C76.4787 375.949 90.9271 368.56 99.5994 363.737C108.272 358.913 145.579 342.623 147.559 341.812C145.923 342.908 120.053 360.382 115.111 362.75C97.9304 370.994 100.188 394.015 90.3216 398.531C80.4548 403.048 76.266 388.095 61.9648 387.569C44.6529 386.889 15.9851 358.19 12.4507 385.376C8.67093 414.799 37.5023 434.882 59.3303 447.686C71.2261 454.702 81.0438 459.569 82.3365 462.639C86.0345 471.408 104.279 477.986 114.146 483.357C124.013 488.729 142.47 497.06 149.49 503.638C156.509 510.215 157.786 520.958 180.056 525.716C202.326 530.473 334.767 612.12 334.767 612.12C334.767 612.12 287.587 632.434 255.998 631.803C226.741 631.219 210.756 627.866 183.377 612.12C155.999 596.375 174.999 566.079 139.197 549.35C124.684 542.576 112.461 520.498 111.855 520.498C111.25 520.498 99.9267 533.28 84.6437 526.329C69.3608 519.379 69.099 483.226 65.0083 477.745C60.9176 472.263 45.1437 453.255 42.5748 451.26C40.0058 449.265 0.963928 448.497 0.113068 427.757C-0.737793 407.016 3.15668 380.838 13.7925 372.638Z" fill="url(#paint27_linear)"/>
<g style="mix-blend-mode:multiply" opacity="0.1">
<path d="M49.9166 448.281C53.0302 447.576 56.1838 447.238 59.3413 447.271C71.2366 454.297 81.054 459.172 82.3466 462.245C86.0444 471.028 104.288 477.615 114.155 482.994C124.021 488.373 142.478 496.717 149.497 503.303C156.517 509.89 157.793 520.649 180.062 525.413C202.331 530.178 334.767 611.898 334.767 611.898H277.237C273.128 604.363 268.197 597.702 262.609 592.138C244.84 575.912 223.536 568.206 202.985 561.004C198.977 559.577 194.706 558.172 190.746 559.84C185.052 562.234 180.733 570.687 174.793 569.787C173.337 562.146 182.696 559.928 186.034 553.429C189.372 546.93 185.772 538.258 180.88 534.459C175.988 530.661 170.13 530.068 164.845 527.411C155.682 522.822 148.483 512.305 139.14 508.705C132.791 506.268 126.05 507.212 119.505 506.729C109.59 505.966 99.9709 501.915 91.5095 494.938C89.2545 493.15 87.1717 490.997 85.3081 488.527C83.3073 485.445 81.439 482.212 79.7123 478.844C72.0711 465.451 60.8466 456.691 49.9166 448.281Z" fill="#DB406B"/>
</g>
<defs>
<linearGradient id="paint0_linear" x1="2027.97" y1="238.686" x2="2027.97" y2="266.818" gradientUnits="userSpaceOnUse">
<stop stop-color="#FFBAAA"/>
<stop offset="1" stop-color="#FFDD98"/>
</linearGradient>
<linearGradient id="paint1_linear" x1="20835.2" y1="-7730.35" x2="20835.2" y2="-6335.94" gradientUnits="userSpaceOnUse">
<stop stop-color="#FFBAAA"/>
<stop offset="1" stop-color="#FFDD98"/>
</linearGradient>
<linearGradient id="paint2_linear" x1="19408.8" y1="-6192.74" x2="19408.8" y2="-1342.3" gradientUnits="userSpaceOnUse">
<stop stop-color="#FFBAAA"/>
<stop offset="1" stop-color="#FFDD98"/>
</linearGradient>
<linearGradient id="paint3_linear" x1="59111.5" y1="18416.8" x2="59010.5" y2="18708.5" gradientUnits="userSpaceOnUse">
<stop stop-color="#FFBAAA"/>
<stop offset="1" stop-color="#FFDD98"/>
</linearGradient>
<linearGradient id="paint4_linear" x1="35175.8" y1="-1474.91" x2="35148.8" y2="-1126.63" gradientUnits="userSpaceOnUse">
<stop stop-color="#FFBAAA"/>
<stop offset="1" stop-color="#FFDD98"/>
</linearGradient>
<linearGradient id="paint5_linear" x1="188804" y1="-62900.9" x2="188804" y2="6580.06" gradientUnits="userSpaceOnUse">
<stop stop-color="#FFBAAA"/>
<stop offset="1" stop-color="#FFDD98"/>
</linearGradient>
<linearGradient id="paint6_linear" x1="169310" y1="-32719.6" x2="169310" y2="612.121" gradientUnits="userSpaceOnUse">
<stop stop-color="#FFBAAA"/>
<stop offset="1" stop-color="#FFDD98"/>
</linearGradient>
<linearGradient id="paint7_linear" x1="425.082" y1="620.546" x2="416.063" y2="595.933" gradientUnits="userSpaceOnUse">
<stop stop-color="#FFBAAA"/>
<stop offset="1" stop-color="#FFDD98"/>
</linearGradient>
<linearGradient id="paint8_linear" x1="-13474.8" y1="13622.7" x2="-13921.9" y2="12402.7" gradientUnits="userSpaceOnUse">
<stop stop-color="#FFBAAA"/>
<stop offset="1" stop-color="#FFDD98"/>
</linearGradient>
<linearGradient id="paint9_linear" x1="-12719.9" y1="11820.1" x2="-14275" y2="7576.31" gradientUnits="userSpaceOnUse">
<stop stop-color="#FFBAAA"/>
<stop offset="1" stop-color="#FFDD98"/>
</linearGradient>
<linearGradient id="paint10_linear" x1="-55346.9" y1="3017.76" x2="-55352.1" y2="2730.12" gradientUnits="userSpaceOnUse">
<stop stop-color="#FFBAAA"/>
<stop offset="1" stop-color="#FFDD98"/>
</linearGradient>
<linearGradient id="paint11_linear" x1="-28027.4" y1="12747.4" x2="-28115.4" y2="12434.1" gradientUnits="userSpaceOnUse">
<stop stop-color="#FFBAAA"/>
<stop offset="1" stop-color="#FFDD98"/>
</linearGradient>
<linearGradient id="paint12_linear" x1="-142747" y1="115746" x2="-165023" y2="54955" gradientUnits="userSpaceOnUse">
<stop stop-color="#FFBAAA"/>
<stop offset="1" stop-color="#FFDD98"/>
</linearGradient>
<linearGradient id="paint13_linear" x1="-135368" y1="83089.4" x2="-146054" y2="53926.7" gradientUnits="userSpaceOnUse">
<stop stop-color="#FFBAAA"/>
<stop offset="1" stop-color="#FFDD98"/>
</linearGradient>
<linearGradient id="paint14_linear" x1="1162.62" y1="497.079" x2="1160.06" y2="469.064" gradientUnits="userSpaceOnUse">
<stop stop-color="#FFBAAA"/>
<stop offset="1" stop-color="#FFDD98"/>
</linearGradient>
<linearGradient id="paint15_linear" x1="-16842.9" y1="10141.7" x2="-16969.6" y2="8753.03" gradientUnits="userSpaceOnUse">
<stop stop-color="#FFBAAA"/>
<stop offset="1" stop-color="#FFDD98"/>
</linearGradient>
<linearGradient id="paint16_linear" x1="-15562.1" y1="8480.85" x2="-16002.7" y2="3650.47" gradientUnits="userSpaceOnUse">
<stop stop-color="#FFBAAA"/>
<stop offset="1" stop-color="#FFDD98"/>
</linearGradient>
<linearGradient id="paint17_linear" x1="-57336.2" y1="-12420.2" x2="-57262.2" y2="-12719.9" gradientUnits="userSpaceOnUse">
<stop stop-color="#FFBAAA"/>
<stop offset="1" stop-color="#FFDD98"/>
</linearGradient>
<linearGradient id="paint18_linear" x1="-31692.5" y1="5214.86" x2="-31697.2" y2="4865.57" gradientUnits="userSpaceOnUse">
<stop stop-color="#FFBAAA"/>
<stop offset="1" stop-color="#FFDD98"/>
</linearGradient>
<linearGradient id="paint19_linear" x1="-179105" y1="80342.9" x2="-185417" y2="11149.3" gradientUnits="userSpaceOnUse">
<stop stop-color="#FFBAAA"/>
<stop offset="1" stop-color="#FFDD98"/>
</linearGradient>
<linearGradient id="paint20_linear" x1="-162434" y1="48515.6" x2="-165462" y2="15321.7" gradientUnits="userSpaceOnUse">
<stop stop-color="#FFBAAA"/>
<stop offset="1" stop-color="#FFDD98"/>
</linearGradient>
<linearGradient id="paint21_linear" x1="140.263" y1="238.686" x2="140.263" y2="266.818" gradientUnits="userSpaceOnUse">
<stop stop-color="#FFBAAA"/>
<stop offset="1" stop-color="#FFDD98"/>
</linearGradient>
<linearGradient id="paint22_linear" x1="-18666.9" y1="-7730.35" x2="-18666.9" y2="-6335.94" gradientUnits="userSpaceOnUse">
<stop stop-color="#FFBAAA"/>
<stop offset="1" stop-color="#FFDD98"/>
</linearGradient>
<linearGradient id="paint23_linear" x1="-17240.6" y1="-6192.74" x2="-17240.6" y2="-1342.3" gradientUnits="userSpaceOnUse">
<stop stop-color="#FFBAAA"/>
<stop offset="1" stop-color="#FFDD98"/>
</linearGradient>
<linearGradient id="paint24_linear" x1="-56943.3" y1="18416.8" x2="-56842.3" y2="18708.5" gradientUnits="userSpaceOnUse">
<stop stop-color="#FFBAAA"/>
<stop offset="1" stop-color="#FFDD98"/>
</linearGradient>
<linearGradient id="paint25_linear" x1="-33007.6" y1="-1474.91" x2="-32980.6" y2="-1126.63" gradientUnits="userSpaceOnUse">
<stop stop-color="#FFBAAA"/>
<stop offset="1" stop-color="#FFDD98"/>
</linearGradient>
<linearGradient id="paint26_linear" x1="-186636" y1="-62900.9" x2="-186636" y2="6580.06" gradientUnits="userSpaceOnUse">
<stop stop-color="#FFBAAA"/>
<stop offset="1" stop-color="#FFDD98"/>
</linearGradient>
<linearGradient id="paint27_linear" x1="-167142" y1="-32719.6" x2="-167142" y2="612.121" gradientUnits="userSpaceOnUse">
<stop stop-color="#FFBAAA"/>
<stop offset="1" stop-color="#FFDD98"/>
</linearGradient>
</defs>
</svg>
