<svg width="2125" height="940" viewBox="0 0 2125 940" fill="none" xmlns="http://www.w3.org/2000/svg">
<path d="M469.811 478.105L500.647 397.217L483.373 380.984L488.819 265.688L470.089 234.783L419.864 213L349 245.154L368.112 320.908L394.057 380.811L388.612 389.829L406.544 505.091L431.761 509.669L451.775 481.608L469.811 478.105Z" fill="url(#paint0_linear)"/>
<g style="mix-blend-mode:multiply" opacity="0.5">
<path d="M353.232 246.892L374.668 313.974L402.139 361.321L410.672 328.265L409.319 263.888L418.823 298.227L433.01 353.655L424.824 341.48V379.704L437.935 395.66L477.477 408.702L500.647 397.221L469.811 478.108L451.775 481.612L431.761 509.672L406.544 505.094L388.612 389.832L394.057 380.814L368.112 320.911L349 245.157L353.232 246.892Z" fill="#610051"/>
</g>
<g style="mix-blend-mode:multiply" opacity="0.5">
<path d="M477.476 275.714L467.764 326.078L472.62 339.397L454.93 323.13L461.347 285.946L466.203 287.577L477.476 275.714Z" fill="#610051"/>
</g>
<path d="M500.647 397.22L483.373 380.987L466.204 389.104L437.935 389.381V395.66L477.477 408.701L500.647 397.22Z" fill="#083E98"/>
<path d="M488.819 265.688L451.15 267.18L421.737 264.266L404.532 249.42L411.539 229.823L383.894 233.222L369.465 252.854L349 245.154L419.863 213L470.089 234.783L488.819 265.688Z" fill="#082D91"/>
<g style="mix-blend-mode:multiply" opacity="0.5">
<path d="M411.539 229.826L404.532 249.424L409.319 263.888L389.305 255.078L369.465 252.858L383.894 233.225L411.539 229.826Z" fill="#610051"/>
</g>
<path d="M394.057 380.81L422.395 360.83L431.76 356.321L470.748 354.24L433.009 353.65L421.528 354.24L411.539 362.634L396.069 376.335L394.057 380.81Z" fill="#FF8337"/>
<path d="M1841.79 346.955L1841.89 330.375L1835.16 308.349L1815.95 283.93L1775.71 251.984L1763.74 272.241L1780.63 327.947L1784.28 356.875L1817.85 378.276L1828.54 354.759L1841.79 346.955Z" fill="url(#paint1_linear)"/>
<g style="mix-blend-mode:multiply" opacity="0.5">
<path d="M1841.79 346.953L1820.39 338.108L1799.09 315.458L1779.46 275.777L1777.83 287.293L1763.74 272.239L1781.99 332.628L1784.28 356.873L1817.85 378.274L1828.54 354.757L1841.79 346.953Z" fill="#610051"/>
</g>
<path d="M1775.71 251.984L1779.46 275.779L1777.83 287.295L1763.74 272.241L1775.71 251.984Z" fill="#083982"/>
<path d="M1438.39 470.395L1429.69 484.512L1424 506.815L1427.74 537.651L1445.54 585.864L1466.28 574.765L1480.78 518.365L1492.71 491.761L1475.09 456L1453.76 470.568L1438.39 470.395Z" fill="url(#paint2_linear)"/>
<g style="mix-blend-mode:multiply" opacity="0.5">
<path d="M1438.39 470.395L1452.09 489.021L1458.55 519.475L1454.7 563.561L1462.08 554.543L1466.28 574.765L1482.06 513.648L1492.71 491.761L1475.09 456L1453.76 470.568L1438.39 470.395Z" fill="#610051"/>
</g>
<path d="M1445.54 585.865L1454.7 563.562L1456.67 528.529L1466.28 574.766L1445.54 585.865Z" fill="#903982"/>
<path d="M1492.71 491.761L1478.98 515.382L1464.13 564.358L1466.28 574.764L1482.58 517.949L1492.71 491.761Z" fill="#903982"/>
<path d="M1984.62 378.726L1994.44 353.682L1988.47 328.188L1989.79 310.845L1985.35 303.457L1962.84 319.274L1961.11 342.097L1960.52 369.846L1978.97 387.293L1984.62 378.726Z" fill="url(#paint3_linear)"/>
<g style="mix-blend-mode:multiply" opacity="0.5">
<path d="M1988.47 328.189L1986.74 350.909L1979.91 359.337L1971.37 368.703L1960.52 369.847L1978.97 387.294L1984.62 378.727L1994.44 353.684L1988.47 328.189Z" fill="#610051"/>
</g>
<path d="M1985.35 303.457L1983.13 316.603L1980.56 334.64L1962.18 347.855L1962.84 319.274L1985.35 303.457Z" fill="#083982"/>
<path d="M831.271 125.91L847.712 84.0094L837.687 41.3803L839.907 12.3829L832.485 0L794.85 26.5001L791.937 64.6199L791 111.064L821.836 140.201L831.271 125.91Z" fill="url(#paint4_linear)"/>
<g style="mix-blend-mode:multiply" opacity="0.5">
<path d="M837.687 41.3818L834.808 79.363L823.362 93.4802L809.106 109.124L791 111.066L821.836 140.202L831.271 125.912L847.712 84.0109L837.687 41.3818Z" fill="#610051"/>
</g>
<path d="M832.484 0L828.773 21.9909L824.472 52.1677L793.775 74.228L794.85 26.5001L832.484 0Z" fill="#081476"/>
<path d="M677.418 722.3V707.281L680.54 693.441L668.226 677L659.971 684.076L659 707.281L664.897 728.162L677.418 722.3Z" fill="url(#paint5_linear)"/>
<g style="mix-blend-mode:multiply" opacity="0.5">
<path d="M680.54 693.44L675.06 703.222L672.666 712.344H664.897L659 707.28L664.897 728.161L677.418 722.299V707.28L680.54 693.44Z" fill="#610051"/>
</g>
<path d="M31.7373 91.0434V65.1677L37.0791 41.3037L15.8511 13L1.62999 25.2094L-0.000141144 65.1677L10.1628 101.172L31.7373 91.0434Z" fill="url(#paint6_linear)"/>
<g style="mix-blend-mode:multiply" opacity="0.5">
<path d="M37.0791 41.3037L27.6097 58.1611L23.5168 73.8739H10.1628L-0.000141144 65.1677L10.1628 101.172L31.7373 91.0434V65.1677L37.0791 41.3037Z" fill="#610051"/>
</g>
<path d="M521.226 664.675L532.776 644.87L524.244 619.098L515.433 613.514L502.669 647.332L505.756 662.421L521.226 664.675Z" fill="url(#paint7_linear)"/>
<g style="mix-blend-mode:multiply" opacity="0.5">
<path d="M532.776 644.873L519.804 649.833L506.068 647.821L502.669 647.336L505.756 662.424L521.226 664.679L532.776 644.873Z" fill="#610051"/>
</g>
<path d="M1776.06 573.978L1780.04 551.952L1763.64 531.14L1753.65 528.955L1753.27 564.265L1761.11 577.099L1776.06 573.978Z" fill="url(#paint8_linear)"/>
<g style="mix-blend-mode:multiply" opacity="0.5">
<path d="M1780.04 551.945L1769.81 560.825L1756.53 563.565L1753.27 564.259L1761.11 577.093L1776.06 573.971L1780.04 551.945Z" fill="#610051"/>
</g>
<path d="M2256.96 775.816L2258.71 727.842L2246.17 718.222L2257.5 709.063L2277.66 646.521L2258.05 602.493L2239.67 583.767L2208.38 576.407L2192.63 586.541L2181.97 572.826L2139.51 543.921L2084.37 543.355L2030.2 560.88L2025.37 627.959L2024.03 644.767L2029.06 758.255L2026.15 761.061L2049.28 796.314L2042.66 807.455L2094.23 875.404L2119.6 926.578L2205.77 855.118L2256.96 775.816Z" fill="url(#paint9_linear)"/>
<g style="mix-blend-mode:multiply" opacity="0.5">
<path d="M2239.67 583.768L2260.6 618.412L2250.84 642.446L2249.67 631.413L2209.93 693.515L2192.69 669.187L2194.38 599.763L2170.77 689.497L2162.74 734.42L2173.44 749.43L2192.6 789.436L2174.33 820.966L2126.38 826.192L2099.5 810.15L2112.15 771.175L2083.19 673.747L2070.6 666.318L2087.35 598.196L2061.35 651.492L2024.03 644.769L2030.65 753.574L2026.15 761.062L2028.38 764.882L2041.02 779.603L2066.76 793.855L2064.49 806.453L2042.66 807.457L2060.2 831.292L2094.23 875.406L2104.04 899.494L2119.6 926.579L2213.68 845.645L2256.96 775.817L2258.71 727.844L2246.17 718.224L2257.5 709.065L2277.66 646.522L2258.05 602.494L2239.67 583.768Z" fill="#610051"/>
</g>
<path d="M2192.63 586.541L2164.93 569.717L2127.6 568.885L2114.97 574.389L2086.18 600.514L2090.22 582.798L2081.05 574.674L2054.24 571.541L2030.2 560.879L2084.37 543.355L2139.51 543.921L2181.97 572.825L2192.63 586.541Z" fill="#083982"/>
<path d="M2207.11 788.624L2174.33 820.965L2126.38 826.192L2096.87 818.422L2089.28 822.386L2099.5 810.149L2112.58 773.45L2159.52 758.74L2180.62 759.65L2207.11 788.624Z" fill="#083982"/>
<path d="M2223.62 829.609L2207.11 788.619L2177.44 758.761L2162.75 734.415L2114.84 688.809L2083.19 673.742L2070.6 666.313L2047.07 663.899L2024.44 651.36L2025.24 664.274L2033.42 665.044L2043.13 664.541L2052.09 666.959L2070.47 670.344L2082.69 676.619L2113.32 689.385L2158.6 741.207L2169.91 753.316L2172.29 760.011L2177.13 761.728L2206.18 789.535L2220.38 825.86L2218.15 838.393L2223.62 829.609Z" fill="#FF8337"/>
<path d="M2026.73 609.303L2042.3 610.796L2055.68 612.307L2065.09 613.377L2081.65 613.334L2096.84 622.005L2116.95 642.758L2135.76 658.6L2175.56 671.365L2132.25 660.192L2117.66 645.376L2113.27 641.23L2093.37 621.509L2082.98 620.758L2075.16 620.513L2071.78 615.11L2049.29 613.361L2039.34 614.222L2026.16 617.229L2026.73 609.303Z" fill="#FF8337"/>
<path style="mix-blend-mode:screen" opacity="0.61" d="M2138.82 743.294C2150.51 753.733 2165.4 756.098 2172.21 748.532C2179.02 740.967 2174.97 726.395 2163.32 715.925C2151.66 705.454 2136.74 703.121 2129.93 710.686C2123.12 718.251 2127.13 732.82 2138.82 743.294Z" fill="url(#paint10_radial)"/>
<defs>
<linearGradient id="paint0_linear" x1="-92722.8" y1="63638.2" x2="-88931.4" y2="39005.1" gradientUnits="userSpaceOnUse">
<stop stop-color="#003D9F"/>
<stop offset="1" stop-color="#1D0F6D"/>
</linearGradient>
<linearGradient id="paint1_linear" x1="-15103.1" y1="25218.1" x2="-14490.5" y2="20924.7" gradientUnits="userSpaceOnUse">
<stop stop-color="#002974"/>
<stop offset="1" stop-color="#00093E"/>
</linearGradient>
<linearGradient id="paint2_linear" x1="42846.2" y1="-9160.96" x2="40016.4" y2="-5715.93" gradientUnits="userSpaceOnUse">
<stop stop-color="#002974"/>
<stop offset="1" stop-color="#00093E"/>
</linearGradient>
<linearGradient id="paint3_linear" x1="-3580.76" y1="18095.9" x2="-3426.97" y2="16069.5" gradientUnits="userSpaceOnUse">
<stop stop-color="#002974"/>
<stop offset="1" stop-color="#00093E"/>
</linearGradient>
<linearGradient id="paint4_linear" x1="814.846" y1="139.751" x2="825.487" y2="-0.462844" gradientUnits="userSpaceOnUse">
<stop stop-color="#0D0E51"/>
<stop offset="1" stop-color="#000022"/>
</linearGradient>
<linearGradient id="paint5_linear" x1="-13957.1" y1="17508.2" x2="-13957.1" y2="16753.6" gradientUnits="userSpaceOnUse">
<stop stop-color="#003D9F"/>
<stop offset="1" stop-color="#1D2486"/>
</linearGradient>
<linearGradient id="paint6_linear" x1="-29561.8" y1="17135.1" x2="-29561.8" y2="14893.7" gradientUnits="userSpaceOnUse">
<stop stop-color="#003D9F"/>
<stop offset="1" stop-color="#1D0F6D"/>
</linearGradient>
<linearGradient id="paint7_linear" x1="-17977.9" y1="13465.7" x2="-17872.5" y2="12738.7" gradientUnits="userSpaceOnUse">
<stop stop-color="#003D9F"/>
<stop offset="1" stop-color="#1D2486"/>
</linearGradient>
<linearGradient id="paint8_linear" x1="-1151.19" y1="12321.2" x2="-1288.63" y2="11659.8" gradientUnits="userSpaceOnUse">
<stop stop-color="#003D9F"/>
<stop offset="1" stop-color="#1D2486"/>
</linearGradient>
<linearGradient id="paint9_linear" x1="2120.81" y1="926.702" x2="2159.86" y2="546.01" gradientUnits="userSpaceOnUse">
<stop stop-color="#002974"/>
<stop offset="1" stop-color="#00093E"/>
</linearGradient>
<radialGradient id="paint10_radial" cx="0" cy="0" r="1" gradientUnits="userSpaceOnUse" gradientTransform="translate(16535.6 -6555.06) rotate(132.016) scale(267.565 366.212)">
<stop stop-color="#FFAE00"/>
<stop offset="0.12" stop-color="#D18E00"/>
<stop offset="0.3" stop-color="#926400"/>
<stop offset="0.48" stop-color="#5E4000"/>
<stop offset="0.64" stop-color="#352400"/>
<stop offset="0.78" stop-color="#181000"/>
<stop offset="0.91" stop-color="#060400"/>
<stop offset="1"/>
</radialGradient>
</defs>
</svg>
