<svg width="139" height="138" viewBox="0 0 139 138" fill="none" xmlns="http://www.w3.org/2000/svg">
<path fill-rule="evenodd" clip-rule="evenodd" d="M124.631 18.8254C127.028 18.8254 129.414 20.8753 129.414 23.6084C129.414 41.0374 121.214 50.9504 108.915 54.3667C109.946 50.6033 110.965 46.1674 110.965 42.0677V18.8254H124.631ZM28.9607 18.8254V41.7207C28.9607 46.1674 29.644 50.2671 31.0105 54.703C18.7115 51.2866 10.165 41.3845 10.165 23.6084C10.165 20.8753 12.2149 18.8254 14.948 18.8254H28.9607ZM45.0232 40.0179C47.7563 40.0179 49.8062 42.4039 49.8062 44.8008C49.8062 50.6033 53.2226 55.05 58.0055 57.4361C60.0554 58.1193 61.4219 61.1995 60.3916 63.2494C59.8385 64.9304 57.6476 66.156 55.7496 66.156C55.3483 66.156 54.947 66.1017 54.5891 65.9825C45.7065 62.5661 40.5765 54.0197 40.5765 44.8008C40.5765 42.4039 42.6263 40.0179 45.0232 40.0179ZM33.3966 0.376953C30.6634 0.376953 28.6136 2.42675 28.6136 5.15995V9.94284H14.6118C6.74862 9.94284 0.946167 15.7561 0.946167 23.6084C0.946167 49.92 17.3449 63.2494 35.4573 64.6159C46.0427 80.3313 55.9557 77.262 55.9557 83.7477C55.9557 90.2442 53.2226 96.7299 49.1229 101.177H89.7835C85.3368 96.7299 82.9507 90.2442 82.9507 83.7477C82.9507 77.262 93.1999 80.3313 103.796 64.6159C122.581 63.2494 138.307 49.5838 138.307 23.6084C138.307 15.7561 132.147 9.94284 124.631 9.94284H110.965V5.15995C110.965 2.42675 108.915 0.376953 106.182 0.376953H33.3966Z" fill="white"/>
<path fill-rule="evenodd" clip-rule="evenodd" d="M35.4567 110.407L27.9298 131.589C27.2465 134.658 28.9601 137.738 32.3765 137.738H106.182C109.598 137.738 111.648 134.658 110.628 131.589L103.112 110.407H35.4567Z" fill="white"/>
</svg>
