<svg width="144" height="144" viewBox="0 0 144 144" fill="none" xmlns="http://www.w3.org/2000/svg">
<path d="M103.496 54.0002C103.496 60.2303 101.649 66.3205 98.1876 71.5006C94.7263 76.6808 89.8067 80.7182 84.0508 83.1024C78.295 85.4865 71.9614 86.1103 65.851 84.8949C59.7406 83.6795 54.1278 80.6794 49.7224 76.274C45.3171 71.8687 42.317 66.2559 41.1016 60.1455C39.8861 54.0351 40.5099 47.7015 42.8941 41.9456C45.2783 36.1898 49.3157 31.2701 54.4958 27.8089C59.676 24.3476 65.7662 22.5002 71.9963 22.5002C80.3477 22.5095 88.3544 25.8313 94.2598 31.7366C100.165 37.642 103.487 45.6487 103.496 54.0002ZM121.496 54.0002C121.498 61.2936 119.885 68.497 116.773 75.0934C113.662 81.6898 109.129 87.5158 103.5 92.1534V135C103.5 135.767 103.304 136.521 102.93 137.191C102.557 137.861 102.018 138.425 101.366 138.828C100.713 139.231 99.9686 139.461 99.2023 139.496C98.4361 139.53 97.6737 139.368 96.9876 139.025L71.9957 126.531L47.0123 139.025C46.3262 139.368 45.5639 139.53 44.7976 139.495C44.0313 139.461 43.2865 139.231 42.634 138.828C41.9815 138.425 41.4429 137.861 41.0694 137.191C40.6958 136.522 40.4997 135.767 40.4997 135V92.1585C34.0687 86.85 29.0834 80.0027 26.0065 72.2522C22.9296 64.5017 21.861 56.0995 22.8998 47.8256C23.9387 39.5517 27.0513 31.6744 31.9487 24.9251C36.846 18.1759 43.3694 12.7735 50.9131 9.21963C58.4567 5.66574 66.776 4.07558 75.0986 4.59677C83.4212 5.11797 91.4771 7.73364 98.5184 12.2009C105.56 16.6682 111.358 22.8422 115.375 30.1497C119.392 37.4572 121.498 45.6613 121.496 54.0002ZM112.496 54.0002C112.496 45.99 110.121 38.1597 105.671 31.4996C101.221 24.8394 94.8954 19.6484 87.495 16.583C80.0946 13.5177 71.9514 12.7156 64.0951 14.2783C56.2389 15.8411 49.0225 19.6983 43.3585 25.3623C37.6944 31.0264 33.8372 38.2428 32.2745 46.099C30.7118 53.9552 31.5138 62.0984 34.5792 69.4988C37.6445 76.8992 42.8355 83.2245 49.4957 87.6747C56.1559 92.1249 63.9862 94.5002 71.9963 94.5002C82.7339 94.4881 93.0282 90.2173 100.621 82.6247C108.213 75.0321 112.484 64.7377 112.496 54.0002Z" fill="white"/>
<path d="M70.9064 61.536H79.2584V66H63.5624V61.932C66.1544 60.156 68.4344 58.188 70.4024 56.028C72.3944 53.868 73.3904 51.96 73.3904 50.304C73.3904 49.296 73.0904 48.504 72.4904 47.928C71.8904 47.328 70.9784 47.028 69.7544 47.028C67.7144 47.028 65.7824 47.784 63.9584 49.296V44.22C64.7504 43.644 65.7824 43.152 67.0544 42.744C68.3264 42.336 69.5744 42.132 70.7984 42.132C73.2464 42.132 75.1904 42.78 76.6304 44.076C78.0944 45.348 78.8264 47.136 78.8264 49.44C78.8264 53.592 76.1864 57.624 70.9064 61.536Z" fill="#FB9480"/>
</svg>
