<svg width="43" height="62" viewBox="0 0 43 62" fill="none" xmlns="http://www.w3.org/2000/svg">
<path d="M40.8046 0.000524456H26.5613C26.2685 0.00314248 25.9815 0.0830973 25.7293 0.232353C25.477 0.381608 25.2683 0.594905 25.1241 0.850805L15.3977 18.5263C17.2987 18.0232 19.2573 17.772 21.2233 17.7791C25.0939 17.8013 28.9002 18.7744 32.31 20.6134L42.2161 2.57713C42.3973 2.3278 42.5039 2.03177 42.5235 1.72375C42.5431 1.41573 42.4748 1.10849 42.3267 0.838053C42.1785 0.567612 41.9567 0.345183 41.6871 0.196843C41.4175 0.0485031 41.1114 -0.0195979 40.8046 0.000524456ZM14.7817 45.658V43.0814L13.9605 42.5919V45.7611C13.767 45.8317 13.6008 45.9619 13.4855 46.1332C13.3703 46.3044 13.3119 46.5079 13.3189 46.7144C13.3189 46.9878 13.4271 47.2499 13.6196 47.4432C13.8121 47.6365 14.0732 47.7451 14.3454 47.7451C14.6177 47.7451 14.8788 47.6365 15.0713 47.4432C15.2638 47.2499 15.372 46.9878 15.372 46.7144C15.3864 46.4998 15.3382 46.2856 15.2334 46.0981C15.1286 45.9105 14.9716 45.7576 14.7817 45.658ZM21.2489 46.431C20.9243 46.4247 20.6064 46.3361 20.3251 46.1733L15.7826 43.5967V45.658L20.3507 48.2346C20.5976 48.3874 20.8819 48.4682 21.172 48.4682C21.462 48.4682 21.7463 48.3874 21.9932 48.2346L26.5613 45.658C26.8114 45.51 27.0187 45.2991 27.1628 45.046C27.3068 44.793 27.3825 44.5066 27.3825 44.2151V43.1072L22.1728 46.1733C21.8857 46.3152 21.5689 46.3859 21.2489 46.3795V46.431ZM29.179 39.5257L22.0702 35.4289C21.8233 35.2761 21.539 35.1952 21.2489 35.1952C20.9589 35.1952 20.6746 35.2761 20.4277 35.4289L13.3189 39.5257C13.1966 39.5988 13.0953 39.7025 13.0249 39.8267C12.9546 39.9509 12.9176 40.0914 12.9176 40.2342C12.9176 40.3771 12.9546 40.5176 13.0249 40.6418C13.0953 40.766 13.1966 40.8698 13.3189 40.9428L20.8383 45.2715C20.9588 45.3558 21.1021 45.4009 21.2489 45.4009C21.3958 45.4009 21.5391 45.3558 21.6596 45.2715L29.179 40.9428C29.3013 40.8698 29.4026 40.766 29.473 40.6418C29.5433 40.5176 29.5803 40.3771 29.5803 40.2342C29.5803 40.0914 29.5433 39.9509 29.473 39.8267C29.4026 39.7025 29.3013 39.5988 29.179 39.5257Z" fill="black"/>
<path d="M18.7341 4.02142L17.297 1.44481C17.166 1.17955 16.9652 0.955305 16.7164 0.796351C16.4676 0.637396 16.1803 0.549785 15.8855 0.542999H1.64218C1.3369 0.527956 1.0335 0.598731 0.76611 0.747362C0.498715 0.895994 0.277932 1.11659 0.128595 1.38432C-0.0207422 1.65206 -0.0927078 1.95632 -0.079207 2.26289C-0.0657063 2.56945 0.0327253 2.86615 0.205015 3.11961L9.75186 20.4086L18.7341 4.02142ZM21.3005 21.8773C17.3675 21.8569 13.517 23.0092 10.237 25.1881C6.95699 27.367 4.39505 30.4745 2.87587 34.1167C1.35668 37.759 0.948643 41.772 1.70345 45.6474C2.45826 49.5227 4.34194 53.0858 7.11579 55.8852C9.88963 58.6846 13.4288 60.5942 17.2847 61.3721C21.1406 62.15 25.1398 61.7611 28.7754 60.2548C32.411 58.7484 35.5193 56.1924 37.7065 52.9106C39.8938 49.6288 41.0614 45.769 41.0614 41.8203C41.0648 39.2025 40.5542 36.6098 39.5587 34.1904C38.5633 31.7709 37.1026 29.5722 35.2601 27.72C33.4176 25.8678 31.2296 24.3984 28.8211 23.3959C26.4125 22.3933 23.8308 21.8773 21.2235 21.8773H21.3005ZM21.3005 53.5696C18.9859 53.5696 16.7233 52.8805 14.7989 51.5895C12.8744 50.2984 11.3744 48.4634 10.4887 46.3165C9.60295 44.1696 9.3712 41.8072 9.82275 39.5281C10.2743 37.2489 11.3889 35.1554 13.0255 33.5122C14.6621 31.869 16.7473 30.75 19.0174 30.2967C21.2875 29.8433 23.6405 30.076 25.7789 30.9653C27.9172 31.8546 29.7449 33.3605 31.0308 35.2927C32.3167 37.2248 33.0031 39.4965 33.0031 41.8203C33.0031 43.3697 32.6979 44.9039 32.1049 46.3345C31.512 47.765 30.6431 49.0637 29.5483 50.1557C28.4534 51.2478 27.1542 52.1116 25.7255 52.6975C24.2968 53.2834 22.7668 53.5798 21.2235 53.5696H21.3005Z" fill="black"/>
</svg>
